%TF.GenerationSoftware,KiCad,Pcbnew,(5.0.0)*%
%TF.CreationDate,2018-12-16T12:55:05+01:00*%
%TF.ProjectId,Kicad_Oscillator_Drone,4B696361645F4F7363696C6C61746F72,rev?*%
%TF.SameCoordinates,Original*%
%TF.FileFunction,Soldermask,Bot*%
%TF.FilePolarity,Negative*%
%FSLAX46Y46*%
G04 Gerber Fmt 4.6, Leading zero omitted, Abs format (unit mm)*
G04 Created by KiCad (PCBNEW (5.0.0)) date 12/16/18 12:55:05*
%MOMM*%
%LPD*%
G01*
G04 APERTURE LIST*
%ADD10C,1.000000*%
%ADD11C,0.150000*%
%ADD12C,3.600000*%
%ADD13C,2.400000*%
%ADD14C,2.000000*%
%ADD15O,2.400000X3.900000*%
%ADD16O,3.700000X2.400000*%
%ADD17R,4.400000X2.400000*%
%ADD18C,2.740000*%
%ADD19R,2.000000X2.000000*%
%ADD20C,2.800000*%
%ADD21R,2.800000X2.800000*%
%ADD22R,2.200000X2.200000*%
%ADD23C,2.200000*%
G04 APERTURE END LIST*
D10*
X134112000Y-71374000D02*
X134112000Y-70866000D01*
X158242000Y-79756000D02*
X158242000Y-79248000D01*
X146304000Y-79756000D02*
X158242000Y-79756000D01*
X146304000Y-80010000D02*
X146304000Y-79756000D01*
X146304000Y-114046000D02*
X146304000Y-80010000D01*
X145796000Y-114046000D02*
X146304000Y-114046000D01*
X145796000Y-71374000D02*
X145796000Y-114046000D01*
X134112000Y-71374000D02*
X145796000Y-71374000D01*
X145796000Y-70866000D02*
X134112000Y-70866000D01*
X145796000Y-31242000D02*
X145796000Y-70866000D01*
X146558000Y-31242000D02*
X145796000Y-31242000D01*
X146558000Y-79248000D02*
X146558000Y-31242000D01*
X158242000Y-79248000D02*
X146558000Y-79248000D01*
X121816049Y-127025076D02*
G75*
G03X121816049Y-127025076I-1666666J0D01*
G01*
X117649383Y-127025076D02*
X122649383Y-127025076D01*
X120149383Y-124525076D02*
X120149383Y-129525076D01*
D11*
X170180000Y-122936000D02*
X170180000Y-22860000D01*
X119380000Y-122936000D02*
X170180000Y-122936000D01*
X119380000Y-22860000D02*
X119380000Y-122936000D01*
X170180000Y-22860000D02*
X119380000Y-22860000D01*
D12*
X150368000Y-75438000D03*
D13*
X160782000Y-120396000D03*
X160782000Y-115316000D03*
X168402000Y-120396000D03*
X168402000Y-115316000D03*
X128778000Y-29972000D03*
X128778000Y-24892000D03*
X121158000Y-29972000D03*
X121158000Y-24892000D03*
X128778000Y-33020000D03*
X128778000Y-38100000D03*
X121158000Y-33020000D03*
X121158000Y-38100000D03*
X160655000Y-29464000D03*
X160655000Y-24384000D03*
X168275000Y-29464000D03*
X168275000Y-24384000D03*
X160782000Y-78232000D03*
X160782000Y-73152000D03*
X168402000Y-78232000D03*
X168402000Y-73152000D03*
X128905000Y-120523000D03*
X128905000Y-115443000D03*
X121285000Y-120523000D03*
X121285000Y-115443000D03*
X128905000Y-106553000D03*
X128905000Y-111633000D03*
X121285000Y-106553000D03*
X121285000Y-111633000D03*
X160782000Y-38100000D03*
X160782000Y-33020000D03*
X168402000Y-38100000D03*
X168402000Y-33020000D03*
D14*
X139700000Y-121268000D03*
D15*
X144200000Y-119268000D03*
X135200000Y-119268000D03*
D16*
X139700000Y-118268000D03*
D17*
X139700000Y-112268000D03*
D18*
X121285000Y-91313000D03*
X121285000Y-96313000D03*
X121285000Y-101313000D03*
X121285000Y-74803000D03*
X121285000Y-79803000D03*
X121285000Y-84803000D03*
X121285000Y-57658000D03*
X121285000Y-62658000D03*
X121285000Y-67658000D03*
X121285000Y-41148000D03*
X121285000Y-46148000D03*
X121285000Y-51148000D03*
X168148000Y-110236000D03*
X168148000Y-105236000D03*
X168148000Y-100236000D03*
X168275000Y-93472000D03*
X168275000Y-88472000D03*
X168275000Y-83472000D03*
X168275000Y-68580000D03*
X168275000Y-63580000D03*
X168275000Y-58580000D03*
X168148000Y-51816000D03*
X168148000Y-46816000D03*
X168148000Y-41816000D03*
D19*
X156464000Y-85090000D03*
D14*
X153964000Y-85090000D03*
D19*
X132588000Y-55880000D03*
D14*
X132588000Y-58380000D03*
D20*
X139248000Y-27432000D03*
D21*
X142748000Y-27432000D03*
X153416000Y-27432000D03*
D20*
X149916000Y-27432000D03*
X152852000Y-118364000D03*
D21*
X149352000Y-118364000D03*
D20*
X151892000Y-94488000D03*
X155702000Y-105156000D03*
X132080000Y-29464000D03*
X132080000Y-33528000D03*
X164592000Y-26924000D03*
X155956000Y-67564000D03*
X131572000Y-117856000D03*
X130048000Y-101346000D03*
D22*
X136144000Y-107188000D03*
D23*
X138684000Y-107188000D03*
D19*
X141732000Y-94488000D03*
D14*
X139232000Y-94488000D03*
D22*
X149860000Y-46736000D03*
D23*
X149860000Y-44196000D03*
D14*
X157480000Y-49276000D03*
X157480000Y-41676000D03*
D20*
X164592000Y-35306000D03*
D12*
X133858000Y-25908000D03*
X157226000Y-25908000D03*
X141478000Y-66548000D03*
X141224000Y-87884000D03*
X150876000Y-105156000D03*
M02*
