%TF.GenerationSoftware,KiCad,Pcbnew,(5.0.0)*%
%TF.CreationDate,2018-12-16T12:55:05+01:00*%
%TF.ProjectId,Kicad_Oscillator_Drone,4B696361645F4F7363696C6C61746F72,rev?*%
%TF.SameCoordinates,Original*%
%TF.FileFunction,Soldermask,Top*%
%TF.FilePolarity,Negative*%
%FSLAX46Y46*%
G04 Gerber Fmt 4.6, Leading zero omitted, Abs format (unit mm)*
G04 Created by KiCad (PCBNEW (5.0.0)) date 12/16/18 12:55:05*
%MOMM*%
%LPD*%
G01*
G04 APERTURE LIST*
%ADD10C,1.000000*%
%ADD11C,0.150000*%
%ADD12C,3.600000*%
%ADD13C,2.400000*%
%ADD14C,2.000000*%
%ADD15O,2.400000X3.900000*%
%ADD16O,3.700000X2.400000*%
%ADD17R,4.400000X2.400000*%
%ADD18C,2.740000*%
%ADD19C,1.550000*%
%ADD20R,2.000000X2.000000*%
%ADD21C,2.800000*%
%ADD22R,2.800000X2.800000*%
%ADD23R,2.300000X1.200000*%
%ADD24R,1.200000X2.300000*%
%ADD25R,2.200000X2.200000*%
%ADD26C,2.200000*%
G04 APERTURE END LIST*
D10*
X134112000Y-71374000D02*
X134112000Y-70866000D01*
X158242000Y-79756000D02*
X158242000Y-79248000D01*
X146304000Y-79756000D02*
X158242000Y-79756000D01*
X146304000Y-80010000D02*
X146304000Y-79756000D01*
X146304000Y-114046000D02*
X146304000Y-80010000D01*
X145796000Y-114046000D02*
X146304000Y-114046000D01*
X145796000Y-71374000D02*
X145796000Y-114046000D01*
X134112000Y-71374000D02*
X145796000Y-71374000D01*
X145796000Y-70866000D02*
X134112000Y-70866000D01*
X145796000Y-31242000D02*
X145796000Y-70866000D01*
X146558000Y-31242000D02*
X145796000Y-31242000D01*
X146558000Y-79248000D02*
X146558000Y-31242000D01*
X158242000Y-79248000D02*
X146558000Y-79248000D01*
X121816049Y-127025076D02*
G75*
G03X121816049Y-127025076I-1666666J0D01*
G01*
X117649383Y-127025076D02*
X122649383Y-127025076D01*
X120149383Y-124525076D02*
X120149383Y-129525076D01*
D11*
X170180000Y-122936000D02*
X170180000Y-22860000D01*
X119380000Y-122936000D02*
X170180000Y-122936000D01*
X119380000Y-22860000D02*
X119380000Y-122936000D01*
X170180000Y-22860000D02*
X119380000Y-22860000D01*
D12*
X150368000Y-75438000D03*
D13*
X160782000Y-120396000D03*
X160782000Y-115316000D03*
X168402000Y-120396000D03*
X168402000Y-115316000D03*
X128778000Y-29972000D03*
X128778000Y-24892000D03*
X121158000Y-29972000D03*
X121158000Y-24892000D03*
X128778000Y-33020000D03*
X128778000Y-38100000D03*
X121158000Y-33020000D03*
X121158000Y-38100000D03*
X160655000Y-29464000D03*
X160655000Y-24384000D03*
X168275000Y-29464000D03*
X168275000Y-24384000D03*
X160782000Y-78232000D03*
X160782000Y-73152000D03*
X168402000Y-78232000D03*
X168402000Y-73152000D03*
X128905000Y-120523000D03*
X128905000Y-115443000D03*
X121285000Y-120523000D03*
X121285000Y-115443000D03*
X128905000Y-106553000D03*
X128905000Y-111633000D03*
X121285000Y-106553000D03*
X121285000Y-111633000D03*
X160782000Y-38100000D03*
X160782000Y-33020000D03*
X168402000Y-38100000D03*
X168402000Y-33020000D03*
D14*
X139700000Y-121268000D03*
D15*
X144200000Y-119268000D03*
X135200000Y-119268000D03*
D16*
X139700000Y-118268000D03*
D17*
X139700000Y-112268000D03*
D18*
X121285000Y-91313000D03*
X121285000Y-96313000D03*
X121285000Y-101313000D03*
X121285000Y-74803000D03*
X121285000Y-79803000D03*
X121285000Y-84803000D03*
X121285000Y-57658000D03*
X121285000Y-62658000D03*
X121285000Y-67658000D03*
X121285000Y-41148000D03*
X121285000Y-46148000D03*
X121285000Y-51148000D03*
X168148000Y-110236000D03*
X168148000Y-105236000D03*
X168148000Y-100236000D03*
X168275000Y-93472000D03*
X168275000Y-88472000D03*
X168275000Y-83472000D03*
X168275000Y-68580000D03*
X168275000Y-63580000D03*
X168275000Y-58580000D03*
X168148000Y-51816000D03*
X168148000Y-46816000D03*
X168148000Y-41816000D03*
D11*
G36*
X157198071Y-93589623D02*
X157230781Y-93594475D01*
X157262857Y-93602509D01*
X157293991Y-93613649D01*
X157323884Y-93627787D01*
X157352247Y-93644787D01*
X157378807Y-93664485D01*
X157403308Y-93686692D01*
X157425515Y-93711193D01*
X157445213Y-93737753D01*
X157462213Y-93766116D01*
X157476351Y-93796009D01*
X157487491Y-93827143D01*
X157495525Y-93859219D01*
X157500377Y-93891929D01*
X157502000Y-93924956D01*
X157502000Y-95051044D01*
X157500377Y-95084071D01*
X157495525Y-95116781D01*
X157487491Y-95148857D01*
X157476351Y-95179991D01*
X157462213Y-95209884D01*
X157445213Y-95238247D01*
X157425515Y-95264807D01*
X157403308Y-95289308D01*
X157378807Y-95311515D01*
X157352247Y-95331213D01*
X157323884Y-95348213D01*
X157293991Y-95362351D01*
X157262857Y-95373491D01*
X157230781Y-95381525D01*
X157198071Y-95386377D01*
X157165044Y-95388000D01*
X156288956Y-95388000D01*
X156255929Y-95386377D01*
X156223219Y-95381525D01*
X156191143Y-95373491D01*
X156160009Y-95362351D01*
X156130116Y-95348213D01*
X156101753Y-95331213D01*
X156075193Y-95311515D01*
X156050692Y-95289308D01*
X156028485Y-95264807D01*
X156008787Y-95238247D01*
X155991787Y-95209884D01*
X155977649Y-95179991D01*
X155966509Y-95148857D01*
X155958475Y-95116781D01*
X155953623Y-95084071D01*
X155952000Y-95051044D01*
X155952000Y-93924956D01*
X155953623Y-93891929D01*
X155958475Y-93859219D01*
X155966509Y-93827143D01*
X155977649Y-93796009D01*
X155991787Y-93766116D01*
X156008787Y-93737753D01*
X156028485Y-93711193D01*
X156050692Y-93686692D01*
X156075193Y-93664485D01*
X156101753Y-93644787D01*
X156130116Y-93627787D01*
X156160009Y-93613649D01*
X156191143Y-93602509D01*
X156223219Y-93594475D01*
X156255929Y-93589623D01*
X156288956Y-93588000D01*
X157165044Y-93588000D01*
X157198071Y-93589623D01*
X157198071Y-93589623D01*
G37*
D19*
X156727000Y-94488000D03*
D11*
G36*
X155148071Y-93589623D02*
X155180781Y-93594475D01*
X155212857Y-93602509D01*
X155243991Y-93613649D01*
X155273884Y-93627787D01*
X155302247Y-93644787D01*
X155328807Y-93664485D01*
X155353308Y-93686692D01*
X155375515Y-93711193D01*
X155395213Y-93737753D01*
X155412213Y-93766116D01*
X155426351Y-93796009D01*
X155437491Y-93827143D01*
X155445525Y-93859219D01*
X155450377Y-93891929D01*
X155452000Y-93924956D01*
X155452000Y-95051044D01*
X155450377Y-95084071D01*
X155445525Y-95116781D01*
X155437491Y-95148857D01*
X155426351Y-95179991D01*
X155412213Y-95209884D01*
X155395213Y-95238247D01*
X155375515Y-95264807D01*
X155353308Y-95289308D01*
X155328807Y-95311515D01*
X155302247Y-95331213D01*
X155273884Y-95348213D01*
X155243991Y-95362351D01*
X155212857Y-95373491D01*
X155180781Y-95381525D01*
X155148071Y-95386377D01*
X155115044Y-95388000D01*
X154238956Y-95388000D01*
X154205929Y-95386377D01*
X154173219Y-95381525D01*
X154141143Y-95373491D01*
X154110009Y-95362351D01*
X154080116Y-95348213D01*
X154051753Y-95331213D01*
X154025193Y-95311515D01*
X154000692Y-95289308D01*
X153978485Y-95264807D01*
X153958787Y-95238247D01*
X153941787Y-95209884D01*
X153927649Y-95179991D01*
X153916509Y-95148857D01*
X153908475Y-95116781D01*
X153903623Y-95084071D01*
X153902000Y-95051044D01*
X153902000Y-93924956D01*
X153903623Y-93891929D01*
X153908475Y-93859219D01*
X153916509Y-93827143D01*
X153927649Y-93796009D01*
X153941787Y-93766116D01*
X153958787Y-93737753D01*
X153978485Y-93711193D01*
X154000692Y-93686692D01*
X154025193Y-93664485D01*
X154051753Y-93644787D01*
X154080116Y-93627787D01*
X154110009Y-93613649D01*
X154141143Y-93602509D01*
X154173219Y-93594475D01*
X154205929Y-93589623D01*
X154238956Y-93588000D01*
X155115044Y-93588000D01*
X155148071Y-93589623D01*
X155148071Y-93589623D01*
G37*
D19*
X154677000Y-94488000D03*
D20*
X156464000Y-85090000D03*
D14*
X153964000Y-85090000D03*
D11*
G36*
X159212071Y-104257623D02*
X159244781Y-104262475D01*
X159276857Y-104270509D01*
X159307991Y-104281649D01*
X159337884Y-104295787D01*
X159366247Y-104312787D01*
X159392807Y-104332485D01*
X159417308Y-104354692D01*
X159439515Y-104379193D01*
X159459213Y-104405753D01*
X159476213Y-104434116D01*
X159490351Y-104464009D01*
X159501491Y-104495143D01*
X159509525Y-104527219D01*
X159514377Y-104559929D01*
X159516000Y-104592956D01*
X159516000Y-105719044D01*
X159514377Y-105752071D01*
X159509525Y-105784781D01*
X159501491Y-105816857D01*
X159490351Y-105847991D01*
X159476213Y-105877884D01*
X159459213Y-105906247D01*
X159439515Y-105932807D01*
X159417308Y-105957308D01*
X159392807Y-105979515D01*
X159366247Y-105999213D01*
X159337884Y-106016213D01*
X159307991Y-106030351D01*
X159276857Y-106041491D01*
X159244781Y-106049525D01*
X159212071Y-106054377D01*
X159179044Y-106056000D01*
X158302956Y-106056000D01*
X158269929Y-106054377D01*
X158237219Y-106049525D01*
X158205143Y-106041491D01*
X158174009Y-106030351D01*
X158144116Y-106016213D01*
X158115753Y-105999213D01*
X158089193Y-105979515D01*
X158064692Y-105957308D01*
X158042485Y-105932807D01*
X158022787Y-105906247D01*
X158005787Y-105877884D01*
X157991649Y-105847991D01*
X157980509Y-105816857D01*
X157972475Y-105784781D01*
X157967623Y-105752071D01*
X157966000Y-105719044D01*
X157966000Y-104592956D01*
X157967623Y-104559929D01*
X157972475Y-104527219D01*
X157980509Y-104495143D01*
X157991649Y-104464009D01*
X158005787Y-104434116D01*
X158022787Y-104405753D01*
X158042485Y-104379193D01*
X158064692Y-104354692D01*
X158089193Y-104332485D01*
X158115753Y-104312787D01*
X158144116Y-104295787D01*
X158174009Y-104281649D01*
X158205143Y-104270509D01*
X158237219Y-104262475D01*
X158269929Y-104257623D01*
X158302956Y-104256000D01*
X159179044Y-104256000D01*
X159212071Y-104257623D01*
X159212071Y-104257623D01*
G37*
D19*
X158741000Y-105156000D03*
D11*
G36*
X161262071Y-104257623D02*
X161294781Y-104262475D01*
X161326857Y-104270509D01*
X161357991Y-104281649D01*
X161387884Y-104295787D01*
X161416247Y-104312787D01*
X161442807Y-104332485D01*
X161467308Y-104354692D01*
X161489515Y-104379193D01*
X161509213Y-104405753D01*
X161526213Y-104434116D01*
X161540351Y-104464009D01*
X161551491Y-104495143D01*
X161559525Y-104527219D01*
X161564377Y-104559929D01*
X161566000Y-104592956D01*
X161566000Y-105719044D01*
X161564377Y-105752071D01*
X161559525Y-105784781D01*
X161551491Y-105816857D01*
X161540351Y-105847991D01*
X161526213Y-105877884D01*
X161509213Y-105906247D01*
X161489515Y-105932807D01*
X161467308Y-105957308D01*
X161442807Y-105979515D01*
X161416247Y-105999213D01*
X161387884Y-106016213D01*
X161357991Y-106030351D01*
X161326857Y-106041491D01*
X161294781Y-106049525D01*
X161262071Y-106054377D01*
X161229044Y-106056000D01*
X160352956Y-106056000D01*
X160319929Y-106054377D01*
X160287219Y-106049525D01*
X160255143Y-106041491D01*
X160224009Y-106030351D01*
X160194116Y-106016213D01*
X160165753Y-105999213D01*
X160139193Y-105979515D01*
X160114692Y-105957308D01*
X160092485Y-105932807D01*
X160072787Y-105906247D01*
X160055787Y-105877884D01*
X160041649Y-105847991D01*
X160030509Y-105816857D01*
X160022475Y-105784781D01*
X160017623Y-105752071D01*
X160016000Y-105719044D01*
X160016000Y-104592956D01*
X160017623Y-104559929D01*
X160022475Y-104527219D01*
X160030509Y-104495143D01*
X160041649Y-104464009D01*
X160055787Y-104434116D01*
X160072787Y-104405753D01*
X160092485Y-104379193D01*
X160114692Y-104354692D01*
X160139193Y-104332485D01*
X160165753Y-104312787D01*
X160194116Y-104295787D01*
X160224009Y-104281649D01*
X160255143Y-104270509D01*
X160287219Y-104262475D01*
X160319929Y-104257623D01*
X160352956Y-104256000D01*
X161229044Y-104256000D01*
X161262071Y-104257623D01*
X161262071Y-104257623D01*
G37*
D19*
X160791000Y-105156000D03*
D11*
G36*
X153370071Y-32629623D02*
X153402781Y-32634475D01*
X153434857Y-32642509D01*
X153465991Y-32653649D01*
X153495884Y-32667787D01*
X153524247Y-32684787D01*
X153550807Y-32704485D01*
X153575308Y-32726692D01*
X153597515Y-32751193D01*
X153617213Y-32777753D01*
X153634213Y-32806116D01*
X153648351Y-32836009D01*
X153659491Y-32867143D01*
X153667525Y-32899219D01*
X153672377Y-32931929D01*
X153674000Y-32964956D01*
X153674000Y-34091044D01*
X153672377Y-34124071D01*
X153667525Y-34156781D01*
X153659491Y-34188857D01*
X153648351Y-34219991D01*
X153634213Y-34249884D01*
X153617213Y-34278247D01*
X153597515Y-34304807D01*
X153575308Y-34329308D01*
X153550807Y-34351515D01*
X153524247Y-34371213D01*
X153495884Y-34388213D01*
X153465991Y-34402351D01*
X153434857Y-34413491D01*
X153402781Y-34421525D01*
X153370071Y-34426377D01*
X153337044Y-34428000D01*
X152460956Y-34428000D01*
X152427929Y-34426377D01*
X152395219Y-34421525D01*
X152363143Y-34413491D01*
X152332009Y-34402351D01*
X152302116Y-34388213D01*
X152273753Y-34371213D01*
X152247193Y-34351515D01*
X152222692Y-34329308D01*
X152200485Y-34304807D01*
X152180787Y-34278247D01*
X152163787Y-34249884D01*
X152149649Y-34219991D01*
X152138509Y-34188857D01*
X152130475Y-34156781D01*
X152125623Y-34124071D01*
X152124000Y-34091044D01*
X152124000Y-32964956D01*
X152125623Y-32931929D01*
X152130475Y-32899219D01*
X152138509Y-32867143D01*
X152149649Y-32836009D01*
X152163787Y-32806116D01*
X152180787Y-32777753D01*
X152200485Y-32751193D01*
X152222692Y-32726692D01*
X152247193Y-32704485D01*
X152273753Y-32684787D01*
X152302116Y-32667787D01*
X152332009Y-32653649D01*
X152363143Y-32642509D01*
X152395219Y-32634475D01*
X152427929Y-32629623D01*
X152460956Y-32628000D01*
X153337044Y-32628000D01*
X153370071Y-32629623D01*
X153370071Y-32629623D01*
G37*
D19*
X152899000Y-33528000D03*
D11*
G36*
X155420071Y-32629623D02*
X155452781Y-32634475D01*
X155484857Y-32642509D01*
X155515991Y-32653649D01*
X155545884Y-32667787D01*
X155574247Y-32684787D01*
X155600807Y-32704485D01*
X155625308Y-32726692D01*
X155647515Y-32751193D01*
X155667213Y-32777753D01*
X155684213Y-32806116D01*
X155698351Y-32836009D01*
X155709491Y-32867143D01*
X155717525Y-32899219D01*
X155722377Y-32931929D01*
X155724000Y-32964956D01*
X155724000Y-34091044D01*
X155722377Y-34124071D01*
X155717525Y-34156781D01*
X155709491Y-34188857D01*
X155698351Y-34219991D01*
X155684213Y-34249884D01*
X155667213Y-34278247D01*
X155647515Y-34304807D01*
X155625308Y-34329308D01*
X155600807Y-34351515D01*
X155574247Y-34371213D01*
X155545884Y-34388213D01*
X155515991Y-34402351D01*
X155484857Y-34413491D01*
X155452781Y-34421525D01*
X155420071Y-34426377D01*
X155387044Y-34428000D01*
X154510956Y-34428000D01*
X154477929Y-34426377D01*
X154445219Y-34421525D01*
X154413143Y-34413491D01*
X154382009Y-34402351D01*
X154352116Y-34388213D01*
X154323753Y-34371213D01*
X154297193Y-34351515D01*
X154272692Y-34329308D01*
X154250485Y-34304807D01*
X154230787Y-34278247D01*
X154213787Y-34249884D01*
X154199649Y-34219991D01*
X154188509Y-34188857D01*
X154180475Y-34156781D01*
X154175623Y-34124071D01*
X154174000Y-34091044D01*
X154174000Y-32964956D01*
X154175623Y-32931929D01*
X154180475Y-32899219D01*
X154188509Y-32867143D01*
X154199649Y-32836009D01*
X154213787Y-32806116D01*
X154230787Y-32777753D01*
X154250485Y-32751193D01*
X154272692Y-32726692D01*
X154297193Y-32704485D01*
X154323753Y-32684787D01*
X154352116Y-32667787D01*
X154382009Y-32653649D01*
X154413143Y-32642509D01*
X154445219Y-32634475D01*
X154477929Y-32629623D01*
X154510956Y-32628000D01*
X155387044Y-32628000D01*
X155420071Y-32629623D01*
X155420071Y-32629623D01*
G37*
D19*
X154949000Y-33528000D03*
D11*
G36*
X151472071Y-54607623D02*
X151504781Y-54612475D01*
X151536857Y-54620509D01*
X151567991Y-54631649D01*
X151597884Y-54645787D01*
X151626247Y-54662787D01*
X151652807Y-54682485D01*
X151677308Y-54704692D01*
X151699515Y-54729193D01*
X151719213Y-54755753D01*
X151736213Y-54784116D01*
X151750351Y-54814009D01*
X151761491Y-54845143D01*
X151769525Y-54877219D01*
X151774377Y-54909929D01*
X151776000Y-54942956D01*
X151776000Y-55819044D01*
X151774377Y-55852071D01*
X151769525Y-55884781D01*
X151761491Y-55916857D01*
X151750351Y-55947991D01*
X151736213Y-55977884D01*
X151719213Y-56006247D01*
X151699515Y-56032807D01*
X151677308Y-56057308D01*
X151652807Y-56079515D01*
X151626247Y-56099213D01*
X151597884Y-56116213D01*
X151567991Y-56130351D01*
X151536857Y-56141491D01*
X151504781Y-56149525D01*
X151472071Y-56154377D01*
X151439044Y-56156000D01*
X150312956Y-56156000D01*
X150279929Y-56154377D01*
X150247219Y-56149525D01*
X150215143Y-56141491D01*
X150184009Y-56130351D01*
X150154116Y-56116213D01*
X150125753Y-56099213D01*
X150099193Y-56079515D01*
X150074692Y-56057308D01*
X150052485Y-56032807D01*
X150032787Y-56006247D01*
X150015787Y-55977884D01*
X150001649Y-55947991D01*
X149990509Y-55916857D01*
X149982475Y-55884781D01*
X149977623Y-55852071D01*
X149976000Y-55819044D01*
X149976000Y-54942956D01*
X149977623Y-54909929D01*
X149982475Y-54877219D01*
X149990509Y-54845143D01*
X150001649Y-54814009D01*
X150015787Y-54784116D01*
X150032787Y-54755753D01*
X150052485Y-54729193D01*
X150074692Y-54704692D01*
X150099193Y-54682485D01*
X150125753Y-54662787D01*
X150154116Y-54645787D01*
X150184009Y-54631649D01*
X150215143Y-54620509D01*
X150247219Y-54612475D01*
X150279929Y-54607623D01*
X150312956Y-54606000D01*
X151439044Y-54606000D01*
X151472071Y-54607623D01*
X151472071Y-54607623D01*
G37*
D19*
X150876000Y-55381000D03*
D11*
G36*
X151472071Y-52557623D02*
X151504781Y-52562475D01*
X151536857Y-52570509D01*
X151567991Y-52581649D01*
X151597884Y-52595787D01*
X151626247Y-52612787D01*
X151652807Y-52632485D01*
X151677308Y-52654692D01*
X151699515Y-52679193D01*
X151719213Y-52705753D01*
X151736213Y-52734116D01*
X151750351Y-52764009D01*
X151761491Y-52795143D01*
X151769525Y-52827219D01*
X151774377Y-52859929D01*
X151776000Y-52892956D01*
X151776000Y-53769044D01*
X151774377Y-53802071D01*
X151769525Y-53834781D01*
X151761491Y-53866857D01*
X151750351Y-53897991D01*
X151736213Y-53927884D01*
X151719213Y-53956247D01*
X151699515Y-53982807D01*
X151677308Y-54007308D01*
X151652807Y-54029515D01*
X151626247Y-54049213D01*
X151597884Y-54066213D01*
X151567991Y-54080351D01*
X151536857Y-54091491D01*
X151504781Y-54099525D01*
X151472071Y-54104377D01*
X151439044Y-54106000D01*
X150312956Y-54106000D01*
X150279929Y-54104377D01*
X150247219Y-54099525D01*
X150215143Y-54091491D01*
X150184009Y-54080351D01*
X150154116Y-54066213D01*
X150125753Y-54049213D01*
X150099193Y-54029515D01*
X150074692Y-54007308D01*
X150052485Y-53982807D01*
X150032787Y-53956247D01*
X150015787Y-53927884D01*
X150001649Y-53897991D01*
X149990509Y-53866857D01*
X149982475Y-53834781D01*
X149977623Y-53802071D01*
X149976000Y-53769044D01*
X149976000Y-52892956D01*
X149977623Y-52859929D01*
X149982475Y-52827219D01*
X149990509Y-52795143D01*
X150001649Y-52764009D01*
X150015787Y-52734116D01*
X150032787Y-52705753D01*
X150052485Y-52679193D01*
X150074692Y-52654692D01*
X150099193Y-52632485D01*
X150125753Y-52612787D01*
X150154116Y-52595787D01*
X150184009Y-52581649D01*
X150215143Y-52570509D01*
X150247219Y-52562475D01*
X150279929Y-52557623D01*
X150312956Y-52556000D01*
X151439044Y-52556000D01*
X151472071Y-52557623D01*
X151472071Y-52557623D01*
G37*
D19*
X150876000Y-53331000D03*
D11*
G36*
X160997072Y-62588624D02*
X161029782Y-62593476D01*
X161061858Y-62601510D01*
X161092992Y-62612650D01*
X161122885Y-62626788D01*
X161151248Y-62643788D01*
X161177808Y-62663486D01*
X161202309Y-62685693D01*
X161224516Y-62710194D01*
X161244214Y-62736754D01*
X161261214Y-62765117D01*
X161275352Y-62795010D01*
X161286492Y-62826144D01*
X161294526Y-62858220D01*
X161299378Y-62890930D01*
X161301001Y-62923957D01*
X161301001Y-64050045D01*
X161299378Y-64083072D01*
X161294526Y-64115782D01*
X161286492Y-64147858D01*
X161275352Y-64178992D01*
X161261214Y-64208885D01*
X161244214Y-64237248D01*
X161224516Y-64263808D01*
X161202309Y-64288309D01*
X161177808Y-64310516D01*
X161151248Y-64330214D01*
X161122885Y-64347214D01*
X161092992Y-64361352D01*
X161061858Y-64372492D01*
X161029782Y-64380526D01*
X160997072Y-64385378D01*
X160964045Y-64387001D01*
X160087957Y-64387001D01*
X160054930Y-64385378D01*
X160022220Y-64380526D01*
X159990144Y-64372492D01*
X159959010Y-64361352D01*
X159929117Y-64347214D01*
X159900754Y-64330214D01*
X159874194Y-64310516D01*
X159849693Y-64288309D01*
X159827486Y-64263808D01*
X159807788Y-64237248D01*
X159790788Y-64208885D01*
X159776650Y-64178992D01*
X159765510Y-64147858D01*
X159757476Y-64115782D01*
X159752624Y-64083072D01*
X159751001Y-64050045D01*
X159751001Y-62923957D01*
X159752624Y-62890930D01*
X159757476Y-62858220D01*
X159765510Y-62826144D01*
X159776650Y-62795010D01*
X159790788Y-62765117D01*
X159807788Y-62736754D01*
X159827486Y-62710194D01*
X159849693Y-62685693D01*
X159874194Y-62663486D01*
X159900754Y-62643788D01*
X159929117Y-62626788D01*
X159959010Y-62612650D01*
X159990144Y-62601510D01*
X160022220Y-62593476D01*
X160054930Y-62588624D01*
X160087957Y-62587001D01*
X160964045Y-62587001D01*
X160997072Y-62588624D01*
X160997072Y-62588624D01*
G37*
D19*
X160526001Y-63487001D03*
D11*
G36*
X158947072Y-62588624D02*
X158979782Y-62593476D01*
X159011858Y-62601510D01*
X159042992Y-62612650D01*
X159072885Y-62626788D01*
X159101248Y-62643788D01*
X159127808Y-62663486D01*
X159152309Y-62685693D01*
X159174516Y-62710194D01*
X159194214Y-62736754D01*
X159211214Y-62765117D01*
X159225352Y-62795010D01*
X159236492Y-62826144D01*
X159244526Y-62858220D01*
X159249378Y-62890930D01*
X159251001Y-62923957D01*
X159251001Y-64050045D01*
X159249378Y-64083072D01*
X159244526Y-64115782D01*
X159236492Y-64147858D01*
X159225352Y-64178992D01*
X159211214Y-64208885D01*
X159194214Y-64237248D01*
X159174516Y-64263808D01*
X159152309Y-64288309D01*
X159127808Y-64310516D01*
X159101248Y-64330214D01*
X159072885Y-64347214D01*
X159042992Y-64361352D01*
X159011858Y-64372492D01*
X158979782Y-64380526D01*
X158947072Y-64385378D01*
X158914045Y-64387001D01*
X158037957Y-64387001D01*
X158004930Y-64385378D01*
X157972220Y-64380526D01*
X157940144Y-64372492D01*
X157909010Y-64361352D01*
X157879117Y-64347214D01*
X157850754Y-64330214D01*
X157824194Y-64310516D01*
X157799693Y-64288309D01*
X157777486Y-64263808D01*
X157757788Y-64237248D01*
X157740788Y-64208885D01*
X157726650Y-64178992D01*
X157715510Y-64147858D01*
X157707476Y-64115782D01*
X157702624Y-64083072D01*
X157701001Y-64050045D01*
X157701001Y-62923957D01*
X157702624Y-62890930D01*
X157707476Y-62858220D01*
X157715510Y-62826144D01*
X157726650Y-62795010D01*
X157740788Y-62765117D01*
X157757788Y-62736754D01*
X157777486Y-62710194D01*
X157799693Y-62685693D01*
X157824194Y-62663486D01*
X157850754Y-62643788D01*
X157879117Y-62626788D01*
X157909010Y-62612650D01*
X157940144Y-62601510D01*
X157972220Y-62593476D01*
X158004930Y-62588624D01*
X158037957Y-62587001D01*
X158914045Y-62587001D01*
X158947072Y-62588624D01*
X158947072Y-62588624D01*
G37*
D19*
X158476001Y-63487001D03*
D11*
G36*
X137368071Y-32121623D02*
X137400781Y-32126475D01*
X137432857Y-32134509D01*
X137463991Y-32145649D01*
X137493884Y-32159787D01*
X137522247Y-32176787D01*
X137548807Y-32196485D01*
X137573308Y-32218692D01*
X137595515Y-32243193D01*
X137615213Y-32269753D01*
X137632213Y-32298116D01*
X137646351Y-32328009D01*
X137657491Y-32359143D01*
X137665525Y-32391219D01*
X137670377Y-32423929D01*
X137672000Y-32456956D01*
X137672000Y-33583044D01*
X137670377Y-33616071D01*
X137665525Y-33648781D01*
X137657491Y-33680857D01*
X137646351Y-33711991D01*
X137632213Y-33741884D01*
X137615213Y-33770247D01*
X137595515Y-33796807D01*
X137573308Y-33821308D01*
X137548807Y-33843515D01*
X137522247Y-33863213D01*
X137493884Y-33880213D01*
X137463991Y-33894351D01*
X137432857Y-33905491D01*
X137400781Y-33913525D01*
X137368071Y-33918377D01*
X137335044Y-33920000D01*
X136458956Y-33920000D01*
X136425929Y-33918377D01*
X136393219Y-33913525D01*
X136361143Y-33905491D01*
X136330009Y-33894351D01*
X136300116Y-33880213D01*
X136271753Y-33863213D01*
X136245193Y-33843515D01*
X136220692Y-33821308D01*
X136198485Y-33796807D01*
X136178787Y-33770247D01*
X136161787Y-33741884D01*
X136147649Y-33711991D01*
X136136509Y-33680857D01*
X136128475Y-33648781D01*
X136123623Y-33616071D01*
X136122000Y-33583044D01*
X136122000Y-32456956D01*
X136123623Y-32423929D01*
X136128475Y-32391219D01*
X136136509Y-32359143D01*
X136147649Y-32328009D01*
X136161787Y-32298116D01*
X136178787Y-32269753D01*
X136198485Y-32243193D01*
X136220692Y-32218692D01*
X136245193Y-32196485D01*
X136271753Y-32176787D01*
X136300116Y-32159787D01*
X136330009Y-32145649D01*
X136361143Y-32134509D01*
X136393219Y-32126475D01*
X136425929Y-32121623D01*
X136458956Y-32120000D01*
X137335044Y-32120000D01*
X137368071Y-32121623D01*
X137368071Y-32121623D01*
G37*
D19*
X136897000Y-33020000D03*
D11*
G36*
X139418071Y-32121623D02*
X139450781Y-32126475D01*
X139482857Y-32134509D01*
X139513991Y-32145649D01*
X139543884Y-32159787D01*
X139572247Y-32176787D01*
X139598807Y-32196485D01*
X139623308Y-32218692D01*
X139645515Y-32243193D01*
X139665213Y-32269753D01*
X139682213Y-32298116D01*
X139696351Y-32328009D01*
X139707491Y-32359143D01*
X139715525Y-32391219D01*
X139720377Y-32423929D01*
X139722000Y-32456956D01*
X139722000Y-33583044D01*
X139720377Y-33616071D01*
X139715525Y-33648781D01*
X139707491Y-33680857D01*
X139696351Y-33711991D01*
X139682213Y-33741884D01*
X139665213Y-33770247D01*
X139645515Y-33796807D01*
X139623308Y-33821308D01*
X139598807Y-33843515D01*
X139572247Y-33863213D01*
X139543884Y-33880213D01*
X139513991Y-33894351D01*
X139482857Y-33905491D01*
X139450781Y-33913525D01*
X139418071Y-33918377D01*
X139385044Y-33920000D01*
X138508956Y-33920000D01*
X138475929Y-33918377D01*
X138443219Y-33913525D01*
X138411143Y-33905491D01*
X138380009Y-33894351D01*
X138350116Y-33880213D01*
X138321753Y-33863213D01*
X138295193Y-33843515D01*
X138270692Y-33821308D01*
X138248485Y-33796807D01*
X138228787Y-33770247D01*
X138211787Y-33741884D01*
X138197649Y-33711991D01*
X138186509Y-33680857D01*
X138178475Y-33648781D01*
X138173623Y-33616071D01*
X138172000Y-33583044D01*
X138172000Y-32456956D01*
X138173623Y-32423929D01*
X138178475Y-32391219D01*
X138186509Y-32359143D01*
X138197649Y-32328009D01*
X138211787Y-32298116D01*
X138228787Y-32269753D01*
X138248485Y-32243193D01*
X138270692Y-32218692D01*
X138295193Y-32196485D01*
X138321753Y-32176787D01*
X138350116Y-32159787D01*
X138380009Y-32145649D01*
X138411143Y-32134509D01*
X138443219Y-32126475D01*
X138475929Y-32121623D01*
X138508956Y-32120000D01*
X139385044Y-32120000D01*
X139418071Y-32121623D01*
X139418071Y-32121623D01*
G37*
D19*
X138947000Y-33020000D03*
D20*
X132588000Y-55880000D03*
D14*
X132588000Y-58380000D03*
D11*
G36*
X137368071Y-36693623D02*
X137400781Y-36698475D01*
X137432857Y-36706509D01*
X137463991Y-36717649D01*
X137493884Y-36731787D01*
X137522247Y-36748787D01*
X137548807Y-36768485D01*
X137573308Y-36790692D01*
X137595515Y-36815193D01*
X137615213Y-36841753D01*
X137632213Y-36870116D01*
X137646351Y-36900009D01*
X137657491Y-36931143D01*
X137665525Y-36963219D01*
X137670377Y-36995929D01*
X137672000Y-37028956D01*
X137672000Y-38155044D01*
X137670377Y-38188071D01*
X137665525Y-38220781D01*
X137657491Y-38252857D01*
X137646351Y-38283991D01*
X137632213Y-38313884D01*
X137615213Y-38342247D01*
X137595515Y-38368807D01*
X137573308Y-38393308D01*
X137548807Y-38415515D01*
X137522247Y-38435213D01*
X137493884Y-38452213D01*
X137463991Y-38466351D01*
X137432857Y-38477491D01*
X137400781Y-38485525D01*
X137368071Y-38490377D01*
X137335044Y-38492000D01*
X136458956Y-38492000D01*
X136425929Y-38490377D01*
X136393219Y-38485525D01*
X136361143Y-38477491D01*
X136330009Y-38466351D01*
X136300116Y-38452213D01*
X136271753Y-38435213D01*
X136245193Y-38415515D01*
X136220692Y-38393308D01*
X136198485Y-38368807D01*
X136178787Y-38342247D01*
X136161787Y-38313884D01*
X136147649Y-38283991D01*
X136136509Y-38252857D01*
X136128475Y-38220781D01*
X136123623Y-38188071D01*
X136122000Y-38155044D01*
X136122000Y-37028956D01*
X136123623Y-36995929D01*
X136128475Y-36963219D01*
X136136509Y-36931143D01*
X136147649Y-36900009D01*
X136161787Y-36870116D01*
X136178787Y-36841753D01*
X136198485Y-36815193D01*
X136220692Y-36790692D01*
X136245193Y-36768485D01*
X136271753Y-36748787D01*
X136300116Y-36731787D01*
X136330009Y-36717649D01*
X136361143Y-36706509D01*
X136393219Y-36698475D01*
X136425929Y-36693623D01*
X136458956Y-36692000D01*
X137335044Y-36692000D01*
X137368071Y-36693623D01*
X137368071Y-36693623D01*
G37*
D19*
X136897000Y-37592000D03*
D11*
G36*
X139418071Y-36693623D02*
X139450781Y-36698475D01*
X139482857Y-36706509D01*
X139513991Y-36717649D01*
X139543884Y-36731787D01*
X139572247Y-36748787D01*
X139598807Y-36768485D01*
X139623308Y-36790692D01*
X139645515Y-36815193D01*
X139665213Y-36841753D01*
X139682213Y-36870116D01*
X139696351Y-36900009D01*
X139707491Y-36931143D01*
X139715525Y-36963219D01*
X139720377Y-36995929D01*
X139722000Y-37028956D01*
X139722000Y-38155044D01*
X139720377Y-38188071D01*
X139715525Y-38220781D01*
X139707491Y-38252857D01*
X139696351Y-38283991D01*
X139682213Y-38313884D01*
X139665213Y-38342247D01*
X139645515Y-38368807D01*
X139623308Y-38393308D01*
X139598807Y-38415515D01*
X139572247Y-38435213D01*
X139543884Y-38452213D01*
X139513991Y-38466351D01*
X139482857Y-38477491D01*
X139450781Y-38485525D01*
X139418071Y-38490377D01*
X139385044Y-38492000D01*
X138508956Y-38492000D01*
X138475929Y-38490377D01*
X138443219Y-38485525D01*
X138411143Y-38477491D01*
X138380009Y-38466351D01*
X138350116Y-38452213D01*
X138321753Y-38435213D01*
X138295193Y-38415515D01*
X138270692Y-38393308D01*
X138248485Y-38368807D01*
X138228787Y-38342247D01*
X138211787Y-38313884D01*
X138197649Y-38283991D01*
X138186509Y-38252857D01*
X138178475Y-38220781D01*
X138173623Y-38188071D01*
X138172000Y-38155044D01*
X138172000Y-37028956D01*
X138173623Y-36995929D01*
X138178475Y-36963219D01*
X138186509Y-36931143D01*
X138197649Y-36900009D01*
X138211787Y-36870116D01*
X138228787Y-36841753D01*
X138248485Y-36815193D01*
X138270692Y-36790692D01*
X138295193Y-36768485D01*
X138321753Y-36748787D01*
X138350116Y-36731787D01*
X138380009Y-36717649D01*
X138411143Y-36706509D01*
X138443219Y-36698475D01*
X138475929Y-36693623D01*
X138508956Y-36692000D01*
X139385044Y-36692000D01*
X139418071Y-36693623D01*
X139418071Y-36693623D01*
G37*
D19*
X138947000Y-37592000D03*
D11*
G36*
X132676071Y-114043623D02*
X132708781Y-114048475D01*
X132740857Y-114056509D01*
X132771991Y-114067649D01*
X132801884Y-114081787D01*
X132830247Y-114098787D01*
X132856807Y-114118485D01*
X132881308Y-114140692D01*
X132903515Y-114165193D01*
X132923213Y-114191753D01*
X132940213Y-114220116D01*
X132954351Y-114250009D01*
X132965491Y-114281143D01*
X132973525Y-114313219D01*
X132978377Y-114345929D01*
X132980000Y-114378956D01*
X132980000Y-115255044D01*
X132978377Y-115288071D01*
X132973525Y-115320781D01*
X132965491Y-115352857D01*
X132954351Y-115383991D01*
X132940213Y-115413884D01*
X132923213Y-115442247D01*
X132903515Y-115468807D01*
X132881308Y-115493308D01*
X132856807Y-115515515D01*
X132830247Y-115535213D01*
X132801884Y-115552213D01*
X132771991Y-115566351D01*
X132740857Y-115577491D01*
X132708781Y-115585525D01*
X132676071Y-115590377D01*
X132643044Y-115592000D01*
X131516956Y-115592000D01*
X131483929Y-115590377D01*
X131451219Y-115585525D01*
X131419143Y-115577491D01*
X131388009Y-115566351D01*
X131358116Y-115552213D01*
X131329753Y-115535213D01*
X131303193Y-115515515D01*
X131278692Y-115493308D01*
X131256485Y-115468807D01*
X131236787Y-115442247D01*
X131219787Y-115413884D01*
X131205649Y-115383991D01*
X131194509Y-115352857D01*
X131186475Y-115320781D01*
X131181623Y-115288071D01*
X131180000Y-115255044D01*
X131180000Y-114378956D01*
X131181623Y-114345929D01*
X131186475Y-114313219D01*
X131194509Y-114281143D01*
X131205649Y-114250009D01*
X131219787Y-114220116D01*
X131236787Y-114191753D01*
X131256485Y-114165193D01*
X131278692Y-114140692D01*
X131303193Y-114118485D01*
X131329753Y-114098787D01*
X131358116Y-114081787D01*
X131388009Y-114067649D01*
X131419143Y-114056509D01*
X131451219Y-114048475D01*
X131483929Y-114043623D01*
X131516956Y-114042000D01*
X132643044Y-114042000D01*
X132676071Y-114043623D01*
X132676071Y-114043623D01*
G37*
D19*
X132080000Y-114817000D03*
D11*
G36*
X132676071Y-111993623D02*
X132708781Y-111998475D01*
X132740857Y-112006509D01*
X132771991Y-112017649D01*
X132801884Y-112031787D01*
X132830247Y-112048787D01*
X132856807Y-112068485D01*
X132881308Y-112090692D01*
X132903515Y-112115193D01*
X132923213Y-112141753D01*
X132940213Y-112170116D01*
X132954351Y-112200009D01*
X132965491Y-112231143D01*
X132973525Y-112263219D01*
X132978377Y-112295929D01*
X132980000Y-112328956D01*
X132980000Y-113205044D01*
X132978377Y-113238071D01*
X132973525Y-113270781D01*
X132965491Y-113302857D01*
X132954351Y-113333991D01*
X132940213Y-113363884D01*
X132923213Y-113392247D01*
X132903515Y-113418807D01*
X132881308Y-113443308D01*
X132856807Y-113465515D01*
X132830247Y-113485213D01*
X132801884Y-113502213D01*
X132771991Y-113516351D01*
X132740857Y-113527491D01*
X132708781Y-113535525D01*
X132676071Y-113540377D01*
X132643044Y-113542000D01*
X131516956Y-113542000D01*
X131483929Y-113540377D01*
X131451219Y-113535525D01*
X131419143Y-113527491D01*
X131388009Y-113516351D01*
X131358116Y-113502213D01*
X131329753Y-113485213D01*
X131303193Y-113465515D01*
X131278692Y-113443308D01*
X131256485Y-113418807D01*
X131236787Y-113392247D01*
X131219787Y-113363884D01*
X131205649Y-113333991D01*
X131194509Y-113302857D01*
X131186475Y-113270781D01*
X131181623Y-113238071D01*
X131180000Y-113205044D01*
X131180000Y-112328956D01*
X131181623Y-112295929D01*
X131186475Y-112263219D01*
X131194509Y-112231143D01*
X131205649Y-112200009D01*
X131219787Y-112170116D01*
X131236787Y-112141753D01*
X131256485Y-112115193D01*
X131278692Y-112090692D01*
X131303193Y-112068485D01*
X131329753Y-112048787D01*
X131358116Y-112031787D01*
X131388009Y-112017649D01*
X131419143Y-112006509D01*
X131451219Y-111998475D01*
X131483929Y-111993623D01*
X131516956Y-111992000D01*
X132643044Y-111992000D01*
X132676071Y-111993623D01*
X132676071Y-111993623D01*
G37*
D19*
X132080000Y-112767000D03*
D11*
G36*
X130002071Y-87493623D02*
X130034781Y-87498475D01*
X130066857Y-87506509D01*
X130097991Y-87517649D01*
X130127884Y-87531787D01*
X130156247Y-87548787D01*
X130182807Y-87568485D01*
X130207308Y-87590692D01*
X130229515Y-87615193D01*
X130249213Y-87641753D01*
X130266213Y-87670116D01*
X130280351Y-87700009D01*
X130291491Y-87731143D01*
X130299525Y-87763219D01*
X130304377Y-87795929D01*
X130306000Y-87828956D01*
X130306000Y-88955044D01*
X130304377Y-88988071D01*
X130299525Y-89020781D01*
X130291491Y-89052857D01*
X130280351Y-89083991D01*
X130266213Y-89113884D01*
X130249213Y-89142247D01*
X130229515Y-89168807D01*
X130207308Y-89193308D01*
X130182807Y-89215515D01*
X130156247Y-89235213D01*
X130127884Y-89252213D01*
X130097991Y-89266351D01*
X130066857Y-89277491D01*
X130034781Y-89285525D01*
X130002071Y-89290377D01*
X129969044Y-89292000D01*
X129092956Y-89292000D01*
X129059929Y-89290377D01*
X129027219Y-89285525D01*
X128995143Y-89277491D01*
X128964009Y-89266351D01*
X128934116Y-89252213D01*
X128905753Y-89235213D01*
X128879193Y-89215515D01*
X128854692Y-89193308D01*
X128832485Y-89168807D01*
X128812787Y-89142247D01*
X128795787Y-89113884D01*
X128781649Y-89083991D01*
X128770509Y-89052857D01*
X128762475Y-89020781D01*
X128757623Y-88988071D01*
X128756000Y-88955044D01*
X128756000Y-87828956D01*
X128757623Y-87795929D01*
X128762475Y-87763219D01*
X128770509Y-87731143D01*
X128781649Y-87700009D01*
X128795787Y-87670116D01*
X128812787Y-87641753D01*
X128832485Y-87615193D01*
X128854692Y-87590692D01*
X128879193Y-87568485D01*
X128905753Y-87548787D01*
X128934116Y-87531787D01*
X128964009Y-87517649D01*
X128995143Y-87506509D01*
X129027219Y-87498475D01*
X129059929Y-87493623D01*
X129092956Y-87492000D01*
X129969044Y-87492000D01*
X130002071Y-87493623D01*
X130002071Y-87493623D01*
G37*
D19*
X129531000Y-88392000D03*
D11*
G36*
X132052071Y-87493623D02*
X132084781Y-87498475D01*
X132116857Y-87506509D01*
X132147991Y-87517649D01*
X132177884Y-87531787D01*
X132206247Y-87548787D01*
X132232807Y-87568485D01*
X132257308Y-87590692D01*
X132279515Y-87615193D01*
X132299213Y-87641753D01*
X132316213Y-87670116D01*
X132330351Y-87700009D01*
X132341491Y-87731143D01*
X132349525Y-87763219D01*
X132354377Y-87795929D01*
X132356000Y-87828956D01*
X132356000Y-88955044D01*
X132354377Y-88988071D01*
X132349525Y-89020781D01*
X132341491Y-89052857D01*
X132330351Y-89083991D01*
X132316213Y-89113884D01*
X132299213Y-89142247D01*
X132279515Y-89168807D01*
X132257308Y-89193308D01*
X132232807Y-89215515D01*
X132206247Y-89235213D01*
X132177884Y-89252213D01*
X132147991Y-89266351D01*
X132116857Y-89277491D01*
X132084781Y-89285525D01*
X132052071Y-89290377D01*
X132019044Y-89292000D01*
X131142956Y-89292000D01*
X131109929Y-89290377D01*
X131077219Y-89285525D01*
X131045143Y-89277491D01*
X131014009Y-89266351D01*
X130984116Y-89252213D01*
X130955753Y-89235213D01*
X130929193Y-89215515D01*
X130904692Y-89193308D01*
X130882485Y-89168807D01*
X130862787Y-89142247D01*
X130845787Y-89113884D01*
X130831649Y-89083991D01*
X130820509Y-89052857D01*
X130812475Y-89020781D01*
X130807623Y-88988071D01*
X130806000Y-88955044D01*
X130806000Y-87828956D01*
X130807623Y-87795929D01*
X130812475Y-87763219D01*
X130820509Y-87731143D01*
X130831649Y-87700009D01*
X130845787Y-87670116D01*
X130862787Y-87641753D01*
X130882485Y-87615193D01*
X130904692Y-87590692D01*
X130929193Y-87568485D01*
X130955753Y-87548787D01*
X130984116Y-87531787D01*
X131014009Y-87517649D01*
X131045143Y-87506509D01*
X131077219Y-87498475D01*
X131109929Y-87493623D01*
X131142956Y-87492000D01*
X132019044Y-87492000D01*
X132052071Y-87493623D01*
X132052071Y-87493623D01*
G37*
D19*
X131581000Y-88392000D03*
D11*
G36*
X129120071Y-93705623D02*
X129152781Y-93710475D01*
X129184857Y-93718509D01*
X129215991Y-93729649D01*
X129245884Y-93743787D01*
X129274247Y-93760787D01*
X129300807Y-93780485D01*
X129325308Y-93802692D01*
X129347515Y-93827193D01*
X129367213Y-93853753D01*
X129384213Y-93882116D01*
X129398351Y-93912009D01*
X129409491Y-93943143D01*
X129417525Y-93975219D01*
X129422377Y-94007929D01*
X129424000Y-94040956D01*
X129424000Y-94917044D01*
X129422377Y-94950071D01*
X129417525Y-94982781D01*
X129409491Y-95014857D01*
X129398351Y-95045991D01*
X129384213Y-95075884D01*
X129367213Y-95104247D01*
X129347515Y-95130807D01*
X129325308Y-95155308D01*
X129300807Y-95177515D01*
X129274247Y-95197213D01*
X129245884Y-95214213D01*
X129215991Y-95228351D01*
X129184857Y-95239491D01*
X129152781Y-95247525D01*
X129120071Y-95252377D01*
X129087044Y-95254000D01*
X127960956Y-95254000D01*
X127927929Y-95252377D01*
X127895219Y-95247525D01*
X127863143Y-95239491D01*
X127832009Y-95228351D01*
X127802116Y-95214213D01*
X127773753Y-95197213D01*
X127747193Y-95177515D01*
X127722692Y-95155308D01*
X127700485Y-95130807D01*
X127680787Y-95104247D01*
X127663787Y-95075884D01*
X127649649Y-95045991D01*
X127638509Y-95014857D01*
X127630475Y-94982781D01*
X127625623Y-94950071D01*
X127624000Y-94917044D01*
X127624000Y-94040956D01*
X127625623Y-94007929D01*
X127630475Y-93975219D01*
X127638509Y-93943143D01*
X127649649Y-93912009D01*
X127663787Y-93882116D01*
X127680787Y-93853753D01*
X127700485Y-93827193D01*
X127722692Y-93802692D01*
X127747193Y-93780485D01*
X127773753Y-93760787D01*
X127802116Y-93743787D01*
X127832009Y-93729649D01*
X127863143Y-93718509D01*
X127895219Y-93710475D01*
X127927929Y-93705623D01*
X127960956Y-93704000D01*
X129087044Y-93704000D01*
X129120071Y-93705623D01*
X129120071Y-93705623D01*
G37*
D19*
X128524000Y-94479000D03*
D11*
G36*
X129120071Y-95755623D02*
X129152781Y-95760475D01*
X129184857Y-95768509D01*
X129215991Y-95779649D01*
X129245884Y-95793787D01*
X129274247Y-95810787D01*
X129300807Y-95830485D01*
X129325308Y-95852692D01*
X129347515Y-95877193D01*
X129367213Y-95903753D01*
X129384213Y-95932116D01*
X129398351Y-95962009D01*
X129409491Y-95993143D01*
X129417525Y-96025219D01*
X129422377Y-96057929D01*
X129424000Y-96090956D01*
X129424000Y-96967044D01*
X129422377Y-97000071D01*
X129417525Y-97032781D01*
X129409491Y-97064857D01*
X129398351Y-97095991D01*
X129384213Y-97125884D01*
X129367213Y-97154247D01*
X129347515Y-97180807D01*
X129325308Y-97205308D01*
X129300807Y-97227515D01*
X129274247Y-97247213D01*
X129245884Y-97264213D01*
X129215991Y-97278351D01*
X129184857Y-97289491D01*
X129152781Y-97297525D01*
X129120071Y-97302377D01*
X129087044Y-97304000D01*
X127960956Y-97304000D01*
X127927929Y-97302377D01*
X127895219Y-97297525D01*
X127863143Y-97289491D01*
X127832009Y-97278351D01*
X127802116Y-97264213D01*
X127773753Y-97247213D01*
X127747193Y-97227515D01*
X127722692Y-97205308D01*
X127700485Y-97180807D01*
X127680787Y-97154247D01*
X127663787Y-97125884D01*
X127649649Y-97095991D01*
X127638509Y-97064857D01*
X127630475Y-97032781D01*
X127625623Y-97000071D01*
X127624000Y-96967044D01*
X127624000Y-96090956D01*
X127625623Y-96057929D01*
X127630475Y-96025219D01*
X127638509Y-95993143D01*
X127649649Y-95962009D01*
X127663787Y-95932116D01*
X127680787Y-95903753D01*
X127700485Y-95877193D01*
X127722692Y-95852692D01*
X127747193Y-95830485D01*
X127773753Y-95810787D01*
X127802116Y-95793787D01*
X127832009Y-95779649D01*
X127863143Y-95768509D01*
X127895219Y-95760475D01*
X127927929Y-95755623D01*
X127960956Y-95754000D01*
X129087044Y-95754000D01*
X129120071Y-95755623D01*
X129120071Y-95755623D01*
G37*
D19*
X128524000Y-96529000D03*
D11*
G36*
X135862071Y-101209623D02*
X135894781Y-101214475D01*
X135926857Y-101222509D01*
X135957991Y-101233649D01*
X135987884Y-101247787D01*
X136016247Y-101264787D01*
X136042807Y-101284485D01*
X136067308Y-101306692D01*
X136089515Y-101331193D01*
X136109213Y-101357753D01*
X136126213Y-101386116D01*
X136140351Y-101416009D01*
X136151491Y-101447143D01*
X136159525Y-101479219D01*
X136164377Y-101511929D01*
X136166000Y-101544956D01*
X136166000Y-102671044D01*
X136164377Y-102704071D01*
X136159525Y-102736781D01*
X136151491Y-102768857D01*
X136140351Y-102799991D01*
X136126213Y-102829884D01*
X136109213Y-102858247D01*
X136089515Y-102884807D01*
X136067308Y-102909308D01*
X136042807Y-102931515D01*
X136016247Y-102951213D01*
X135987884Y-102968213D01*
X135957991Y-102982351D01*
X135926857Y-102993491D01*
X135894781Y-103001525D01*
X135862071Y-103006377D01*
X135829044Y-103008000D01*
X134952956Y-103008000D01*
X134919929Y-103006377D01*
X134887219Y-103001525D01*
X134855143Y-102993491D01*
X134824009Y-102982351D01*
X134794116Y-102968213D01*
X134765753Y-102951213D01*
X134739193Y-102931515D01*
X134714692Y-102909308D01*
X134692485Y-102884807D01*
X134672787Y-102858247D01*
X134655787Y-102829884D01*
X134641649Y-102799991D01*
X134630509Y-102768857D01*
X134622475Y-102736781D01*
X134617623Y-102704071D01*
X134616000Y-102671044D01*
X134616000Y-101544956D01*
X134617623Y-101511929D01*
X134622475Y-101479219D01*
X134630509Y-101447143D01*
X134641649Y-101416009D01*
X134655787Y-101386116D01*
X134672787Y-101357753D01*
X134692485Y-101331193D01*
X134714692Y-101306692D01*
X134739193Y-101284485D01*
X134765753Y-101264787D01*
X134794116Y-101247787D01*
X134824009Y-101233649D01*
X134855143Y-101222509D01*
X134887219Y-101214475D01*
X134919929Y-101209623D01*
X134952956Y-101208000D01*
X135829044Y-101208000D01*
X135862071Y-101209623D01*
X135862071Y-101209623D01*
G37*
D19*
X135391000Y-102108000D03*
D11*
G36*
X133812071Y-101209623D02*
X133844781Y-101214475D01*
X133876857Y-101222509D01*
X133907991Y-101233649D01*
X133937884Y-101247787D01*
X133966247Y-101264787D01*
X133992807Y-101284485D01*
X134017308Y-101306692D01*
X134039515Y-101331193D01*
X134059213Y-101357753D01*
X134076213Y-101386116D01*
X134090351Y-101416009D01*
X134101491Y-101447143D01*
X134109525Y-101479219D01*
X134114377Y-101511929D01*
X134116000Y-101544956D01*
X134116000Y-102671044D01*
X134114377Y-102704071D01*
X134109525Y-102736781D01*
X134101491Y-102768857D01*
X134090351Y-102799991D01*
X134076213Y-102829884D01*
X134059213Y-102858247D01*
X134039515Y-102884807D01*
X134017308Y-102909308D01*
X133992807Y-102931515D01*
X133966247Y-102951213D01*
X133937884Y-102968213D01*
X133907991Y-102982351D01*
X133876857Y-102993491D01*
X133844781Y-103001525D01*
X133812071Y-103006377D01*
X133779044Y-103008000D01*
X132902956Y-103008000D01*
X132869929Y-103006377D01*
X132837219Y-103001525D01*
X132805143Y-102993491D01*
X132774009Y-102982351D01*
X132744116Y-102968213D01*
X132715753Y-102951213D01*
X132689193Y-102931515D01*
X132664692Y-102909308D01*
X132642485Y-102884807D01*
X132622787Y-102858247D01*
X132605787Y-102829884D01*
X132591649Y-102799991D01*
X132580509Y-102768857D01*
X132572475Y-102736781D01*
X132567623Y-102704071D01*
X132566000Y-102671044D01*
X132566000Y-101544956D01*
X132567623Y-101511929D01*
X132572475Y-101479219D01*
X132580509Y-101447143D01*
X132591649Y-101416009D01*
X132605787Y-101386116D01*
X132622787Y-101357753D01*
X132642485Y-101331193D01*
X132664692Y-101306692D01*
X132689193Y-101284485D01*
X132715753Y-101264787D01*
X132744116Y-101247787D01*
X132774009Y-101233649D01*
X132805143Y-101222509D01*
X132837219Y-101214475D01*
X132869929Y-101209623D01*
X132902956Y-101208000D01*
X133779044Y-101208000D01*
X133812071Y-101209623D01*
X133812071Y-101209623D01*
G37*
D19*
X133341000Y-102108000D03*
D21*
X139248000Y-27432000D03*
D22*
X142748000Y-27432000D03*
X153416000Y-27432000D03*
D21*
X149916000Y-27432000D03*
X152852000Y-118364000D03*
D22*
X149352000Y-118364000D03*
D23*
X157758000Y-90424000D03*
X160758000Y-89474000D03*
X160758000Y-91374000D03*
D24*
X155702000Y-56618000D03*
X154752000Y-53618000D03*
X156652000Y-53618000D03*
X132014000Y-41172000D03*
X130114000Y-41172000D03*
X131064000Y-44172000D03*
X131760000Y-80796000D03*
X129860000Y-80796000D03*
X130810000Y-83796000D03*
D11*
G36*
X161262071Y-96891623D02*
X161294781Y-96896475D01*
X161326857Y-96904509D01*
X161357991Y-96915649D01*
X161387884Y-96929787D01*
X161416247Y-96946787D01*
X161442807Y-96966485D01*
X161467308Y-96988692D01*
X161489515Y-97013193D01*
X161509213Y-97039753D01*
X161526213Y-97068116D01*
X161540351Y-97098009D01*
X161551491Y-97129143D01*
X161559525Y-97161219D01*
X161564377Y-97193929D01*
X161566000Y-97226956D01*
X161566000Y-98353044D01*
X161564377Y-98386071D01*
X161559525Y-98418781D01*
X161551491Y-98450857D01*
X161540351Y-98481991D01*
X161526213Y-98511884D01*
X161509213Y-98540247D01*
X161489515Y-98566807D01*
X161467308Y-98591308D01*
X161442807Y-98613515D01*
X161416247Y-98633213D01*
X161387884Y-98650213D01*
X161357991Y-98664351D01*
X161326857Y-98675491D01*
X161294781Y-98683525D01*
X161262071Y-98688377D01*
X161229044Y-98690000D01*
X160352956Y-98690000D01*
X160319929Y-98688377D01*
X160287219Y-98683525D01*
X160255143Y-98675491D01*
X160224009Y-98664351D01*
X160194116Y-98650213D01*
X160165753Y-98633213D01*
X160139193Y-98613515D01*
X160114692Y-98591308D01*
X160092485Y-98566807D01*
X160072787Y-98540247D01*
X160055787Y-98511884D01*
X160041649Y-98481991D01*
X160030509Y-98450857D01*
X160022475Y-98418781D01*
X160017623Y-98386071D01*
X160016000Y-98353044D01*
X160016000Y-97226956D01*
X160017623Y-97193929D01*
X160022475Y-97161219D01*
X160030509Y-97129143D01*
X160041649Y-97098009D01*
X160055787Y-97068116D01*
X160072787Y-97039753D01*
X160092485Y-97013193D01*
X160114692Y-96988692D01*
X160139193Y-96966485D01*
X160165753Y-96946787D01*
X160194116Y-96929787D01*
X160224009Y-96915649D01*
X160255143Y-96904509D01*
X160287219Y-96896475D01*
X160319929Y-96891623D01*
X160352956Y-96890000D01*
X161229044Y-96890000D01*
X161262071Y-96891623D01*
X161262071Y-96891623D01*
G37*
D19*
X160791000Y-97790000D03*
D11*
G36*
X159212071Y-96891623D02*
X159244781Y-96896475D01*
X159276857Y-96904509D01*
X159307991Y-96915649D01*
X159337884Y-96929787D01*
X159366247Y-96946787D01*
X159392807Y-96966485D01*
X159417308Y-96988692D01*
X159439515Y-97013193D01*
X159459213Y-97039753D01*
X159476213Y-97068116D01*
X159490351Y-97098009D01*
X159501491Y-97129143D01*
X159509525Y-97161219D01*
X159514377Y-97193929D01*
X159516000Y-97226956D01*
X159516000Y-98353044D01*
X159514377Y-98386071D01*
X159509525Y-98418781D01*
X159501491Y-98450857D01*
X159490351Y-98481991D01*
X159476213Y-98511884D01*
X159459213Y-98540247D01*
X159439515Y-98566807D01*
X159417308Y-98591308D01*
X159392807Y-98613515D01*
X159366247Y-98633213D01*
X159337884Y-98650213D01*
X159307991Y-98664351D01*
X159276857Y-98675491D01*
X159244781Y-98683525D01*
X159212071Y-98688377D01*
X159179044Y-98690000D01*
X158302956Y-98690000D01*
X158269929Y-98688377D01*
X158237219Y-98683525D01*
X158205143Y-98675491D01*
X158174009Y-98664351D01*
X158144116Y-98650213D01*
X158115753Y-98633213D01*
X158089193Y-98613515D01*
X158064692Y-98591308D01*
X158042485Y-98566807D01*
X158022787Y-98540247D01*
X158005787Y-98511884D01*
X157991649Y-98481991D01*
X157980509Y-98450857D01*
X157972475Y-98418781D01*
X157967623Y-98386071D01*
X157966000Y-98353044D01*
X157966000Y-97226956D01*
X157967623Y-97193929D01*
X157972475Y-97161219D01*
X157980509Y-97129143D01*
X157991649Y-97098009D01*
X158005787Y-97068116D01*
X158022787Y-97039753D01*
X158042485Y-97013193D01*
X158064692Y-96988692D01*
X158089193Y-96966485D01*
X158115753Y-96946787D01*
X158144116Y-96929787D01*
X158174009Y-96915649D01*
X158205143Y-96904509D01*
X158237219Y-96896475D01*
X158269929Y-96891623D01*
X158302956Y-96890000D01*
X159179044Y-96890000D01*
X159212071Y-96891623D01*
X159212071Y-96891623D01*
G37*
D19*
X158741000Y-97790000D03*
D11*
G36*
X161124071Y-53083623D02*
X161156781Y-53088475D01*
X161188857Y-53096509D01*
X161219991Y-53107649D01*
X161249884Y-53121787D01*
X161278247Y-53138787D01*
X161304807Y-53158485D01*
X161329308Y-53180692D01*
X161351515Y-53205193D01*
X161371213Y-53231753D01*
X161388213Y-53260116D01*
X161402351Y-53290009D01*
X161413491Y-53321143D01*
X161421525Y-53353219D01*
X161426377Y-53385929D01*
X161428000Y-53418956D01*
X161428000Y-54295044D01*
X161426377Y-54328071D01*
X161421525Y-54360781D01*
X161413491Y-54392857D01*
X161402351Y-54423991D01*
X161388213Y-54453884D01*
X161371213Y-54482247D01*
X161351515Y-54508807D01*
X161329308Y-54533308D01*
X161304807Y-54555515D01*
X161278247Y-54575213D01*
X161249884Y-54592213D01*
X161219991Y-54606351D01*
X161188857Y-54617491D01*
X161156781Y-54625525D01*
X161124071Y-54630377D01*
X161091044Y-54632000D01*
X159964956Y-54632000D01*
X159931929Y-54630377D01*
X159899219Y-54625525D01*
X159867143Y-54617491D01*
X159836009Y-54606351D01*
X159806116Y-54592213D01*
X159777753Y-54575213D01*
X159751193Y-54555515D01*
X159726692Y-54533308D01*
X159704485Y-54508807D01*
X159684787Y-54482247D01*
X159667787Y-54453884D01*
X159653649Y-54423991D01*
X159642509Y-54392857D01*
X159634475Y-54360781D01*
X159629623Y-54328071D01*
X159628000Y-54295044D01*
X159628000Y-53418956D01*
X159629623Y-53385929D01*
X159634475Y-53353219D01*
X159642509Y-53321143D01*
X159653649Y-53290009D01*
X159667787Y-53260116D01*
X159684787Y-53231753D01*
X159704485Y-53205193D01*
X159726692Y-53180692D01*
X159751193Y-53158485D01*
X159777753Y-53138787D01*
X159806116Y-53121787D01*
X159836009Y-53107649D01*
X159867143Y-53096509D01*
X159899219Y-53088475D01*
X159931929Y-53083623D01*
X159964956Y-53082000D01*
X161091044Y-53082000D01*
X161124071Y-53083623D01*
X161124071Y-53083623D01*
G37*
D19*
X160528000Y-53857000D03*
D11*
G36*
X161124071Y-51033623D02*
X161156781Y-51038475D01*
X161188857Y-51046509D01*
X161219991Y-51057649D01*
X161249884Y-51071787D01*
X161278247Y-51088787D01*
X161304807Y-51108485D01*
X161329308Y-51130692D01*
X161351515Y-51155193D01*
X161371213Y-51181753D01*
X161388213Y-51210116D01*
X161402351Y-51240009D01*
X161413491Y-51271143D01*
X161421525Y-51303219D01*
X161426377Y-51335929D01*
X161428000Y-51368956D01*
X161428000Y-52245044D01*
X161426377Y-52278071D01*
X161421525Y-52310781D01*
X161413491Y-52342857D01*
X161402351Y-52373991D01*
X161388213Y-52403884D01*
X161371213Y-52432247D01*
X161351515Y-52458807D01*
X161329308Y-52483308D01*
X161304807Y-52505515D01*
X161278247Y-52525213D01*
X161249884Y-52542213D01*
X161219991Y-52556351D01*
X161188857Y-52567491D01*
X161156781Y-52575525D01*
X161124071Y-52580377D01*
X161091044Y-52582000D01*
X159964956Y-52582000D01*
X159931929Y-52580377D01*
X159899219Y-52575525D01*
X159867143Y-52567491D01*
X159836009Y-52556351D01*
X159806116Y-52542213D01*
X159777753Y-52525213D01*
X159751193Y-52505515D01*
X159726692Y-52483308D01*
X159704485Y-52458807D01*
X159684787Y-52432247D01*
X159667787Y-52403884D01*
X159653649Y-52373991D01*
X159642509Y-52342857D01*
X159634475Y-52310781D01*
X159629623Y-52278071D01*
X159628000Y-52245044D01*
X159628000Y-51368956D01*
X159629623Y-51335929D01*
X159634475Y-51303219D01*
X159642509Y-51271143D01*
X159653649Y-51240009D01*
X159667787Y-51210116D01*
X159684787Y-51181753D01*
X159704485Y-51155193D01*
X159726692Y-51130692D01*
X159751193Y-51108485D01*
X159777753Y-51088787D01*
X159806116Y-51071787D01*
X159836009Y-51057649D01*
X159867143Y-51046509D01*
X159899219Y-51038475D01*
X159931929Y-51033623D01*
X159964956Y-51032000D01*
X161091044Y-51032000D01*
X161124071Y-51033623D01*
X161124071Y-51033623D01*
G37*
D19*
X160528000Y-51807000D03*
D11*
G36*
X143736071Y-101209623D02*
X143768781Y-101214475D01*
X143800857Y-101222509D01*
X143831991Y-101233649D01*
X143861884Y-101247787D01*
X143890247Y-101264787D01*
X143916807Y-101284485D01*
X143941308Y-101306692D01*
X143963515Y-101331193D01*
X143983213Y-101357753D01*
X144000213Y-101386116D01*
X144014351Y-101416009D01*
X144025491Y-101447143D01*
X144033525Y-101479219D01*
X144038377Y-101511929D01*
X144040000Y-101544956D01*
X144040000Y-102671044D01*
X144038377Y-102704071D01*
X144033525Y-102736781D01*
X144025491Y-102768857D01*
X144014351Y-102799991D01*
X144000213Y-102829884D01*
X143983213Y-102858247D01*
X143963515Y-102884807D01*
X143941308Y-102909308D01*
X143916807Y-102931515D01*
X143890247Y-102951213D01*
X143861884Y-102968213D01*
X143831991Y-102982351D01*
X143800857Y-102993491D01*
X143768781Y-103001525D01*
X143736071Y-103006377D01*
X143703044Y-103008000D01*
X142826956Y-103008000D01*
X142793929Y-103006377D01*
X142761219Y-103001525D01*
X142729143Y-102993491D01*
X142698009Y-102982351D01*
X142668116Y-102968213D01*
X142639753Y-102951213D01*
X142613193Y-102931515D01*
X142588692Y-102909308D01*
X142566485Y-102884807D01*
X142546787Y-102858247D01*
X142529787Y-102829884D01*
X142515649Y-102799991D01*
X142504509Y-102768857D01*
X142496475Y-102736781D01*
X142491623Y-102704071D01*
X142490000Y-102671044D01*
X142490000Y-101544956D01*
X142491623Y-101511929D01*
X142496475Y-101479219D01*
X142504509Y-101447143D01*
X142515649Y-101416009D01*
X142529787Y-101386116D01*
X142546787Y-101357753D01*
X142566485Y-101331193D01*
X142588692Y-101306692D01*
X142613193Y-101284485D01*
X142639753Y-101264787D01*
X142668116Y-101247787D01*
X142698009Y-101233649D01*
X142729143Y-101222509D01*
X142761219Y-101214475D01*
X142793929Y-101209623D01*
X142826956Y-101208000D01*
X143703044Y-101208000D01*
X143736071Y-101209623D01*
X143736071Y-101209623D01*
G37*
D19*
X143265000Y-102108000D03*
D11*
G36*
X141686071Y-101209623D02*
X141718781Y-101214475D01*
X141750857Y-101222509D01*
X141781991Y-101233649D01*
X141811884Y-101247787D01*
X141840247Y-101264787D01*
X141866807Y-101284485D01*
X141891308Y-101306692D01*
X141913515Y-101331193D01*
X141933213Y-101357753D01*
X141950213Y-101386116D01*
X141964351Y-101416009D01*
X141975491Y-101447143D01*
X141983525Y-101479219D01*
X141988377Y-101511929D01*
X141990000Y-101544956D01*
X141990000Y-102671044D01*
X141988377Y-102704071D01*
X141983525Y-102736781D01*
X141975491Y-102768857D01*
X141964351Y-102799991D01*
X141950213Y-102829884D01*
X141933213Y-102858247D01*
X141913515Y-102884807D01*
X141891308Y-102909308D01*
X141866807Y-102931515D01*
X141840247Y-102951213D01*
X141811884Y-102968213D01*
X141781991Y-102982351D01*
X141750857Y-102993491D01*
X141718781Y-103001525D01*
X141686071Y-103006377D01*
X141653044Y-103008000D01*
X140776956Y-103008000D01*
X140743929Y-103006377D01*
X140711219Y-103001525D01*
X140679143Y-102993491D01*
X140648009Y-102982351D01*
X140618116Y-102968213D01*
X140589753Y-102951213D01*
X140563193Y-102931515D01*
X140538692Y-102909308D01*
X140516485Y-102884807D01*
X140496787Y-102858247D01*
X140479787Y-102829884D01*
X140465649Y-102799991D01*
X140454509Y-102768857D01*
X140446475Y-102736781D01*
X140441623Y-102704071D01*
X140440000Y-102671044D01*
X140440000Y-101544956D01*
X140441623Y-101511929D01*
X140446475Y-101479219D01*
X140454509Y-101447143D01*
X140465649Y-101416009D01*
X140479787Y-101386116D01*
X140496787Y-101357753D01*
X140516485Y-101331193D01*
X140538692Y-101306692D01*
X140563193Y-101284485D01*
X140589753Y-101264787D01*
X140618116Y-101247787D01*
X140648009Y-101233649D01*
X140679143Y-101222509D01*
X140711219Y-101214475D01*
X140743929Y-101209623D01*
X140776956Y-101208000D01*
X141653044Y-101208000D01*
X141686071Y-101209623D01*
X141686071Y-101209623D01*
G37*
D19*
X141215000Y-102108000D03*
D11*
G36*
X159212071Y-93589623D02*
X159244781Y-93594475D01*
X159276857Y-93602509D01*
X159307991Y-93613649D01*
X159337884Y-93627787D01*
X159366247Y-93644787D01*
X159392807Y-93664485D01*
X159417308Y-93686692D01*
X159439515Y-93711193D01*
X159459213Y-93737753D01*
X159476213Y-93766116D01*
X159490351Y-93796009D01*
X159501491Y-93827143D01*
X159509525Y-93859219D01*
X159514377Y-93891929D01*
X159516000Y-93924956D01*
X159516000Y-95051044D01*
X159514377Y-95084071D01*
X159509525Y-95116781D01*
X159501491Y-95148857D01*
X159490351Y-95179991D01*
X159476213Y-95209884D01*
X159459213Y-95238247D01*
X159439515Y-95264807D01*
X159417308Y-95289308D01*
X159392807Y-95311515D01*
X159366247Y-95331213D01*
X159337884Y-95348213D01*
X159307991Y-95362351D01*
X159276857Y-95373491D01*
X159244781Y-95381525D01*
X159212071Y-95386377D01*
X159179044Y-95388000D01*
X158302956Y-95388000D01*
X158269929Y-95386377D01*
X158237219Y-95381525D01*
X158205143Y-95373491D01*
X158174009Y-95362351D01*
X158144116Y-95348213D01*
X158115753Y-95331213D01*
X158089193Y-95311515D01*
X158064692Y-95289308D01*
X158042485Y-95264807D01*
X158022787Y-95238247D01*
X158005787Y-95209884D01*
X157991649Y-95179991D01*
X157980509Y-95148857D01*
X157972475Y-95116781D01*
X157967623Y-95084071D01*
X157966000Y-95051044D01*
X157966000Y-93924956D01*
X157967623Y-93891929D01*
X157972475Y-93859219D01*
X157980509Y-93827143D01*
X157991649Y-93796009D01*
X158005787Y-93766116D01*
X158022787Y-93737753D01*
X158042485Y-93711193D01*
X158064692Y-93686692D01*
X158089193Y-93664485D01*
X158115753Y-93644787D01*
X158144116Y-93627787D01*
X158174009Y-93613649D01*
X158205143Y-93602509D01*
X158237219Y-93594475D01*
X158269929Y-93589623D01*
X158302956Y-93588000D01*
X159179044Y-93588000D01*
X159212071Y-93589623D01*
X159212071Y-93589623D01*
G37*
D19*
X158741000Y-94488000D03*
D11*
G36*
X161262071Y-93589623D02*
X161294781Y-93594475D01*
X161326857Y-93602509D01*
X161357991Y-93613649D01*
X161387884Y-93627787D01*
X161416247Y-93644787D01*
X161442807Y-93664485D01*
X161467308Y-93686692D01*
X161489515Y-93711193D01*
X161509213Y-93737753D01*
X161526213Y-93766116D01*
X161540351Y-93796009D01*
X161551491Y-93827143D01*
X161559525Y-93859219D01*
X161564377Y-93891929D01*
X161566000Y-93924956D01*
X161566000Y-95051044D01*
X161564377Y-95084071D01*
X161559525Y-95116781D01*
X161551491Y-95148857D01*
X161540351Y-95179991D01*
X161526213Y-95209884D01*
X161509213Y-95238247D01*
X161489515Y-95264807D01*
X161467308Y-95289308D01*
X161442807Y-95311515D01*
X161416247Y-95331213D01*
X161387884Y-95348213D01*
X161357991Y-95362351D01*
X161326857Y-95373491D01*
X161294781Y-95381525D01*
X161262071Y-95386377D01*
X161229044Y-95388000D01*
X160352956Y-95388000D01*
X160319929Y-95386377D01*
X160287219Y-95381525D01*
X160255143Y-95373491D01*
X160224009Y-95362351D01*
X160194116Y-95348213D01*
X160165753Y-95331213D01*
X160139193Y-95311515D01*
X160114692Y-95289308D01*
X160092485Y-95264807D01*
X160072787Y-95238247D01*
X160055787Y-95209884D01*
X160041649Y-95179991D01*
X160030509Y-95148857D01*
X160022475Y-95116781D01*
X160017623Y-95084071D01*
X160016000Y-95051044D01*
X160016000Y-93924956D01*
X160017623Y-93891929D01*
X160022475Y-93859219D01*
X160030509Y-93827143D01*
X160041649Y-93796009D01*
X160055787Y-93766116D01*
X160072787Y-93737753D01*
X160092485Y-93711193D01*
X160114692Y-93686692D01*
X160139193Y-93664485D01*
X160165753Y-93644787D01*
X160194116Y-93627787D01*
X160224009Y-93613649D01*
X160255143Y-93602509D01*
X160287219Y-93594475D01*
X160319929Y-93589623D01*
X160352956Y-93588000D01*
X161229044Y-93588000D01*
X161262071Y-93589623D01*
X161262071Y-93589623D01*
G37*
D19*
X160791000Y-94488000D03*
D11*
G36*
X151356071Y-32629623D02*
X151388781Y-32634475D01*
X151420857Y-32642509D01*
X151451991Y-32653649D01*
X151481884Y-32667787D01*
X151510247Y-32684787D01*
X151536807Y-32704485D01*
X151561308Y-32726692D01*
X151583515Y-32751193D01*
X151603213Y-32777753D01*
X151620213Y-32806116D01*
X151634351Y-32836009D01*
X151645491Y-32867143D01*
X151653525Y-32899219D01*
X151658377Y-32931929D01*
X151660000Y-32964956D01*
X151660000Y-34091044D01*
X151658377Y-34124071D01*
X151653525Y-34156781D01*
X151645491Y-34188857D01*
X151634351Y-34219991D01*
X151620213Y-34249884D01*
X151603213Y-34278247D01*
X151583515Y-34304807D01*
X151561308Y-34329308D01*
X151536807Y-34351515D01*
X151510247Y-34371213D01*
X151481884Y-34388213D01*
X151451991Y-34402351D01*
X151420857Y-34413491D01*
X151388781Y-34421525D01*
X151356071Y-34426377D01*
X151323044Y-34428000D01*
X150446956Y-34428000D01*
X150413929Y-34426377D01*
X150381219Y-34421525D01*
X150349143Y-34413491D01*
X150318009Y-34402351D01*
X150288116Y-34388213D01*
X150259753Y-34371213D01*
X150233193Y-34351515D01*
X150208692Y-34329308D01*
X150186485Y-34304807D01*
X150166787Y-34278247D01*
X150149787Y-34249884D01*
X150135649Y-34219991D01*
X150124509Y-34188857D01*
X150116475Y-34156781D01*
X150111623Y-34124071D01*
X150110000Y-34091044D01*
X150110000Y-32964956D01*
X150111623Y-32931929D01*
X150116475Y-32899219D01*
X150124509Y-32867143D01*
X150135649Y-32836009D01*
X150149787Y-32806116D01*
X150166787Y-32777753D01*
X150186485Y-32751193D01*
X150208692Y-32726692D01*
X150233193Y-32704485D01*
X150259753Y-32684787D01*
X150288116Y-32667787D01*
X150318009Y-32653649D01*
X150349143Y-32642509D01*
X150381219Y-32634475D01*
X150413929Y-32629623D01*
X150446956Y-32628000D01*
X151323044Y-32628000D01*
X151356071Y-32629623D01*
X151356071Y-32629623D01*
G37*
D19*
X150885000Y-33528000D03*
D11*
G36*
X149306071Y-32629623D02*
X149338781Y-32634475D01*
X149370857Y-32642509D01*
X149401991Y-32653649D01*
X149431884Y-32667787D01*
X149460247Y-32684787D01*
X149486807Y-32704485D01*
X149511308Y-32726692D01*
X149533515Y-32751193D01*
X149553213Y-32777753D01*
X149570213Y-32806116D01*
X149584351Y-32836009D01*
X149595491Y-32867143D01*
X149603525Y-32899219D01*
X149608377Y-32931929D01*
X149610000Y-32964956D01*
X149610000Y-34091044D01*
X149608377Y-34124071D01*
X149603525Y-34156781D01*
X149595491Y-34188857D01*
X149584351Y-34219991D01*
X149570213Y-34249884D01*
X149553213Y-34278247D01*
X149533515Y-34304807D01*
X149511308Y-34329308D01*
X149486807Y-34351515D01*
X149460247Y-34371213D01*
X149431884Y-34388213D01*
X149401991Y-34402351D01*
X149370857Y-34413491D01*
X149338781Y-34421525D01*
X149306071Y-34426377D01*
X149273044Y-34428000D01*
X148396956Y-34428000D01*
X148363929Y-34426377D01*
X148331219Y-34421525D01*
X148299143Y-34413491D01*
X148268009Y-34402351D01*
X148238116Y-34388213D01*
X148209753Y-34371213D01*
X148183193Y-34351515D01*
X148158692Y-34329308D01*
X148136485Y-34304807D01*
X148116787Y-34278247D01*
X148099787Y-34249884D01*
X148085649Y-34219991D01*
X148074509Y-34188857D01*
X148066475Y-34156781D01*
X148061623Y-34124071D01*
X148060000Y-34091044D01*
X148060000Y-32964956D01*
X148061623Y-32931929D01*
X148066475Y-32899219D01*
X148074509Y-32867143D01*
X148085649Y-32836009D01*
X148099787Y-32806116D01*
X148116787Y-32777753D01*
X148136485Y-32751193D01*
X148158692Y-32726692D01*
X148183193Y-32704485D01*
X148209753Y-32684787D01*
X148238116Y-32667787D01*
X148268009Y-32653649D01*
X148299143Y-32642509D01*
X148331219Y-32634475D01*
X148363929Y-32629623D01*
X148396956Y-32628000D01*
X149273044Y-32628000D01*
X149306071Y-32629623D01*
X149306071Y-32629623D01*
G37*
D19*
X148835000Y-33528000D03*
D11*
G36*
X133558071Y-49393623D02*
X133590781Y-49398475D01*
X133622857Y-49406509D01*
X133653991Y-49417649D01*
X133683884Y-49431787D01*
X133712247Y-49448787D01*
X133738807Y-49468485D01*
X133763308Y-49490692D01*
X133785515Y-49515193D01*
X133805213Y-49541753D01*
X133822213Y-49570116D01*
X133836351Y-49600009D01*
X133847491Y-49631143D01*
X133855525Y-49663219D01*
X133860377Y-49695929D01*
X133862000Y-49728956D01*
X133862000Y-50855044D01*
X133860377Y-50888071D01*
X133855525Y-50920781D01*
X133847491Y-50952857D01*
X133836351Y-50983991D01*
X133822213Y-51013884D01*
X133805213Y-51042247D01*
X133785515Y-51068807D01*
X133763308Y-51093308D01*
X133738807Y-51115515D01*
X133712247Y-51135213D01*
X133683884Y-51152213D01*
X133653991Y-51166351D01*
X133622857Y-51177491D01*
X133590781Y-51185525D01*
X133558071Y-51190377D01*
X133525044Y-51192000D01*
X132648956Y-51192000D01*
X132615929Y-51190377D01*
X132583219Y-51185525D01*
X132551143Y-51177491D01*
X132520009Y-51166351D01*
X132490116Y-51152213D01*
X132461753Y-51135213D01*
X132435193Y-51115515D01*
X132410692Y-51093308D01*
X132388485Y-51068807D01*
X132368787Y-51042247D01*
X132351787Y-51013884D01*
X132337649Y-50983991D01*
X132326509Y-50952857D01*
X132318475Y-50920781D01*
X132313623Y-50888071D01*
X132312000Y-50855044D01*
X132312000Y-49728956D01*
X132313623Y-49695929D01*
X132318475Y-49663219D01*
X132326509Y-49631143D01*
X132337649Y-49600009D01*
X132351787Y-49570116D01*
X132368787Y-49541753D01*
X132388485Y-49515193D01*
X132410692Y-49490692D01*
X132435193Y-49468485D01*
X132461753Y-49448787D01*
X132490116Y-49431787D01*
X132520009Y-49417649D01*
X132551143Y-49406509D01*
X132583219Y-49398475D01*
X132615929Y-49393623D01*
X132648956Y-49392000D01*
X133525044Y-49392000D01*
X133558071Y-49393623D01*
X133558071Y-49393623D01*
G37*
D19*
X133087000Y-50292000D03*
D11*
G36*
X135608071Y-49393623D02*
X135640781Y-49398475D01*
X135672857Y-49406509D01*
X135703991Y-49417649D01*
X135733884Y-49431787D01*
X135762247Y-49448787D01*
X135788807Y-49468485D01*
X135813308Y-49490692D01*
X135835515Y-49515193D01*
X135855213Y-49541753D01*
X135872213Y-49570116D01*
X135886351Y-49600009D01*
X135897491Y-49631143D01*
X135905525Y-49663219D01*
X135910377Y-49695929D01*
X135912000Y-49728956D01*
X135912000Y-50855044D01*
X135910377Y-50888071D01*
X135905525Y-50920781D01*
X135897491Y-50952857D01*
X135886351Y-50983991D01*
X135872213Y-51013884D01*
X135855213Y-51042247D01*
X135835515Y-51068807D01*
X135813308Y-51093308D01*
X135788807Y-51115515D01*
X135762247Y-51135213D01*
X135733884Y-51152213D01*
X135703991Y-51166351D01*
X135672857Y-51177491D01*
X135640781Y-51185525D01*
X135608071Y-51190377D01*
X135575044Y-51192000D01*
X134698956Y-51192000D01*
X134665929Y-51190377D01*
X134633219Y-51185525D01*
X134601143Y-51177491D01*
X134570009Y-51166351D01*
X134540116Y-51152213D01*
X134511753Y-51135213D01*
X134485193Y-51115515D01*
X134460692Y-51093308D01*
X134438485Y-51068807D01*
X134418787Y-51042247D01*
X134401787Y-51013884D01*
X134387649Y-50983991D01*
X134376509Y-50952857D01*
X134368475Y-50920781D01*
X134363623Y-50888071D01*
X134362000Y-50855044D01*
X134362000Y-49728956D01*
X134363623Y-49695929D01*
X134368475Y-49663219D01*
X134376509Y-49631143D01*
X134387649Y-49600009D01*
X134401787Y-49570116D01*
X134418787Y-49541753D01*
X134438485Y-49515193D01*
X134460692Y-49490692D01*
X134485193Y-49468485D01*
X134511753Y-49448787D01*
X134540116Y-49431787D01*
X134570009Y-49417649D01*
X134601143Y-49406509D01*
X134633219Y-49398475D01*
X134665929Y-49393623D01*
X134698956Y-49392000D01*
X135575044Y-49392000D01*
X135608071Y-49393623D01*
X135608071Y-49393623D01*
G37*
D19*
X135137000Y-50292000D03*
D11*
G36*
X130898071Y-76188623D02*
X130930781Y-76193475D01*
X130962857Y-76201509D01*
X130993991Y-76212649D01*
X131023884Y-76226787D01*
X131052247Y-76243787D01*
X131078807Y-76263485D01*
X131103308Y-76285692D01*
X131125515Y-76310193D01*
X131145213Y-76336753D01*
X131162213Y-76365116D01*
X131176351Y-76395009D01*
X131187491Y-76426143D01*
X131195525Y-76458219D01*
X131200377Y-76490929D01*
X131202000Y-76523956D01*
X131202000Y-77400044D01*
X131200377Y-77433071D01*
X131195525Y-77465781D01*
X131187491Y-77497857D01*
X131176351Y-77528991D01*
X131162213Y-77558884D01*
X131145213Y-77587247D01*
X131125515Y-77613807D01*
X131103308Y-77638308D01*
X131078807Y-77660515D01*
X131052247Y-77680213D01*
X131023884Y-77697213D01*
X130993991Y-77711351D01*
X130962857Y-77722491D01*
X130930781Y-77730525D01*
X130898071Y-77735377D01*
X130865044Y-77737000D01*
X129738956Y-77737000D01*
X129705929Y-77735377D01*
X129673219Y-77730525D01*
X129641143Y-77722491D01*
X129610009Y-77711351D01*
X129580116Y-77697213D01*
X129551753Y-77680213D01*
X129525193Y-77660515D01*
X129500692Y-77638308D01*
X129478485Y-77613807D01*
X129458787Y-77587247D01*
X129441787Y-77558884D01*
X129427649Y-77528991D01*
X129416509Y-77497857D01*
X129408475Y-77465781D01*
X129403623Y-77433071D01*
X129402000Y-77400044D01*
X129402000Y-76523956D01*
X129403623Y-76490929D01*
X129408475Y-76458219D01*
X129416509Y-76426143D01*
X129427649Y-76395009D01*
X129441787Y-76365116D01*
X129458787Y-76336753D01*
X129478485Y-76310193D01*
X129500692Y-76285692D01*
X129525193Y-76263485D01*
X129551753Y-76243787D01*
X129580116Y-76226787D01*
X129610009Y-76212649D01*
X129641143Y-76201509D01*
X129673219Y-76193475D01*
X129705929Y-76188623D01*
X129738956Y-76187000D01*
X130865044Y-76187000D01*
X130898071Y-76188623D01*
X130898071Y-76188623D01*
G37*
D19*
X130302000Y-76962000D03*
D11*
G36*
X130898071Y-74138623D02*
X130930781Y-74143475D01*
X130962857Y-74151509D01*
X130993991Y-74162649D01*
X131023884Y-74176787D01*
X131052247Y-74193787D01*
X131078807Y-74213485D01*
X131103308Y-74235692D01*
X131125515Y-74260193D01*
X131145213Y-74286753D01*
X131162213Y-74315116D01*
X131176351Y-74345009D01*
X131187491Y-74376143D01*
X131195525Y-74408219D01*
X131200377Y-74440929D01*
X131202000Y-74473956D01*
X131202000Y-75350044D01*
X131200377Y-75383071D01*
X131195525Y-75415781D01*
X131187491Y-75447857D01*
X131176351Y-75478991D01*
X131162213Y-75508884D01*
X131145213Y-75537247D01*
X131125515Y-75563807D01*
X131103308Y-75588308D01*
X131078807Y-75610515D01*
X131052247Y-75630213D01*
X131023884Y-75647213D01*
X130993991Y-75661351D01*
X130962857Y-75672491D01*
X130930781Y-75680525D01*
X130898071Y-75685377D01*
X130865044Y-75687000D01*
X129738956Y-75687000D01*
X129705929Y-75685377D01*
X129673219Y-75680525D01*
X129641143Y-75672491D01*
X129610009Y-75661351D01*
X129580116Y-75647213D01*
X129551753Y-75630213D01*
X129525193Y-75610515D01*
X129500692Y-75588308D01*
X129478485Y-75563807D01*
X129458787Y-75537247D01*
X129441787Y-75508884D01*
X129427649Y-75478991D01*
X129416509Y-75447857D01*
X129408475Y-75415781D01*
X129403623Y-75383071D01*
X129402000Y-75350044D01*
X129402000Y-74473956D01*
X129403623Y-74440929D01*
X129408475Y-74408219D01*
X129416509Y-74376143D01*
X129427649Y-74345009D01*
X129441787Y-74315116D01*
X129458787Y-74286753D01*
X129478485Y-74260193D01*
X129500692Y-74235692D01*
X129525193Y-74213485D01*
X129551753Y-74193787D01*
X129580116Y-74176787D01*
X129610009Y-74162649D01*
X129641143Y-74151509D01*
X129673219Y-74143475D01*
X129705929Y-74138623D01*
X129738956Y-74137000D01*
X130865044Y-74137000D01*
X130898071Y-74138623D01*
X130898071Y-74138623D01*
G37*
D19*
X130302000Y-74912000D03*
D11*
G36*
X137248071Y-42923623D02*
X137280781Y-42928475D01*
X137312857Y-42936509D01*
X137343991Y-42947649D01*
X137373884Y-42961787D01*
X137402247Y-42978787D01*
X137428807Y-42998485D01*
X137453308Y-43020692D01*
X137475515Y-43045193D01*
X137495213Y-43071753D01*
X137512213Y-43100116D01*
X137526351Y-43130009D01*
X137537491Y-43161143D01*
X137545525Y-43193219D01*
X137550377Y-43225929D01*
X137552000Y-43258956D01*
X137552000Y-44135044D01*
X137550377Y-44168071D01*
X137545525Y-44200781D01*
X137537491Y-44232857D01*
X137526351Y-44263991D01*
X137512213Y-44293884D01*
X137495213Y-44322247D01*
X137475515Y-44348807D01*
X137453308Y-44373308D01*
X137428807Y-44395515D01*
X137402247Y-44415213D01*
X137373884Y-44432213D01*
X137343991Y-44446351D01*
X137312857Y-44457491D01*
X137280781Y-44465525D01*
X137248071Y-44470377D01*
X137215044Y-44472000D01*
X136088956Y-44472000D01*
X136055929Y-44470377D01*
X136023219Y-44465525D01*
X135991143Y-44457491D01*
X135960009Y-44446351D01*
X135930116Y-44432213D01*
X135901753Y-44415213D01*
X135875193Y-44395515D01*
X135850692Y-44373308D01*
X135828485Y-44348807D01*
X135808787Y-44322247D01*
X135791787Y-44293884D01*
X135777649Y-44263991D01*
X135766509Y-44232857D01*
X135758475Y-44200781D01*
X135753623Y-44168071D01*
X135752000Y-44135044D01*
X135752000Y-43258956D01*
X135753623Y-43225929D01*
X135758475Y-43193219D01*
X135766509Y-43161143D01*
X135777649Y-43130009D01*
X135791787Y-43100116D01*
X135808787Y-43071753D01*
X135828485Y-43045193D01*
X135850692Y-43020692D01*
X135875193Y-42998485D01*
X135901753Y-42978787D01*
X135930116Y-42961787D01*
X135960009Y-42947649D01*
X135991143Y-42936509D01*
X136023219Y-42928475D01*
X136055929Y-42923623D01*
X136088956Y-42922000D01*
X137215044Y-42922000D01*
X137248071Y-42923623D01*
X137248071Y-42923623D01*
G37*
D19*
X136652000Y-43697000D03*
D11*
G36*
X137248071Y-40873623D02*
X137280781Y-40878475D01*
X137312857Y-40886509D01*
X137343991Y-40897649D01*
X137373884Y-40911787D01*
X137402247Y-40928787D01*
X137428807Y-40948485D01*
X137453308Y-40970692D01*
X137475515Y-40995193D01*
X137495213Y-41021753D01*
X137512213Y-41050116D01*
X137526351Y-41080009D01*
X137537491Y-41111143D01*
X137545525Y-41143219D01*
X137550377Y-41175929D01*
X137552000Y-41208956D01*
X137552000Y-42085044D01*
X137550377Y-42118071D01*
X137545525Y-42150781D01*
X137537491Y-42182857D01*
X137526351Y-42213991D01*
X137512213Y-42243884D01*
X137495213Y-42272247D01*
X137475515Y-42298807D01*
X137453308Y-42323308D01*
X137428807Y-42345515D01*
X137402247Y-42365213D01*
X137373884Y-42382213D01*
X137343991Y-42396351D01*
X137312857Y-42407491D01*
X137280781Y-42415525D01*
X137248071Y-42420377D01*
X137215044Y-42422000D01*
X136088956Y-42422000D01*
X136055929Y-42420377D01*
X136023219Y-42415525D01*
X135991143Y-42407491D01*
X135960009Y-42396351D01*
X135930116Y-42382213D01*
X135901753Y-42365213D01*
X135875193Y-42345515D01*
X135850692Y-42323308D01*
X135828485Y-42298807D01*
X135808787Y-42272247D01*
X135791787Y-42243884D01*
X135777649Y-42213991D01*
X135766509Y-42182857D01*
X135758475Y-42150781D01*
X135753623Y-42118071D01*
X135752000Y-42085044D01*
X135752000Y-41208956D01*
X135753623Y-41175929D01*
X135758475Y-41143219D01*
X135766509Y-41111143D01*
X135777649Y-41080009D01*
X135791787Y-41050116D01*
X135808787Y-41021753D01*
X135828485Y-40995193D01*
X135850692Y-40970692D01*
X135875193Y-40948485D01*
X135901753Y-40928787D01*
X135930116Y-40911787D01*
X135960009Y-40897649D01*
X135991143Y-40886509D01*
X136023219Y-40878475D01*
X136055929Y-40873623D01*
X136088956Y-40872000D01*
X137215044Y-40872000D01*
X137248071Y-40873623D01*
X137248071Y-40873623D01*
G37*
D19*
X136652000Y-41647000D03*
D11*
G36*
X132676071Y-107421623D02*
X132708781Y-107426475D01*
X132740857Y-107434509D01*
X132771991Y-107445649D01*
X132801884Y-107459787D01*
X132830247Y-107476787D01*
X132856807Y-107496485D01*
X132881308Y-107518692D01*
X132903515Y-107543193D01*
X132923213Y-107569753D01*
X132940213Y-107598116D01*
X132954351Y-107628009D01*
X132965491Y-107659143D01*
X132973525Y-107691219D01*
X132978377Y-107723929D01*
X132980000Y-107756956D01*
X132980000Y-108633044D01*
X132978377Y-108666071D01*
X132973525Y-108698781D01*
X132965491Y-108730857D01*
X132954351Y-108761991D01*
X132940213Y-108791884D01*
X132923213Y-108820247D01*
X132903515Y-108846807D01*
X132881308Y-108871308D01*
X132856807Y-108893515D01*
X132830247Y-108913213D01*
X132801884Y-108930213D01*
X132771991Y-108944351D01*
X132740857Y-108955491D01*
X132708781Y-108963525D01*
X132676071Y-108968377D01*
X132643044Y-108970000D01*
X131516956Y-108970000D01*
X131483929Y-108968377D01*
X131451219Y-108963525D01*
X131419143Y-108955491D01*
X131388009Y-108944351D01*
X131358116Y-108930213D01*
X131329753Y-108913213D01*
X131303193Y-108893515D01*
X131278692Y-108871308D01*
X131256485Y-108846807D01*
X131236787Y-108820247D01*
X131219787Y-108791884D01*
X131205649Y-108761991D01*
X131194509Y-108730857D01*
X131186475Y-108698781D01*
X131181623Y-108666071D01*
X131180000Y-108633044D01*
X131180000Y-107756956D01*
X131181623Y-107723929D01*
X131186475Y-107691219D01*
X131194509Y-107659143D01*
X131205649Y-107628009D01*
X131219787Y-107598116D01*
X131236787Y-107569753D01*
X131256485Y-107543193D01*
X131278692Y-107518692D01*
X131303193Y-107496485D01*
X131329753Y-107476787D01*
X131358116Y-107459787D01*
X131388009Y-107445649D01*
X131419143Y-107434509D01*
X131451219Y-107426475D01*
X131483929Y-107421623D01*
X131516956Y-107420000D01*
X132643044Y-107420000D01*
X132676071Y-107421623D01*
X132676071Y-107421623D01*
G37*
D19*
X132080000Y-108195000D03*
D11*
G36*
X132676071Y-109471623D02*
X132708781Y-109476475D01*
X132740857Y-109484509D01*
X132771991Y-109495649D01*
X132801884Y-109509787D01*
X132830247Y-109526787D01*
X132856807Y-109546485D01*
X132881308Y-109568692D01*
X132903515Y-109593193D01*
X132923213Y-109619753D01*
X132940213Y-109648116D01*
X132954351Y-109678009D01*
X132965491Y-109709143D01*
X132973525Y-109741219D01*
X132978377Y-109773929D01*
X132980000Y-109806956D01*
X132980000Y-110683044D01*
X132978377Y-110716071D01*
X132973525Y-110748781D01*
X132965491Y-110780857D01*
X132954351Y-110811991D01*
X132940213Y-110841884D01*
X132923213Y-110870247D01*
X132903515Y-110896807D01*
X132881308Y-110921308D01*
X132856807Y-110943515D01*
X132830247Y-110963213D01*
X132801884Y-110980213D01*
X132771991Y-110994351D01*
X132740857Y-111005491D01*
X132708781Y-111013525D01*
X132676071Y-111018377D01*
X132643044Y-111020000D01*
X131516956Y-111020000D01*
X131483929Y-111018377D01*
X131451219Y-111013525D01*
X131419143Y-111005491D01*
X131388009Y-110994351D01*
X131358116Y-110980213D01*
X131329753Y-110963213D01*
X131303193Y-110943515D01*
X131278692Y-110921308D01*
X131256485Y-110896807D01*
X131236787Y-110870247D01*
X131219787Y-110841884D01*
X131205649Y-110811991D01*
X131194509Y-110780857D01*
X131186475Y-110748781D01*
X131181623Y-110716071D01*
X131180000Y-110683044D01*
X131180000Y-109806956D01*
X131181623Y-109773929D01*
X131186475Y-109741219D01*
X131194509Y-109709143D01*
X131205649Y-109678009D01*
X131219787Y-109648116D01*
X131236787Y-109619753D01*
X131256485Y-109593193D01*
X131278692Y-109568692D01*
X131303193Y-109546485D01*
X131329753Y-109526787D01*
X131358116Y-109509787D01*
X131388009Y-109495649D01*
X131419143Y-109484509D01*
X131451219Y-109476475D01*
X131483929Y-109471623D01*
X131516956Y-109470000D01*
X132643044Y-109470000D01*
X132676071Y-109471623D01*
X132676071Y-109471623D01*
G37*
D19*
X132080000Y-110245000D03*
D21*
X151892000Y-94488000D03*
X155702000Y-105156000D03*
X132080000Y-29464000D03*
X132080000Y-33528000D03*
X164592000Y-26924000D03*
X155956000Y-67564000D03*
X131572000Y-117856000D03*
X130048000Y-101346000D03*
D25*
X136144000Y-107188000D03*
D26*
X138684000Y-107188000D03*
D11*
G36*
X137876071Y-101209623D02*
X137908781Y-101214475D01*
X137940857Y-101222509D01*
X137971991Y-101233649D01*
X138001884Y-101247787D01*
X138030247Y-101264787D01*
X138056807Y-101284485D01*
X138081308Y-101306692D01*
X138103515Y-101331193D01*
X138123213Y-101357753D01*
X138140213Y-101386116D01*
X138154351Y-101416009D01*
X138165491Y-101447143D01*
X138173525Y-101479219D01*
X138178377Y-101511929D01*
X138180000Y-101544956D01*
X138180000Y-102671044D01*
X138178377Y-102704071D01*
X138173525Y-102736781D01*
X138165491Y-102768857D01*
X138154351Y-102799991D01*
X138140213Y-102829884D01*
X138123213Y-102858247D01*
X138103515Y-102884807D01*
X138081308Y-102909308D01*
X138056807Y-102931515D01*
X138030247Y-102951213D01*
X138001884Y-102968213D01*
X137971991Y-102982351D01*
X137940857Y-102993491D01*
X137908781Y-103001525D01*
X137876071Y-103006377D01*
X137843044Y-103008000D01*
X136966956Y-103008000D01*
X136933929Y-103006377D01*
X136901219Y-103001525D01*
X136869143Y-102993491D01*
X136838009Y-102982351D01*
X136808116Y-102968213D01*
X136779753Y-102951213D01*
X136753193Y-102931515D01*
X136728692Y-102909308D01*
X136706485Y-102884807D01*
X136686787Y-102858247D01*
X136669787Y-102829884D01*
X136655649Y-102799991D01*
X136644509Y-102768857D01*
X136636475Y-102736781D01*
X136631623Y-102704071D01*
X136630000Y-102671044D01*
X136630000Y-101544956D01*
X136631623Y-101511929D01*
X136636475Y-101479219D01*
X136644509Y-101447143D01*
X136655649Y-101416009D01*
X136669787Y-101386116D01*
X136686787Y-101357753D01*
X136706485Y-101331193D01*
X136728692Y-101306692D01*
X136753193Y-101284485D01*
X136779753Y-101264787D01*
X136808116Y-101247787D01*
X136838009Y-101233649D01*
X136869143Y-101222509D01*
X136901219Y-101214475D01*
X136933929Y-101209623D01*
X136966956Y-101208000D01*
X137843044Y-101208000D01*
X137876071Y-101209623D01*
X137876071Y-101209623D01*
G37*
D19*
X137405000Y-102108000D03*
D11*
G36*
X139926071Y-101209623D02*
X139958781Y-101214475D01*
X139990857Y-101222509D01*
X140021991Y-101233649D01*
X140051884Y-101247787D01*
X140080247Y-101264787D01*
X140106807Y-101284485D01*
X140131308Y-101306692D01*
X140153515Y-101331193D01*
X140173213Y-101357753D01*
X140190213Y-101386116D01*
X140204351Y-101416009D01*
X140215491Y-101447143D01*
X140223525Y-101479219D01*
X140228377Y-101511929D01*
X140230000Y-101544956D01*
X140230000Y-102671044D01*
X140228377Y-102704071D01*
X140223525Y-102736781D01*
X140215491Y-102768857D01*
X140204351Y-102799991D01*
X140190213Y-102829884D01*
X140173213Y-102858247D01*
X140153515Y-102884807D01*
X140131308Y-102909308D01*
X140106807Y-102931515D01*
X140080247Y-102951213D01*
X140051884Y-102968213D01*
X140021991Y-102982351D01*
X139990857Y-102993491D01*
X139958781Y-103001525D01*
X139926071Y-103006377D01*
X139893044Y-103008000D01*
X139016956Y-103008000D01*
X138983929Y-103006377D01*
X138951219Y-103001525D01*
X138919143Y-102993491D01*
X138888009Y-102982351D01*
X138858116Y-102968213D01*
X138829753Y-102951213D01*
X138803193Y-102931515D01*
X138778692Y-102909308D01*
X138756485Y-102884807D01*
X138736787Y-102858247D01*
X138719787Y-102829884D01*
X138705649Y-102799991D01*
X138694509Y-102768857D01*
X138686475Y-102736781D01*
X138681623Y-102704071D01*
X138680000Y-102671044D01*
X138680000Y-101544956D01*
X138681623Y-101511929D01*
X138686475Y-101479219D01*
X138694509Y-101447143D01*
X138705649Y-101416009D01*
X138719787Y-101386116D01*
X138736787Y-101357753D01*
X138756485Y-101331193D01*
X138778692Y-101306692D01*
X138803193Y-101284485D01*
X138829753Y-101264787D01*
X138858116Y-101247787D01*
X138888009Y-101233649D01*
X138919143Y-101222509D01*
X138951219Y-101214475D01*
X138983929Y-101209623D01*
X139016956Y-101208000D01*
X139893044Y-101208000D01*
X139926071Y-101209623D01*
X139926071Y-101209623D01*
G37*
D19*
X139455000Y-102108000D03*
D20*
X141732000Y-94488000D03*
D14*
X139232000Y-94488000D03*
D25*
X149860000Y-46736000D03*
D26*
X149860000Y-44196000D03*
D14*
X157480000Y-49276000D03*
X157480000Y-41676000D03*
D11*
G36*
X150456071Y-40882623D02*
X150488781Y-40887475D01*
X150520857Y-40895509D01*
X150551991Y-40906649D01*
X150581884Y-40920787D01*
X150610247Y-40937787D01*
X150636807Y-40957485D01*
X150661308Y-40979692D01*
X150683515Y-41004193D01*
X150703213Y-41030753D01*
X150720213Y-41059116D01*
X150734351Y-41089009D01*
X150745491Y-41120143D01*
X150753525Y-41152219D01*
X150758377Y-41184929D01*
X150760000Y-41217956D01*
X150760000Y-42094044D01*
X150758377Y-42127071D01*
X150753525Y-42159781D01*
X150745491Y-42191857D01*
X150734351Y-42222991D01*
X150720213Y-42252884D01*
X150703213Y-42281247D01*
X150683515Y-42307807D01*
X150661308Y-42332308D01*
X150636807Y-42354515D01*
X150610247Y-42374213D01*
X150581884Y-42391213D01*
X150551991Y-42405351D01*
X150520857Y-42416491D01*
X150488781Y-42424525D01*
X150456071Y-42429377D01*
X150423044Y-42431000D01*
X149296956Y-42431000D01*
X149263929Y-42429377D01*
X149231219Y-42424525D01*
X149199143Y-42416491D01*
X149168009Y-42405351D01*
X149138116Y-42391213D01*
X149109753Y-42374213D01*
X149083193Y-42354515D01*
X149058692Y-42332308D01*
X149036485Y-42307807D01*
X149016787Y-42281247D01*
X148999787Y-42252884D01*
X148985649Y-42222991D01*
X148974509Y-42191857D01*
X148966475Y-42159781D01*
X148961623Y-42127071D01*
X148960000Y-42094044D01*
X148960000Y-41217956D01*
X148961623Y-41184929D01*
X148966475Y-41152219D01*
X148974509Y-41120143D01*
X148985649Y-41089009D01*
X148999787Y-41059116D01*
X149016787Y-41030753D01*
X149036485Y-41004193D01*
X149058692Y-40979692D01*
X149083193Y-40957485D01*
X149109753Y-40937787D01*
X149138116Y-40920787D01*
X149168009Y-40906649D01*
X149199143Y-40895509D01*
X149231219Y-40887475D01*
X149263929Y-40882623D01*
X149296956Y-40881000D01*
X150423044Y-40881000D01*
X150456071Y-40882623D01*
X150456071Y-40882623D01*
G37*
D19*
X149860000Y-41656000D03*
D11*
G36*
X150456071Y-38832623D02*
X150488781Y-38837475D01*
X150520857Y-38845509D01*
X150551991Y-38856649D01*
X150581884Y-38870787D01*
X150610247Y-38887787D01*
X150636807Y-38907485D01*
X150661308Y-38929692D01*
X150683515Y-38954193D01*
X150703213Y-38980753D01*
X150720213Y-39009116D01*
X150734351Y-39039009D01*
X150745491Y-39070143D01*
X150753525Y-39102219D01*
X150758377Y-39134929D01*
X150760000Y-39167956D01*
X150760000Y-40044044D01*
X150758377Y-40077071D01*
X150753525Y-40109781D01*
X150745491Y-40141857D01*
X150734351Y-40172991D01*
X150720213Y-40202884D01*
X150703213Y-40231247D01*
X150683515Y-40257807D01*
X150661308Y-40282308D01*
X150636807Y-40304515D01*
X150610247Y-40324213D01*
X150581884Y-40341213D01*
X150551991Y-40355351D01*
X150520857Y-40366491D01*
X150488781Y-40374525D01*
X150456071Y-40379377D01*
X150423044Y-40381000D01*
X149296956Y-40381000D01*
X149263929Y-40379377D01*
X149231219Y-40374525D01*
X149199143Y-40366491D01*
X149168009Y-40355351D01*
X149138116Y-40341213D01*
X149109753Y-40324213D01*
X149083193Y-40304515D01*
X149058692Y-40282308D01*
X149036485Y-40257807D01*
X149016787Y-40231247D01*
X148999787Y-40202884D01*
X148985649Y-40172991D01*
X148974509Y-40141857D01*
X148966475Y-40109781D01*
X148961623Y-40077071D01*
X148960000Y-40044044D01*
X148960000Y-39167956D01*
X148961623Y-39134929D01*
X148966475Y-39102219D01*
X148974509Y-39070143D01*
X148985649Y-39039009D01*
X148999787Y-39009116D01*
X149016787Y-38980753D01*
X149036485Y-38954193D01*
X149058692Y-38929692D01*
X149083193Y-38907485D01*
X149109753Y-38887787D01*
X149138116Y-38870787D01*
X149168009Y-38856649D01*
X149199143Y-38845509D01*
X149231219Y-38837475D01*
X149263929Y-38832623D01*
X149296956Y-38831000D01*
X150423044Y-38831000D01*
X150456071Y-38832623D01*
X150456071Y-38832623D01*
G37*
D19*
X149860000Y-39606000D03*
D21*
X164592000Y-35306000D03*
D12*
X133858000Y-25908000D03*
X157226000Y-25908000D03*
X141478000Y-66548000D03*
X141224000Y-87884000D03*
X150876000Y-105156000D03*
M02*
