%TF.GenerationSoftware,KiCad,Pcbnew,(5.0.0)*%
%TF.CreationDate,2018-12-16T12:55:05+01:00*%
%TF.ProjectId,Kicad_Oscillator_Drone,4B696361645F4F7363696C6C61746F72,rev?*%
%TF.SameCoordinates,Original*%
%TF.FileFunction,Legend,Bot*%
%TF.FilePolarity,Positive*%
%FSLAX46Y46*%
G04 Gerber Fmt 4.6, Leading zero omitted, Abs format (unit mm)*
G04 Created by KiCad (PCBNEW (5.0.0)) date 12/16/18 12:55:05*
%MOMM*%
%LPD*%
G01*
G04 APERTURE LIST*
%ADD10C,1.000000*%
%ADD11C,0.300000*%
%ADD12C,0.150000*%
G04 APERTURE END LIST*
D10*
X134112000Y-71374000D02*
X134112000Y-70866000D01*
X158242000Y-79756000D02*
X158242000Y-79248000D01*
X146304000Y-79756000D02*
X158242000Y-79756000D01*
X146304000Y-80010000D02*
X146304000Y-79756000D01*
X146304000Y-114046000D02*
X146304000Y-80010000D01*
X145796000Y-114046000D02*
X146304000Y-114046000D01*
X145796000Y-71374000D02*
X145796000Y-114046000D01*
X134112000Y-71374000D02*
X145796000Y-71374000D01*
X145796000Y-70866000D02*
X134112000Y-70866000D01*
X145796000Y-31242000D02*
X145796000Y-70866000D01*
X146558000Y-31242000D02*
X145796000Y-31242000D01*
X146558000Y-79248000D02*
X146558000Y-31242000D01*
X158242000Y-79248000D02*
X146558000Y-79248000D01*
D11*
X143973857Y-75085571D02*
X143973857Y-73585571D01*
X143402428Y-73585571D01*
X143259571Y-73657000D01*
X143188142Y-73728428D01*
X143116714Y-73871285D01*
X143116714Y-74085571D01*
X143188142Y-74228428D01*
X143259571Y-74299857D01*
X143402428Y-74371285D01*
X143973857Y-74371285D01*
X142473857Y-75085571D02*
X142473857Y-74085571D01*
X142473857Y-74371285D02*
X142402428Y-74228428D01*
X142331000Y-74157000D01*
X142188142Y-74085571D01*
X142045285Y-74085571D01*
X141331000Y-75085571D02*
X141473857Y-75014142D01*
X141545285Y-74942714D01*
X141616714Y-74799857D01*
X141616714Y-74371285D01*
X141545285Y-74228428D01*
X141473857Y-74157000D01*
X141331000Y-74085571D01*
X141116714Y-74085571D01*
X140973857Y-74157000D01*
X140902428Y-74228428D01*
X140831000Y-74371285D01*
X140831000Y-74799857D01*
X140902428Y-74942714D01*
X140973857Y-75014142D01*
X141116714Y-75085571D01*
X141331000Y-75085571D01*
X140188142Y-75085571D02*
X140188142Y-74085571D01*
X140188142Y-74228428D02*
X140116714Y-74157000D01*
X139973857Y-74085571D01*
X139759571Y-74085571D01*
X139616714Y-74157000D01*
X139545285Y-74299857D01*
X139545285Y-75085571D01*
X139545285Y-74299857D02*
X139473857Y-74157000D01*
X139331000Y-74085571D01*
X139116714Y-74085571D01*
X138973857Y-74157000D01*
X138902428Y-74299857D01*
X138902428Y-75085571D01*
X137616714Y-75014142D02*
X137759571Y-75085571D01*
X138045285Y-75085571D01*
X138188142Y-75014142D01*
X138259571Y-74871285D01*
X138259571Y-74299857D01*
X138188142Y-74157000D01*
X138045285Y-74085571D01*
X137759571Y-74085571D01*
X137616714Y-74157000D01*
X137545285Y-74299857D01*
X137545285Y-74442714D01*
X138259571Y-74585571D01*
X136973857Y-75014142D02*
X136831000Y-75085571D01*
X136545285Y-75085571D01*
X136402428Y-75014142D01*
X136331000Y-74871285D01*
X136331000Y-74799857D01*
X136402428Y-74657000D01*
X136545285Y-74585571D01*
X136759571Y-74585571D01*
X136902428Y-74514142D01*
X136973857Y-74371285D01*
X136973857Y-74299857D01*
X136902428Y-74157000D01*
X136759571Y-74085571D01*
X136545285Y-74085571D01*
X136402428Y-74157000D01*
X135473857Y-75085571D02*
X135616714Y-75014142D01*
X135688142Y-74942714D01*
X135759571Y-74799857D01*
X135759571Y-74371285D01*
X135688142Y-74228428D01*
X135616714Y-74157000D01*
X135473857Y-74085571D01*
X135259571Y-74085571D01*
X135116714Y-74157000D01*
X135045285Y-74228428D01*
X134973857Y-74371285D01*
X134973857Y-74799857D01*
X135045285Y-74942714D01*
X135116714Y-75014142D01*
X135259571Y-75085571D01*
X135473857Y-75085571D01*
X134545285Y-74085571D02*
X133973857Y-74085571D01*
X134331000Y-75085571D02*
X134331000Y-73799857D01*
X134259571Y-73657000D01*
X134116714Y-73585571D01*
X133973857Y-73585571D01*
X133688142Y-74085571D02*
X133116714Y-74085571D01*
X133473857Y-73585571D02*
X133473857Y-74871285D01*
X133402428Y-75014142D01*
X133259571Y-75085571D01*
X133116714Y-75085571D01*
X143973857Y-77635571D02*
X143973857Y-76135571D01*
X143616714Y-76135571D01*
X143402428Y-76207000D01*
X143259571Y-76349857D01*
X143188142Y-76492714D01*
X143116714Y-76778428D01*
X143116714Y-76992714D01*
X143188142Y-77278428D01*
X143259571Y-77421285D01*
X143402428Y-77564142D01*
X143616714Y-77635571D01*
X143973857Y-77635571D01*
X141616714Y-77635571D02*
X142116714Y-76921285D01*
X142473857Y-77635571D02*
X142473857Y-76135571D01*
X141902428Y-76135571D01*
X141759571Y-76207000D01*
X141688142Y-76278428D01*
X141616714Y-76421285D01*
X141616714Y-76635571D01*
X141688142Y-76778428D01*
X141759571Y-76849857D01*
X141902428Y-76921285D01*
X142473857Y-76921285D01*
X140759571Y-77635571D02*
X140902428Y-77564142D01*
X140973857Y-77492714D01*
X141045285Y-77349857D01*
X141045285Y-76921285D01*
X140973857Y-76778428D01*
X140902428Y-76707000D01*
X140759571Y-76635571D01*
X140545285Y-76635571D01*
X140402428Y-76707000D01*
X140331000Y-76778428D01*
X140259571Y-76921285D01*
X140259571Y-77349857D01*
X140331000Y-77492714D01*
X140402428Y-77564142D01*
X140545285Y-77635571D01*
X140759571Y-77635571D01*
X139616714Y-76635571D02*
X139616714Y-77635571D01*
X139616714Y-76778428D02*
X139545285Y-76707000D01*
X139402428Y-76635571D01*
X139188142Y-76635571D01*
X139045285Y-76707000D01*
X138973857Y-76849857D01*
X138973857Y-77635571D01*
X137688142Y-77564142D02*
X137831000Y-77635571D01*
X138116714Y-77635571D01*
X138259571Y-77564142D01*
X138331000Y-77421285D01*
X138331000Y-76849857D01*
X138259571Y-76707000D01*
X138116714Y-76635571D01*
X137831000Y-76635571D01*
X137688142Y-76707000D01*
X137616714Y-76849857D01*
X137616714Y-76992714D01*
X138331000Y-77135571D01*
X135545285Y-76135571D02*
X135259571Y-76135571D01*
X135116714Y-76207000D01*
X134973857Y-76349857D01*
X134902428Y-76635571D01*
X134902428Y-77135571D01*
X134973857Y-77421285D01*
X135116714Y-77564142D01*
X135259571Y-77635571D01*
X135545285Y-77635571D01*
X135688142Y-77564142D01*
X135831000Y-77421285D01*
X135902428Y-77135571D01*
X135902428Y-76635571D01*
X135831000Y-76349857D01*
X135688142Y-76207000D01*
X135545285Y-76135571D01*
X134259571Y-76635571D02*
X134259571Y-77635571D01*
X134259571Y-76778428D02*
X134188142Y-76707000D01*
X134045285Y-76635571D01*
X133831000Y-76635571D01*
X133688142Y-76707000D01*
X133616714Y-76849857D01*
X133616714Y-77635571D01*
X132331000Y-77564142D02*
X132473857Y-77635571D01*
X132759571Y-77635571D01*
X132902428Y-77564142D01*
X132973857Y-77421285D01*
X132973857Y-76849857D01*
X132902428Y-76707000D01*
X132759571Y-76635571D01*
X132473857Y-76635571D01*
X132331000Y-76707000D01*
X132259571Y-76849857D01*
X132259571Y-76992714D01*
X132973857Y-77135571D01*
X144045285Y-78828428D02*
X143973857Y-78757000D01*
X143831000Y-78685571D01*
X143473857Y-78685571D01*
X143331000Y-78757000D01*
X143259571Y-78828428D01*
X143188142Y-78971285D01*
X143188142Y-79114142D01*
X143259571Y-79328428D01*
X144116714Y-80185571D01*
X143188142Y-80185571D01*
X142259571Y-78685571D02*
X142116714Y-78685571D01*
X141973857Y-78757000D01*
X141902428Y-78828428D01*
X141831000Y-78971285D01*
X141759571Y-79257000D01*
X141759571Y-79614142D01*
X141831000Y-79899857D01*
X141902428Y-80042714D01*
X141973857Y-80114142D01*
X142116714Y-80185571D01*
X142259571Y-80185571D01*
X142402428Y-80114142D01*
X142473857Y-80042714D01*
X142545285Y-79899857D01*
X142616714Y-79614142D01*
X142616714Y-79257000D01*
X142545285Y-78971285D01*
X142473857Y-78828428D01*
X142402428Y-78757000D01*
X142259571Y-78685571D01*
X140331000Y-80185571D02*
X141188142Y-80185571D01*
X140759571Y-80185571D02*
X140759571Y-78685571D01*
X140902428Y-78899857D01*
X141045285Y-79042714D01*
X141188142Y-79114142D01*
X139473857Y-79328428D02*
X139616714Y-79257000D01*
X139688142Y-79185571D01*
X139759571Y-79042714D01*
X139759571Y-78971285D01*
X139688142Y-78828428D01*
X139616714Y-78757000D01*
X139473857Y-78685571D01*
X139188142Y-78685571D01*
X139045285Y-78757000D01*
X138973857Y-78828428D01*
X138902428Y-78971285D01*
X138902428Y-79042714D01*
X138973857Y-79185571D01*
X139045285Y-79257000D01*
X139188142Y-79328428D01*
X139473857Y-79328428D01*
X139616714Y-79399857D01*
X139688142Y-79471285D01*
X139759571Y-79614142D01*
X139759571Y-79899857D01*
X139688142Y-80042714D01*
X139616714Y-80114142D01*
X139473857Y-80185571D01*
X139188142Y-80185571D01*
X139045285Y-80114142D01*
X138973857Y-80042714D01*
X138902428Y-79899857D01*
X138902428Y-79614142D01*
X138973857Y-79471285D01*
X139045285Y-79399857D01*
X139188142Y-79328428D01*
X138259571Y-79614142D02*
X137116714Y-79614142D01*
X135616714Y-80185571D02*
X136473857Y-80185571D01*
X136045285Y-80185571D02*
X136045285Y-78685571D01*
X136188142Y-78899857D01*
X136331000Y-79042714D01*
X136473857Y-79114142D01*
X135045285Y-78828428D02*
X134973857Y-78757000D01*
X134831000Y-78685571D01*
X134473857Y-78685571D01*
X134331000Y-78757000D01*
X134259571Y-78828428D01*
X134188142Y-78971285D01*
X134188142Y-79114142D01*
X134259571Y-79328428D01*
X135116714Y-80185571D01*
X134188142Y-80185571D01*
X133545285Y-79614142D02*
X132402428Y-79614142D01*
X130902428Y-80185571D02*
X131759571Y-80185571D01*
X131331000Y-80185571D02*
X131331000Y-78685571D01*
X131473857Y-78899857D01*
X131616714Y-79042714D01*
X131759571Y-79114142D01*
X129545285Y-78685571D02*
X130259571Y-78685571D01*
X130331000Y-79399857D01*
X130259571Y-79328428D01*
X130116714Y-79257000D01*
X129759571Y-79257000D01*
X129616714Y-79328428D01*
X129545285Y-79399857D01*
X129473857Y-79542714D01*
X129473857Y-79899857D01*
X129545285Y-80042714D01*
X129616714Y-80114142D01*
X129759571Y-80185571D01*
X130116714Y-80185571D01*
X130259571Y-80114142D01*
X130331000Y-80042714D01*
X143116714Y-82735571D02*
X143616714Y-82021285D01*
X143973857Y-82735571D02*
X143973857Y-81235571D01*
X143402428Y-81235571D01*
X143259571Y-81307000D01*
X143188142Y-81378428D01*
X143116714Y-81521285D01*
X143116714Y-81735571D01*
X143188142Y-81878428D01*
X143259571Y-81949857D01*
X143402428Y-82021285D01*
X143973857Y-82021285D01*
X141902428Y-82664142D02*
X142045285Y-82735571D01*
X142331000Y-82735571D01*
X142473857Y-82664142D01*
X142545285Y-82521285D01*
X142545285Y-81949857D01*
X142473857Y-81807000D01*
X142331000Y-81735571D01*
X142045285Y-81735571D01*
X141902428Y-81807000D01*
X141831000Y-81949857D01*
X141831000Y-82092714D01*
X142545285Y-82235571D01*
X141331000Y-81735571D02*
X140973857Y-82735571D01*
X140616714Y-81735571D01*
X138973857Y-82307000D02*
X138259571Y-82307000D01*
X139116714Y-82735571D02*
X138616714Y-81235571D01*
X138116714Y-82735571D01*
D10*
X121816049Y-127025076D02*
G75*
G03X121816049Y-127025076I-1666666J0D01*
G01*
X117649383Y-127025076D02*
X122649383Y-127025076D01*
X120149383Y-124525076D02*
X120149383Y-129525076D01*
D12*
X170180000Y-122936000D02*
X170180000Y-22860000D01*
X119380000Y-122936000D02*
X170180000Y-122936000D01*
X119380000Y-22860000D02*
X119380000Y-122936000D01*
X170180000Y-22860000D02*
X119380000Y-22860000D01*
X169926000Y-119126000D02*
X169926000Y-121412000D01*
X170942000Y-119126000D02*
X169926000Y-119126000D01*
X170942000Y-116332000D02*
X170942000Y-119126000D01*
X169926000Y-116332000D02*
X170942000Y-116332000D01*
X169926000Y-114300000D02*
X169926000Y-116332000D01*
X159282000Y-114300000D02*
X169902000Y-114299999D01*
X159258000Y-121412000D02*
X159258000Y-114300000D01*
X169902000Y-121412000D02*
X159282000Y-121412001D01*
X119634000Y-34290000D02*
X119634000Y-32004000D01*
X118618000Y-34290000D02*
X119634000Y-34290000D01*
X118618000Y-37084000D02*
X118618000Y-34290000D01*
X119634000Y-37084000D02*
X118618000Y-37084000D01*
X119634000Y-39116000D02*
X119634000Y-37084000D01*
X130278000Y-39116000D02*
X119658000Y-39116001D01*
X130302000Y-32004000D02*
X130302000Y-39116000D01*
X119658000Y-32004000D02*
X130278000Y-32003999D01*
X169799000Y-28194000D02*
X169799000Y-30480000D01*
X170815000Y-28194000D02*
X169799000Y-28194000D01*
X170815000Y-25400000D02*
X170815000Y-28194000D01*
X169799000Y-25400000D02*
X170815000Y-25400000D01*
X169799000Y-23368000D02*
X169799000Y-25400000D01*
X159155000Y-23368000D02*
X169775000Y-23367999D01*
X159131000Y-30480000D02*
X159131000Y-23368000D01*
X169775000Y-30480000D02*
X159155000Y-30480001D01*
X169926000Y-76962000D02*
X169926000Y-79248000D01*
X170942000Y-76962000D02*
X169926000Y-76962000D01*
X170942000Y-74168000D02*
X170942000Y-76962000D01*
X169926000Y-74168000D02*
X170942000Y-74168000D01*
X169926000Y-72136000D02*
X169926000Y-74168000D01*
X159282000Y-72136000D02*
X169902000Y-72135999D01*
X159258000Y-79248000D02*
X159258000Y-72136000D01*
X169902000Y-79248000D02*
X159282000Y-79248001D01*
X119761000Y-107823000D02*
X119761000Y-105537000D01*
X118745000Y-107823000D02*
X119761000Y-107823000D01*
X118745000Y-110617000D02*
X118745000Y-107823000D01*
X119761000Y-110617000D02*
X118745000Y-110617000D01*
X119761000Y-112649000D02*
X119761000Y-110617000D01*
X130405000Y-112649000D02*
X119785000Y-112649001D01*
X130429000Y-105537000D02*
X130429000Y-112649000D01*
X119785000Y-105537000D02*
X130405000Y-105536999D01*
X169926000Y-36830000D02*
X169926000Y-39116000D01*
X170942000Y-36830000D02*
X169926000Y-36830000D01*
X170942000Y-34036000D02*
X170942000Y-36830000D01*
X169926000Y-34036000D02*
X170942000Y-34036000D01*
X169926000Y-32004000D02*
X169926000Y-34036000D01*
X159282000Y-32004000D02*
X169902000Y-32003999D01*
X159258000Y-39116000D02*
X159258000Y-32004000D01*
X169902000Y-39116000D02*
X159282000Y-39116001D01*
X147320000Y-32859980D02*
X149318980Y-32859980D01*
X147320000Y-22860000D02*
X147320000Y-32859980D01*
X147320000Y-22860000D02*
X149318980Y-22860000D01*
X147320000Y-27861260D02*
X149318980Y-27861260D01*
X147320000Y-23860760D02*
X148320760Y-23860760D01*
X147320000Y-24858980D02*
X148320760Y-24858980D01*
X147320000Y-25859740D02*
X148320760Y-25859740D01*
X147320000Y-26860500D02*
X148320760Y-26860500D01*
X147320000Y-28859480D02*
X148320760Y-28859480D01*
X147320000Y-29860240D02*
X148320760Y-29860240D01*
X147320000Y-30861000D02*
X148320760Y-30861000D01*
X147320000Y-31859220D02*
X148320760Y-31859220D01*
X147320000Y-122859800D02*
X149318980Y-122859800D01*
X147320000Y-32859980D02*
X147320000Y-122859800D01*
X147320000Y-37861240D02*
X148320760Y-37861240D01*
X147320000Y-42859960D02*
X149318980Y-42859960D01*
X147320000Y-47861220D02*
X148320760Y-47861220D01*
X147320000Y-52859940D02*
X149318980Y-52859940D01*
X147320000Y-57861200D02*
X148320760Y-57861200D01*
X147320000Y-62859920D02*
X149318980Y-62859920D01*
X147320000Y-67861180D02*
X148320760Y-67861180D01*
X147320000Y-72859900D02*
X149318980Y-72859900D01*
X147320000Y-77861160D02*
X148320760Y-77861160D01*
X147320000Y-82859880D02*
X149318980Y-82859880D01*
X147320000Y-87861140D02*
X148320760Y-87861140D01*
X147320000Y-92859860D02*
X149318980Y-92859860D01*
X147320000Y-97861120D02*
X148320760Y-97861120D01*
X147320000Y-102859840D02*
X149318980Y-102859840D01*
X147320000Y-107861100D02*
X148320760Y-107861100D01*
X147320000Y-112859820D02*
X149318980Y-112859820D01*
X147320000Y-117861080D02*
X148320760Y-117861080D01*
X157694380Y-117522666D02*
X158408666Y-117522666D01*
X158551523Y-117475047D01*
X158646761Y-117379809D01*
X158694380Y-117236952D01*
X158694380Y-117141714D01*
X158122952Y-118141714D02*
X158075333Y-118046476D01*
X158027714Y-117998857D01*
X157932476Y-117951238D01*
X157884857Y-117951238D01*
X157789619Y-117998857D01*
X157742000Y-118046476D01*
X157694380Y-118141714D01*
X157694380Y-118332190D01*
X157742000Y-118427428D01*
X157789619Y-118475047D01*
X157884857Y-118522666D01*
X157932476Y-118522666D01*
X158027714Y-118475047D01*
X158075333Y-118427428D01*
X158122952Y-118332190D01*
X158122952Y-118141714D01*
X158170571Y-118046476D01*
X158218190Y-117998857D01*
X158313428Y-117951238D01*
X158503904Y-117951238D01*
X158599142Y-117998857D01*
X158646761Y-118046476D01*
X158694380Y-118141714D01*
X158694380Y-118332190D01*
X158646761Y-118427428D01*
X158599142Y-118475047D01*
X158503904Y-118522666D01*
X158313428Y-118522666D01*
X158218190Y-118475047D01*
X158170571Y-118427428D01*
X158122952Y-118332190D01*
X164083904Y-119896000D02*
X164179142Y-119848380D01*
X164322000Y-119848380D01*
X164464857Y-119896000D01*
X164560095Y-119991238D01*
X164607714Y-120086476D01*
X164655333Y-120276952D01*
X164655333Y-120419809D01*
X164607714Y-120610285D01*
X164560095Y-120705523D01*
X164464857Y-120800761D01*
X164322000Y-120848380D01*
X164226761Y-120848380D01*
X164083904Y-120800761D01*
X164036285Y-120753142D01*
X164036285Y-120419809D01*
X164226761Y-120419809D01*
X163607714Y-120848380D02*
X163607714Y-119848380D01*
X163036285Y-120848380D01*
X163036285Y-119848380D01*
X162560095Y-120848380D02*
X162560095Y-119848380D01*
X162322000Y-119848380D01*
X162179142Y-119896000D01*
X162083904Y-119991238D01*
X162036285Y-120086476D01*
X161988666Y-120276952D01*
X161988666Y-120419809D01*
X162036285Y-120610285D01*
X162083904Y-120705523D01*
X162179142Y-120800761D01*
X162322000Y-120848380D01*
X162560095Y-120848380D01*
X166822476Y-120848380D02*
X167298666Y-120848380D01*
X167298666Y-119848380D01*
X166822476Y-115768380D02*
X167298666Y-115768380D01*
X167298666Y-114768380D01*
X163012476Y-115768380D02*
X163345809Y-115292190D01*
X163583904Y-115768380D02*
X163583904Y-114768380D01*
X163202952Y-114768380D01*
X163107714Y-114816000D01*
X163060095Y-114863619D01*
X163012476Y-114958857D01*
X163012476Y-115101714D01*
X163060095Y-115196952D01*
X163107714Y-115244571D01*
X163202952Y-115292190D01*
X163583904Y-115292190D01*
X131865619Y-36369523D02*
X131151333Y-36369523D01*
X131008476Y-36417142D01*
X130913238Y-36512380D01*
X130865619Y-36655238D01*
X130865619Y-36750476D01*
X130865619Y-35369523D02*
X130865619Y-35940952D01*
X130865619Y-35655238D02*
X131865619Y-35655238D01*
X131722761Y-35750476D01*
X131627523Y-35845714D01*
X131579904Y-35940952D01*
X130865619Y-34417142D02*
X130865619Y-34988571D01*
X130865619Y-34702857D02*
X131865619Y-34702857D01*
X131722761Y-34798095D01*
X131627523Y-34893333D01*
X131579904Y-34988571D01*
X126999904Y-32520000D02*
X127095142Y-32472380D01*
X127238000Y-32472380D01*
X127380857Y-32520000D01*
X127476095Y-32615238D01*
X127523714Y-32710476D01*
X127571333Y-32900952D01*
X127571333Y-33043809D01*
X127523714Y-33234285D01*
X127476095Y-33329523D01*
X127380857Y-33424761D01*
X127238000Y-33472380D01*
X127142761Y-33472380D01*
X126999904Y-33424761D01*
X126952285Y-33377142D01*
X126952285Y-33043809D01*
X127142761Y-33043809D01*
X126523714Y-33472380D02*
X126523714Y-32472380D01*
X125952285Y-33472380D01*
X125952285Y-32472380D01*
X125476095Y-33472380D02*
X125476095Y-32472380D01*
X125238000Y-32472380D01*
X125095142Y-32520000D01*
X124999904Y-32615238D01*
X124952285Y-32710476D01*
X124904666Y-32900952D01*
X124904666Y-33043809D01*
X124952285Y-33234285D01*
X124999904Y-33329523D01*
X125095142Y-33424761D01*
X125238000Y-33472380D01*
X125476095Y-33472380D01*
X122118476Y-33472380D02*
X122594666Y-33472380D01*
X122594666Y-32472380D01*
X122118476Y-38552380D02*
X122594666Y-38552380D01*
X122594666Y-37552380D01*
X125928476Y-38552380D02*
X126261809Y-38076190D01*
X126499904Y-38552380D02*
X126499904Y-37552380D01*
X126118952Y-37552380D01*
X126023714Y-37600000D01*
X125976095Y-37647619D01*
X125928476Y-37742857D01*
X125928476Y-37885714D01*
X125976095Y-37980952D01*
X126023714Y-38028571D01*
X126118952Y-38076190D01*
X126499904Y-38076190D01*
X157567380Y-26114476D02*
X158281666Y-26114476D01*
X158424523Y-26066857D01*
X158519761Y-25971619D01*
X158567380Y-25828761D01*
X158567380Y-25733523D01*
X158567380Y-27114476D02*
X158567380Y-26543047D01*
X158567380Y-26828761D02*
X157567380Y-26828761D01*
X157710238Y-26733523D01*
X157805476Y-26638285D01*
X157853095Y-26543047D01*
X157662619Y-27495428D02*
X157615000Y-27543047D01*
X157567380Y-27638285D01*
X157567380Y-27876380D01*
X157615000Y-27971619D01*
X157662619Y-28019238D01*
X157757857Y-28066857D01*
X157853095Y-28066857D01*
X157995952Y-28019238D01*
X158567380Y-27447809D01*
X158567380Y-28066857D01*
X163956904Y-28964000D02*
X164052142Y-28916380D01*
X164195000Y-28916380D01*
X164337857Y-28964000D01*
X164433095Y-29059238D01*
X164480714Y-29154476D01*
X164528333Y-29344952D01*
X164528333Y-29487809D01*
X164480714Y-29678285D01*
X164433095Y-29773523D01*
X164337857Y-29868761D01*
X164195000Y-29916380D01*
X164099761Y-29916380D01*
X163956904Y-29868761D01*
X163909285Y-29821142D01*
X163909285Y-29487809D01*
X164099761Y-29487809D01*
X163480714Y-29916380D02*
X163480714Y-28916380D01*
X162909285Y-29916380D01*
X162909285Y-28916380D01*
X162433095Y-29916380D02*
X162433095Y-28916380D01*
X162195000Y-28916380D01*
X162052142Y-28964000D01*
X161956904Y-29059238D01*
X161909285Y-29154476D01*
X161861666Y-29344952D01*
X161861666Y-29487809D01*
X161909285Y-29678285D01*
X161956904Y-29773523D01*
X162052142Y-29868761D01*
X162195000Y-29916380D01*
X162433095Y-29916380D01*
X166695476Y-29916380D02*
X167171666Y-29916380D01*
X167171666Y-28916380D01*
X166695476Y-24836380D02*
X167171666Y-24836380D01*
X167171666Y-23836380D01*
X162885476Y-24836380D02*
X163218809Y-24360190D01*
X163456904Y-24836380D02*
X163456904Y-23836380D01*
X163075952Y-23836380D01*
X162980714Y-23884000D01*
X162933095Y-23931619D01*
X162885476Y-24026857D01*
X162885476Y-24169714D01*
X162933095Y-24264952D01*
X162980714Y-24312571D01*
X163075952Y-24360190D01*
X163456904Y-24360190D01*
X157694380Y-74882476D02*
X158408666Y-74882476D01*
X158551523Y-74834857D01*
X158646761Y-74739619D01*
X158694380Y-74596761D01*
X158694380Y-74501523D01*
X158694380Y-75882476D02*
X158694380Y-75311047D01*
X158694380Y-75596761D02*
X157694380Y-75596761D01*
X157837238Y-75501523D01*
X157932476Y-75406285D01*
X157980095Y-75311047D01*
X158027714Y-76739619D02*
X158694380Y-76739619D01*
X157646761Y-76501523D02*
X158361047Y-76263428D01*
X158361047Y-76882476D01*
X164083904Y-77732000D02*
X164179142Y-77684380D01*
X164322000Y-77684380D01*
X164464857Y-77732000D01*
X164560095Y-77827238D01*
X164607714Y-77922476D01*
X164655333Y-78112952D01*
X164655333Y-78255809D01*
X164607714Y-78446285D01*
X164560095Y-78541523D01*
X164464857Y-78636761D01*
X164322000Y-78684380D01*
X164226761Y-78684380D01*
X164083904Y-78636761D01*
X164036285Y-78589142D01*
X164036285Y-78255809D01*
X164226761Y-78255809D01*
X163607714Y-78684380D02*
X163607714Y-77684380D01*
X163036285Y-78684380D01*
X163036285Y-77684380D01*
X162560095Y-78684380D02*
X162560095Y-77684380D01*
X162322000Y-77684380D01*
X162179142Y-77732000D01*
X162083904Y-77827238D01*
X162036285Y-77922476D01*
X161988666Y-78112952D01*
X161988666Y-78255809D01*
X162036285Y-78446285D01*
X162083904Y-78541523D01*
X162179142Y-78636761D01*
X162322000Y-78684380D01*
X162560095Y-78684380D01*
X166822476Y-78684380D02*
X167298666Y-78684380D01*
X167298666Y-77684380D01*
X166822476Y-73604380D02*
X167298666Y-73604380D01*
X167298666Y-72604380D01*
X163012476Y-73604380D02*
X163345809Y-73128190D01*
X163583904Y-73604380D02*
X163583904Y-72604380D01*
X163202952Y-72604380D01*
X163107714Y-72652000D01*
X163060095Y-72699619D01*
X163012476Y-72794857D01*
X163012476Y-72937714D01*
X163060095Y-73032952D01*
X163107714Y-73080571D01*
X163202952Y-73128190D01*
X163583904Y-73128190D01*
X131992619Y-109902523D02*
X131278333Y-109902523D01*
X131135476Y-109950142D01*
X131040238Y-110045380D01*
X130992619Y-110188238D01*
X130992619Y-110283476D01*
X130992619Y-108902523D02*
X130992619Y-109473952D01*
X130992619Y-109188238D02*
X131992619Y-109188238D01*
X131849761Y-109283476D01*
X131754523Y-109378714D01*
X131706904Y-109473952D01*
X131992619Y-108569190D02*
X131992619Y-107902523D01*
X130992619Y-108331095D01*
X127126904Y-106053000D02*
X127222142Y-106005380D01*
X127365000Y-106005380D01*
X127507857Y-106053000D01*
X127603095Y-106148238D01*
X127650714Y-106243476D01*
X127698333Y-106433952D01*
X127698333Y-106576809D01*
X127650714Y-106767285D01*
X127603095Y-106862523D01*
X127507857Y-106957761D01*
X127365000Y-107005380D01*
X127269761Y-107005380D01*
X127126904Y-106957761D01*
X127079285Y-106910142D01*
X127079285Y-106576809D01*
X127269761Y-106576809D01*
X126650714Y-107005380D02*
X126650714Y-106005380D01*
X126079285Y-107005380D01*
X126079285Y-106005380D01*
X125603095Y-107005380D02*
X125603095Y-106005380D01*
X125365000Y-106005380D01*
X125222142Y-106053000D01*
X125126904Y-106148238D01*
X125079285Y-106243476D01*
X125031666Y-106433952D01*
X125031666Y-106576809D01*
X125079285Y-106767285D01*
X125126904Y-106862523D01*
X125222142Y-106957761D01*
X125365000Y-107005380D01*
X125603095Y-107005380D01*
X122245476Y-107005380D02*
X122721666Y-107005380D01*
X122721666Y-106005380D01*
X122245476Y-112085380D02*
X122721666Y-112085380D01*
X122721666Y-111085380D01*
X126055476Y-112085380D02*
X126388809Y-111609190D01*
X126626904Y-112085380D02*
X126626904Y-111085380D01*
X126245952Y-111085380D01*
X126150714Y-111133000D01*
X126103095Y-111180619D01*
X126055476Y-111275857D01*
X126055476Y-111418714D01*
X126103095Y-111513952D01*
X126150714Y-111561571D01*
X126245952Y-111609190D01*
X126626904Y-111609190D01*
X157694380Y-35226666D02*
X158408666Y-35226666D01*
X158551523Y-35179047D01*
X158646761Y-35083809D01*
X158694380Y-34940952D01*
X158694380Y-34845714D01*
X158027714Y-36131428D02*
X158694380Y-36131428D01*
X157646761Y-35893333D02*
X158361047Y-35655238D01*
X158361047Y-36274285D01*
X164083904Y-37600000D02*
X164179142Y-37552380D01*
X164322000Y-37552380D01*
X164464857Y-37600000D01*
X164560095Y-37695238D01*
X164607714Y-37790476D01*
X164655333Y-37980952D01*
X164655333Y-38123809D01*
X164607714Y-38314285D01*
X164560095Y-38409523D01*
X164464857Y-38504761D01*
X164322000Y-38552380D01*
X164226761Y-38552380D01*
X164083904Y-38504761D01*
X164036285Y-38457142D01*
X164036285Y-38123809D01*
X164226761Y-38123809D01*
X163607714Y-38552380D02*
X163607714Y-37552380D01*
X163036285Y-38552380D01*
X163036285Y-37552380D01*
X162560095Y-38552380D02*
X162560095Y-37552380D01*
X162322000Y-37552380D01*
X162179142Y-37600000D01*
X162083904Y-37695238D01*
X162036285Y-37790476D01*
X161988666Y-37980952D01*
X161988666Y-38123809D01*
X162036285Y-38314285D01*
X162083904Y-38409523D01*
X162179142Y-38504761D01*
X162322000Y-38552380D01*
X162560095Y-38552380D01*
X166822476Y-38552380D02*
X167298666Y-38552380D01*
X167298666Y-37552380D01*
X166822476Y-33472380D02*
X167298666Y-33472380D01*
X167298666Y-32472380D01*
X163012476Y-33472380D02*
X163345809Y-32996190D01*
X163583904Y-33472380D02*
X163583904Y-32472380D01*
X163202952Y-32472380D01*
X163107714Y-32520000D01*
X163060095Y-32567619D01*
X163012476Y-32662857D01*
X163012476Y-32805714D01*
X163060095Y-32900952D01*
X163107714Y-32948571D01*
X163202952Y-32996190D01*
X163583904Y-32996190D01*
X144772640Y-21526666D02*
X144296450Y-21193333D01*
X144772640Y-20955238D02*
X143772640Y-20955238D01*
X143772640Y-21336190D01*
X143820260Y-21431428D01*
X143867879Y-21479047D01*
X143963117Y-21526666D01*
X144105974Y-21526666D01*
X144201212Y-21479047D01*
X144248831Y-21431428D01*
X144296450Y-21336190D01*
X144296450Y-20955238D01*
X144248831Y-21955238D02*
X144248831Y-22288571D01*
X144772640Y-22431428D02*
X144772640Y-21955238D01*
X143772640Y-21955238D01*
X143772640Y-22431428D01*
X144248831Y-23193333D02*
X144248831Y-22860000D01*
X144772640Y-22860000D02*
X143772640Y-22860000D01*
X143772640Y-23336190D01*
X143772640Y-23860000D02*
X144010736Y-23860000D01*
X143915498Y-23621904D02*
X144010736Y-23860000D01*
X143915498Y-24098095D01*
X144201212Y-23717142D02*
X144010736Y-23860000D01*
X144201212Y-24002857D01*
X143772640Y-24621904D02*
X144010736Y-24621904D01*
X143915498Y-24383809D02*
X144010736Y-24621904D01*
X143915498Y-24860000D01*
X144201212Y-24479047D02*
X144010736Y-24621904D01*
X144201212Y-24764761D01*
X150472400Y-31336170D02*
X150472400Y-30764741D01*
X150472400Y-31050456D02*
X149472400Y-31050456D01*
X149615258Y-30955218D01*
X149710496Y-30859980D01*
X149758115Y-30764741D01*
X149472400Y-31955218D02*
X149472400Y-32050456D01*
X149520020Y-32145694D01*
X149567639Y-32193313D01*
X149662877Y-32240932D01*
X149853353Y-32288551D01*
X150091448Y-32288551D01*
X150281924Y-32240932D01*
X150377162Y-32193313D01*
X150424781Y-32145694D01*
X150472400Y-32050456D01*
X150472400Y-31955218D01*
X150424781Y-31859980D01*
X150377162Y-31812360D01*
X150281924Y-31764741D01*
X150091448Y-31717122D01*
X149853353Y-31717122D01*
X149662877Y-31764741D01*
X149567639Y-31812360D01*
X149520020Y-31859980D01*
X149472400Y-31955218D01*
X150472400Y-32717122D02*
X149805734Y-32717122D01*
X149900972Y-32717122D02*
X149853353Y-32764741D01*
X149805734Y-32859980D01*
X149805734Y-33002837D01*
X149853353Y-33098075D01*
X149948591Y-33145694D01*
X150472400Y-33145694D01*
X149948591Y-33145694D02*
X149853353Y-33193313D01*
X149805734Y-33288551D01*
X149805734Y-33431408D01*
X149853353Y-33526646D01*
X149948591Y-33574265D01*
X150472400Y-33574265D01*
X150472400Y-34050456D02*
X149805734Y-34050456D01*
X149900972Y-34050456D02*
X149853353Y-34098075D01*
X149805734Y-34193313D01*
X149805734Y-34336170D01*
X149853353Y-34431408D01*
X149948591Y-34479027D01*
X150472400Y-34479027D01*
X149948591Y-34479027D02*
X149853353Y-34526646D01*
X149805734Y-34621884D01*
X149805734Y-34764741D01*
X149853353Y-34859980D01*
X149948591Y-34907599D01*
X150472400Y-34907599D01*
X149571460Y-22812380D02*
X149571460Y-22907619D01*
X149619080Y-23002857D01*
X149666699Y-23050476D01*
X149761937Y-23098095D01*
X149952413Y-23145714D01*
X150190508Y-23145714D01*
X150380984Y-23098095D01*
X150476222Y-23050476D01*
X150523841Y-23002857D01*
X150571460Y-22907619D01*
X150571460Y-22812380D01*
X150523841Y-22717142D01*
X150476222Y-22669523D01*
X150380984Y-22621904D01*
X150190508Y-22574285D01*
X149952413Y-22574285D01*
X149761937Y-22621904D01*
X149666699Y-22669523D01*
X149619080Y-22717142D01*
X149571460Y-22812380D01*
X149673060Y-28096815D02*
X149673060Y-27620624D01*
X150149251Y-27573005D01*
X150101632Y-27620624D01*
X150054013Y-27715862D01*
X150054013Y-27953958D01*
X150101632Y-28049196D01*
X150149251Y-28096815D01*
X150244489Y-28144434D01*
X150482584Y-28144434D01*
X150577822Y-28096815D01*
X150625441Y-28049196D01*
X150673060Y-27953958D01*
X150673060Y-27715862D01*
X150625441Y-27620624D01*
X150577822Y-27573005D01*
X149768299Y-42197115D02*
X149720680Y-42244734D01*
X149673060Y-42339972D01*
X149673060Y-42578067D01*
X149720680Y-42673305D01*
X149768299Y-42720924D01*
X149863537Y-42768543D01*
X149958775Y-42768543D01*
X150101632Y-42720924D01*
X150673060Y-42149496D01*
X150673060Y-42768543D01*
X149673060Y-43387591D02*
X149673060Y-43482829D01*
X149720680Y-43578067D01*
X149768299Y-43625686D01*
X149863537Y-43673305D01*
X150054013Y-43720924D01*
X150292108Y-43720924D01*
X150482584Y-43673305D01*
X150577822Y-43625686D01*
X150625441Y-43578067D01*
X150673060Y-43482829D01*
X150673060Y-43387591D01*
X150625441Y-43292353D01*
X150577822Y-43244734D01*
X150482584Y-43197115D01*
X150292108Y-43149496D01*
X150054013Y-43149496D01*
X149863537Y-43197115D01*
X149768299Y-43244734D01*
X149720680Y-43292353D01*
X149673060Y-43387591D01*
X149772120Y-52050416D02*
X149772120Y-52669463D01*
X150153073Y-52336130D01*
X150153073Y-52478987D01*
X150200692Y-52574225D01*
X150248311Y-52621844D01*
X150343549Y-52669463D01*
X150581644Y-52669463D01*
X150676882Y-52621844D01*
X150724501Y-52574225D01*
X150772120Y-52478987D01*
X150772120Y-52193273D01*
X150724501Y-52098035D01*
X150676882Y-52050416D01*
X149772120Y-53288511D02*
X149772120Y-53383749D01*
X149819740Y-53478987D01*
X149867359Y-53526606D01*
X149962597Y-53574225D01*
X150153073Y-53621844D01*
X150391168Y-53621844D01*
X150581644Y-53574225D01*
X150676882Y-53526606D01*
X150724501Y-53478987D01*
X150772120Y-53383749D01*
X150772120Y-53288511D01*
X150724501Y-53193273D01*
X150676882Y-53145654D01*
X150581644Y-53098035D01*
X150391168Y-53050416D01*
X150153073Y-53050416D01*
X149962597Y-53098035D01*
X149867359Y-53145654D01*
X149819740Y-53193273D01*
X149772120Y-53288511D01*
X150207054Y-62574205D02*
X150873720Y-62574205D01*
X149826101Y-62336110D02*
X150540387Y-62098015D01*
X150540387Y-62717062D01*
X149873720Y-63288491D02*
X149873720Y-63383729D01*
X149921340Y-63478967D01*
X149968959Y-63526586D01*
X150064197Y-63574205D01*
X150254673Y-63621824D01*
X150492768Y-63621824D01*
X150683244Y-63574205D01*
X150778482Y-63526586D01*
X150826101Y-63478967D01*
X150873720Y-63383729D01*
X150873720Y-63288491D01*
X150826101Y-63193253D01*
X150778482Y-63145634D01*
X150683244Y-63098015D01*
X150492768Y-63050396D01*
X150254673Y-63050396D01*
X150064197Y-63098015D01*
X149968959Y-63145634D01*
X149921340Y-63193253D01*
X149873720Y-63288491D01*
X149873720Y-72621804D02*
X149873720Y-72145614D01*
X150349911Y-72097995D01*
X150302292Y-72145614D01*
X150254673Y-72240852D01*
X150254673Y-72478947D01*
X150302292Y-72574185D01*
X150349911Y-72621804D01*
X150445149Y-72669423D01*
X150683244Y-72669423D01*
X150778482Y-72621804D01*
X150826101Y-72574185D01*
X150873720Y-72478947D01*
X150873720Y-72240852D01*
X150826101Y-72145614D01*
X150778482Y-72097995D01*
X149873720Y-73288471D02*
X149873720Y-73383709D01*
X149921340Y-73478947D01*
X149968959Y-73526566D01*
X150064197Y-73574185D01*
X150254673Y-73621804D01*
X150492768Y-73621804D01*
X150683244Y-73574185D01*
X150778482Y-73526566D01*
X150826101Y-73478947D01*
X150873720Y-73383709D01*
X150873720Y-73288471D01*
X150826101Y-73193233D01*
X150778482Y-73145614D01*
X150683244Y-73097995D01*
X150492768Y-73050376D01*
X150254673Y-73050376D01*
X150064197Y-73097995D01*
X149968959Y-73145614D01*
X149921340Y-73193233D01*
X149873720Y-73288471D01*
X149873720Y-82574165D02*
X149873720Y-82383689D01*
X149921340Y-82288451D01*
X149968959Y-82240832D01*
X150111816Y-82145594D01*
X150302292Y-82097975D01*
X150683244Y-82097975D01*
X150778482Y-82145594D01*
X150826101Y-82193213D01*
X150873720Y-82288451D01*
X150873720Y-82478927D01*
X150826101Y-82574165D01*
X150778482Y-82621784D01*
X150683244Y-82669403D01*
X150445149Y-82669403D01*
X150349911Y-82621784D01*
X150302292Y-82574165D01*
X150254673Y-82478927D01*
X150254673Y-82288451D01*
X150302292Y-82193213D01*
X150349911Y-82145594D01*
X150445149Y-82097975D01*
X149873720Y-83288451D02*
X149873720Y-83383689D01*
X149921340Y-83478927D01*
X149968959Y-83526546D01*
X150064197Y-83574165D01*
X150254673Y-83621784D01*
X150492768Y-83621784D01*
X150683244Y-83574165D01*
X150778482Y-83526546D01*
X150826101Y-83478927D01*
X150873720Y-83383689D01*
X150873720Y-83288451D01*
X150826101Y-83193213D01*
X150778482Y-83145594D01*
X150683244Y-83097975D01*
X150492768Y-83050356D01*
X150254673Y-83050356D01*
X150064197Y-83097975D01*
X149968959Y-83145594D01*
X149921340Y-83193213D01*
X149873720Y-83288451D01*
X150074380Y-91900476D02*
X150074380Y-92567142D01*
X151074380Y-92138571D01*
X150074380Y-93138571D02*
X150074380Y-93233809D01*
X150122000Y-93329047D01*
X150169619Y-93376666D01*
X150264857Y-93424285D01*
X150455333Y-93471904D01*
X150693428Y-93471904D01*
X150883904Y-93424285D01*
X150979142Y-93376666D01*
X151026761Y-93329047D01*
X151074380Y-93233809D01*
X151074380Y-93138571D01*
X151026761Y-93043333D01*
X150979142Y-92995714D01*
X150883904Y-92948095D01*
X150693428Y-92900476D01*
X150455333Y-92900476D01*
X150264857Y-92948095D01*
X150169619Y-92995714D01*
X150122000Y-93043333D01*
X150074380Y-93138571D01*
X150602012Y-102288411D02*
X150554393Y-102193173D01*
X150506774Y-102145554D01*
X150411536Y-102097935D01*
X150363917Y-102097935D01*
X150268679Y-102145554D01*
X150221060Y-102193173D01*
X150173440Y-102288411D01*
X150173440Y-102478887D01*
X150221060Y-102574125D01*
X150268679Y-102621744D01*
X150363917Y-102669363D01*
X150411536Y-102669363D01*
X150506774Y-102621744D01*
X150554393Y-102574125D01*
X150602012Y-102478887D01*
X150602012Y-102288411D01*
X150649631Y-102193173D01*
X150697250Y-102145554D01*
X150792488Y-102097935D01*
X150982964Y-102097935D01*
X151078202Y-102145554D01*
X151125821Y-102193173D01*
X151173440Y-102288411D01*
X151173440Y-102478887D01*
X151125821Y-102574125D01*
X151078202Y-102621744D01*
X150982964Y-102669363D01*
X150792488Y-102669363D01*
X150697250Y-102621744D01*
X150649631Y-102574125D01*
X150602012Y-102478887D01*
X150173440Y-103288411D02*
X150173440Y-103383649D01*
X150221060Y-103478887D01*
X150268679Y-103526506D01*
X150363917Y-103574125D01*
X150554393Y-103621744D01*
X150792488Y-103621744D01*
X150982964Y-103574125D01*
X151078202Y-103526506D01*
X151125821Y-103478887D01*
X151173440Y-103383649D01*
X151173440Y-103288411D01*
X151125821Y-103193173D01*
X151078202Y-103145554D01*
X150982964Y-103097935D01*
X150792488Y-103050316D01*
X150554393Y-103050316D01*
X150363917Y-103097935D01*
X150268679Y-103145554D01*
X150221060Y-103193173D01*
X150173440Y-103288411D01*
X150975320Y-112294753D02*
X150975320Y-112485229D01*
X150927701Y-112580467D01*
X150880082Y-112628086D01*
X150737225Y-112723324D01*
X150546749Y-112770943D01*
X150165797Y-112770943D01*
X150070559Y-112723324D01*
X150022940Y-112675705D01*
X149975320Y-112580467D01*
X149975320Y-112389991D01*
X150022940Y-112294753D01*
X150070559Y-112247134D01*
X150165797Y-112199515D01*
X150403892Y-112199515D01*
X150499130Y-112247134D01*
X150546749Y-112294753D01*
X150594368Y-112389991D01*
X150594368Y-112580467D01*
X150546749Y-112675705D01*
X150499130Y-112723324D01*
X150403892Y-112770943D01*
X149975320Y-113389991D02*
X149975320Y-113485229D01*
X150022940Y-113580467D01*
X150070559Y-113628086D01*
X150165797Y-113675705D01*
X150356273Y-113723324D01*
X150594368Y-113723324D01*
X150784844Y-113675705D01*
X150880082Y-113628086D01*
X150927701Y-113580467D01*
X150975320Y-113485229D01*
X150975320Y-113389991D01*
X150927701Y-113294753D01*
X150880082Y-113247134D01*
X150784844Y-113199515D01*
X150594368Y-113151896D01*
X150356273Y-113151896D01*
X150165797Y-113199515D01*
X150070559Y-113247134D01*
X150022940Y-113294753D01*
X149975320Y-113389991D01*
X150975320Y-120961400D02*
X150975320Y-120389971D01*
X150975320Y-120675685D02*
X149975320Y-120675685D01*
X150118178Y-120580447D01*
X150213416Y-120485209D01*
X150261035Y-120389971D01*
X149975320Y-121580447D02*
X149975320Y-121675685D01*
X150022940Y-121770923D01*
X150070559Y-121818542D01*
X150165797Y-121866161D01*
X150356273Y-121913780D01*
X150594368Y-121913780D01*
X150784844Y-121866161D01*
X150880082Y-121818542D01*
X150927701Y-121770923D01*
X150975320Y-121675685D01*
X150975320Y-121580447D01*
X150927701Y-121485209D01*
X150880082Y-121437590D01*
X150784844Y-121389971D01*
X150594368Y-121342352D01*
X150356273Y-121342352D01*
X150165797Y-121389971D01*
X150070559Y-121437590D01*
X150022940Y-121485209D01*
X149975320Y-121580447D01*
X149975320Y-122532828D02*
X149975320Y-122628066D01*
X150022940Y-122723304D01*
X150070559Y-122770923D01*
X150165797Y-122818542D01*
X150356273Y-122866161D01*
X150594368Y-122866161D01*
X150784844Y-122818542D01*
X150880082Y-122770923D01*
X150927701Y-122723304D01*
X150975320Y-122628066D01*
X150975320Y-122532828D01*
X150927701Y-122437590D01*
X150880082Y-122389971D01*
X150784844Y-122342352D01*
X150594368Y-122294733D01*
X150356273Y-122294733D01*
X150165797Y-122342352D01*
X150070559Y-122389971D01*
X150022940Y-122437590D01*
X149975320Y-122532828D01*
X150975320Y-123294733D02*
X150308654Y-123294733D01*
X150403892Y-123294733D02*
X150356273Y-123342352D01*
X150308654Y-123437590D01*
X150308654Y-123580447D01*
X150356273Y-123675685D01*
X150451511Y-123723304D01*
X150975320Y-123723304D01*
X150451511Y-123723304D02*
X150356273Y-123770923D01*
X150308654Y-123866161D01*
X150308654Y-124009019D01*
X150356273Y-124104257D01*
X150451511Y-124151876D01*
X150975320Y-124151876D01*
X150975320Y-124628066D02*
X150308654Y-124628066D01*
X150403892Y-124628066D02*
X150356273Y-124675685D01*
X150308654Y-124770923D01*
X150308654Y-124913780D01*
X150356273Y-125009019D01*
X150451511Y-125056638D01*
X150975320Y-125056638D01*
X150451511Y-125056638D02*
X150356273Y-125104257D01*
X150308654Y-125199495D01*
X150308654Y-125342352D01*
X150356273Y-125437590D01*
X150451511Y-125485209D01*
X150975320Y-125485209D01*
M02*
