M48
;DRILL file {KiCad (5.0.0)} date 12/16/18 12:55:34
;FORMAT={-:-/ absolute / metric / decimal}
FMAT,2
METRIC,TZ
T1C0.400
T2C0.800
T3C0.900
T4C1.000
T5C1.200
T6C1.300
%
G90
G05
M71
T1
X126.492Y-46.228
X128.524Y-46.228
X129.54Y-43.942
X132.575Y-84.328
X138.938Y-42.922
X138.938Y-44.472
X147.828Y-35.306
X148.336Y-31.75
X152.4Y-56.642
X153.977Y-50.8
X155.181Y-65.278
X155.418Y-42.642
X155.448Y-35.801
X155.448Y-38.367
X155.527Y-44.754
X156.464Y-50.8
X156.731Y-65.278
X156.972Y-91.948
X160.782Y-35.801
X165.595Y-105.156
X166.37Y-94.234
X166.37Y-96.774
T2
X153.964Y-85.09
X156.464Y-85.09
X139.232Y-94.488
X141.732Y-94.488
X132.588Y-55.88
X132.588Y-58.38
X157.48Y-41.676
X157.48Y-49.276
T3
X149.86Y-44.196
X149.86Y-46.736
X136.144Y-107.188
X138.684Y-107.188
T4
X121.158Y-24.892
X121.158Y-29.972
X128.778Y-24.892
X128.778Y-29.972
X121.285Y-106.553
X121.285Y-111.633
X128.905Y-106.553
X128.905Y-111.633
X121.285Y-115.443
X121.285Y-120.523
X128.905Y-115.443
X128.905Y-120.523
X160.655Y-24.384
X160.655Y-29.464
X168.275Y-24.384
X168.275Y-29.464
X160.782Y-33.02
X160.782Y-38.1
X168.402Y-33.02
X168.402Y-38.1
X160.782Y-73.152
X160.782Y-78.232
X168.402Y-73.152
X168.402Y-78.232
X160.782Y-115.316
X160.782Y-120.396
X168.402Y-115.316
X168.402Y-120.396
X121.158Y-33.02
X121.158Y-38.1
X128.778Y-33.02
X128.778Y-38.1
T5
X151.892Y-94.488
X132.08Y-29.464
X130.048Y-101.346
X131.572Y-117.856
X164.592Y-26.924
X139.248Y-27.432
X142.748Y-27.432
X164.592Y-35.306
X155.702Y-105.156
X149.916Y-27.432
X153.416Y-27.432
X132.08Y-33.528
X149.352Y-118.364
X152.852Y-118.364
X155.956Y-67.564
T6
X121.285Y-74.803
X121.285Y-79.803
X121.285Y-84.803
X121.285Y-57.658
X121.285Y-62.658
X121.285Y-67.658
X168.275Y-58.58
X168.275Y-63.58
X168.275Y-68.58
X121.285Y-91.313
X121.285Y-96.313
X121.285Y-101.313
X168.148Y-100.236
X168.148Y-105.236
X168.148Y-110.236
X168.275Y-83.472
X168.275Y-88.472
X168.275Y-93.472
X121.285Y-41.148
X121.285Y-46.148
X121.285Y-51.148
X168.148Y-41.816
X168.148Y-46.816
X168.148Y-51.816
T4
X135.2Y-118.518G85X135.2Y-120.018
G05
X138.7Y-112.268G85X140.7Y-112.268
G05
X139.05Y-118.268G85X140.35Y-118.268
G05
X144.2Y-118.518G85X144.2Y-120.018
G05
T0
M30
