%TF.GenerationSoftware,KiCad,Pcbnew,(5.0.0)*%
%TF.CreationDate,2018-12-16T12:55:05+01:00*%
%TF.ProjectId,Kicad_Oscillator_Drone,4B696361645F4F7363696C6C61746F72,rev?*%
%TF.SameCoordinates,Original*%
%TF.FileFunction,Copper,L1,Top,Signal*%
%TF.FilePolarity,Positive*%
%FSLAX46Y46*%
G04 Gerber Fmt 4.6, Leading zero omitted, Abs format (unit mm)*
G04 Created by KiCad (PCBNEW (5.0.0)) date 12/16/18 12:55:05*
%MOMM*%
%LPD*%
G01*
G04 APERTURE LIST*
%ADD10C,1.000000*%
%ADD11C,0.150000*%
%ADD12C,2.000000*%
%ADD13O,2.000000X3.500000*%
%ADD14O,3.300000X2.000000*%
%ADD15R,4.000000X2.000000*%
%ADD16C,2.340000*%
%ADD17C,1.150000*%
%ADD18R,1.600000X1.600000*%
%ADD19C,1.600000*%
%ADD20C,2.400000*%
%ADD21R,2.400000X2.400000*%
%ADD22R,1.900000X0.800000*%
%ADD23R,0.800000X1.900000*%
%ADD24R,1.800000X1.800000*%
%ADD25C,1.800000*%
%ADD26C,0.800000*%
%ADD27C,0.350000*%
%ADD28C,0.500000*%
%ADD29C,0.254000*%
G04 APERTURE END LIST*
D10*
X134112000Y-71374000D02*
X134112000Y-70866000D01*
X158242000Y-79756000D02*
X158242000Y-79248000D01*
X146304000Y-79756000D02*
X158242000Y-79756000D01*
X146304000Y-80010000D02*
X146304000Y-79756000D01*
X146304000Y-114046000D02*
X146304000Y-80010000D01*
X145796000Y-114046000D02*
X146304000Y-114046000D01*
X145796000Y-71374000D02*
X145796000Y-114046000D01*
X134112000Y-71374000D02*
X145796000Y-71374000D01*
X145796000Y-70866000D02*
X134112000Y-70866000D01*
X145796000Y-31242000D02*
X145796000Y-70866000D01*
X146558000Y-31242000D02*
X145796000Y-31242000D01*
X146558000Y-79248000D02*
X146558000Y-31242000D01*
X158242000Y-79248000D02*
X146558000Y-79248000D01*
X121816049Y-127025076D02*
G75*
G03X121816049Y-127025076I-1666666J0D01*
G01*
X117649383Y-127025076D02*
X122649383Y-127025076D01*
X120149383Y-124525076D02*
X120149383Y-129525076D01*
D11*
X170180000Y-122936000D02*
X170180000Y-22860000D01*
X119380000Y-122936000D02*
X170180000Y-122936000D01*
X119380000Y-22860000D02*
X119380000Y-122936000D01*
X170180000Y-22860000D02*
X119380000Y-22860000D01*
D12*
X160782000Y-120396000D03*
X160782000Y-115316000D03*
X168402000Y-120396000D03*
X168402000Y-115316000D03*
X128778000Y-29972000D03*
X128778000Y-24892000D03*
X121158000Y-29972000D03*
X121158000Y-24892000D03*
X128778000Y-33020000D03*
X128778000Y-38100000D03*
X121158000Y-33020000D03*
X121158000Y-38100000D03*
X160655000Y-29464000D03*
X160655000Y-24384000D03*
X168275000Y-29464000D03*
X168275000Y-24384000D03*
X160782000Y-78232000D03*
X160782000Y-73152000D03*
X168402000Y-78232000D03*
X168402000Y-73152000D03*
X128905000Y-120523000D03*
X128905000Y-115443000D03*
X121285000Y-120523000D03*
X121285000Y-115443000D03*
X128905000Y-106553000D03*
X128905000Y-111633000D03*
X121285000Y-106553000D03*
X121285000Y-111633000D03*
X160782000Y-38100000D03*
X160782000Y-33020000D03*
X168402000Y-38100000D03*
X168402000Y-33020000D03*
D13*
X144200000Y-119268000D03*
X135200000Y-119268000D03*
D14*
X139700000Y-118268000D03*
D15*
X139700000Y-112268000D03*
D16*
X121285000Y-91313000D03*
X121285000Y-96313000D03*
X121285000Y-101313000D03*
X121285000Y-74803000D03*
X121285000Y-79803000D03*
X121285000Y-84803000D03*
X121285000Y-57658000D03*
X121285000Y-62658000D03*
X121285000Y-67658000D03*
X121285000Y-41148000D03*
X121285000Y-46148000D03*
X121285000Y-51148000D03*
X168148000Y-110236000D03*
X168148000Y-105236000D03*
X168148000Y-100236000D03*
X168275000Y-93472000D03*
X168275000Y-88472000D03*
X168275000Y-83472000D03*
X168275000Y-68580000D03*
X168275000Y-63580000D03*
X168275000Y-58580000D03*
X168148000Y-51816000D03*
X168148000Y-46816000D03*
X168148000Y-41816000D03*
D11*
G36*
X157076505Y-93789204D02*
X157100773Y-93792804D01*
X157124572Y-93798765D01*
X157147671Y-93807030D01*
X157169850Y-93817520D01*
X157190893Y-93830132D01*
X157210599Y-93844747D01*
X157228777Y-93861223D01*
X157245253Y-93879401D01*
X157259868Y-93899107D01*
X157272480Y-93920150D01*
X157282970Y-93942329D01*
X157291235Y-93965428D01*
X157297196Y-93989227D01*
X157300796Y-94013495D01*
X157302000Y-94037999D01*
X157302000Y-94938001D01*
X157300796Y-94962505D01*
X157297196Y-94986773D01*
X157291235Y-95010572D01*
X157282970Y-95033671D01*
X157272480Y-95055850D01*
X157259868Y-95076893D01*
X157245253Y-95096599D01*
X157228777Y-95114777D01*
X157210599Y-95131253D01*
X157190893Y-95145868D01*
X157169850Y-95158480D01*
X157147671Y-95168970D01*
X157124572Y-95177235D01*
X157100773Y-95183196D01*
X157076505Y-95186796D01*
X157052001Y-95188000D01*
X156401999Y-95188000D01*
X156377495Y-95186796D01*
X156353227Y-95183196D01*
X156329428Y-95177235D01*
X156306329Y-95168970D01*
X156284150Y-95158480D01*
X156263107Y-95145868D01*
X156243401Y-95131253D01*
X156225223Y-95114777D01*
X156208747Y-95096599D01*
X156194132Y-95076893D01*
X156181520Y-95055850D01*
X156171030Y-95033671D01*
X156162765Y-95010572D01*
X156156804Y-94986773D01*
X156153204Y-94962505D01*
X156152000Y-94938001D01*
X156152000Y-94037999D01*
X156153204Y-94013495D01*
X156156804Y-93989227D01*
X156162765Y-93965428D01*
X156171030Y-93942329D01*
X156181520Y-93920150D01*
X156194132Y-93899107D01*
X156208747Y-93879401D01*
X156225223Y-93861223D01*
X156243401Y-93844747D01*
X156263107Y-93830132D01*
X156284150Y-93817520D01*
X156306329Y-93807030D01*
X156329428Y-93798765D01*
X156353227Y-93792804D01*
X156377495Y-93789204D01*
X156401999Y-93788000D01*
X157052001Y-93788000D01*
X157076505Y-93789204D01*
X157076505Y-93789204D01*
G37*
D17*
X156727000Y-94488000D03*
D11*
G36*
X155026505Y-93789204D02*
X155050773Y-93792804D01*
X155074572Y-93798765D01*
X155097671Y-93807030D01*
X155119850Y-93817520D01*
X155140893Y-93830132D01*
X155160599Y-93844747D01*
X155178777Y-93861223D01*
X155195253Y-93879401D01*
X155209868Y-93899107D01*
X155222480Y-93920150D01*
X155232970Y-93942329D01*
X155241235Y-93965428D01*
X155247196Y-93989227D01*
X155250796Y-94013495D01*
X155252000Y-94037999D01*
X155252000Y-94938001D01*
X155250796Y-94962505D01*
X155247196Y-94986773D01*
X155241235Y-95010572D01*
X155232970Y-95033671D01*
X155222480Y-95055850D01*
X155209868Y-95076893D01*
X155195253Y-95096599D01*
X155178777Y-95114777D01*
X155160599Y-95131253D01*
X155140893Y-95145868D01*
X155119850Y-95158480D01*
X155097671Y-95168970D01*
X155074572Y-95177235D01*
X155050773Y-95183196D01*
X155026505Y-95186796D01*
X155002001Y-95188000D01*
X154351999Y-95188000D01*
X154327495Y-95186796D01*
X154303227Y-95183196D01*
X154279428Y-95177235D01*
X154256329Y-95168970D01*
X154234150Y-95158480D01*
X154213107Y-95145868D01*
X154193401Y-95131253D01*
X154175223Y-95114777D01*
X154158747Y-95096599D01*
X154144132Y-95076893D01*
X154131520Y-95055850D01*
X154121030Y-95033671D01*
X154112765Y-95010572D01*
X154106804Y-94986773D01*
X154103204Y-94962505D01*
X154102000Y-94938001D01*
X154102000Y-94037999D01*
X154103204Y-94013495D01*
X154106804Y-93989227D01*
X154112765Y-93965428D01*
X154121030Y-93942329D01*
X154131520Y-93920150D01*
X154144132Y-93899107D01*
X154158747Y-93879401D01*
X154175223Y-93861223D01*
X154193401Y-93844747D01*
X154213107Y-93830132D01*
X154234150Y-93817520D01*
X154256329Y-93807030D01*
X154279428Y-93798765D01*
X154303227Y-93792804D01*
X154327495Y-93789204D01*
X154351999Y-93788000D01*
X155002001Y-93788000D01*
X155026505Y-93789204D01*
X155026505Y-93789204D01*
G37*
D17*
X154677000Y-94488000D03*
D18*
X156464000Y-85090000D03*
D19*
X153964000Y-85090000D03*
D11*
G36*
X159090505Y-104457204D02*
X159114773Y-104460804D01*
X159138572Y-104466765D01*
X159161671Y-104475030D01*
X159183850Y-104485520D01*
X159204893Y-104498132D01*
X159224599Y-104512747D01*
X159242777Y-104529223D01*
X159259253Y-104547401D01*
X159273868Y-104567107D01*
X159286480Y-104588150D01*
X159296970Y-104610329D01*
X159305235Y-104633428D01*
X159311196Y-104657227D01*
X159314796Y-104681495D01*
X159316000Y-104705999D01*
X159316000Y-105606001D01*
X159314796Y-105630505D01*
X159311196Y-105654773D01*
X159305235Y-105678572D01*
X159296970Y-105701671D01*
X159286480Y-105723850D01*
X159273868Y-105744893D01*
X159259253Y-105764599D01*
X159242777Y-105782777D01*
X159224599Y-105799253D01*
X159204893Y-105813868D01*
X159183850Y-105826480D01*
X159161671Y-105836970D01*
X159138572Y-105845235D01*
X159114773Y-105851196D01*
X159090505Y-105854796D01*
X159066001Y-105856000D01*
X158415999Y-105856000D01*
X158391495Y-105854796D01*
X158367227Y-105851196D01*
X158343428Y-105845235D01*
X158320329Y-105836970D01*
X158298150Y-105826480D01*
X158277107Y-105813868D01*
X158257401Y-105799253D01*
X158239223Y-105782777D01*
X158222747Y-105764599D01*
X158208132Y-105744893D01*
X158195520Y-105723850D01*
X158185030Y-105701671D01*
X158176765Y-105678572D01*
X158170804Y-105654773D01*
X158167204Y-105630505D01*
X158166000Y-105606001D01*
X158166000Y-104705999D01*
X158167204Y-104681495D01*
X158170804Y-104657227D01*
X158176765Y-104633428D01*
X158185030Y-104610329D01*
X158195520Y-104588150D01*
X158208132Y-104567107D01*
X158222747Y-104547401D01*
X158239223Y-104529223D01*
X158257401Y-104512747D01*
X158277107Y-104498132D01*
X158298150Y-104485520D01*
X158320329Y-104475030D01*
X158343428Y-104466765D01*
X158367227Y-104460804D01*
X158391495Y-104457204D01*
X158415999Y-104456000D01*
X159066001Y-104456000D01*
X159090505Y-104457204D01*
X159090505Y-104457204D01*
G37*
D17*
X158741000Y-105156000D03*
D11*
G36*
X161140505Y-104457204D02*
X161164773Y-104460804D01*
X161188572Y-104466765D01*
X161211671Y-104475030D01*
X161233850Y-104485520D01*
X161254893Y-104498132D01*
X161274599Y-104512747D01*
X161292777Y-104529223D01*
X161309253Y-104547401D01*
X161323868Y-104567107D01*
X161336480Y-104588150D01*
X161346970Y-104610329D01*
X161355235Y-104633428D01*
X161361196Y-104657227D01*
X161364796Y-104681495D01*
X161366000Y-104705999D01*
X161366000Y-105606001D01*
X161364796Y-105630505D01*
X161361196Y-105654773D01*
X161355235Y-105678572D01*
X161346970Y-105701671D01*
X161336480Y-105723850D01*
X161323868Y-105744893D01*
X161309253Y-105764599D01*
X161292777Y-105782777D01*
X161274599Y-105799253D01*
X161254893Y-105813868D01*
X161233850Y-105826480D01*
X161211671Y-105836970D01*
X161188572Y-105845235D01*
X161164773Y-105851196D01*
X161140505Y-105854796D01*
X161116001Y-105856000D01*
X160465999Y-105856000D01*
X160441495Y-105854796D01*
X160417227Y-105851196D01*
X160393428Y-105845235D01*
X160370329Y-105836970D01*
X160348150Y-105826480D01*
X160327107Y-105813868D01*
X160307401Y-105799253D01*
X160289223Y-105782777D01*
X160272747Y-105764599D01*
X160258132Y-105744893D01*
X160245520Y-105723850D01*
X160235030Y-105701671D01*
X160226765Y-105678572D01*
X160220804Y-105654773D01*
X160217204Y-105630505D01*
X160216000Y-105606001D01*
X160216000Y-104705999D01*
X160217204Y-104681495D01*
X160220804Y-104657227D01*
X160226765Y-104633428D01*
X160235030Y-104610329D01*
X160245520Y-104588150D01*
X160258132Y-104567107D01*
X160272747Y-104547401D01*
X160289223Y-104529223D01*
X160307401Y-104512747D01*
X160327107Y-104498132D01*
X160348150Y-104485520D01*
X160370329Y-104475030D01*
X160393428Y-104466765D01*
X160417227Y-104460804D01*
X160441495Y-104457204D01*
X160465999Y-104456000D01*
X161116001Y-104456000D01*
X161140505Y-104457204D01*
X161140505Y-104457204D01*
G37*
D17*
X160791000Y-105156000D03*
D11*
G36*
X153248505Y-32829204D02*
X153272773Y-32832804D01*
X153296572Y-32838765D01*
X153319671Y-32847030D01*
X153341850Y-32857520D01*
X153362893Y-32870132D01*
X153382599Y-32884747D01*
X153400777Y-32901223D01*
X153417253Y-32919401D01*
X153431868Y-32939107D01*
X153444480Y-32960150D01*
X153454970Y-32982329D01*
X153463235Y-33005428D01*
X153469196Y-33029227D01*
X153472796Y-33053495D01*
X153474000Y-33077999D01*
X153474000Y-33978001D01*
X153472796Y-34002505D01*
X153469196Y-34026773D01*
X153463235Y-34050572D01*
X153454970Y-34073671D01*
X153444480Y-34095850D01*
X153431868Y-34116893D01*
X153417253Y-34136599D01*
X153400777Y-34154777D01*
X153382599Y-34171253D01*
X153362893Y-34185868D01*
X153341850Y-34198480D01*
X153319671Y-34208970D01*
X153296572Y-34217235D01*
X153272773Y-34223196D01*
X153248505Y-34226796D01*
X153224001Y-34228000D01*
X152573999Y-34228000D01*
X152549495Y-34226796D01*
X152525227Y-34223196D01*
X152501428Y-34217235D01*
X152478329Y-34208970D01*
X152456150Y-34198480D01*
X152435107Y-34185868D01*
X152415401Y-34171253D01*
X152397223Y-34154777D01*
X152380747Y-34136599D01*
X152366132Y-34116893D01*
X152353520Y-34095850D01*
X152343030Y-34073671D01*
X152334765Y-34050572D01*
X152328804Y-34026773D01*
X152325204Y-34002505D01*
X152324000Y-33978001D01*
X152324000Y-33077999D01*
X152325204Y-33053495D01*
X152328804Y-33029227D01*
X152334765Y-33005428D01*
X152343030Y-32982329D01*
X152353520Y-32960150D01*
X152366132Y-32939107D01*
X152380747Y-32919401D01*
X152397223Y-32901223D01*
X152415401Y-32884747D01*
X152435107Y-32870132D01*
X152456150Y-32857520D01*
X152478329Y-32847030D01*
X152501428Y-32838765D01*
X152525227Y-32832804D01*
X152549495Y-32829204D01*
X152573999Y-32828000D01*
X153224001Y-32828000D01*
X153248505Y-32829204D01*
X153248505Y-32829204D01*
G37*
D17*
X152899000Y-33528000D03*
D11*
G36*
X155298505Y-32829204D02*
X155322773Y-32832804D01*
X155346572Y-32838765D01*
X155369671Y-32847030D01*
X155391850Y-32857520D01*
X155412893Y-32870132D01*
X155432599Y-32884747D01*
X155450777Y-32901223D01*
X155467253Y-32919401D01*
X155481868Y-32939107D01*
X155494480Y-32960150D01*
X155504970Y-32982329D01*
X155513235Y-33005428D01*
X155519196Y-33029227D01*
X155522796Y-33053495D01*
X155524000Y-33077999D01*
X155524000Y-33978001D01*
X155522796Y-34002505D01*
X155519196Y-34026773D01*
X155513235Y-34050572D01*
X155504970Y-34073671D01*
X155494480Y-34095850D01*
X155481868Y-34116893D01*
X155467253Y-34136599D01*
X155450777Y-34154777D01*
X155432599Y-34171253D01*
X155412893Y-34185868D01*
X155391850Y-34198480D01*
X155369671Y-34208970D01*
X155346572Y-34217235D01*
X155322773Y-34223196D01*
X155298505Y-34226796D01*
X155274001Y-34228000D01*
X154623999Y-34228000D01*
X154599495Y-34226796D01*
X154575227Y-34223196D01*
X154551428Y-34217235D01*
X154528329Y-34208970D01*
X154506150Y-34198480D01*
X154485107Y-34185868D01*
X154465401Y-34171253D01*
X154447223Y-34154777D01*
X154430747Y-34136599D01*
X154416132Y-34116893D01*
X154403520Y-34095850D01*
X154393030Y-34073671D01*
X154384765Y-34050572D01*
X154378804Y-34026773D01*
X154375204Y-34002505D01*
X154374000Y-33978001D01*
X154374000Y-33077999D01*
X154375204Y-33053495D01*
X154378804Y-33029227D01*
X154384765Y-33005428D01*
X154393030Y-32982329D01*
X154403520Y-32960150D01*
X154416132Y-32939107D01*
X154430747Y-32919401D01*
X154447223Y-32901223D01*
X154465401Y-32884747D01*
X154485107Y-32870132D01*
X154506150Y-32857520D01*
X154528329Y-32847030D01*
X154551428Y-32838765D01*
X154575227Y-32832804D01*
X154599495Y-32829204D01*
X154623999Y-32828000D01*
X155274001Y-32828000D01*
X155298505Y-32829204D01*
X155298505Y-32829204D01*
G37*
D17*
X154949000Y-33528000D03*
D11*
G36*
X151350505Y-54807204D02*
X151374773Y-54810804D01*
X151398572Y-54816765D01*
X151421671Y-54825030D01*
X151443850Y-54835520D01*
X151464893Y-54848132D01*
X151484599Y-54862747D01*
X151502777Y-54879223D01*
X151519253Y-54897401D01*
X151533868Y-54917107D01*
X151546480Y-54938150D01*
X151556970Y-54960329D01*
X151565235Y-54983428D01*
X151571196Y-55007227D01*
X151574796Y-55031495D01*
X151576000Y-55055999D01*
X151576000Y-55706001D01*
X151574796Y-55730505D01*
X151571196Y-55754773D01*
X151565235Y-55778572D01*
X151556970Y-55801671D01*
X151546480Y-55823850D01*
X151533868Y-55844893D01*
X151519253Y-55864599D01*
X151502777Y-55882777D01*
X151484599Y-55899253D01*
X151464893Y-55913868D01*
X151443850Y-55926480D01*
X151421671Y-55936970D01*
X151398572Y-55945235D01*
X151374773Y-55951196D01*
X151350505Y-55954796D01*
X151326001Y-55956000D01*
X150425999Y-55956000D01*
X150401495Y-55954796D01*
X150377227Y-55951196D01*
X150353428Y-55945235D01*
X150330329Y-55936970D01*
X150308150Y-55926480D01*
X150287107Y-55913868D01*
X150267401Y-55899253D01*
X150249223Y-55882777D01*
X150232747Y-55864599D01*
X150218132Y-55844893D01*
X150205520Y-55823850D01*
X150195030Y-55801671D01*
X150186765Y-55778572D01*
X150180804Y-55754773D01*
X150177204Y-55730505D01*
X150176000Y-55706001D01*
X150176000Y-55055999D01*
X150177204Y-55031495D01*
X150180804Y-55007227D01*
X150186765Y-54983428D01*
X150195030Y-54960329D01*
X150205520Y-54938150D01*
X150218132Y-54917107D01*
X150232747Y-54897401D01*
X150249223Y-54879223D01*
X150267401Y-54862747D01*
X150287107Y-54848132D01*
X150308150Y-54835520D01*
X150330329Y-54825030D01*
X150353428Y-54816765D01*
X150377227Y-54810804D01*
X150401495Y-54807204D01*
X150425999Y-54806000D01*
X151326001Y-54806000D01*
X151350505Y-54807204D01*
X151350505Y-54807204D01*
G37*
D17*
X150876000Y-55381000D03*
D11*
G36*
X151350505Y-52757204D02*
X151374773Y-52760804D01*
X151398572Y-52766765D01*
X151421671Y-52775030D01*
X151443850Y-52785520D01*
X151464893Y-52798132D01*
X151484599Y-52812747D01*
X151502777Y-52829223D01*
X151519253Y-52847401D01*
X151533868Y-52867107D01*
X151546480Y-52888150D01*
X151556970Y-52910329D01*
X151565235Y-52933428D01*
X151571196Y-52957227D01*
X151574796Y-52981495D01*
X151576000Y-53005999D01*
X151576000Y-53656001D01*
X151574796Y-53680505D01*
X151571196Y-53704773D01*
X151565235Y-53728572D01*
X151556970Y-53751671D01*
X151546480Y-53773850D01*
X151533868Y-53794893D01*
X151519253Y-53814599D01*
X151502777Y-53832777D01*
X151484599Y-53849253D01*
X151464893Y-53863868D01*
X151443850Y-53876480D01*
X151421671Y-53886970D01*
X151398572Y-53895235D01*
X151374773Y-53901196D01*
X151350505Y-53904796D01*
X151326001Y-53906000D01*
X150425999Y-53906000D01*
X150401495Y-53904796D01*
X150377227Y-53901196D01*
X150353428Y-53895235D01*
X150330329Y-53886970D01*
X150308150Y-53876480D01*
X150287107Y-53863868D01*
X150267401Y-53849253D01*
X150249223Y-53832777D01*
X150232747Y-53814599D01*
X150218132Y-53794893D01*
X150205520Y-53773850D01*
X150195030Y-53751671D01*
X150186765Y-53728572D01*
X150180804Y-53704773D01*
X150177204Y-53680505D01*
X150176000Y-53656001D01*
X150176000Y-53005999D01*
X150177204Y-52981495D01*
X150180804Y-52957227D01*
X150186765Y-52933428D01*
X150195030Y-52910329D01*
X150205520Y-52888150D01*
X150218132Y-52867107D01*
X150232747Y-52847401D01*
X150249223Y-52829223D01*
X150267401Y-52812747D01*
X150287107Y-52798132D01*
X150308150Y-52785520D01*
X150330329Y-52775030D01*
X150353428Y-52766765D01*
X150377227Y-52760804D01*
X150401495Y-52757204D01*
X150425999Y-52756000D01*
X151326001Y-52756000D01*
X151350505Y-52757204D01*
X151350505Y-52757204D01*
G37*
D17*
X150876000Y-53331000D03*
D11*
G36*
X160875506Y-62788205D02*
X160899774Y-62791805D01*
X160923573Y-62797766D01*
X160946672Y-62806031D01*
X160968851Y-62816521D01*
X160989894Y-62829133D01*
X161009600Y-62843748D01*
X161027778Y-62860224D01*
X161044254Y-62878402D01*
X161058869Y-62898108D01*
X161071481Y-62919151D01*
X161081971Y-62941330D01*
X161090236Y-62964429D01*
X161096197Y-62988228D01*
X161099797Y-63012496D01*
X161101001Y-63037000D01*
X161101001Y-63937002D01*
X161099797Y-63961506D01*
X161096197Y-63985774D01*
X161090236Y-64009573D01*
X161081971Y-64032672D01*
X161071481Y-64054851D01*
X161058869Y-64075894D01*
X161044254Y-64095600D01*
X161027778Y-64113778D01*
X161009600Y-64130254D01*
X160989894Y-64144869D01*
X160968851Y-64157481D01*
X160946672Y-64167971D01*
X160923573Y-64176236D01*
X160899774Y-64182197D01*
X160875506Y-64185797D01*
X160851002Y-64187001D01*
X160201000Y-64187001D01*
X160176496Y-64185797D01*
X160152228Y-64182197D01*
X160128429Y-64176236D01*
X160105330Y-64167971D01*
X160083151Y-64157481D01*
X160062108Y-64144869D01*
X160042402Y-64130254D01*
X160024224Y-64113778D01*
X160007748Y-64095600D01*
X159993133Y-64075894D01*
X159980521Y-64054851D01*
X159970031Y-64032672D01*
X159961766Y-64009573D01*
X159955805Y-63985774D01*
X159952205Y-63961506D01*
X159951001Y-63937002D01*
X159951001Y-63037000D01*
X159952205Y-63012496D01*
X159955805Y-62988228D01*
X159961766Y-62964429D01*
X159970031Y-62941330D01*
X159980521Y-62919151D01*
X159993133Y-62898108D01*
X160007748Y-62878402D01*
X160024224Y-62860224D01*
X160042402Y-62843748D01*
X160062108Y-62829133D01*
X160083151Y-62816521D01*
X160105330Y-62806031D01*
X160128429Y-62797766D01*
X160152228Y-62791805D01*
X160176496Y-62788205D01*
X160201000Y-62787001D01*
X160851002Y-62787001D01*
X160875506Y-62788205D01*
X160875506Y-62788205D01*
G37*
D17*
X160526001Y-63487001D03*
D11*
G36*
X158825506Y-62788205D02*
X158849774Y-62791805D01*
X158873573Y-62797766D01*
X158896672Y-62806031D01*
X158918851Y-62816521D01*
X158939894Y-62829133D01*
X158959600Y-62843748D01*
X158977778Y-62860224D01*
X158994254Y-62878402D01*
X159008869Y-62898108D01*
X159021481Y-62919151D01*
X159031971Y-62941330D01*
X159040236Y-62964429D01*
X159046197Y-62988228D01*
X159049797Y-63012496D01*
X159051001Y-63037000D01*
X159051001Y-63937002D01*
X159049797Y-63961506D01*
X159046197Y-63985774D01*
X159040236Y-64009573D01*
X159031971Y-64032672D01*
X159021481Y-64054851D01*
X159008869Y-64075894D01*
X158994254Y-64095600D01*
X158977778Y-64113778D01*
X158959600Y-64130254D01*
X158939894Y-64144869D01*
X158918851Y-64157481D01*
X158896672Y-64167971D01*
X158873573Y-64176236D01*
X158849774Y-64182197D01*
X158825506Y-64185797D01*
X158801002Y-64187001D01*
X158151000Y-64187001D01*
X158126496Y-64185797D01*
X158102228Y-64182197D01*
X158078429Y-64176236D01*
X158055330Y-64167971D01*
X158033151Y-64157481D01*
X158012108Y-64144869D01*
X157992402Y-64130254D01*
X157974224Y-64113778D01*
X157957748Y-64095600D01*
X157943133Y-64075894D01*
X157930521Y-64054851D01*
X157920031Y-64032672D01*
X157911766Y-64009573D01*
X157905805Y-63985774D01*
X157902205Y-63961506D01*
X157901001Y-63937002D01*
X157901001Y-63037000D01*
X157902205Y-63012496D01*
X157905805Y-62988228D01*
X157911766Y-62964429D01*
X157920031Y-62941330D01*
X157930521Y-62919151D01*
X157943133Y-62898108D01*
X157957748Y-62878402D01*
X157974224Y-62860224D01*
X157992402Y-62843748D01*
X158012108Y-62829133D01*
X158033151Y-62816521D01*
X158055330Y-62806031D01*
X158078429Y-62797766D01*
X158102228Y-62791805D01*
X158126496Y-62788205D01*
X158151000Y-62787001D01*
X158801002Y-62787001D01*
X158825506Y-62788205D01*
X158825506Y-62788205D01*
G37*
D17*
X158476001Y-63487001D03*
D11*
G36*
X137246505Y-32321204D02*
X137270773Y-32324804D01*
X137294572Y-32330765D01*
X137317671Y-32339030D01*
X137339850Y-32349520D01*
X137360893Y-32362132D01*
X137380599Y-32376747D01*
X137398777Y-32393223D01*
X137415253Y-32411401D01*
X137429868Y-32431107D01*
X137442480Y-32452150D01*
X137452970Y-32474329D01*
X137461235Y-32497428D01*
X137467196Y-32521227D01*
X137470796Y-32545495D01*
X137472000Y-32569999D01*
X137472000Y-33470001D01*
X137470796Y-33494505D01*
X137467196Y-33518773D01*
X137461235Y-33542572D01*
X137452970Y-33565671D01*
X137442480Y-33587850D01*
X137429868Y-33608893D01*
X137415253Y-33628599D01*
X137398777Y-33646777D01*
X137380599Y-33663253D01*
X137360893Y-33677868D01*
X137339850Y-33690480D01*
X137317671Y-33700970D01*
X137294572Y-33709235D01*
X137270773Y-33715196D01*
X137246505Y-33718796D01*
X137222001Y-33720000D01*
X136571999Y-33720000D01*
X136547495Y-33718796D01*
X136523227Y-33715196D01*
X136499428Y-33709235D01*
X136476329Y-33700970D01*
X136454150Y-33690480D01*
X136433107Y-33677868D01*
X136413401Y-33663253D01*
X136395223Y-33646777D01*
X136378747Y-33628599D01*
X136364132Y-33608893D01*
X136351520Y-33587850D01*
X136341030Y-33565671D01*
X136332765Y-33542572D01*
X136326804Y-33518773D01*
X136323204Y-33494505D01*
X136322000Y-33470001D01*
X136322000Y-32569999D01*
X136323204Y-32545495D01*
X136326804Y-32521227D01*
X136332765Y-32497428D01*
X136341030Y-32474329D01*
X136351520Y-32452150D01*
X136364132Y-32431107D01*
X136378747Y-32411401D01*
X136395223Y-32393223D01*
X136413401Y-32376747D01*
X136433107Y-32362132D01*
X136454150Y-32349520D01*
X136476329Y-32339030D01*
X136499428Y-32330765D01*
X136523227Y-32324804D01*
X136547495Y-32321204D01*
X136571999Y-32320000D01*
X137222001Y-32320000D01*
X137246505Y-32321204D01*
X137246505Y-32321204D01*
G37*
D17*
X136897000Y-33020000D03*
D11*
G36*
X139296505Y-32321204D02*
X139320773Y-32324804D01*
X139344572Y-32330765D01*
X139367671Y-32339030D01*
X139389850Y-32349520D01*
X139410893Y-32362132D01*
X139430599Y-32376747D01*
X139448777Y-32393223D01*
X139465253Y-32411401D01*
X139479868Y-32431107D01*
X139492480Y-32452150D01*
X139502970Y-32474329D01*
X139511235Y-32497428D01*
X139517196Y-32521227D01*
X139520796Y-32545495D01*
X139522000Y-32569999D01*
X139522000Y-33470001D01*
X139520796Y-33494505D01*
X139517196Y-33518773D01*
X139511235Y-33542572D01*
X139502970Y-33565671D01*
X139492480Y-33587850D01*
X139479868Y-33608893D01*
X139465253Y-33628599D01*
X139448777Y-33646777D01*
X139430599Y-33663253D01*
X139410893Y-33677868D01*
X139389850Y-33690480D01*
X139367671Y-33700970D01*
X139344572Y-33709235D01*
X139320773Y-33715196D01*
X139296505Y-33718796D01*
X139272001Y-33720000D01*
X138621999Y-33720000D01*
X138597495Y-33718796D01*
X138573227Y-33715196D01*
X138549428Y-33709235D01*
X138526329Y-33700970D01*
X138504150Y-33690480D01*
X138483107Y-33677868D01*
X138463401Y-33663253D01*
X138445223Y-33646777D01*
X138428747Y-33628599D01*
X138414132Y-33608893D01*
X138401520Y-33587850D01*
X138391030Y-33565671D01*
X138382765Y-33542572D01*
X138376804Y-33518773D01*
X138373204Y-33494505D01*
X138372000Y-33470001D01*
X138372000Y-32569999D01*
X138373204Y-32545495D01*
X138376804Y-32521227D01*
X138382765Y-32497428D01*
X138391030Y-32474329D01*
X138401520Y-32452150D01*
X138414132Y-32431107D01*
X138428747Y-32411401D01*
X138445223Y-32393223D01*
X138463401Y-32376747D01*
X138483107Y-32362132D01*
X138504150Y-32349520D01*
X138526329Y-32339030D01*
X138549428Y-32330765D01*
X138573227Y-32324804D01*
X138597495Y-32321204D01*
X138621999Y-32320000D01*
X139272001Y-32320000D01*
X139296505Y-32321204D01*
X139296505Y-32321204D01*
G37*
D17*
X138947000Y-33020000D03*
D18*
X132588000Y-55880000D03*
D19*
X132588000Y-58380000D03*
D11*
G36*
X137246505Y-36893204D02*
X137270773Y-36896804D01*
X137294572Y-36902765D01*
X137317671Y-36911030D01*
X137339850Y-36921520D01*
X137360893Y-36934132D01*
X137380599Y-36948747D01*
X137398777Y-36965223D01*
X137415253Y-36983401D01*
X137429868Y-37003107D01*
X137442480Y-37024150D01*
X137452970Y-37046329D01*
X137461235Y-37069428D01*
X137467196Y-37093227D01*
X137470796Y-37117495D01*
X137472000Y-37141999D01*
X137472000Y-38042001D01*
X137470796Y-38066505D01*
X137467196Y-38090773D01*
X137461235Y-38114572D01*
X137452970Y-38137671D01*
X137442480Y-38159850D01*
X137429868Y-38180893D01*
X137415253Y-38200599D01*
X137398777Y-38218777D01*
X137380599Y-38235253D01*
X137360893Y-38249868D01*
X137339850Y-38262480D01*
X137317671Y-38272970D01*
X137294572Y-38281235D01*
X137270773Y-38287196D01*
X137246505Y-38290796D01*
X137222001Y-38292000D01*
X136571999Y-38292000D01*
X136547495Y-38290796D01*
X136523227Y-38287196D01*
X136499428Y-38281235D01*
X136476329Y-38272970D01*
X136454150Y-38262480D01*
X136433107Y-38249868D01*
X136413401Y-38235253D01*
X136395223Y-38218777D01*
X136378747Y-38200599D01*
X136364132Y-38180893D01*
X136351520Y-38159850D01*
X136341030Y-38137671D01*
X136332765Y-38114572D01*
X136326804Y-38090773D01*
X136323204Y-38066505D01*
X136322000Y-38042001D01*
X136322000Y-37141999D01*
X136323204Y-37117495D01*
X136326804Y-37093227D01*
X136332765Y-37069428D01*
X136341030Y-37046329D01*
X136351520Y-37024150D01*
X136364132Y-37003107D01*
X136378747Y-36983401D01*
X136395223Y-36965223D01*
X136413401Y-36948747D01*
X136433107Y-36934132D01*
X136454150Y-36921520D01*
X136476329Y-36911030D01*
X136499428Y-36902765D01*
X136523227Y-36896804D01*
X136547495Y-36893204D01*
X136571999Y-36892000D01*
X137222001Y-36892000D01*
X137246505Y-36893204D01*
X137246505Y-36893204D01*
G37*
D17*
X136897000Y-37592000D03*
D11*
G36*
X139296505Y-36893204D02*
X139320773Y-36896804D01*
X139344572Y-36902765D01*
X139367671Y-36911030D01*
X139389850Y-36921520D01*
X139410893Y-36934132D01*
X139430599Y-36948747D01*
X139448777Y-36965223D01*
X139465253Y-36983401D01*
X139479868Y-37003107D01*
X139492480Y-37024150D01*
X139502970Y-37046329D01*
X139511235Y-37069428D01*
X139517196Y-37093227D01*
X139520796Y-37117495D01*
X139522000Y-37141999D01*
X139522000Y-38042001D01*
X139520796Y-38066505D01*
X139517196Y-38090773D01*
X139511235Y-38114572D01*
X139502970Y-38137671D01*
X139492480Y-38159850D01*
X139479868Y-38180893D01*
X139465253Y-38200599D01*
X139448777Y-38218777D01*
X139430599Y-38235253D01*
X139410893Y-38249868D01*
X139389850Y-38262480D01*
X139367671Y-38272970D01*
X139344572Y-38281235D01*
X139320773Y-38287196D01*
X139296505Y-38290796D01*
X139272001Y-38292000D01*
X138621999Y-38292000D01*
X138597495Y-38290796D01*
X138573227Y-38287196D01*
X138549428Y-38281235D01*
X138526329Y-38272970D01*
X138504150Y-38262480D01*
X138483107Y-38249868D01*
X138463401Y-38235253D01*
X138445223Y-38218777D01*
X138428747Y-38200599D01*
X138414132Y-38180893D01*
X138401520Y-38159850D01*
X138391030Y-38137671D01*
X138382765Y-38114572D01*
X138376804Y-38090773D01*
X138373204Y-38066505D01*
X138372000Y-38042001D01*
X138372000Y-37141999D01*
X138373204Y-37117495D01*
X138376804Y-37093227D01*
X138382765Y-37069428D01*
X138391030Y-37046329D01*
X138401520Y-37024150D01*
X138414132Y-37003107D01*
X138428747Y-36983401D01*
X138445223Y-36965223D01*
X138463401Y-36948747D01*
X138483107Y-36934132D01*
X138504150Y-36921520D01*
X138526329Y-36911030D01*
X138549428Y-36902765D01*
X138573227Y-36896804D01*
X138597495Y-36893204D01*
X138621999Y-36892000D01*
X139272001Y-36892000D01*
X139296505Y-36893204D01*
X139296505Y-36893204D01*
G37*
D17*
X138947000Y-37592000D03*
D11*
G36*
X132554505Y-114243204D02*
X132578773Y-114246804D01*
X132602572Y-114252765D01*
X132625671Y-114261030D01*
X132647850Y-114271520D01*
X132668893Y-114284132D01*
X132688599Y-114298747D01*
X132706777Y-114315223D01*
X132723253Y-114333401D01*
X132737868Y-114353107D01*
X132750480Y-114374150D01*
X132760970Y-114396329D01*
X132769235Y-114419428D01*
X132775196Y-114443227D01*
X132778796Y-114467495D01*
X132780000Y-114491999D01*
X132780000Y-115142001D01*
X132778796Y-115166505D01*
X132775196Y-115190773D01*
X132769235Y-115214572D01*
X132760970Y-115237671D01*
X132750480Y-115259850D01*
X132737868Y-115280893D01*
X132723253Y-115300599D01*
X132706777Y-115318777D01*
X132688599Y-115335253D01*
X132668893Y-115349868D01*
X132647850Y-115362480D01*
X132625671Y-115372970D01*
X132602572Y-115381235D01*
X132578773Y-115387196D01*
X132554505Y-115390796D01*
X132530001Y-115392000D01*
X131629999Y-115392000D01*
X131605495Y-115390796D01*
X131581227Y-115387196D01*
X131557428Y-115381235D01*
X131534329Y-115372970D01*
X131512150Y-115362480D01*
X131491107Y-115349868D01*
X131471401Y-115335253D01*
X131453223Y-115318777D01*
X131436747Y-115300599D01*
X131422132Y-115280893D01*
X131409520Y-115259850D01*
X131399030Y-115237671D01*
X131390765Y-115214572D01*
X131384804Y-115190773D01*
X131381204Y-115166505D01*
X131380000Y-115142001D01*
X131380000Y-114491999D01*
X131381204Y-114467495D01*
X131384804Y-114443227D01*
X131390765Y-114419428D01*
X131399030Y-114396329D01*
X131409520Y-114374150D01*
X131422132Y-114353107D01*
X131436747Y-114333401D01*
X131453223Y-114315223D01*
X131471401Y-114298747D01*
X131491107Y-114284132D01*
X131512150Y-114271520D01*
X131534329Y-114261030D01*
X131557428Y-114252765D01*
X131581227Y-114246804D01*
X131605495Y-114243204D01*
X131629999Y-114242000D01*
X132530001Y-114242000D01*
X132554505Y-114243204D01*
X132554505Y-114243204D01*
G37*
D17*
X132080000Y-114817000D03*
D11*
G36*
X132554505Y-112193204D02*
X132578773Y-112196804D01*
X132602572Y-112202765D01*
X132625671Y-112211030D01*
X132647850Y-112221520D01*
X132668893Y-112234132D01*
X132688599Y-112248747D01*
X132706777Y-112265223D01*
X132723253Y-112283401D01*
X132737868Y-112303107D01*
X132750480Y-112324150D01*
X132760970Y-112346329D01*
X132769235Y-112369428D01*
X132775196Y-112393227D01*
X132778796Y-112417495D01*
X132780000Y-112441999D01*
X132780000Y-113092001D01*
X132778796Y-113116505D01*
X132775196Y-113140773D01*
X132769235Y-113164572D01*
X132760970Y-113187671D01*
X132750480Y-113209850D01*
X132737868Y-113230893D01*
X132723253Y-113250599D01*
X132706777Y-113268777D01*
X132688599Y-113285253D01*
X132668893Y-113299868D01*
X132647850Y-113312480D01*
X132625671Y-113322970D01*
X132602572Y-113331235D01*
X132578773Y-113337196D01*
X132554505Y-113340796D01*
X132530001Y-113342000D01*
X131629999Y-113342000D01*
X131605495Y-113340796D01*
X131581227Y-113337196D01*
X131557428Y-113331235D01*
X131534329Y-113322970D01*
X131512150Y-113312480D01*
X131491107Y-113299868D01*
X131471401Y-113285253D01*
X131453223Y-113268777D01*
X131436747Y-113250599D01*
X131422132Y-113230893D01*
X131409520Y-113209850D01*
X131399030Y-113187671D01*
X131390765Y-113164572D01*
X131384804Y-113140773D01*
X131381204Y-113116505D01*
X131380000Y-113092001D01*
X131380000Y-112441999D01*
X131381204Y-112417495D01*
X131384804Y-112393227D01*
X131390765Y-112369428D01*
X131399030Y-112346329D01*
X131409520Y-112324150D01*
X131422132Y-112303107D01*
X131436747Y-112283401D01*
X131453223Y-112265223D01*
X131471401Y-112248747D01*
X131491107Y-112234132D01*
X131512150Y-112221520D01*
X131534329Y-112211030D01*
X131557428Y-112202765D01*
X131581227Y-112196804D01*
X131605495Y-112193204D01*
X131629999Y-112192000D01*
X132530001Y-112192000D01*
X132554505Y-112193204D01*
X132554505Y-112193204D01*
G37*
D17*
X132080000Y-112767000D03*
D11*
G36*
X129880505Y-87693204D02*
X129904773Y-87696804D01*
X129928572Y-87702765D01*
X129951671Y-87711030D01*
X129973850Y-87721520D01*
X129994893Y-87734132D01*
X130014599Y-87748747D01*
X130032777Y-87765223D01*
X130049253Y-87783401D01*
X130063868Y-87803107D01*
X130076480Y-87824150D01*
X130086970Y-87846329D01*
X130095235Y-87869428D01*
X130101196Y-87893227D01*
X130104796Y-87917495D01*
X130106000Y-87941999D01*
X130106000Y-88842001D01*
X130104796Y-88866505D01*
X130101196Y-88890773D01*
X130095235Y-88914572D01*
X130086970Y-88937671D01*
X130076480Y-88959850D01*
X130063868Y-88980893D01*
X130049253Y-89000599D01*
X130032777Y-89018777D01*
X130014599Y-89035253D01*
X129994893Y-89049868D01*
X129973850Y-89062480D01*
X129951671Y-89072970D01*
X129928572Y-89081235D01*
X129904773Y-89087196D01*
X129880505Y-89090796D01*
X129856001Y-89092000D01*
X129205999Y-89092000D01*
X129181495Y-89090796D01*
X129157227Y-89087196D01*
X129133428Y-89081235D01*
X129110329Y-89072970D01*
X129088150Y-89062480D01*
X129067107Y-89049868D01*
X129047401Y-89035253D01*
X129029223Y-89018777D01*
X129012747Y-89000599D01*
X128998132Y-88980893D01*
X128985520Y-88959850D01*
X128975030Y-88937671D01*
X128966765Y-88914572D01*
X128960804Y-88890773D01*
X128957204Y-88866505D01*
X128956000Y-88842001D01*
X128956000Y-87941999D01*
X128957204Y-87917495D01*
X128960804Y-87893227D01*
X128966765Y-87869428D01*
X128975030Y-87846329D01*
X128985520Y-87824150D01*
X128998132Y-87803107D01*
X129012747Y-87783401D01*
X129029223Y-87765223D01*
X129047401Y-87748747D01*
X129067107Y-87734132D01*
X129088150Y-87721520D01*
X129110329Y-87711030D01*
X129133428Y-87702765D01*
X129157227Y-87696804D01*
X129181495Y-87693204D01*
X129205999Y-87692000D01*
X129856001Y-87692000D01*
X129880505Y-87693204D01*
X129880505Y-87693204D01*
G37*
D17*
X129531000Y-88392000D03*
D11*
G36*
X131930505Y-87693204D02*
X131954773Y-87696804D01*
X131978572Y-87702765D01*
X132001671Y-87711030D01*
X132023850Y-87721520D01*
X132044893Y-87734132D01*
X132064599Y-87748747D01*
X132082777Y-87765223D01*
X132099253Y-87783401D01*
X132113868Y-87803107D01*
X132126480Y-87824150D01*
X132136970Y-87846329D01*
X132145235Y-87869428D01*
X132151196Y-87893227D01*
X132154796Y-87917495D01*
X132156000Y-87941999D01*
X132156000Y-88842001D01*
X132154796Y-88866505D01*
X132151196Y-88890773D01*
X132145235Y-88914572D01*
X132136970Y-88937671D01*
X132126480Y-88959850D01*
X132113868Y-88980893D01*
X132099253Y-89000599D01*
X132082777Y-89018777D01*
X132064599Y-89035253D01*
X132044893Y-89049868D01*
X132023850Y-89062480D01*
X132001671Y-89072970D01*
X131978572Y-89081235D01*
X131954773Y-89087196D01*
X131930505Y-89090796D01*
X131906001Y-89092000D01*
X131255999Y-89092000D01*
X131231495Y-89090796D01*
X131207227Y-89087196D01*
X131183428Y-89081235D01*
X131160329Y-89072970D01*
X131138150Y-89062480D01*
X131117107Y-89049868D01*
X131097401Y-89035253D01*
X131079223Y-89018777D01*
X131062747Y-89000599D01*
X131048132Y-88980893D01*
X131035520Y-88959850D01*
X131025030Y-88937671D01*
X131016765Y-88914572D01*
X131010804Y-88890773D01*
X131007204Y-88866505D01*
X131006000Y-88842001D01*
X131006000Y-87941999D01*
X131007204Y-87917495D01*
X131010804Y-87893227D01*
X131016765Y-87869428D01*
X131025030Y-87846329D01*
X131035520Y-87824150D01*
X131048132Y-87803107D01*
X131062747Y-87783401D01*
X131079223Y-87765223D01*
X131097401Y-87748747D01*
X131117107Y-87734132D01*
X131138150Y-87721520D01*
X131160329Y-87711030D01*
X131183428Y-87702765D01*
X131207227Y-87696804D01*
X131231495Y-87693204D01*
X131255999Y-87692000D01*
X131906001Y-87692000D01*
X131930505Y-87693204D01*
X131930505Y-87693204D01*
G37*
D17*
X131581000Y-88392000D03*
D11*
G36*
X128998505Y-93905204D02*
X129022773Y-93908804D01*
X129046572Y-93914765D01*
X129069671Y-93923030D01*
X129091850Y-93933520D01*
X129112893Y-93946132D01*
X129132599Y-93960747D01*
X129150777Y-93977223D01*
X129167253Y-93995401D01*
X129181868Y-94015107D01*
X129194480Y-94036150D01*
X129204970Y-94058329D01*
X129213235Y-94081428D01*
X129219196Y-94105227D01*
X129222796Y-94129495D01*
X129224000Y-94153999D01*
X129224000Y-94804001D01*
X129222796Y-94828505D01*
X129219196Y-94852773D01*
X129213235Y-94876572D01*
X129204970Y-94899671D01*
X129194480Y-94921850D01*
X129181868Y-94942893D01*
X129167253Y-94962599D01*
X129150777Y-94980777D01*
X129132599Y-94997253D01*
X129112893Y-95011868D01*
X129091850Y-95024480D01*
X129069671Y-95034970D01*
X129046572Y-95043235D01*
X129022773Y-95049196D01*
X128998505Y-95052796D01*
X128974001Y-95054000D01*
X128073999Y-95054000D01*
X128049495Y-95052796D01*
X128025227Y-95049196D01*
X128001428Y-95043235D01*
X127978329Y-95034970D01*
X127956150Y-95024480D01*
X127935107Y-95011868D01*
X127915401Y-94997253D01*
X127897223Y-94980777D01*
X127880747Y-94962599D01*
X127866132Y-94942893D01*
X127853520Y-94921850D01*
X127843030Y-94899671D01*
X127834765Y-94876572D01*
X127828804Y-94852773D01*
X127825204Y-94828505D01*
X127824000Y-94804001D01*
X127824000Y-94153999D01*
X127825204Y-94129495D01*
X127828804Y-94105227D01*
X127834765Y-94081428D01*
X127843030Y-94058329D01*
X127853520Y-94036150D01*
X127866132Y-94015107D01*
X127880747Y-93995401D01*
X127897223Y-93977223D01*
X127915401Y-93960747D01*
X127935107Y-93946132D01*
X127956150Y-93933520D01*
X127978329Y-93923030D01*
X128001428Y-93914765D01*
X128025227Y-93908804D01*
X128049495Y-93905204D01*
X128073999Y-93904000D01*
X128974001Y-93904000D01*
X128998505Y-93905204D01*
X128998505Y-93905204D01*
G37*
D17*
X128524000Y-94479000D03*
D11*
G36*
X128998505Y-95955204D02*
X129022773Y-95958804D01*
X129046572Y-95964765D01*
X129069671Y-95973030D01*
X129091850Y-95983520D01*
X129112893Y-95996132D01*
X129132599Y-96010747D01*
X129150777Y-96027223D01*
X129167253Y-96045401D01*
X129181868Y-96065107D01*
X129194480Y-96086150D01*
X129204970Y-96108329D01*
X129213235Y-96131428D01*
X129219196Y-96155227D01*
X129222796Y-96179495D01*
X129224000Y-96203999D01*
X129224000Y-96854001D01*
X129222796Y-96878505D01*
X129219196Y-96902773D01*
X129213235Y-96926572D01*
X129204970Y-96949671D01*
X129194480Y-96971850D01*
X129181868Y-96992893D01*
X129167253Y-97012599D01*
X129150777Y-97030777D01*
X129132599Y-97047253D01*
X129112893Y-97061868D01*
X129091850Y-97074480D01*
X129069671Y-97084970D01*
X129046572Y-97093235D01*
X129022773Y-97099196D01*
X128998505Y-97102796D01*
X128974001Y-97104000D01*
X128073999Y-97104000D01*
X128049495Y-97102796D01*
X128025227Y-97099196D01*
X128001428Y-97093235D01*
X127978329Y-97084970D01*
X127956150Y-97074480D01*
X127935107Y-97061868D01*
X127915401Y-97047253D01*
X127897223Y-97030777D01*
X127880747Y-97012599D01*
X127866132Y-96992893D01*
X127853520Y-96971850D01*
X127843030Y-96949671D01*
X127834765Y-96926572D01*
X127828804Y-96902773D01*
X127825204Y-96878505D01*
X127824000Y-96854001D01*
X127824000Y-96203999D01*
X127825204Y-96179495D01*
X127828804Y-96155227D01*
X127834765Y-96131428D01*
X127843030Y-96108329D01*
X127853520Y-96086150D01*
X127866132Y-96065107D01*
X127880747Y-96045401D01*
X127897223Y-96027223D01*
X127915401Y-96010747D01*
X127935107Y-95996132D01*
X127956150Y-95983520D01*
X127978329Y-95973030D01*
X128001428Y-95964765D01*
X128025227Y-95958804D01*
X128049495Y-95955204D01*
X128073999Y-95954000D01*
X128974001Y-95954000D01*
X128998505Y-95955204D01*
X128998505Y-95955204D01*
G37*
D17*
X128524000Y-96529000D03*
D11*
G36*
X135740505Y-101409204D02*
X135764773Y-101412804D01*
X135788572Y-101418765D01*
X135811671Y-101427030D01*
X135833850Y-101437520D01*
X135854893Y-101450132D01*
X135874599Y-101464747D01*
X135892777Y-101481223D01*
X135909253Y-101499401D01*
X135923868Y-101519107D01*
X135936480Y-101540150D01*
X135946970Y-101562329D01*
X135955235Y-101585428D01*
X135961196Y-101609227D01*
X135964796Y-101633495D01*
X135966000Y-101657999D01*
X135966000Y-102558001D01*
X135964796Y-102582505D01*
X135961196Y-102606773D01*
X135955235Y-102630572D01*
X135946970Y-102653671D01*
X135936480Y-102675850D01*
X135923868Y-102696893D01*
X135909253Y-102716599D01*
X135892777Y-102734777D01*
X135874599Y-102751253D01*
X135854893Y-102765868D01*
X135833850Y-102778480D01*
X135811671Y-102788970D01*
X135788572Y-102797235D01*
X135764773Y-102803196D01*
X135740505Y-102806796D01*
X135716001Y-102808000D01*
X135065999Y-102808000D01*
X135041495Y-102806796D01*
X135017227Y-102803196D01*
X134993428Y-102797235D01*
X134970329Y-102788970D01*
X134948150Y-102778480D01*
X134927107Y-102765868D01*
X134907401Y-102751253D01*
X134889223Y-102734777D01*
X134872747Y-102716599D01*
X134858132Y-102696893D01*
X134845520Y-102675850D01*
X134835030Y-102653671D01*
X134826765Y-102630572D01*
X134820804Y-102606773D01*
X134817204Y-102582505D01*
X134816000Y-102558001D01*
X134816000Y-101657999D01*
X134817204Y-101633495D01*
X134820804Y-101609227D01*
X134826765Y-101585428D01*
X134835030Y-101562329D01*
X134845520Y-101540150D01*
X134858132Y-101519107D01*
X134872747Y-101499401D01*
X134889223Y-101481223D01*
X134907401Y-101464747D01*
X134927107Y-101450132D01*
X134948150Y-101437520D01*
X134970329Y-101427030D01*
X134993428Y-101418765D01*
X135017227Y-101412804D01*
X135041495Y-101409204D01*
X135065999Y-101408000D01*
X135716001Y-101408000D01*
X135740505Y-101409204D01*
X135740505Y-101409204D01*
G37*
D17*
X135391000Y-102108000D03*
D11*
G36*
X133690505Y-101409204D02*
X133714773Y-101412804D01*
X133738572Y-101418765D01*
X133761671Y-101427030D01*
X133783850Y-101437520D01*
X133804893Y-101450132D01*
X133824599Y-101464747D01*
X133842777Y-101481223D01*
X133859253Y-101499401D01*
X133873868Y-101519107D01*
X133886480Y-101540150D01*
X133896970Y-101562329D01*
X133905235Y-101585428D01*
X133911196Y-101609227D01*
X133914796Y-101633495D01*
X133916000Y-101657999D01*
X133916000Y-102558001D01*
X133914796Y-102582505D01*
X133911196Y-102606773D01*
X133905235Y-102630572D01*
X133896970Y-102653671D01*
X133886480Y-102675850D01*
X133873868Y-102696893D01*
X133859253Y-102716599D01*
X133842777Y-102734777D01*
X133824599Y-102751253D01*
X133804893Y-102765868D01*
X133783850Y-102778480D01*
X133761671Y-102788970D01*
X133738572Y-102797235D01*
X133714773Y-102803196D01*
X133690505Y-102806796D01*
X133666001Y-102808000D01*
X133015999Y-102808000D01*
X132991495Y-102806796D01*
X132967227Y-102803196D01*
X132943428Y-102797235D01*
X132920329Y-102788970D01*
X132898150Y-102778480D01*
X132877107Y-102765868D01*
X132857401Y-102751253D01*
X132839223Y-102734777D01*
X132822747Y-102716599D01*
X132808132Y-102696893D01*
X132795520Y-102675850D01*
X132785030Y-102653671D01*
X132776765Y-102630572D01*
X132770804Y-102606773D01*
X132767204Y-102582505D01*
X132766000Y-102558001D01*
X132766000Y-101657999D01*
X132767204Y-101633495D01*
X132770804Y-101609227D01*
X132776765Y-101585428D01*
X132785030Y-101562329D01*
X132795520Y-101540150D01*
X132808132Y-101519107D01*
X132822747Y-101499401D01*
X132839223Y-101481223D01*
X132857401Y-101464747D01*
X132877107Y-101450132D01*
X132898150Y-101437520D01*
X132920329Y-101427030D01*
X132943428Y-101418765D01*
X132967227Y-101412804D01*
X132991495Y-101409204D01*
X133015999Y-101408000D01*
X133666001Y-101408000D01*
X133690505Y-101409204D01*
X133690505Y-101409204D01*
G37*
D17*
X133341000Y-102108000D03*
D20*
X139248000Y-27432000D03*
D21*
X142748000Y-27432000D03*
X153416000Y-27432000D03*
D20*
X149916000Y-27432000D03*
X152852000Y-118364000D03*
D21*
X149352000Y-118364000D03*
D22*
X157758000Y-90424000D03*
X160758000Y-89474000D03*
X160758000Y-91374000D03*
D23*
X155702000Y-56618000D03*
X154752000Y-53618000D03*
X156652000Y-53618000D03*
X132014000Y-41172000D03*
X130114000Y-41172000D03*
X131064000Y-44172000D03*
X131760000Y-80796000D03*
X129860000Y-80796000D03*
X130810000Y-83796000D03*
D11*
G36*
X161140505Y-97091204D02*
X161164773Y-97094804D01*
X161188572Y-97100765D01*
X161211671Y-97109030D01*
X161233850Y-97119520D01*
X161254893Y-97132132D01*
X161274599Y-97146747D01*
X161292777Y-97163223D01*
X161309253Y-97181401D01*
X161323868Y-97201107D01*
X161336480Y-97222150D01*
X161346970Y-97244329D01*
X161355235Y-97267428D01*
X161361196Y-97291227D01*
X161364796Y-97315495D01*
X161366000Y-97339999D01*
X161366000Y-98240001D01*
X161364796Y-98264505D01*
X161361196Y-98288773D01*
X161355235Y-98312572D01*
X161346970Y-98335671D01*
X161336480Y-98357850D01*
X161323868Y-98378893D01*
X161309253Y-98398599D01*
X161292777Y-98416777D01*
X161274599Y-98433253D01*
X161254893Y-98447868D01*
X161233850Y-98460480D01*
X161211671Y-98470970D01*
X161188572Y-98479235D01*
X161164773Y-98485196D01*
X161140505Y-98488796D01*
X161116001Y-98490000D01*
X160465999Y-98490000D01*
X160441495Y-98488796D01*
X160417227Y-98485196D01*
X160393428Y-98479235D01*
X160370329Y-98470970D01*
X160348150Y-98460480D01*
X160327107Y-98447868D01*
X160307401Y-98433253D01*
X160289223Y-98416777D01*
X160272747Y-98398599D01*
X160258132Y-98378893D01*
X160245520Y-98357850D01*
X160235030Y-98335671D01*
X160226765Y-98312572D01*
X160220804Y-98288773D01*
X160217204Y-98264505D01*
X160216000Y-98240001D01*
X160216000Y-97339999D01*
X160217204Y-97315495D01*
X160220804Y-97291227D01*
X160226765Y-97267428D01*
X160235030Y-97244329D01*
X160245520Y-97222150D01*
X160258132Y-97201107D01*
X160272747Y-97181401D01*
X160289223Y-97163223D01*
X160307401Y-97146747D01*
X160327107Y-97132132D01*
X160348150Y-97119520D01*
X160370329Y-97109030D01*
X160393428Y-97100765D01*
X160417227Y-97094804D01*
X160441495Y-97091204D01*
X160465999Y-97090000D01*
X161116001Y-97090000D01*
X161140505Y-97091204D01*
X161140505Y-97091204D01*
G37*
D17*
X160791000Y-97790000D03*
D11*
G36*
X159090505Y-97091204D02*
X159114773Y-97094804D01*
X159138572Y-97100765D01*
X159161671Y-97109030D01*
X159183850Y-97119520D01*
X159204893Y-97132132D01*
X159224599Y-97146747D01*
X159242777Y-97163223D01*
X159259253Y-97181401D01*
X159273868Y-97201107D01*
X159286480Y-97222150D01*
X159296970Y-97244329D01*
X159305235Y-97267428D01*
X159311196Y-97291227D01*
X159314796Y-97315495D01*
X159316000Y-97339999D01*
X159316000Y-98240001D01*
X159314796Y-98264505D01*
X159311196Y-98288773D01*
X159305235Y-98312572D01*
X159296970Y-98335671D01*
X159286480Y-98357850D01*
X159273868Y-98378893D01*
X159259253Y-98398599D01*
X159242777Y-98416777D01*
X159224599Y-98433253D01*
X159204893Y-98447868D01*
X159183850Y-98460480D01*
X159161671Y-98470970D01*
X159138572Y-98479235D01*
X159114773Y-98485196D01*
X159090505Y-98488796D01*
X159066001Y-98490000D01*
X158415999Y-98490000D01*
X158391495Y-98488796D01*
X158367227Y-98485196D01*
X158343428Y-98479235D01*
X158320329Y-98470970D01*
X158298150Y-98460480D01*
X158277107Y-98447868D01*
X158257401Y-98433253D01*
X158239223Y-98416777D01*
X158222747Y-98398599D01*
X158208132Y-98378893D01*
X158195520Y-98357850D01*
X158185030Y-98335671D01*
X158176765Y-98312572D01*
X158170804Y-98288773D01*
X158167204Y-98264505D01*
X158166000Y-98240001D01*
X158166000Y-97339999D01*
X158167204Y-97315495D01*
X158170804Y-97291227D01*
X158176765Y-97267428D01*
X158185030Y-97244329D01*
X158195520Y-97222150D01*
X158208132Y-97201107D01*
X158222747Y-97181401D01*
X158239223Y-97163223D01*
X158257401Y-97146747D01*
X158277107Y-97132132D01*
X158298150Y-97119520D01*
X158320329Y-97109030D01*
X158343428Y-97100765D01*
X158367227Y-97094804D01*
X158391495Y-97091204D01*
X158415999Y-97090000D01*
X159066001Y-97090000D01*
X159090505Y-97091204D01*
X159090505Y-97091204D01*
G37*
D17*
X158741000Y-97790000D03*
D11*
G36*
X161002505Y-53283204D02*
X161026773Y-53286804D01*
X161050572Y-53292765D01*
X161073671Y-53301030D01*
X161095850Y-53311520D01*
X161116893Y-53324132D01*
X161136599Y-53338747D01*
X161154777Y-53355223D01*
X161171253Y-53373401D01*
X161185868Y-53393107D01*
X161198480Y-53414150D01*
X161208970Y-53436329D01*
X161217235Y-53459428D01*
X161223196Y-53483227D01*
X161226796Y-53507495D01*
X161228000Y-53531999D01*
X161228000Y-54182001D01*
X161226796Y-54206505D01*
X161223196Y-54230773D01*
X161217235Y-54254572D01*
X161208970Y-54277671D01*
X161198480Y-54299850D01*
X161185868Y-54320893D01*
X161171253Y-54340599D01*
X161154777Y-54358777D01*
X161136599Y-54375253D01*
X161116893Y-54389868D01*
X161095850Y-54402480D01*
X161073671Y-54412970D01*
X161050572Y-54421235D01*
X161026773Y-54427196D01*
X161002505Y-54430796D01*
X160978001Y-54432000D01*
X160077999Y-54432000D01*
X160053495Y-54430796D01*
X160029227Y-54427196D01*
X160005428Y-54421235D01*
X159982329Y-54412970D01*
X159960150Y-54402480D01*
X159939107Y-54389868D01*
X159919401Y-54375253D01*
X159901223Y-54358777D01*
X159884747Y-54340599D01*
X159870132Y-54320893D01*
X159857520Y-54299850D01*
X159847030Y-54277671D01*
X159838765Y-54254572D01*
X159832804Y-54230773D01*
X159829204Y-54206505D01*
X159828000Y-54182001D01*
X159828000Y-53531999D01*
X159829204Y-53507495D01*
X159832804Y-53483227D01*
X159838765Y-53459428D01*
X159847030Y-53436329D01*
X159857520Y-53414150D01*
X159870132Y-53393107D01*
X159884747Y-53373401D01*
X159901223Y-53355223D01*
X159919401Y-53338747D01*
X159939107Y-53324132D01*
X159960150Y-53311520D01*
X159982329Y-53301030D01*
X160005428Y-53292765D01*
X160029227Y-53286804D01*
X160053495Y-53283204D01*
X160077999Y-53282000D01*
X160978001Y-53282000D01*
X161002505Y-53283204D01*
X161002505Y-53283204D01*
G37*
D17*
X160528000Y-53857000D03*
D11*
G36*
X161002505Y-51233204D02*
X161026773Y-51236804D01*
X161050572Y-51242765D01*
X161073671Y-51251030D01*
X161095850Y-51261520D01*
X161116893Y-51274132D01*
X161136599Y-51288747D01*
X161154777Y-51305223D01*
X161171253Y-51323401D01*
X161185868Y-51343107D01*
X161198480Y-51364150D01*
X161208970Y-51386329D01*
X161217235Y-51409428D01*
X161223196Y-51433227D01*
X161226796Y-51457495D01*
X161228000Y-51481999D01*
X161228000Y-52132001D01*
X161226796Y-52156505D01*
X161223196Y-52180773D01*
X161217235Y-52204572D01*
X161208970Y-52227671D01*
X161198480Y-52249850D01*
X161185868Y-52270893D01*
X161171253Y-52290599D01*
X161154777Y-52308777D01*
X161136599Y-52325253D01*
X161116893Y-52339868D01*
X161095850Y-52352480D01*
X161073671Y-52362970D01*
X161050572Y-52371235D01*
X161026773Y-52377196D01*
X161002505Y-52380796D01*
X160978001Y-52382000D01*
X160077999Y-52382000D01*
X160053495Y-52380796D01*
X160029227Y-52377196D01*
X160005428Y-52371235D01*
X159982329Y-52362970D01*
X159960150Y-52352480D01*
X159939107Y-52339868D01*
X159919401Y-52325253D01*
X159901223Y-52308777D01*
X159884747Y-52290599D01*
X159870132Y-52270893D01*
X159857520Y-52249850D01*
X159847030Y-52227671D01*
X159838765Y-52204572D01*
X159832804Y-52180773D01*
X159829204Y-52156505D01*
X159828000Y-52132001D01*
X159828000Y-51481999D01*
X159829204Y-51457495D01*
X159832804Y-51433227D01*
X159838765Y-51409428D01*
X159847030Y-51386329D01*
X159857520Y-51364150D01*
X159870132Y-51343107D01*
X159884747Y-51323401D01*
X159901223Y-51305223D01*
X159919401Y-51288747D01*
X159939107Y-51274132D01*
X159960150Y-51261520D01*
X159982329Y-51251030D01*
X160005428Y-51242765D01*
X160029227Y-51236804D01*
X160053495Y-51233204D01*
X160077999Y-51232000D01*
X160978001Y-51232000D01*
X161002505Y-51233204D01*
X161002505Y-51233204D01*
G37*
D17*
X160528000Y-51807000D03*
D11*
G36*
X143614505Y-101409204D02*
X143638773Y-101412804D01*
X143662572Y-101418765D01*
X143685671Y-101427030D01*
X143707850Y-101437520D01*
X143728893Y-101450132D01*
X143748599Y-101464747D01*
X143766777Y-101481223D01*
X143783253Y-101499401D01*
X143797868Y-101519107D01*
X143810480Y-101540150D01*
X143820970Y-101562329D01*
X143829235Y-101585428D01*
X143835196Y-101609227D01*
X143838796Y-101633495D01*
X143840000Y-101657999D01*
X143840000Y-102558001D01*
X143838796Y-102582505D01*
X143835196Y-102606773D01*
X143829235Y-102630572D01*
X143820970Y-102653671D01*
X143810480Y-102675850D01*
X143797868Y-102696893D01*
X143783253Y-102716599D01*
X143766777Y-102734777D01*
X143748599Y-102751253D01*
X143728893Y-102765868D01*
X143707850Y-102778480D01*
X143685671Y-102788970D01*
X143662572Y-102797235D01*
X143638773Y-102803196D01*
X143614505Y-102806796D01*
X143590001Y-102808000D01*
X142939999Y-102808000D01*
X142915495Y-102806796D01*
X142891227Y-102803196D01*
X142867428Y-102797235D01*
X142844329Y-102788970D01*
X142822150Y-102778480D01*
X142801107Y-102765868D01*
X142781401Y-102751253D01*
X142763223Y-102734777D01*
X142746747Y-102716599D01*
X142732132Y-102696893D01*
X142719520Y-102675850D01*
X142709030Y-102653671D01*
X142700765Y-102630572D01*
X142694804Y-102606773D01*
X142691204Y-102582505D01*
X142690000Y-102558001D01*
X142690000Y-101657999D01*
X142691204Y-101633495D01*
X142694804Y-101609227D01*
X142700765Y-101585428D01*
X142709030Y-101562329D01*
X142719520Y-101540150D01*
X142732132Y-101519107D01*
X142746747Y-101499401D01*
X142763223Y-101481223D01*
X142781401Y-101464747D01*
X142801107Y-101450132D01*
X142822150Y-101437520D01*
X142844329Y-101427030D01*
X142867428Y-101418765D01*
X142891227Y-101412804D01*
X142915495Y-101409204D01*
X142939999Y-101408000D01*
X143590001Y-101408000D01*
X143614505Y-101409204D01*
X143614505Y-101409204D01*
G37*
D17*
X143265000Y-102108000D03*
D11*
G36*
X141564505Y-101409204D02*
X141588773Y-101412804D01*
X141612572Y-101418765D01*
X141635671Y-101427030D01*
X141657850Y-101437520D01*
X141678893Y-101450132D01*
X141698599Y-101464747D01*
X141716777Y-101481223D01*
X141733253Y-101499401D01*
X141747868Y-101519107D01*
X141760480Y-101540150D01*
X141770970Y-101562329D01*
X141779235Y-101585428D01*
X141785196Y-101609227D01*
X141788796Y-101633495D01*
X141790000Y-101657999D01*
X141790000Y-102558001D01*
X141788796Y-102582505D01*
X141785196Y-102606773D01*
X141779235Y-102630572D01*
X141770970Y-102653671D01*
X141760480Y-102675850D01*
X141747868Y-102696893D01*
X141733253Y-102716599D01*
X141716777Y-102734777D01*
X141698599Y-102751253D01*
X141678893Y-102765868D01*
X141657850Y-102778480D01*
X141635671Y-102788970D01*
X141612572Y-102797235D01*
X141588773Y-102803196D01*
X141564505Y-102806796D01*
X141540001Y-102808000D01*
X140889999Y-102808000D01*
X140865495Y-102806796D01*
X140841227Y-102803196D01*
X140817428Y-102797235D01*
X140794329Y-102788970D01*
X140772150Y-102778480D01*
X140751107Y-102765868D01*
X140731401Y-102751253D01*
X140713223Y-102734777D01*
X140696747Y-102716599D01*
X140682132Y-102696893D01*
X140669520Y-102675850D01*
X140659030Y-102653671D01*
X140650765Y-102630572D01*
X140644804Y-102606773D01*
X140641204Y-102582505D01*
X140640000Y-102558001D01*
X140640000Y-101657999D01*
X140641204Y-101633495D01*
X140644804Y-101609227D01*
X140650765Y-101585428D01*
X140659030Y-101562329D01*
X140669520Y-101540150D01*
X140682132Y-101519107D01*
X140696747Y-101499401D01*
X140713223Y-101481223D01*
X140731401Y-101464747D01*
X140751107Y-101450132D01*
X140772150Y-101437520D01*
X140794329Y-101427030D01*
X140817428Y-101418765D01*
X140841227Y-101412804D01*
X140865495Y-101409204D01*
X140889999Y-101408000D01*
X141540001Y-101408000D01*
X141564505Y-101409204D01*
X141564505Y-101409204D01*
G37*
D17*
X141215000Y-102108000D03*
D11*
G36*
X159090505Y-93789204D02*
X159114773Y-93792804D01*
X159138572Y-93798765D01*
X159161671Y-93807030D01*
X159183850Y-93817520D01*
X159204893Y-93830132D01*
X159224599Y-93844747D01*
X159242777Y-93861223D01*
X159259253Y-93879401D01*
X159273868Y-93899107D01*
X159286480Y-93920150D01*
X159296970Y-93942329D01*
X159305235Y-93965428D01*
X159311196Y-93989227D01*
X159314796Y-94013495D01*
X159316000Y-94037999D01*
X159316000Y-94938001D01*
X159314796Y-94962505D01*
X159311196Y-94986773D01*
X159305235Y-95010572D01*
X159296970Y-95033671D01*
X159286480Y-95055850D01*
X159273868Y-95076893D01*
X159259253Y-95096599D01*
X159242777Y-95114777D01*
X159224599Y-95131253D01*
X159204893Y-95145868D01*
X159183850Y-95158480D01*
X159161671Y-95168970D01*
X159138572Y-95177235D01*
X159114773Y-95183196D01*
X159090505Y-95186796D01*
X159066001Y-95188000D01*
X158415999Y-95188000D01*
X158391495Y-95186796D01*
X158367227Y-95183196D01*
X158343428Y-95177235D01*
X158320329Y-95168970D01*
X158298150Y-95158480D01*
X158277107Y-95145868D01*
X158257401Y-95131253D01*
X158239223Y-95114777D01*
X158222747Y-95096599D01*
X158208132Y-95076893D01*
X158195520Y-95055850D01*
X158185030Y-95033671D01*
X158176765Y-95010572D01*
X158170804Y-94986773D01*
X158167204Y-94962505D01*
X158166000Y-94938001D01*
X158166000Y-94037999D01*
X158167204Y-94013495D01*
X158170804Y-93989227D01*
X158176765Y-93965428D01*
X158185030Y-93942329D01*
X158195520Y-93920150D01*
X158208132Y-93899107D01*
X158222747Y-93879401D01*
X158239223Y-93861223D01*
X158257401Y-93844747D01*
X158277107Y-93830132D01*
X158298150Y-93817520D01*
X158320329Y-93807030D01*
X158343428Y-93798765D01*
X158367227Y-93792804D01*
X158391495Y-93789204D01*
X158415999Y-93788000D01*
X159066001Y-93788000D01*
X159090505Y-93789204D01*
X159090505Y-93789204D01*
G37*
D17*
X158741000Y-94488000D03*
D11*
G36*
X161140505Y-93789204D02*
X161164773Y-93792804D01*
X161188572Y-93798765D01*
X161211671Y-93807030D01*
X161233850Y-93817520D01*
X161254893Y-93830132D01*
X161274599Y-93844747D01*
X161292777Y-93861223D01*
X161309253Y-93879401D01*
X161323868Y-93899107D01*
X161336480Y-93920150D01*
X161346970Y-93942329D01*
X161355235Y-93965428D01*
X161361196Y-93989227D01*
X161364796Y-94013495D01*
X161366000Y-94037999D01*
X161366000Y-94938001D01*
X161364796Y-94962505D01*
X161361196Y-94986773D01*
X161355235Y-95010572D01*
X161346970Y-95033671D01*
X161336480Y-95055850D01*
X161323868Y-95076893D01*
X161309253Y-95096599D01*
X161292777Y-95114777D01*
X161274599Y-95131253D01*
X161254893Y-95145868D01*
X161233850Y-95158480D01*
X161211671Y-95168970D01*
X161188572Y-95177235D01*
X161164773Y-95183196D01*
X161140505Y-95186796D01*
X161116001Y-95188000D01*
X160465999Y-95188000D01*
X160441495Y-95186796D01*
X160417227Y-95183196D01*
X160393428Y-95177235D01*
X160370329Y-95168970D01*
X160348150Y-95158480D01*
X160327107Y-95145868D01*
X160307401Y-95131253D01*
X160289223Y-95114777D01*
X160272747Y-95096599D01*
X160258132Y-95076893D01*
X160245520Y-95055850D01*
X160235030Y-95033671D01*
X160226765Y-95010572D01*
X160220804Y-94986773D01*
X160217204Y-94962505D01*
X160216000Y-94938001D01*
X160216000Y-94037999D01*
X160217204Y-94013495D01*
X160220804Y-93989227D01*
X160226765Y-93965428D01*
X160235030Y-93942329D01*
X160245520Y-93920150D01*
X160258132Y-93899107D01*
X160272747Y-93879401D01*
X160289223Y-93861223D01*
X160307401Y-93844747D01*
X160327107Y-93830132D01*
X160348150Y-93817520D01*
X160370329Y-93807030D01*
X160393428Y-93798765D01*
X160417227Y-93792804D01*
X160441495Y-93789204D01*
X160465999Y-93788000D01*
X161116001Y-93788000D01*
X161140505Y-93789204D01*
X161140505Y-93789204D01*
G37*
D17*
X160791000Y-94488000D03*
D11*
G36*
X151234505Y-32829204D02*
X151258773Y-32832804D01*
X151282572Y-32838765D01*
X151305671Y-32847030D01*
X151327850Y-32857520D01*
X151348893Y-32870132D01*
X151368599Y-32884747D01*
X151386777Y-32901223D01*
X151403253Y-32919401D01*
X151417868Y-32939107D01*
X151430480Y-32960150D01*
X151440970Y-32982329D01*
X151449235Y-33005428D01*
X151455196Y-33029227D01*
X151458796Y-33053495D01*
X151460000Y-33077999D01*
X151460000Y-33978001D01*
X151458796Y-34002505D01*
X151455196Y-34026773D01*
X151449235Y-34050572D01*
X151440970Y-34073671D01*
X151430480Y-34095850D01*
X151417868Y-34116893D01*
X151403253Y-34136599D01*
X151386777Y-34154777D01*
X151368599Y-34171253D01*
X151348893Y-34185868D01*
X151327850Y-34198480D01*
X151305671Y-34208970D01*
X151282572Y-34217235D01*
X151258773Y-34223196D01*
X151234505Y-34226796D01*
X151210001Y-34228000D01*
X150559999Y-34228000D01*
X150535495Y-34226796D01*
X150511227Y-34223196D01*
X150487428Y-34217235D01*
X150464329Y-34208970D01*
X150442150Y-34198480D01*
X150421107Y-34185868D01*
X150401401Y-34171253D01*
X150383223Y-34154777D01*
X150366747Y-34136599D01*
X150352132Y-34116893D01*
X150339520Y-34095850D01*
X150329030Y-34073671D01*
X150320765Y-34050572D01*
X150314804Y-34026773D01*
X150311204Y-34002505D01*
X150310000Y-33978001D01*
X150310000Y-33077999D01*
X150311204Y-33053495D01*
X150314804Y-33029227D01*
X150320765Y-33005428D01*
X150329030Y-32982329D01*
X150339520Y-32960150D01*
X150352132Y-32939107D01*
X150366747Y-32919401D01*
X150383223Y-32901223D01*
X150401401Y-32884747D01*
X150421107Y-32870132D01*
X150442150Y-32857520D01*
X150464329Y-32847030D01*
X150487428Y-32838765D01*
X150511227Y-32832804D01*
X150535495Y-32829204D01*
X150559999Y-32828000D01*
X151210001Y-32828000D01*
X151234505Y-32829204D01*
X151234505Y-32829204D01*
G37*
D17*
X150885000Y-33528000D03*
D11*
G36*
X149184505Y-32829204D02*
X149208773Y-32832804D01*
X149232572Y-32838765D01*
X149255671Y-32847030D01*
X149277850Y-32857520D01*
X149298893Y-32870132D01*
X149318599Y-32884747D01*
X149336777Y-32901223D01*
X149353253Y-32919401D01*
X149367868Y-32939107D01*
X149380480Y-32960150D01*
X149390970Y-32982329D01*
X149399235Y-33005428D01*
X149405196Y-33029227D01*
X149408796Y-33053495D01*
X149410000Y-33077999D01*
X149410000Y-33978001D01*
X149408796Y-34002505D01*
X149405196Y-34026773D01*
X149399235Y-34050572D01*
X149390970Y-34073671D01*
X149380480Y-34095850D01*
X149367868Y-34116893D01*
X149353253Y-34136599D01*
X149336777Y-34154777D01*
X149318599Y-34171253D01*
X149298893Y-34185868D01*
X149277850Y-34198480D01*
X149255671Y-34208970D01*
X149232572Y-34217235D01*
X149208773Y-34223196D01*
X149184505Y-34226796D01*
X149160001Y-34228000D01*
X148509999Y-34228000D01*
X148485495Y-34226796D01*
X148461227Y-34223196D01*
X148437428Y-34217235D01*
X148414329Y-34208970D01*
X148392150Y-34198480D01*
X148371107Y-34185868D01*
X148351401Y-34171253D01*
X148333223Y-34154777D01*
X148316747Y-34136599D01*
X148302132Y-34116893D01*
X148289520Y-34095850D01*
X148279030Y-34073671D01*
X148270765Y-34050572D01*
X148264804Y-34026773D01*
X148261204Y-34002505D01*
X148260000Y-33978001D01*
X148260000Y-33077999D01*
X148261204Y-33053495D01*
X148264804Y-33029227D01*
X148270765Y-33005428D01*
X148279030Y-32982329D01*
X148289520Y-32960150D01*
X148302132Y-32939107D01*
X148316747Y-32919401D01*
X148333223Y-32901223D01*
X148351401Y-32884747D01*
X148371107Y-32870132D01*
X148392150Y-32857520D01*
X148414329Y-32847030D01*
X148437428Y-32838765D01*
X148461227Y-32832804D01*
X148485495Y-32829204D01*
X148509999Y-32828000D01*
X149160001Y-32828000D01*
X149184505Y-32829204D01*
X149184505Y-32829204D01*
G37*
D17*
X148835000Y-33528000D03*
D11*
G36*
X133436505Y-49593204D02*
X133460773Y-49596804D01*
X133484572Y-49602765D01*
X133507671Y-49611030D01*
X133529850Y-49621520D01*
X133550893Y-49634132D01*
X133570599Y-49648747D01*
X133588777Y-49665223D01*
X133605253Y-49683401D01*
X133619868Y-49703107D01*
X133632480Y-49724150D01*
X133642970Y-49746329D01*
X133651235Y-49769428D01*
X133657196Y-49793227D01*
X133660796Y-49817495D01*
X133662000Y-49841999D01*
X133662000Y-50742001D01*
X133660796Y-50766505D01*
X133657196Y-50790773D01*
X133651235Y-50814572D01*
X133642970Y-50837671D01*
X133632480Y-50859850D01*
X133619868Y-50880893D01*
X133605253Y-50900599D01*
X133588777Y-50918777D01*
X133570599Y-50935253D01*
X133550893Y-50949868D01*
X133529850Y-50962480D01*
X133507671Y-50972970D01*
X133484572Y-50981235D01*
X133460773Y-50987196D01*
X133436505Y-50990796D01*
X133412001Y-50992000D01*
X132761999Y-50992000D01*
X132737495Y-50990796D01*
X132713227Y-50987196D01*
X132689428Y-50981235D01*
X132666329Y-50972970D01*
X132644150Y-50962480D01*
X132623107Y-50949868D01*
X132603401Y-50935253D01*
X132585223Y-50918777D01*
X132568747Y-50900599D01*
X132554132Y-50880893D01*
X132541520Y-50859850D01*
X132531030Y-50837671D01*
X132522765Y-50814572D01*
X132516804Y-50790773D01*
X132513204Y-50766505D01*
X132512000Y-50742001D01*
X132512000Y-49841999D01*
X132513204Y-49817495D01*
X132516804Y-49793227D01*
X132522765Y-49769428D01*
X132531030Y-49746329D01*
X132541520Y-49724150D01*
X132554132Y-49703107D01*
X132568747Y-49683401D01*
X132585223Y-49665223D01*
X132603401Y-49648747D01*
X132623107Y-49634132D01*
X132644150Y-49621520D01*
X132666329Y-49611030D01*
X132689428Y-49602765D01*
X132713227Y-49596804D01*
X132737495Y-49593204D01*
X132761999Y-49592000D01*
X133412001Y-49592000D01*
X133436505Y-49593204D01*
X133436505Y-49593204D01*
G37*
D17*
X133087000Y-50292000D03*
D11*
G36*
X135486505Y-49593204D02*
X135510773Y-49596804D01*
X135534572Y-49602765D01*
X135557671Y-49611030D01*
X135579850Y-49621520D01*
X135600893Y-49634132D01*
X135620599Y-49648747D01*
X135638777Y-49665223D01*
X135655253Y-49683401D01*
X135669868Y-49703107D01*
X135682480Y-49724150D01*
X135692970Y-49746329D01*
X135701235Y-49769428D01*
X135707196Y-49793227D01*
X135710796Y-49817495D01*
X135712000Y-49841999D01*
X135712000Y-50742001D01*
X135710796Y-50766505D01*
X135707196Y-50790773D01*
X135701235Y-50814572D01*
X135692970Y-50837671D01*
X135682480Y-50859850D01*
X135669868Y-50880893D01*
X135655253Y-50900599D01*
X135638777Y-50918777D01*
X135620599Y-50935253D01*
X135600893Y-50949868D01*
X135579850Y-50962480D01*
X135557671Y-50972970D01*
X135534572Y-50981235D01*
X135510773Y-50987196D01*
X135486505Y-50990796D01*
X135462001Y-50992000D01*
X134811999Y-50992000D01*
X134787495Y-50990796D01*
X134763227Y-50987196D01*
X134739428Y-50981235D01*
X134716329Y-50972970D01*
X134694150Y-50962480D01*
X134673107Y-50949868D01*
X134653401Y-50935253D01*
X134635223Y-50918777D01*
X134618747Y-50900599D01*
X134604132Y-50880893D01*
X134591520Y-50859850D01*
X134581030Y-50837671D01*
X134572765Y-50814572D01*
X134566804Y-50790773D01*
X134563204Y-50766505D01*
X134562000Y-50742001D01*
X134562000Y-49841999D01*
X134563204Y-49817495D01*
X134566804Y-49793227D01*
X134572765Y-49769428D01*
X134581030Y-49746329D01*
X134591520Y-49724150D01*
X134604132Y-49703107D01*
X134618747Y-49683401D01*
X134635223Y-49665223D01*
X134653401Y-49648747D01*
X134673107Y-49634132D01*
X134694150Y-49621520D01*
X134716329Y-49611030D01*
X134739428Y-49602765D01*
X134763227Y-49596804D01*
X134787495Y-49593204D01*
X134811999Y-49592000D01*
X135462001Y-49592000D01*
X135486505Y-49593204D01*
X135486505Y-49593204D01*
G37*
D17*
X135137000Y-50292000D03*
D11*
G36*
X130776505Y-76388204D02*
X130800773Y-76391804D01*
X130824572Y-76397765D01*
X130847671Y-76406030D01*
X130869850Y-76416520D01*
X130890893Y-76429132D01*
X130910599Y-76443747D01*
X130928777Y-76460223D01*
X130945253Y-76478401D01*
X130959868Y-76498107D01*
X130972480Y-76519150D01*
X130982970Y-76541329D01*
X130991235Y-76564428D01*
X130997196Y-76588227D01*
X131000796Y-76612495D01*
X131002000Y-76636999D01*
X131002000Y-77287001D01*
X131000796Y-77311505D01*
X130997196Y-77335773D01*
X130991235Y-77359572D01*
X130982970Y-77382671D01*
X130972480Y-77404850D01*
X130959868Y-77425893D01*
X130945253Y-77445599D01*
X130928777Y-77463777D01*
X130910599Y-77480253D01*
X130890893Y-77494868D01*
X130869850Y-77507480D01*
X130847671Y-77517970D01*
X130824572Y-77526235D01*
X130800773Y-77532196D01*
X130776505Y-77535796D01*
X130752001Y-77537000D01*
X129851999Y-77537000D01*
X129827495Y-77535796D01*
X129803227Y-77532196D01*
X129779428Y-77526235D01*
X129756329Y-77517970D01*
X129734150Y-77507480D01*
X129713107Y-77494868D01*
X129693401Y-77480253D01*
X129675223Y-77463777D01*
X129658747Y-77445599D01*
X129644132Y-77425893D01*
X129631520Y-77404850D01*
X129621030Y-77382671D01*
X129612765Y-77359572D01*
X129606804Y-77335773D01*
X129603204Y-77311505D01*
X129602000Y-77287001D01*
X129602000Y-76636999D01*
X129603204Y-76612495D01*
X129606804Y-76588227D01*
X129612765Y-76564428D01*
X129621030Y-76541329D01*
X129631520Y-76519150D01*
X129644132Y-76498107D01*
X129658747Y-76478401D01*
X129675223Y-76460223D01*
X129693401Y-76443747D01*
X129713107Y-76429132D01*
X129734150Y-76416520D01*
X129756329Y-76406030D01*
X129779428Y-76397765D01*
X129803227Y-76391804D01*
X129827495Y-76388204D01*
X129851999Y-76387000D01*
X130752001Y-76387000D01*
X130776505Y-76388204D01*
X130776505Y-76388204D01*
G37*
D17*
X130302000Y-76962000D03*
D11*
G36*
X130776505Y-74338204D02*
X130800773Y-74341804D01*
X130824572Y-74347765D01*
X130847671Y-74356030D01*
X130869850Y-74366520D01*
X130890893Y-74379132D01*
X130910599Y-74393747D01*
X130928777Y-74410223D01*
X130945253Y-74428401D01*
X130959868Y-74448107D01*
X130972480Y-74469150D01*
X130982970Y-74491329D01*
X130991235Y-74514428D01*
X130997196Y-74538227D01*
X131000796Y-74562495D01*
X131002000Y-74586999D01*
X131002000Y-75237001D01*
X131000796Y-75261505D01*
X130997196Y-75285773D01*
X130991235Y-75309572D01*
X130982970Y-75332671D01*
X130972480Y-75354850D01*
X130959868Y-75375893D01*
X130945253Y-75395599D01*
X130928777Y-75413777D01*
X130910599Y-75430253D01*
X130890893Y-75444868D01*
X130869850Y-75457480D01*
X130847671Y-75467970D01*
X130824572Y-75476235D01*
X130800773Y-75482196D01*
X130776505Y-75485796D01*
X130752001Y-75487000D01*
X129851999Y-75487000D01*
X129827495Y-75485796D01*
X129803227Y-75482196D01*
X129779428Y-75476235D01*
X129756329Y-75467970D01*
X129734150Y-75457480D01*
X129713107Y-75444868D01*
X129693401Y-75430253D01*
X129675223Y-75413777D01*
X129658747Y-75395599D01*
X129644132Y-75375893D01*
X129631520Y-75354850D01*
X129621030Y-75332671D01*
X129612765Y-75309572D01*
X129606804Y-75285773D01*
X129603204Y-75261505D01*
X129602000Y-75237001D01*
X129602000Y-74586999D01*
X129603204Y-74562495D01*
X129606804Y-74538227D01*
X129612765Y-74514428D01*
X129621030Y-74491329D01*
X129631520Y-74469150D01*
X129644132Y-74448107D01*
X129658747Y-74428401D01*
X129675223Y-74410223D01*
X129693401Y-74393747D01*
X129713107Y-74379132D01*
X129734150Y-74366520D01*
X129756329Y-74356030D01*
X129779428Y-74347765D01*
X129803227Y-74341804D01*
X129827495Y-74338204D01*
X129851999Y-74337000D01*
X130752001Y-74337000D01*
X130776505Y-74338204D01*
X130776505Y-74338204D01*
G37*
D17*
X130302000Y-74912000D03*
D11*
G36*
X137126505Y-43123204D02*
X137150773Y-43126804D01*
X137174572Y-43132765D01*
X137197671Y-43141030D01*
X137219850Y-43151520D01*
X137240893Y-43164132D01*
X137260599Y-43178747D01*
X137278777Y-43195223D01*
X137295253Y-43213401D01*
X137309868Y-43233107D01*
X137322480Y-43254150D01*
X137332970Y-43276329D01*
X137341235Y-43299428D01*
X137347196Y-43323227D01*
X137350796Y-43347495D01*
X137352000Y-43371999D01*
X137352000Y-44022001D01*
X137350796Y-44046505D01*
X137347196Y-44070773D01*
X137341235Y-44094572D01*
X137332970Y-44117671D01*
X137322480Y-44139850D01*
X137309868Y-44160893D01*
X137295253Y-44180599D01*
X137278777Y-44198777D01*
X137260599Y-44215253D01*
X137240893Y-44229868D01*
X137219850Y-44242480D01*
X137197671Y-44252970D01*
X137174572Y-44261235D01*
X137150773Y-44267196D01*
X137126505Y-44270796D01*
X137102001Y-44272000D01*
X136201999Y-44272000D01*
X136177495Y-44270796D01*
X136153227Y-44267196D01*
X136129428Y-44261235D01*
X136106329Y-44252970D01*
X136084150Y-44242480D01*
X136063107Y-44229868D01*
X136043401Y-44215253D01*
X136025223Y-44198777D01*
X136008747Y-44180599D01*
X135994132Y-44160893D01*
X135981520Y-44139850D01*
X135971030Y-44117671D01*
X135962765Y-44094572D01*
X135956804Y-44070773D01*
X135953204Y-44046505D01*
X135952000Y-44022001D01*
X135952000Y-43371999D01*
X135953204Y-43347495D01*
X135956804Y-43323227D01*
X135962765Y-43299428D01*
X135971030Y-43276329D01*
X135981520Y-43254150D01*
X135994132Y-43233107D01*
X136008747Y-43213401D01*
X136025223Y-43195223D01*
X136043401Y-43178747D01*
X136063107Y-43164132D01*
X136084150Y-43151520D01*
X136106329Y-43141030D01*
X136129428Y-43132765D01*
X136153227Y-43126804D01*
X136177495Y-43123204D01*
X136201999Y-43122000D01*
X137102001Y-43122000D01*
X137126505Y-43123204D01*
X137126505Y-43123204D01*
G37*
D17*
X136652000Y-43697000D03*
D11*
G36*
X137126505Y-41073204D02*
X137150773Y-41076804D01*
X137174572Y-41082765D01*
X137197671Y-41091030D01*
X137219850Y-41101520D01*
X137240893Y-41114132D01*
X137260599Y-41128747D01*
X137278777Y-41145223D01*
X137295253Y-41163401D01*
X137309868Y-41183107D01*
X137322480Y-41204150D01*
X137332970Y-41226329D01*
X137341235Y-41249428D01*
X137347196Y-41273227D01*
X137350796Y-41297495D01*
X137352000Y-41321999D01*
X137352000Y-41972001D01*
X137350796Y-41996505D01*
X137347196Y-42020773D01*
X137341235Y-42044572D01*
X137332970Y-42067671D01*
X137322480Y-42089850D01*
X137309868Y-42110893D01*
X137295253Y-42130599D01*
X137278777Y-42148777D01*
X137260599Y-42165253D01*
X137240893Y-42179868D01*
X137219850Y-42192480D01*
X137197671Y-42202970D01*
X137174572Y-42211235D01*
X137150773Y-42217196D01*
X137126505Y-42220796D01*
X137102001Y-42222000D01*
X136201999Y-42222000D01*
X136177495Y-42220796D01*
X136153227Y-42217196D01*
X136129428Y-42211235D01*
X136106329Y-42202970D01*
X136084150Y-42192480D01*
X136063107Y-42179868D01*
X136043401Y-42165253D01*
X136025223Y-42148777D01*
X136008747Y-42130599D01*
X135994132Y-42110893D01*
X135981520Y-42089850D01*
X135971030Y-42067671D01*
X135962765Y-42044572D01*
X135956804Y-42020773D01*
X135953204Y-41996505D01*
X135952000Y-41972001D01*
X135952000Y-41321999D01*
X135953204Y-41297495D01*
X135956804Y-41273227D01*
X135962765Y-41249428D01*
X135971030Y-41226329D01*
X135981520Y-41204150D01*
X135994132Y-41183107D01*
X136008747Y-41163401D01*
X136025223Y-41145223D01*
X136043401Y-41128747D01*
X136063107Y-41114132D01*
X136084150Y-41101520D01*
X136106329Y-41091030D01*
X136129428Y-41082765D01*
X136153227Y-41076804D01*
X136177495Y-41073204D01*
X136201999Y-41072000D01*
X137102001Y-41072000D01*
X137126505Y-41073204D01*
X137126505Y-41073204D01*
G37*
D17*
X136652000Y-41647000D03*
D11*
G36*
X132554505Y-107621204D02*
X132578773Y-107624804D01*
X132602572Y-107630765D01*
X132625671Y-107639030D01*
X132647850Y-107649520D01*
X132668893Y-107662132D01*
X132688599Y-107676747D01*
X132706777Y-107693223D01*
X132723253Y-107711401D01*
X132737868Y-107731107D01*
X132750480Y-107752150D01*
X132760970Y-107774329D01*
X132769235Y-107797428D01*
X132775196Y-107821227D01*
X132778796Y-107845495D01*
X132780000Y-107869999D01*
X132780000Y-108520001D01*
X132778796Y-108544505D01*
X132775196Y-108568773D01*
X132769235Y-108592572D01*
X132760970Y-108615671D01*
X132750480Y-108637850D01*
X132737868Y-108658893D01*
X132723253Y-108678599D01*
X132706777Y-108696777D01*
X132688599Y-108713253D01*
X132668893Y-108727868D01*
X132647850Y-108740480D01*
X132625671Y-108750970D01*
X132602572Y-108759235D01*
X132578773Y-108765196D01*
X132554505Y-108768796D01*
X132530001Y-108770000D01*
X131629999Y-108770000D01*
X131605495Y-108768796D01*
X131581227Y-108765196D01*
X131557428Y-108759235D01*
X131534329Y-108750970D01*
X131512150Y-108740480D01*
X131491107Y-108727868D01*
X131471401Y-108713253D01*
X131453223Y-108696777D01*
X131436747Y-108678599D01*
X131422132Y-108658893D01*
X131409520Y-108637850D01*
X131399030Y-108615671D01*
X131390765Y-108592572D01*
X131384804Y-108568773D01*
X131381204Y-108544505D01*
X131380000Y-108520001D01*
X131380000Y-107869999D01*
X131381204Y-107845495D01*
X131384804Y-107821227D01*
X131390765Y-107797428D01*
X131399030Y-107774329D01*
X131409520Y-107752150D01*
X131422132Y-107731107D01*
X131436747Y-107711401D01*
X131453223Y-107693223D01*
X131471401Y-107676747D01*
X131491107Y-107662132D01*
X131512150Y-107649520D01*
X131534329Y-107639030D01*
X131557428Y-107630765D01*
X131581227Y-107624804D01*
X131605495Y-107621204D01*
X131629999Y-107620000D01*
X132530001Y-107620000D01*
X132554505Y-107621204D01*
X132554505Y-107621204D01*
G37*
D17*
X132080000Y-108195000D03*
D11*
G36*
X132554505Y-109671204D02*
X132578773Y-109674804D01*
X132602572Y-109680765D01*
X132625671Y-109689030D01*
X132647850Y-109699520D01*
X132668893Y-109712132D01*
X132688599Y-109726747D01*
X132706777Y-109743223D01*
X132723253Y-109761401D01*
X132737868Y-109781107D01*
X132750480Y-109802150D01*
X132760970Y-109824329D01*
X132769235Y-109847428D01*
X132775196Y-109871227D01*
X132778796Y-109895495D01*
X132780000Y-109919999D01*
X132780000Y-110570001D01*
X132778796Y-110594505D01*
X132775196Y-110618773D01*
X132769235Y-110642572D01*
X132760970Y-110665671D01*
X132750480Y-110687850D01*
X132737868Y-110708893D01*
X132723253Y-110728599D01*
X132706777Y-110746777D01*
X132688599Y-110763253D01*
X132668893Y-110777868D01*
X132647850Y-110790480D01*
X132625671Y-110800970D01*
X132602572Y-110809235D01*
X132578773Y-110815196D01*
X132554505Y-110818796D01*
X132530001Y-110820000D01*
X131629999Y-110820000D01*
X131605495Y-110818796D01*
X131581227Y-110815196D01*
X131557428Y-110809235D01*
X131534329Y-110800970D01*
X131512150Y-110790480D01*
X131491107Y-110777868D01*
X131471401Y-110763253D01*
X131453223Y-110746777D01*
X131436747Y-110728599D01*
X131422132Y-110708893D01*
X131409520Y-110687850D01*
X131399030Y-110665671D01*
X131390765Y-110642572D01*
X131384804Y-110618773D01*
X131381204Y-110594505D01*
X131380000Y-110570001D01*
X131380000Y-109919999D01*
X131381204Y-109895495D01*
X131384804Y-109871227D01*
X131390765Y-109847428D01*
X131399030Y-109824329D01*
X131409520Y-109802150D01*
X131422132Y-109781107D01*
X131436747Y-109761401D01*
X131453223Y-109743223D01*
X131471401Y-109726747D01*
X131491107Y-109712132D01*
X131512150Y-109699520D01*
X131534329Y-109689030D01*
X131557428Y-109680765D01*
X131581227Y-109674804D01*
X131605495Y-109671204D01*
X131629999Y-109670000D01*
X132530001Y-109670000D01*
X132554505Y-109671204D01*
X132554505Y-109671204D01*
G37*
D17*
X132080000Y-110245000D03*
D20*
X151892000Y-94488000D03*
X155702000Y-105156000D03*
X132080000Y-29464000D03*
X132080000Y-33528000D03*
X164592000Y-26924000D03*
X155956000Y-67564000D03*
X131572000Y-117856000D03*
X130048000Y-101346000D03*
D24*
X136144000Y-107188000D03*
D25*
X138684000Y-107188000D03*
D11*
G36*
X137754505Y-101409204D02*
X137778773Y-101412804D01*
X137802572Y-101418765D01*
X137825671Y-101427030D01*
X137847850Y-101437520D01*
X137868893Y-101450132D01*
X137888599Y-101464747D01*
X137906777Y-101481223D01*
X137923253Y-101499401D01*
X137937868Y-101519107D01*
X137950480Y-101540150D01*
X137960970Y-101562329D01*
X137969235Y-101585428D01*
X137975196Y-101609227D01*
X137978796Y-101633495D01*
X137980000Y-101657999D01*
X137980000Y-102558001D01*
X137978796Y-102582505D01*
X137975196Y-102606773D01*
X137969235Y-102630572D01*
X137960970Y-102653671D01*
X137950480Y-102675850D01*
X137937868Y-102696893D01*
X137923253Y-102716599D01*
X137906777Y-102734777D01*
X137888599Y-102751253D01*
X137868893Y-102765868D01*
X137847850Y-102778480D01*
X137825671Y-102788970D01*
X137802572Y-102797235D01*
X137778773Y-102803196D01*
X137754505Y-102806796D01*
X137730001Y-102808000D01*
X137079999Y-102808000D01*
X137055495Y-102806796D01*
X137031227Y-102803196D01*
X137007428Y-102797235D01*
X136984329Y-102788970D01*
X136962150Y-102778480D01*
X136941107Y-102765868D01*
X136921401Y-102751253D01*
X136903223Y-102734777D01*
X136886747Y-102716599D01*
X136872132Y-102696893D01*
X136859520Y-102675850D01*
X136849030Y-102653671D01*
X136840765Y-102630572D01*
X136834804Y-102606773D01*
X136831204Y-102582505D01*
X136830000Y-102558001D01*
X136830000Y-101657999D01*
X136831204Y-101633495D01*
X136834804Y-101609227D01*
X136840765Y-101585428D01*
X136849030Y-101562329D01*
X136859520Y-101540150D01*
X136872132Y-101519107D01*
X136886747Y-101499401D01*
X136903223Y-101481223D01*
X136921401Y-101464747D01*
X136941107Y-101450132D01*
X136962150Y-101437520D01*
X136984329Y-101427030D01*
X137007428Y-101418765D01*
X137031227Y-101412804D01*
X137055495Y-101409204D01*
X137079999Y-101408000D01*
X137730001Y-101408000D01*
X137754505Y-101409204D01*
X137754505Y-101409204D01*
G37*
D17*
X137405000Y-102108000D03*
D11*
G36*
X139804505Y-101409204D02*
X139828773Y-101412804D01*
X139852572Y-101418765D01*
X139875671Y-101427030D01*
X139897850Y-101437520D01*
X139918893Y-101450132D01*
X139938599Y-101464747D01*
X139956777Y-101481223D01*
X139973253Y-101499401D01*
X139987868Y-101519107D01*
X140000480Y-101540150D01*
X140010970Y-101562329D01*
X140019235Y-101585428D01*
X140025196Y-101609227D01*
X140028796Y-101633495D01*
X140030000Y-101657999D01*
X140030000Y-102558001D01*
X140028796Y-102582505D01*
X140025196Y-102606773D01*
X140019235Y-102630572D01*
X140010970Y-102653671D01*
X140000480Y-102675850D01*
X139987868Y-102696893D01*
X139973253Y-102716599D01*
X139956777Y-102734777D01*
X139938599Y-102751253D01*
X139918893Y-102765868D01*
X139897850Y-102778480D01*
X139875671Y-102788970D01*
X139852572Y-102797235D01*
X139828773Y-102803196D01*
X139804505Y-102806796D01*
X139780001Y-102808000D01*
X139129999Y-102808000D01*
X139105495Y-102806796D01*
X139081227Y-102803196D01*
X139057428Y-102797235D01*
X139034329Y-102788970D01*
X139012150Y-102778480D01*
X138991107Y-102765868D01*
X138971401Y-102751253D01*
X138953223Y-102734777D01*
X138936747Y-102716599D01*
X138922132Y-102696893D01*
X138909520Y-102675850D01*
X138899030Y-102653671D01*
X138890765Y-102630572D01*
X138884804Y-102606773D01*
X138881204Y-102582505D01*
X138880000Y-102558001D01*
X138880000Y-101657999D01*
X138881204Y-101633495D01*
X138884804Y-101609227D01*
X138890765Y-101585428D01*
X138899030Y-101562329D01*
X138909520Y-101540150D01*
X138922132Y-101519107D01*
X138936747Y-101499401D01*
X138953223Y-101481223D01*
X138971401Y-101464747D01*
X138991107Y-101450132D01*
X139012150Y-101437520D01*
X139034329Y-101427030D01*
X139057428Y-101418765D01*
X139081227Y-101412804D01*
X139105495Y-101409204D01*
X139129999Y-101408000D01*
X139780001Y-101408000D01*
X139804505Y-101409204D01*
X139804505Y-101409204D01*
G37*
D17*
X139455000Y-102108000D03*
D18*
X141732000Y-94488000D03*
D19*
X139232000Y-94488000D03*
D24*
X149860000Y-46736000D03*
D25*
X149860000Y-44196000D03*
D19*
X157480000Y-49276000D03*
X157480000Y-41676000D03*
D11*
G36*
X150334505Y-41082204D02*
X150358773Y-41085804D01*
X150382572Y-41091765D01*
X150405671Y-41100030D01*
X150427850Y-41110520D01*
X150448893Y-41123132D01*
X150468599Y-41137747D01*
X150486777Y-41154223D01*
X150503253Y-41172401D01*
X150517868Y-41192107D01*
X150530480Y-41213150D01*
X150540970Y-41235329D01*
X150549235Y-41258428D01*
X150555196Y-41282227D01*
X150558796Y-41306495D01*
X150560000Y-41330999D01*
X150560000Y-41981001D01*
X150558796Y-42005505D01*
X150555196Y-42029773D01*
X150549235Y-42053572D01*
X150540970Y-42076671D01*
X150530480Y-42098850D01*
X150517868Y-42119893D01*
X150503253Y-42139599D01*
X150486777Y-42157777D01*
X150468599Y-42174253D01*
X150448893Y-42188868D01*
X150427850Y-42201480D01*
X150405671Y-42211970D01*
X150382572Y-42220235D01*
X150358773Y-42226196D01*
X150334505Y-42229796D01*
X150310001Y-42231000D01*
X149409999Y-42231000D01*
X149385495Y-42229796D01*
X149361227Y-42226196D01*
X149337428Y-42220235D01*
X149314329Y-42211970D01*
X149292150Y-42201480D01*
X149271107Y-42188868D01*
X149251401Y-42174253D01*
X149233223Y-42157777D01*
X149216747Y-42139599D01*
X149202132Y-42119893D01*
X149189520Y-42098850D01*
X149179030Y-42076671D01*
X149170765Y-42053572D01*
X149164804Y-42029773D01*
X149161204Y-42005505D01*
X149160000Y-41981001D01*
X149160000Y-41330999D01*
X149161204Y-41306495D01*
X149164804Y-41282227D01*
X149170765Y-41258428D01*
X149179030Y-41235329D01*
X149189520Y-41213150D01*
X149202132Y-41192107D01*
X149216747Y-41172401D01*
X149233223Y-41154223D01*
X149251401Y-41137747D01*
X149271107Y-41123132D01*
X149292150Y-41110520D01*
X149314329Y-41100030D01*
X149337428Y-41091765D01*
X149361227Y-41085804D01*
X149385495Y-41082204D01*
X149409999Y-41081000D01*
X150310001Y-41081000D01*
X150334505Y-41082204D01*
X150334505Y-41082204D01*
G37*
D17*
X149860000Y-41656000D03*
D11*
G36*
X150334505Y-39032204D02*
X150358773Y-39035804D01*
X150382572Y-39041765D01*
X150405671Y-39050030D01*
X150427850Y-39060520D01*
X150448893Y-39073132D01*
X150468599Y-39087747D01*
X150486777Y-39104223D01*
X150503253Y-39122401D01*
X150517868Y-39142107D01*
X150530480Y-39163150D01*
X150540970Y-39185329D01*
X150549235Y-39208428D01*
X150555196Y-39232227D01*
X150558796Y-39256495D01*
X150560000Y-39280999D01*
X150560000Y-39931001D01*
X150558796Y-39955505D01*
X150555196Y-39979773D01*
X150549235Y-40003572D01*
X150540970Y-40026671D01*
X150530480Y-40048850D01*
X150517868Y-40069893D01*
X150503253Y-40089599D01*
X150486777Y-40107777D01*
X150468599Y-40124253D01*
X150448893Y-40138868D01*
X150427850Y-40151480D01*
X150405671Y-40161970D01*
X150382572Y-40170235D01*
X150358773Y-40176196D01*
X150334505Y-40179796D01*
X150310001Y-40181000D01*
X149409999Y-40181000D01*
X149385495Y-40179796D01*
X149361227Y-40176196D01*
X149337428Y-40170235D01*
X149314329Y-40161970D01*
X149292150Y-40151480D01*
X149271107Y-40138868D01*
X149251401Y-40124253D01*
X149233223Y-40107777D01*
X149216747Y-40089599D01*
X149202132Y-40069893D01*
X149189520Y-40048850D01*
X149179030Y-40026671D01*
X149170765Y-40003572D01*
X149164804Y-39979773D01*
X149161204Y-39955505D01*
X149160000Y-39931001D01*
X149160000Y-39280999D01*
X149161204Y-39256495D01*
X149164804Y-39232227D01*
X149170765Y-39208428D01*
X149179030Y-39185329D01*
X149189520Y-39163150D01*
X149202132Y-39142107D01*
X149216747Y-39122401D01*
X149233223Y-39104223D01*
X149251401Y-39087747D01*
X149271107Y-39073132D01*
X149292150Y-39060520D01*
X149314329Y-39050030D01*
X149337428Y-39041765D01*
X149361227Y-39035804D01*
X149385495Y-39032204D01*
X149409999Y-39031000D01*
X150310001Y-39031000D01*
X150334505Y-39032204D01*
X150334505Y-39032204D01*
G37*
D17*
X149860000Y-39606000D03*
D20*
X164592000Y-35306000D03*
D26*
X148336000Y-31750000D03*
X147828000Y-35306000D03*
X156464000Y-50800000D03*
X153977000Y-50800000D03*
X165595000Y-105156000D03*
X138938000Y-42922000D03*
X138938000Y-44472000D03*
X155527000Y-44754008D03*
X155417992Y-42641992D03*
X155448000Y-38367010D03*
X155448000Y-35801000D03*
X128524000Y-46228000D03*
X126492000Y-46228000D03*
X156972000Y-91948000D03*
X132575000Y-84328000D03*
X129540000Y-43942000D03*
X152400000Y-56642000D03*
X166370000Y-94234000D03*
X166370000Y-96774000D03*
X156731000Y-65278000D03*
X155181000Y-65278000D03*
X160782000Y-35801000D03*
D27*
X168402000Y-120396000D02*
X168402000Y-115316000D01*
X155702000Y-105156000D02*
X158741000Y-105156000D01*
X158242000Y-105156000D02*
X155702000Y-105156000D01*
X168402000Y-115316000D02*
X158242000Y-105156000D01*
D28*
X141215000Y-102108000D02*
X139455000Y-102108000D01*
X150798000Y-31750000D02*
X148336000Y-31750000D01*
X153416000Y-27432000D02*
X153416000Y-29132000D01*
X153416000Y-29132000D02*
X150798000Y-31750000D01*
X160528000Y-53857000D02*
X159521000Y-53857000D01*
X159521000Y-53857000D02*
X156464000Y-50800000D01*
X147828000Y-35306000D02*
X147828000Y-36068000D01*
X153977000Y-50800000D02*
X153577001Y-50400001D01*
X153524001Y-50400001D02*
X153577001Y-50400001D01*
X147828000Y-35871685D02*
X147828000Y-35306000D01*
X147828000Y-47314002D02*
X147828000Y-35871685D01*
X151313998Y-50800000D02*
X147828000Y-47314002D01*
X153977000Y-50800000D02*
X151313998Y-50800000D01*
X147652000Y-118364000D02*
X149352000Y-118364000D01*
X138430000Y-116078000D02*
X145366000Y-116078000D01*
X141215000Y-102108000D02*
X141215000Y-107451000D01*
X141215000Y-107451000D02*
X138938000Y-109728000D01*
X145366000Y-116078000D02*
X147652000Y-118364000D01*
X138938000Y-109728000D02*
X137160000Y-109728000D01*
X137160000Y-109728000D02*
X136144000Y-110744000D01*
X136144000Y-110744000D02*
X136144000Y-113792000D01*
X136144000Y-113792000D02*
X138430000Y-116078000D01*
X132334000Y-70866000D02*
X131452010Y-69984010D01*
X130302000Y-76962000D02*
X132334000Y-74930000D01*
X132334000Y-74930000D02*
X132334000Y-70866000D01*
X164592000Y-77470000D02*
X164592000Y-81026000D01*
X164592000Y-81026000D02*
X148082000Y-81026000D01*
X148082000Y-81026000D02*
X148082000Y-98044000D01*
X148082000Y-98044000D02*
X148336000Y-98044000D01*
X148336000Y-98044000D02*
X148590000Y-98298000D01*
X148590000Y-98298000D02*
X157226000Y-98298000D01*
X158066000Y-97790000D02*
X158741000Y-97790000D01*
X157734000Y-97790000D02*
X158066000Y-97790000D01*
X157226000Y-98298000D02*
X157734000Y-97790000D01*
X162430036Y-77470000D02*
X164592000Y-77470000D01*
X147828000Y-62867964D02*
X162430036Y-77470000D01*
X147828000Y-47314002D02*
X147828000Y-62867964D01*
D27*
X156727000Y-94488000D02*
X158741000Y-94488000D01*
X151892000Y-94488000D02*
X154677000Y-94488000D01*
X165595000Y-105156000D02*
X160791000Y-105156000D01*
X152899000Y-33528000D02*
X150885000Y-33528000D01*
X160619000Y-63580000D02*
X160526001Y-63487001D01*
X168275000Y-63580000D02*
X160619000Y-63580000D01*
X139691000Y-43697000D02*
X136652000Y-43697000D01*
X140970000Y-42418000D02*
X139691000Y-43697000D01*
X140970000Y-33528000D02*
X140970000Y-42418000D01*
X138947000Y-33020000D02*
X140462000Y-33020000D01*
X140462000Y-33020000D02*
X140970000Y-33528000D01*
X138947000Y-37592000D02*
X138947000Y-42913000D01*
X138947000Y-42913000D02*
X138938000Y-42922000D01*
X122939629Y-62658000D02*
X121285000Y-62658000D01*
X130636000Y-62658000D02*
X122939629Y-62658000D01*
X134112000Y-59182000D02*
X130636000Y-62658000D01*
X138938000Y-44472000D02*
X134112000Y-49298000D01*
X134112000Y-49298000D02*
X134112000Y-59182000D01*
X132080000Y-112767000D02*
X132080000Y-110245000D01*
X123119000Y-94479000D02*
X128524000Y-94479000D01*
X121285000Y-96313000D02*
X123119000Y-94479000D01*
X160791000Y-91407000D02*
X160758000Y-91374000D01*
X160791000Y-94488000D02*
X160791000Y-91407000D01*
X155527000Y-49062002D02*
X155527000Y-44754008D01*
X155527000Y-51193000D02*
X155527000Y-49062002D01*
X156652000Y-53618000D02*
X156652000Y-52318000D01*
X156652000Y-52318000D02*
X155527000Y-51193000D01*
X155417992Y-42641992D02*
X155417992Y-38397018D01*
X155417992Y-38397018D02*
X155448000Y-38367010D01*
X151108000Y-35801000D02*
X148835000Y-33528000D01*
X155448000Y-35801000D02*
X151108000Y-35801000D01*
X136177000Y-41172000D02*
X136652000Y-41647000D01*
X132014000Y-41172000D02*
X136177000Y-41172000D01*
X132866000Y-80796000D02*
X131760000Y-80796000D01*
X133350000Y-81280000D02*
X132866000Y-80796000D01*
X133350000Y-89662000D02*
X133350000Y-81280000D01*
X132080000Y-108195000D02*
X132080000Y-90932000D01*
X132080000Y-90932000D02*
X133350000Y-89662000D01*
X168275000Y-91817371D02*
X168275000Y-88472000D01*
X168275000Y-93472000D02*
X168275000Y-91817371D01*
X167105001Y-94641999D02*
X168275000Y-93472000D01*
X165748001Y-95998999D02*
X167105001Y-94641999D01*
X162582001Y-95998999D02*
X165748001Y-95998999D01*
X160791000Y-97790000D02*
X162582001Y-95998999D01*
X121285000Y-41148000D02*
X121285000Y-46148000D01*
X128778000Y-46228000D02*
X128524000Y-46228000D01*
X121365000Y-46228000D02*
X121285000Y-46148000D01*
X126492000Y-46228000D02*
X121365000Y-46228000D01*
X128923999Y-46627999D02*
X128524000Y-46228000D01*
X132842000Y-50292000D02*
X129177999Y-46627999D01*
X129177999Y-46627999D02*
X128923999Y-46627999D01*
X130193000Y-74803000D02*
X130302000Y-74912000D01*
X121285000Y-74803000D02*
X130193000Y-74803000D01*
X121285000Y-79803000D02*
X121285000Y-74803000D01*
X121285000Y-79803000D02*
X124413000Y-79803000D01*
X129304000Y-74912000D02*
X130302000Y-74912000D01*
X124413000Y-79803000D02*
X129304000Y-74912000D01*
D28*
X157758000Y-90424000D02*
X157758000Y-91162000D01*
X157758000Y-91162000D02*
X156972000Y-91948000D01*
X131581000Y-88392000D02*
X131581000Y-84567000D01*
X132551000Y-84304000D02*
X132575000Y-84328000D01*
X131318000Y-84304000D02*
X132551000Y-84304000D01*
X131318000Y-84304000D02*
X130810000Y-83796000D01*
X131581000Y-84567000D02*
X131318000Y-84304000D01*
X131064000Y-44172000D02*
X129770000Y-44172000D01*
X129770000Y-44172000D02*
X129540000Y-43942000D01*
X134744000Y-107188000D02*
X136144000Y-107188000D01*
X133341000Y-105785000D02*
X134744000Y-107188000D01*
X133341000Y-102108000D02*
X133341000Y-105785000D01*
X166620371Y-58580000D02*
X168275000Y-58580000D01*
X156214000Y-58580000D02*
X166620371Y-58580000D01*
X155702000Y-58068000D02*
X156214000Y-58580000D01*
X155702000Y-56618000D02*
X155702000Y-58068000D01*
X150876000Y-55381000D02*
X151139000Y-55381000D01*
X151139000Y-55381000D02*
X152400000Y-56642000D01*
D27*
X168275000Y-25798213D02*
X168275000Y-29464000D01*
X168275000Y-24384000D02*
X168275000Y-25798213D01*
X168275000Y-29464000D02*
X165735000Y-26924000D01*
X165735000Y-26924000D02*
X164592000Y-26924000D01*
X168275000Y-24384000D02*
X165735000Y-26924000D01*
X154949000Y-32503000D02*
X154949000Y-33528000D01*
X164592000Y-26924000D02*
X160528000Y-26924000D01*
X160528000Y-26924000D02*
X154949000Y-32503000D01*
X158476001Y-63487001D02*
X156984999Y-63487001D01*
X155956000Y-64516000D02*
X155956000Y-67564000D01*
X156984999Y-63487001D02*
X155956000Y-64516000D01*
X162814000Y-67564000D02*
X168402000Y-73152000D01*
X155956000Y-67564000D02*
X162814000Y-67564000D01*
X168402000Y-76817787D02*
X168402000Y-73152000D01*
X168402000Y-78232000D02*
X168402000Y-76817787D01*
X121158000Y-24892000D02*
X121158000Y-29972000D01*
X132080000Y-29464000D02*
X130048000Y-27432000D01*
X123698000Y-27432000D02*
X121158000Y-29972000D01*
X130048000Y-27432000D02*
X123698000Y-27432000D01*
X135636000Y-33020000D02*
X136897000Y-33020000D01*
X132080000Y-29464000D02*
X135636000Y-33020000D01*
X121158000Y-38100000D02*
X121158000Y-33020000D01*
X123952000Y-35306000D02*
X121158000Y-38100000D01*
X132080000Y-33528000D02*
X130302000Y-35306000D01*
X130302000Y-35306000D02*
X123952000Y-35306000D01*
X136144000Y-37592000D02*
X136897000Y-37592000D01*
X132080000Y-33528000D02*
X136144000Y-37592000D01*
X121285000Y-120523000D02*
X121285000Y-115443000D01*
X123698000Y-117856000D02*
X131572000Y-117856000D01*
X121285000Y-115443000D02*
X123698000Y-117856000D01*
X123952000Y-117856000D02*
X131572000Y-117856000D01*
X121285000Y-120523000D02*
X123952000Y-117856000D01*
X131572000Y-115325000D02*
X132080000Y-114817000D01*
X131572000Y-117856000D02*
X131572000Y-115325000D01*
X121285000Y-106553000D02*
X123444000Y-104394000D01*
X123444000Y-101609000D02*
X128524000Y-96529000D01*
X123444000Y-104394000D02*
X123444000Y-101609000D01*
X126492000Y-101346000D02*
X121285000Y-106553000D01*
X130048000Y-101346000D02*
X126492000Y-101346000D01*
X122284999Y-107552999D02*
X121285000Y-106553000D01*
X122284999Y-110633001D02*
X122284999Y-107552999D01*
X121285000Y-111633000D02*
X122284999Y-110633001D01*
X138684000Y-107188000D02*
X138684000Y-104902000D01*
X137405000Y-103623000D02*
X137405000Y-102108000D01*
X138684000Y-104902000D02*
X137405000Y-103623000D01*
D28*
X143265000Y-102908000D02*
X143265000Y-102108000D01*
X143265000Y-107203000D02*
X143265000Y-102908000D01*
X139700000Y-110768000D02*
X143265000Y-107203000D01*
X139700000Y-112268000D02*
X139700000Y-110768000D01*
X143265000Y-100085000D02*
X143265000Y-102108000D01*
X141732000Y-98552000D02*
X143265000Y-100085000D01*
X141732000Y-98552000D02*
X141732000Y-94488000D01*
D27*
X166620371Y-83472000D02*
X168275000Y-83472000D01*
X164232000Y-83472000D02*
X166620371Y-83472000D01*
X160758000Y-88234000D02*
X160758000Y-88724000D01*
X157614000Y-85090000D02*
X160758000Y-88234000D01*
X156464000Y-85090000D02*
X157614000Y-85090000D01*
X164232000Y-83472000D02*
X164178000Y-83472000D01*
X160758000Y-88724000D02*
X160758000Y-89474000D01*
X160758000Y-86892000D02*
X160758000Y-88724000D01*
X164178000Y-83472000D02*
X160758000Y-86892000D01*
X166068000Y-94234000D02*
X166370000Y-94234000D01*
X160758000Y-89474000D02*
X161308000Y-89474000D01*
X161308000Y-89474000D02*
X166068000Y-94234000D01*
X166370000Y-108458000D02*
X168148000Y-110236000D01*
X166370000Y-96774000D02*
X166370000Y-108458000D01*
X157620000Y-41816000D02*
X157480000Y-41676000D01*
X168148000Y-41816000D02*
X157620000Y-41816000D01*
X154752000Y-44404000D02*
X154752000Y-53618000D01*
X157480000Y-41676000D02*
X154752000Y-44404000D01*
X154465000Y-53331000D02*
X154752000Y-53618000D01*
X150876000Y-53331000D02*
X154465000Y-53331000D01*
X168275000Y-68580000D02*
X164973000Y-65278000D01*
X164973000Y-65278000D02*
X156731000Y-65278000D01*
X154752000Y-64849000D02*
X154752000Y-53618000D01*
X155181000Y-65278000D02*
X154752000Y-64849000D01*
X122939629Y-51148000D02*
X127508000Y-46579629D01*
X121285000Y-51148000D02*
X122939629Y-51148000D01*
X127508000Y-46579629D02*
X127508000Y-42164000D01*
X128500000Y-41172000D02*
X130114000Y-41172000D01*
X127508000Y-42164000D02*
X128500000Y-41172000D01*
X121539000Y-57912000D02*
X121285000Y-57658000D01*
X126017000Y-55880000D02*
X132588000Y-55880000D01*
X121285000Y-51148000D02*
X126017000Y-55880000D01*
X121285000Y-57658000D02*
X121285000Y-51148000D01*
X123063000Y-55880000D02*
X132588000Y-55880000D01*
X121285000Y-57658000D02*
X123063000Y-55880000D01*
X125292000Y-80796000D02*
X129860000Y-80796000D01*
X121285000Y-84803000D02*
X125292000Y-80796000D01*
X122454999Y-85972999D02*
X121285000Y-84803000D01*
X122454999Y-90143001D02*
X122454999Y-85972999D01*
X121285000Y-91313000D02*
X122454999Y-90143001D01*
X124206000Y-88392000D02*
X129531000Y-88392000D01*
X121285000Y-91313000D02*
X124206000Y-88392000D01*
X151892000Y-45954000D02*
X151110000Y-46736000D01*
X151892000Y-39878000D02*
X151892000Y-45954000D01*
X151110000Y-46736000D02*
X149860000Y-46736000D01*
X154178000Y-37592000D02*
X151892000Y-39878000D01*
X160782000Y-38100000D02*
X159367787Y-38100000D01*
X159367787Y-38100000D02*
X158859787Y-37592000D01*
X158859787Y-37592000D02*
X154178000Y-37592000D01*
X160782000Y-35801000D02*
X160782000Y-33020000D01*
X149860000Y-44196000D02*
X149860000Y-41656000D01*
X168402000Y-33020000D02*
X168402000Y-38100000D01*
X166878000Y-33020000D02*
X164592000Y-35306000D01*
X168402000Y-33020000D02*
X166878000Y-33020000D01*
X167386000Y-38100000D02*
X168402000Y-38100000D01*
X164592000Y-35306000D02*
X167386000Y-38100000D01*
X149860000Y-37338000D02*
X149860000Y-39606000D01*
X150622000Y-36576000D02*
X149860000Y-37338000D01*
X164592000Y-35306000D02*
X163322000Y-36576000D01*
X163322000Y-36576000D02*
X150622000Y-36576000D01*
X160537000Y-51816000D02*
X160528000Y-51807000D01*
X168148000Y-51816000D02*
X160537000Y-51816000D01*
X160528000Y-51807000D02*
X160528000Y-50038000D01*
X159766000Y-49276000D02*
X157480000Y-49276000D01*
X160528000Y-50038000D02*
X159766000Y-49276000D01*
X168148000Y-50161371D02*
X168148000Y-46816000D01*
X168148000Y-51816000D02*
X168148000Y-50161371D01*
X165519000Y-46816000D02*
X160528000Y-51807000D01*
X168148000Y-46816000D02*
X165519000Y-46816000D01*
D29*
G36*
X133669145Y-72443146D02*
X134112000Y-72531235D01*
X134223783Y-72509000D01*
X144661000Y-72509000D01*
X144661001Y-113934212D01*
X144638765Y-114046000D01*
X144726854Y-114488855D01*
X144907000Y-114758463D01*
X144907000Y-117024006D01*
X144837944Y-116977864D01*
X144200000Y-116850969D01*
X143562055Y-116977864D01*
X143021231Y-117339231D01*
X142659864Y-117880056D01*
X142565000Y-118356970D01*
X142565000Y-120179031D01*
X142659865Y-120655945D01*
X143021232Y-121196769D01*
X143562056Y-121558136D01*
X144200000Y-121685031D01*
X144837945Y-121558136D01*
X144907000Y-121511995D01*
X144907000Y-122226000D01*
X140771396Y-122226000D01*
X140916534Y-122080862D01*
X141135000Y-121553439D01*
X141135000Y-120982561D01*
X140916534Y-120455138D01*
X140512862Y-120051466D01*
X140154434Y-119903000D01*
X140511031Y-119903000D01*
X140987945Y-119808136D01*
X141528769Y-119446769D01*
X141890136Y-118905945D01*
X142017031Y-118268000D01*
X141890136Y-117630055D01*
X141528769Y-117089231D01*
X140987945Y-116727864D01*
X140511031Y-116633000D01*
X138888969Y-116633000D01*
X138412055Y-116727864D01*
X137871231Y-117089231D01*
X137509864Y-117630055D01*
X137382969Y-118268000D01*
X137509864Y-118905945D01*
X137871231Y-119446769D01*
X138412055Y-119808136D01*
X138888969Y-119903000D01*
X139245566Y-119903000D01*
X138887138Y-120051466D01*
X138483466Y-120455138D01*
X138265000Y-120982561D01*
X138265000Y-121553439D01*
X138483466Y-122080862D01*
X138628604Y-122226000D01*
X120090000Y-122226000D01*
X120090000Y-121640239D01*
X120358847Y-121909086D01*
X120959778Y-122158000D01*
X121610222Y-122158000D01*
X122211153Y-121909086D01*
X122671086Y-121449153D01*
X122920000Y-120848222D01*
X122920000Y-120197778D01*
X127270000Y-120197778D01*
X127270000Y-120848222D01*
X127518914Y-121449153D01*
X127978847Y-121909086D01*
X128579778Y-122158000D01*
X129230222Y-122158000D01*
X129831153Y-121909086D01*
X130291086Y-121449153D01*
X130540000Y-120848222D01*
X130540000Y-120197778D01*
X130291086Y-119596847D01*
X129831153Y-119136914D01*
X129230222Y-118888000D01*
X128579778Y-118888000D01*
X127978847Y-119136914D01*
X127518914Y-119596847D01*
X127270000Y-120197778D01*
X122920000Y-120197778D01*
X122871888Y-120081625D01*
X124287513Y-118666000D01*
X129921323Y-118666000D01*
X130016362Y-118895444D01*
X130532556Y-119411638D01*
X131206996Y-119691000D01*
X131937004Y-119691000D01*
X132611444Y-119411638D01*
X133127638Y-118895444D01*
X133350681Y-118356970D01*
X133565000Y-118356970D01*
X133565000Y-120179031D01*
X133659865Y-120655945D01*
X134021232Y-121196769D01*
X134562056Y-121558136D01*
X135200000Y-121685031D01*
X135837945Y-121558136D01*
X136378769Y-121196769D01*
X136740136Y-120655945D01*
X136835000Y-120179031D01*
X136835000Y-118356969D01*
X136740136Y-117880055D01*
X136378769Y-117339231D01*
X135837944Y-116977864D01*
X135200000Y-116850969D01*
X134562055Y-116977864D01*
X134021231Y-117339231D01*
X133659864Y-117880056D01*
X133565000Y-118356970D01*
X133350681Y-118356970D01*
X133407000Y-118221004D01*
X133407000Y-117490996D01*
X133127638Y-116816556D01*
X132611444Y-116300362D01*
X132382000Y-116205323D01*
X132382000Y-116039440D01*
X132530001Y-116039440D01*
X132873436Y-115971127D01*
X133164586Y-115776586D01*
X133359127Y-115485436D01*
X133427440Y-115142001D01*
X133427440Y-114491999D01*
X133359127Y-114148564D01*
X133164586Y-113857414D01*
X133066687Y-113792000D01*
X133164586Y-113726586D01*
X133359127Y-113435436D01*
X133427440Y-113092001D01*
X133427440Y-112441999D01*
X133359127Y-112098564D01*
X133164586Y-111807414D01*
X132890000Y-111623941D01*
X132890000Y-111388059D01*
X133069680Y-111268000D01*
X137052560Y-111268000D01*
X137052560Y-113268000D01*
X137101843Y-113515765D01*
X137242191Y-113725809D01*
X137452235Y-113866157D01*
X137700000Y-113915440D01*
X141700000Y-113915440D01*
X141947765Y-113866157D01*
X142157809Y-113725809D01*
X142298157Y-113515765D01*
X142347440Y-113268000D01*
X142347440Y-111268000D01*
X142298157Y-111020235D01*
X142157809Y-110810191D01*
X141947765Y-110669843D01*
X141700000Y-110620560D01*
X141099018Y-110620560D01*
X143829156Y-107890423D01*
X143903049Y-107841049D01*
X144098652Y-107548310D01*
X144150000Y-107290165D01*
X144150000Y-107290161D01*
X144167337Y-107203001D01*
X144150000Y-107115841D01*
X144150000Y-103242423D01*
X144224586Y-103192586D01*
X144419127Y-102901436D01*
X144487440Y-102558001D01*
X144487440Y-101657999D01*
X144419127Y-101314564D01*
X144224586Y-101023414D01*
X144150000Y-100973577D01*
X144150000Y-100172159D01*
X144167337Y-100084999D01*
X144150000Y-99997839D01*
X144150000Y-99997835D01*
X144098652Y-99739690D01*
X143903049Y-99446951D01*
X143829156Y-99397577D01*
X142617000Y-98185422D01*
X142617000Y-95918533D01*
X142779765Y-95886157D01*
X142989809Y-95745809D01*
X143130157Y-95535765D01*
X143179440Y-95288000D01*
X143179440Y-93688000D01*
X143130157Y-93440235D01*
X142989809Y-93230191D01*
X142779765Y-93089843D01*
X142532000Y-93040560D01*
X140932000Y-93040560D01*
X140684235Y-93089843D01*
X140474191Y-93230191D01*
X140333843Y-93440235D01*
X140313899Y-93540503D01*
X140044862Y-93271466D01*
X139517439Y-93053000D01*
X138946561Y-93053000D01*
X138419138Y-93271466D01*
X138015466Y-93675138D01*
X137797000Y-94202561D01*
X137797000Y-94773439D01*
X138015466Y-95300862D01*
X138419138Y-95704534D01*
X138946561Y-95923000D01*
X139517439Y-95923000D01*
X140044862Y-95704534D01*
X140313899Y-95435497D01*
X140333843Y-95535765D01*
X140474191Y-95745809D01*
X140684235Y-95886157D01*
X140847001Y-95918533D01*
X140847000Y-98464839D01*
X140829663Y-98552000D01*
X140847000Y-98639161D01*
X140847000Y-98639164D01*
X140898348Y-98897309D01*
X141093951Y-99190049D01*
X141167847Y-99239425D01*
X142380000Y-100451579D01*
X142380000Y-100973577D01*
X142305414Y-101023414D01*
X142304623Y-101024597D01*
X142149698Y-100869673D01*
X141916309Y-100773000D01*
X141500750Y-100773000D01*
X141342000Y-100931750D01*
X141342000Y-101981000D01*
X141362000Y-101981000D01*
X141362000Y-102235000D01*
X141342000Y-102235000D01*
X141342000Y-103284250D01*
X141500750Y-103443000D01*
X141916309Y-103443000D01*
X142149698Y-103346327D01*
X142304623Y-103191403D01*
X142305414Y-103192586D01*
X142380001Y-103242424D01*
X142380000Y-106836421D01*
X139135845Y-110080577D01*
X139061952Y-110129951D01*
X139012578Y-110203844D01*
X139012576Y-110203846D01*
X138866348Y-110422691D01*
X138826990Y-110620560D01*
X137700000Y-110620560D01*
X137452235Y-110669843D01*
X137242191Y-110810191D01*
X137101843Y-111020235D01*
X137052560Y-111268000D01*
X133069680Y-111268000D01*
X133164586Y-111204586D01*
X133359127Y-110913436D01*
X133427440Y-110570001D01*
X133427440Y-109919999D01*
X133359127Y-109576564D01*
X133164586Y-109285414D01*
X133066687Y-109220000D01*
X133164586Y-109154586D01*
X133359127Y-108863436D01*
X133427440Y-108520001D01*
X133427440Y-107869999D01*
X133359127Y-107526564D01*
X133164586Y-107235414D01*
X132890000Y-107051941D01*
X132890000Y-106585578D01*
X134056577Y-107752156D01*
X134105951Y-107826049D01*
X134179844Y-107875423D01*
X134179845Y-107875424D01*
X134275122Y-107939086D01*
X134398690Y-108021652D01*
X134596560Y-108061011D01*
X134596560Y-108088000D01*
X134645843Y-108335765D01*
X134786191Y-108545809D01*
X134996235Y-108686157D01*
X135244000Y-108735440D01*
X137044000Y-108735440D01*
X137291765Y-108686157D01*
X137501809Y-108545809D01*
X137642157Y-108335765D01*
X137645275Y-108320092D01*
X137814493Y-108489310D01*
X138378670Y-108723000D01*
X138989330Y-108723000D01*
X139553507Y-108489310D01*
X139985310Y-108057507D01*
X140219000Y-107493330D01*
X140219000Y-106882670D01*
X139985310Y-106318493D01*
X139553507Y-105886690D01*
X139494000Y-105862041D01*
X139494000Y-104981772D01*
X139509868Y-104901999D01*
X139471686Y-104710045D01*
X139447003Y-104585954D01*
X139267977Y-104318023D01*
X139200347Y-104272834D01*
X138218027Y-103290514D01*
X138364586Y-103192586D01*
X138365377Y-103191403D01*
X138520302Y-103346327D01*
X138753691Y-103443000D01*
X139169250Y-103443000D01*
X139328000Y-103284250D01*
X139328000Y-102235000D01*
X139582000Y-102235000D01*
X139582000Y-103284250D01*
X139740750Y-103443000D01*
X140156309Y-103443000D01*
X140335000Y-103368984D01*
X140513691Y-103443000D01*
X140929250Y-103443000D01*
X141088000Y-103284250D01*
X141088000Y-102235000D01*
X139582000Y-102235000D01*
X139328000Y-102235000D01*
X139308000Y-102235000D01*
X139308000Y-101981000D01*
X139328000Y-101981000D01*
X139328000Y-100931750D01*
X139582000Y-100931750D01*
X139582000Y-101981000D01*
X141088000Y-101981000D01*
X141088000Y-100931750D01*
X140929250Y-100773000D01*
X140513691Y-100773000D01*
X140335000Y-100847016D01*
X140156309Y-100773000D01*
X139740750Y-100773000D01*
X139582000Y-100931750D01*
X139328000Y-100931750D01*
X139169250Y-100773000D01*
X138753691Y-100773000D01*
X138520302Y-100869673D01*
X138365377Y-101024597D01*
X138364586Y-101023414D01*
X138073436Y-100828873D01*
X137730001Y-100760560D01*
X137079999Y-100760560D01*
X136736564Y-100828873D01*
X136465811Y-101009785D01*
X136325698Y-100869673D01*
X136092309Y-100773000D01*
X135676750Y-100773000D01*
X135518000Y-100931750D01*
X135518000Y-101981000D01*
X135538000Y-101981000D01*
X135538000Y-102235000D01*
X135518000Y-102235000D01*
X135518000Y-103284250D01*
X135676750Y-103443000D01*
X136092309Y-103443000D01*
X136325698Y-103346327D01*
X136465811Y-103206215D01*
X136595000Y-103292537D01*
X136595000Y-103543226D01*
X136579132Y-103623000D01*
X136595000Y-103702773D01*
X136641997Y-103939045D01*
X136821023Y-104206977D01*
X136888656Y-104252168D01*
X137874001Y-105237514D01*
X137874001Y-105862041D01*
X137814493Y-105886690D01*
X137645275Y-106055908D01*
X137642157Y-106040235D01*
X137501809Y-105830191D01*
X137291765Y-105689843D01*
X137044000Y-105640560D01*
X135244000Y-105640560D01*
X134996235Y-105689843D01*
X134786191Y-105830191D01*
X134726741Y-105919163D01*
X134226000Y-105418422D01*
X134226000Y-103242423D01*
X134300586Y-103192586D01*
X134301377Y-103191403D01*
X134456302Y-103346327D01*
X134689691Y-103443000D01*
X135105250Y-103443000D01*
X135264000Y-103284250D01*
X135264000Y-102235000D01*
X135244000Y-102235000D01*
X135244000Y-101981000D01*
X135264000Y-101981000D01*
X135264000Y-100931750D01*
X135105250Y-100773000D01*
X134689691Y-100773000D01*
X134456302Y-100869673D01*
X134301377Y-101024597D01*
X134300586Y-101023414D01*
X134009436Y-100828873D01*
X133666001Y-100760560D01*
X133015999Y-100760560D01*
X132890000Y-100785623D01*
X132890000Y-91267512D01*
X133866347Y-90291166D01*
X133933977Y-90245977D01*
X134113003Y-89978046D01*
X134160000Y-89741774D01*
X134160000Y-89741773D01*
X134175868Y-89662001D01*
X134160000Y-89582228D01*
X134160000Y-87439431D01*
X138989000Y-87439431D01*
X138989000Y-88328569D01*
X139329259Y-89150026D01*
X139957974Y-89778741D01*
X140779431Y-90119000D01*
X141668569Y-90119000D01*
X142490026Y-89778741D01*
X143118741Y-89150026D01*
X143459000Y-88328569D01*
X143459000Y-87439431D01*
X143118741Y-86617974D01*
X142490026Y-85989259D01*
X141668569Y-85649000D01*
X140779431Y-85649000D01*
X139957974Y-85989259D01*
X139329259Y-86617974D01*
X138989000Y-87439431D01*
X134160000Y-87439431D01*
X134160000Y-81359769D01*
X134175867Y-81279999D01*
X134160000Y-81200230D01*
X134160000Y-81200226D01*
X134113003Y-80963954D01*
X133933977Y-80696023D01*
X133866344Y-80650832D01*
X133495168Y-80279656D01*
X133449977Y-80212023D01*
X133182046Y-80032997D01*
X132945774Y-79986000D01*
X132945773Y-79986000D01*
X132866000Y-79970132D01*
X132807440Y-79981780D01*
X132807440Y-79846000D01*
X132758157Y-79598235D01*
X132617809Y-79388191D01*
X132407765Y-79247843D01*
X132160000Y-79198560D01*
X131360000Y-79198560D01*
X131112235Y-79247843D01*
X130902191Y-79388191D01*
X130810000Y-79526164D01*
X130717809Y-79388191D01*
X130507765Y-79247843D01*
X130260000Y-79198560D01*
X129460000Y-79198560D01*
X129212235Y-79247843D01*
X129002191Y-79388191D01*
X128861843Y-79598235D01*
X128812560Y-79846000D01*
X128812560Y-79986000D01*
X125375512Y-79986000D01*
X128113762Y-77247750D01*
X128967000Y-77247750D01*
X128967000Y-77663309D01*
X129063673Y-77896698D01*
X129242301Y-78075327D01*
X129475690Y-78172000D01*
X130016250Y-78172000D01*
X130175000Y-78013250D01*
X130175000Y-77089000D01*
X130429000Y-77089000D01*
X130429000Y-78013250D01*
X130587750Y-78172000D01*
X131128310Y-78172000D01*
X131361699Y-78075327D01*
X131540327Y-77896698D01*
X131637000Y-77663309D01*
X131637000Y-77247750D01*
X131478250Y-77089000D01*
X130429000Y-77089000D01*
X130175000Y-77089000D01*
X129125750Y-77089000D01*
X128967000Y-77247750D01*
X128113762Y-77247750D01*
X128967000Y-76394513D01*
X128967000Y-76676250D01*
X129125750Y-76835000D01*
X130175000Y-76835000D01*
X130175000Y-76815000D01*
X130429000Y-76815000D01*
X130429000Y-76835000D01*
X131478250Y-76835000D01*
X131637000Y-76676250D01*
X131637000Y-76260691D01*
X131540327Y-76027302D01*
X131385403Y-75872377D01*
X131386586Y-75871586D01*
X131581127Y-75580436D01*
X131649440Y-75237001D01*
X131649440Y-74586999D01*
X131581127Y-74243564D01*
X131386586Y-73952414D01*
X131095436Y-73757873D01*
X130752001Y-73689560D01*
X129851999Y-73689560D01*
X129508564Y-73757873D01*
X129217414Y-73952414D01*
X129190295Y-73993000D01*
X122903205Y-73993000D01*
X122815205Y-73780550D01*
X122307450Y-73272795D01*
X121644037Y-72998000D01*
X120925963Y-72998000D01*
X120262550Y-73272795D01*
X120257531Y-73277814D01*
X120267730Y-72263000D01*
X133399537Y-72263000D01*
X133669145Y-72443146D01*
X133669145Y-72443146D01*
G37*
X133669145Y-72443146D02*
X134112000Y-72531235D01*
X134223783Y-72509000D01*
X144661000Y-72509000D01*
X144661001Y-113934212D01*
X144638765Y-114046000D01*
X144726854Y-114488855D01*
X144907000Y-114758463D01*
X144907000Y-117024006D01*
X144837944Y-116977864D01*
X144200000Y-116850969D01*
X143562055Y-116977864D01*
X143021231Y-117339231D01*
X142659864Y-117880056D01*
X142565000Y-118356970D01*
X142565000Y-120179031D01*
X142659865Y-120655945D01*
X143021232Y-121196769D01*
X143562056Y-121558136D01*
X144200000Y-121685031D01*
X144837945Y-121558136D01*
X144907000Y-121511995D01*
X144907000Y-122226000D01*
X140771396Y-122226000D01*
X140916534Y-122080862D01*
X141135000Y-121553439D01*
X141135000Y-120982561D01*
X140916534Y-120455138D01*
X140512862Y-120051466D01*
X140154434Y-119903000D01*
X140511031Y-119903000D01*
X140987945Y-119808136D01*
X141528769Y-119446769D01*
X141890136Y-118905945D01*
X142017031Y-118268000D01*
X141890136Y-117630055D01*
X141528769Y-117089231D01*
X140987945Y-116727864D01*
X140511031Y-116633000D01*
X138888969Y-116633000D01*
X138412055Y-116727864D01*
X137871231Y-117089231D01*
X137509864Y-117630055D01*
X137382969Y-118268000D01*
X137509864Y-118905945D01*
X137871231Y-119446769D01*
X138412055Y-119808136D01*
X138888969Y-119903000D01*
X139245566Y-119903000D01*
X138887138Y-120051466D01*
X138483466Y-120455138D01*
X138265000Y-120982561D01*
X138265000Y-121553439D01*
X138483466Y-122080862D01*
X138628604Y-122226000D01*
X120090000Y-122226000D01*
X120090000Y-121640239D01*
X120358847Y-121909086D01*
X120959778Y-122158000D01*
X121610222Y-122158000D01*
X122211153Y-121909086D01*
X122671086Y-121449153D01*
X122920000Y-120848222D01*
X122920000Y-120197778D01*
X127270000Y-120197778D01*
X127270000Y-120848222D01*
X127518914Y-121449153D01*
X127978847Y-121909086D01*
X128579778Y-122158000D01*
X129230222Y-122158000D01*
X129831153Y-121909086D01*
X130291086Y-121449153D01*
X130540000Y-120848222D01*
X130540000Y-120197778D01*
X130291086Y-119596847D01*
X129831153Y-119136914D01*
X129230222Y-118888000D01*
X128579778Y-118888000D01*
X127978847Y-119136914D01*
X127518914Y-119596847D01*
X127270000Y-120197778D01*
X122920000Y-120197778D01*
X122871888Y-120081625D01*
X124287513Y-118666000D01*
X129921323Y-118666000D01*
X130016362Y-118895444D01*
X130532556Y-119411638D01*
X131206996Y-119691000D01*
X131937004Y-119691000D01*
X132611444Y-119411638D01*
X133127638Y-118895444D01*
X133350681Y-118356970D01*
X133565000Y-118356970D01*
X133565000Y-120179031D01*
X133659865Y-120655945D01*
X134021232Y-121196769D01*
X134562056Y-121558136D01*
X135200000Y-121685031D01*
X135837945Y-121558136D01*
X136378769Y-121196769D01*
X136740136Y-120655945D01*
X136835000Y-120179031D01*
X136835000Y-118356969D01*
X136740136Y-117880055D01*
X136378769Y-117339231D01*
X135837944Y-116977864D01*
X135200000Y-116850969D01*
X134562055Y-116977864D01*
X134021231Y-117339231D01*
X133659864Y-117880056D01*
X133565000Y-118356970D01*
X133350681Y-118356970D01*
X133407000Y-118221004D01*
X133407000Y-117490996D01*
X133127638Y-116816556D01*
X132611444Y-116300362D01*
X132382000Y-116205323D01*
X132382000Y-116039440D01*
X132530001Y-116039440D01*
X132873436Y-115971127D01*
X133164586Y-115776586D01*
X133359127Y-115485436D01*
X133427440Y-115142001D01*
X133427440Y-114491999D01*
X133359127Y-114148564D01*
X133164586Y-113857414D01*
X133066687Y-113792000D01*
X133164586Y-113726586D01*
X133359127Y-113435436D01*
X133427440Y-113092001D01*
X133427440Y-112441999D01*
X133359127Y-112098564D01*
X133164586Y-111807414D01*
X132890000Y-111623941D01*
X132890000Y-111388059D01*
X133069680Y-111268000D01*
X137052560Y-111268000D01*
X137052560Y-113268000D01*
X137101843Y-113515765D01*
X137242191Y-113725809D01*
X137452235Y-113866157D01*
X137700000Y-113915440D01*
X141700000Y-113915440D01*
X141947765Y-113866157D01*
X142157809Y-113725809D01*
X142298157Y-113515765D01*
X142347440Y-113268000D01*
X142347440Y-111268000D01*
X142298157Y-111020235D01*
X142157809Y-110810191D01*
X141947765Y-110669843D01*
X141700000Y-110620560D01*
X141099018Y-110620560D01*
X143829156Y-107890423D01*
X143903049Y-107841049D01*
X144098652Y-107548310D01*
X144150000Y-107290165D01*
X144150000Y-107290161D01*
X144167337Y-107203001D01*
X144150000Y-107115841D01*
X144150000Y-103242423D01*
X144224586Y-103192586D01*
X144419127Y-102901436D01*
X144487440Y-102558001D01*
X144487440Y-101657999D01*
X144419127Y-101314564D01*
X144224586Y-101023414D01*
X144150000Y-100973577D01*
X144150000Y-100172159D01*
X144167337Y-100084999D01*
X144150000Y-99997839D01*
X144150000Y-99997835D01*
X144098652Y-99739690D01*
X143903049Y-99446951D01*
X143829156Y-99397577D01*
X142617000Y-98185422D01*
X142617000Y-95918533D01*
X142779765Y-95886157D01*
X142989809Y-95745809D01*
X143130157Y-95535765D01*
X143179440Y-95288000D01*
X143179440Y-93688000D01*
X143130157Y-93440235D01*
X142989809Y-93230191D01*
X142779765Y-93089843D01*
X142532000Y-93040560D01*
X140932000Y-93040560D01*
X140684235Y-93089843D01*
X140474191Y-93230191D01*
X140333843Y-93440235D01*
X140313899Y-93540503D01*
X140044862Y-93271466D01*
X139517439Y-93053000D01*
X138946561Y-93053000D01*
X138419138Y-93271466D01*
X138015466Y-93675138D01*
X137797000Y-94202561D01*
X137797000Y-94773439D01*
X138015466Y-95300862D01*
X138419138Y-95704534D01*
X138946561Y-95923000D01*
X139517439Y-95923000D01*
X140044862Y-95704534D01*
X140313899Y-95435497D01*
X140333843Y-95535765D01*
X140474191Y-95745809D01*
X140684235Y-95886157D01*
X140847001Y-95918533D01*
X140847000Y-98464839D01*
X140829663Y-98552000D01*
X140847000Y-98639161D01*
X140847000Y-98639164D01*
X140898348Y-98897309D01*
X141093951Y-99190049D01*
X141167847Y-99239425D01*
X142380000Y-100451579D01*
X142380000Y-100973577D01*
X142305414Y-101023414D01*
X142304623Y-101024597D01*
X142149698Y-100869673D01*
X141916309Y-100773000D01*
X141500750Y-100773000D01*
X141342000Y-100931750D01*
X141342000Y-101981000D01*
X141362000Y-101981000D01*
X141362000Y-102235000D01*
X141342000Y-102235000D01*
X141342000Y-103284250D01*
X141500750Y-103443000D01*
X141916309Y-103443000D01*
X142149698Y-103346327D01*
X142304623Y-103191403D01*
X142305414Y-103192586D01*
X142380001Y-103242424D01*
X142380000Y-106836421D01*
X139135845Y-110080577D01*
X139061952Y-110129951D01*
X139012578Y-110203844D01*
X139012576Y-110203846D01*
X138866348Y-110422691D01*
X138826990Y-110620560D01*
X137700000Y-110620560D01*
X137452235Y-110669843D01*
X137242191Y-110810191D01*
X137101843Y-111020235D01*
X137052560Y-111268000D01*
X133069680Y-111268000D01*
X133164586Y-111204586D01*
X133359127Y-110913436D01*
X133427440Y-110570001D01*
X133427440Y-109919999D01*
X133359127Y-109576564D01*
X133164586Y-109285414D01*
X133066687Y-109220000D01*
X133164586Y-109154586D01*
X133359127Y-108863436D01*
X133427440Y-108520001D01*
X133427440Y-107869999D01*
X133359127Y-107526564D01*
X133164586Y-107235414D01*
X132890000Y-107051941D01*
X132890000Y-106585578D01*
X134056577Y-107752156D01*
X134105951Y-107826049D01*
X134179844Y-107875423D01*
X134179845Y-107875424D01*
X134275122Y-107939086D01*
X134398690Y-108021652D01*
X134596560Y-108061011D01*
X134596560Y-108088000D01*
X134645843Y-108335765D01*
X134786191Y-108545809D01*
X134996235Y-108686157D01*
X135244000Y-108735440D01*
X137044000Y-108735440D01*
X137291765Y-108686157D01*
X137501809Y-108545809D01*
X137642157Y-108335765D01*
X137645275Y-108320092D01*
X137814493Y-108489310D01*
X138378670Y-108723000D01*
X138989330Y-108723000D01*
X139553507Y-108489310D01*
X139985310Y-108057507D01*
X140219000Y-107493330D01*
X140219000Y-106882670D01*
X139985310Y-106318493D01*
X139553507Y-105886690D01*
X139494000Y-105862041D01*
X139494000Y-104981772D01*
X139509868Y-104901999D01*
X139471686Y-104710045D01*
X139447003Y-104585954D01*
X139267977Y-104318023D01*
X139200347Y-104272834D01*
X138218027Y-103290514D01*
X138364586Y-103192586D01*
X138365377Y-103191403D01*
X138520302Y-103346327D01*
X138753691Y-103443000D01*
X139169250Y-103443000D01*
X139328000Y-103284250D01*
X139328000Y-102235000D01*
X139582000Y-102235000D01*
X139582000Y-103284250D01*
X139740750Y-103443000D01*
X140156309Y-103443000D01*
X140335000Y-103368984D01*
X140513691Y-103443000D01*
X140929250Y-103443000D01*
X141088000Y-103284250D01*
X141088000Y-102235000D01*
X139582000Y-102235000D01*
X139328000Y-102235000D01*
X139308000Y-102235000D01*
X139308000Y-101981000D01*
X139328000Y-101981000D01*
X139328000Y-100931750D01*
X139582000Y-100931750D01*
X139582000Y-101981000D01*
X141088000Y-101981000D01*
X141088000Y-100931750D01*
X140929250Y-100773000D01*
X140513691Y-100773000D01*
X140335000Y-100847016D01*
X140156309Y-100773000D01*
X139740750Y-100773000D01*
X139582000Y-100931750D01*
X139328000Y-100931750D01*
X139169250Y-100773000D01*
X138753691Y-100773000D01*
X138520302Y-100869673D01*
X138365377Y-101024597D01*
X138364586Y-101023414D01*
X138073436Y-100828873D01*
X137730001Y-100760560D01*
X137079999Y-100760560D01*
X136736564Y-100828873D01*
X136465811Y-101009785D01*
X136325698Y-100869673D01*
X136092309Y-100773000D01*
X135676750Y-100773000D01*
X135518000Y-100931750D01*
X135518000Y-101981000D01*
X135538000Y-101981000D01*
X135538000Y-102235000D01*
X135518000Y-102235000D01*
X135518000Y-103284250D01*
X135676750Y-103443000D01*
X136092309Y-103443000D01*
X136325698Y-103346327D01*
X136465811Y-103206215D01*
X136595000Y-103292537D01*
X136595000Y-103543226D01*
X136579132Y-103623000D01*
X136595000Y-103702773D01*
X136641997Y-103939045D01*
X136821023Y-104206977D01*
X136888656Y-104252168D01*
X137874001Y-105237514D01*
X137874001Y-105862041D01*
X137814493Y-105886690D01*
X137645275Y-106055908D01*
X137642157Y-106040235D01*
X137501809Y-105830191D01*
X137291765Y-105689843D01*
X137044000Y-105640560D01*
X135244000Y-105640560D01*
X134996235Y-105689843D01*
X134786191Y-105830191D01*
X134726741Y-105919163D01*
X134226000Y-105418422D01*
X134226000Y-103242423D01*
X134300586Y-103192586D01*
X134301377Y-103191403D01*
X134456302Y-103346327D01*
X134689691Y-103443000D01*
X135105250Y-103443000D01*
X135264000Y-103284250D01*
X135264000Y-102235000D01*
X135244000Y-102235000D01*
X135244000Y-101981000D01*
X135264000Y-101981000D01*
X135264000Y-100931750D01*
X135105250Y-100773000D01*
X134689691Y-100773000D01*
X134456302Y-100869673D01*
X134301377Y-101024597D01*
X134300586Y-101023414D01*
X134009436Y-100828873D01*
X133666001Y-100760560D01*
X133015999Y-100760560D01*
X132890000Y-100785623D01*
X132890000Y-91267512D01*
X133866347Y-90291166D01*
X133933977Y-90245977D01*
X134113003Y-89978046D01*
X134160000Y-89741774D01*
X134160000Y-89741773D01*
X134175868Y-89662001D01*
X134160000Y-89582228D01*
X134160000Y-87439431D01*
X138989000Y-87439431D01*
X138989000Y-88328569D01*
X139329259Y-89150026D01*
X139957974Y-89778741D01*
X140779431Y-90119000D01*
X141668569Y-90119000D01*
X142490026Y-89778741D01*
X143118741Y-89150026D01*
X143459000Y-88328569D01*
X143459000Y-87439431D01*
X143118741Y-86617974D01*
X142490026Y-85989259D01*
X141668569Y-85649000D01*
X140779431Y-85649000D01*
X139957974Y-85989259D01*
X139329259Y-86617974D01*
X138989000Y-87439431D01*
X134160000Y-87439431D01*
X134160000Y-81359769D01*
X134175867Y-81279999D01*
X134160000Y-81200230D01*
X134160000Y-81200226D01*
X134113003Y-80963954D01*
X133933977Y-80696023D01*
X133866344Y-80650832D01*
X133495168Y-80279656D01*
X133449977Y-80212023D01*
X133182046Y-80032997D01*
X132945774Y-79986000D01*
X132945773Y-79986000D01*
X132866000Y-79970132D01*
X132807440Y-79981780D01*
X132807440Y-79846000D01*
X132758157Y-79598235D01*
X132617809Y-79388191D01*
X132407765Y-79247843D01*
X132160000Y-79198560D01*
X131360000Y-79198560D01*
X131112235Y-79247843D01*
X130902191Y-79388191D01*
X130810000Y-79526164D01*
X130717809Y-79388191D01*
X130507765Y-79247843D01*
X130260000Y-79198560D01*
X129460000Y-79198560D01*
X129212235Y-79247843D01*
X129002191Y-79388191D01*
X128861843Y-79598235D01*
X128812560Y-79846000D01*
X128812560Y-79986000D01*
X125375512Y-79986000D01*
X128113762Y-77247750D01*
X128967000Y-77247750D01*
X128967000Y-77663309D01*
X129063673Y-77896698D01*
X129242301Y-78075327D01*
X129475690Y-78172000D01*
X130016250Y-78172000D01*
X130175000Y-78013250D01*
X130175000Y-77089000D01*
X130429000Y-77089000D01*
X130429000Y-78013250D01*
X130587750Y-78172000D01*
X131128310Y-78172000D01*
X131361699Y-78075327D01*
X131540327Y-77896698D01*
X131637000Y-77663309D01*
X131637000Y-77247750D01*
X131478250Y-77089000D01*
X130429000Y-77089000D01*
X130175000Y-77089000D01*
X129125750Y-77089000D01*
X128967000Y-77247750D01*
X128113762Y-77247750D01*
X128967000Y-76394513D01*
X128967000Y-76676250D01*
X129125750Y-76835000D01*
X130175000Y-76835000D01*
X130175000Y-76815000D01*
X130429000Y-76815000D01*
X130429000Y-76835000D01*
X131478250Y-76835000D01*
X131637000Y-76676250D01*
X131637000Y-76260691D01*
X131540327Y-76027302D01*
X131385403Y-75872377D01*
X131386586Y-75871586D01*
X131581127Y-75580436D01*
X131649440Y-75237001D01*
X131649440Y-74586999D01*
X131581127Y-74243564D01*
X131386586Y-73952414D01*
X131095436Y-73757873D01*
X130752001Y-73689560D01*
X129851999Y-73689560D01*
X129508564Y-73757873D01*
X129217414Y-73952414D01*
X129190295Y-73993000D01*
X122903205Y-73993000D01*
X122815205Y-73780550D01*
X122307450Y-73272795D01*
X121644037Y-72998000D01*
X120925963Y-72998000D01*
X120262550Y-73272795D01*
X120257531Y-73277814D01*
X120267730Y-72263000D01*
X133399537Y-72263000D01*
X133669145Y-72443146D01*
G36*
X127391914Y-23965847D02*
X127143000Y-24566778D01*
X127143000Y-25217222D01*
X127391914Y-25818153D01*
X127851847Y-26278086D01*
X128452778Y-26527000D01*
X129103222Y-26527000D01*
X129704153Y-26278086D01*
X130164086Y-25818153D01*
X130413000Y-25217222D01*
X130413000Y-24566778D01*
X130164086Y-23965847D01*
X129768239Y-23570000D01*
X144905900Y-23570000D01*
X144867758Y-30588268D01*
X144726854Y-30799145D01*
X144638765Y-31242000D01*
X144661000Y-31353783D01*
X144661001Y-68631416D01*
X144655025Y-69731000D01*
X134223783Y-69731000D01*
X134112000Y-69708765D01*
X134000217Y-69731000D01*
X133669145Y-69796854D01*
X133399537Y-69977000D01*
X120090000Y-69977000D01*
X120090000Y-69015655D01*
X120262550Y-69188205D01*
X120925963Y-69463000D01*
X121644037Y-69463000D01*
X122307450Y-69188205D01*
X122815205Y-68680450D01*
X123090000Y-68017037D01*
X123090000Y-67298963D01*
X122815205Y-66635550D01*
X122307450Y-66127795D01*
X122248631Y-66103431D01*
X139243000Y-66103431D01*
X139243000Y-66992569D01*
X139583259Y-67814026D01*
X140211974Y-68442741D01*
X141033431Y-68783000D01*
X141922569Y-68783000D01*
X142744026Y-68442741D01*
X143372741Y-67814026D01*
X143713000Y-66992569D01*
X143713000Y-66103431D01*
X143372741Y-65281974D01*
X142744026Y-64653259D01*
X141922569Y-64313000D01*
X141033431Y-64313000D01*
X140211974Y-64653259D01*
X139583259Y-65281974D01*
X139243000Y-66103431D01*
X122248631Y-66103431D01*
X121644037Y-65853000D01*
X120925963Y-65853000D01*
X120262550Y-66127795D01*
X120090000Y-66300345D01*
X120090000Y-64015655D01*
X120262550Y-64188205D01*
X120925963Y-64463000D01*
X121644037Y-64463000D01*
X122307450Y-64188205D01*
X122815205Y-63680450D01*
X122903205Y-63468000D01*
X130556227Y-63468000D01*
X130636000Y-63483868D01*
X130715773Y-63468000D01*
X130715774Y-63468000D01*
X130952046Y-63421003D01*
X131219977Y-63241977D01*
X131265168Y-63174344D01*
X134628344Y-59811168D01*
X134695977Y-59765977D01*
X134875003Y-59498046D01*
X134922000Y-59261774D01*
X134922000Y-59261770D01*
X134937867Y-59182001D01*
X134922000Y-59102231D01*
X134922000Y-51556250D01*
X135010000Y-51468250D01*
X135010000Y-50419000D01*
X135264000Y-50419000D01*
X135264000Y-51468250D01*
X135422750Y-51627000D01*
X135838309Y-51627000D01*
X136071698Y-51530327D01*
X136250327Y-51351699D01*
X136347000Y-51118310D01*
X136347000Y-50577750D01*
X136188250Y-50419000D01*
X135264000Y-50419000D01*
X135010000Y-50419000D01*
X134990000Y-50419000D01*
X134990000Y-50165000D01*
X135010000Y-50165000D01*
X135010000Y-50145000D01*
X135264000Y-50145000D01*
X135264000Y-50165000D01*
X136188250Y-50165000D01*
X136347000Y-50006250D01*
X136347000Y-49465690D01*
X136250327Y-49232301D01*
X136071698Y-49053673D01*
X135838309Y-48957000D01*
X135598512Y-48957000D01*
X139048513Y-45507000D01*
X139143874Y-45507000D01*
X139524280Y-45349431D01*
X139815431Y-45058280D01*
X139973000Y-44677874D01*
X139973000Y-44466775D01*
X140007046Y-44460003D01*
X140274977Y-44280977D01*
X140320168Y-44213344D01*
X141486347Y-43047166D01*
X141553977Y-43001977D01*
X141733003Y-42734046D01*
X141780000Y-42497774D01*
X141795868Y-42418001D01*
X141780000Y-42338228D01*
X141780000Y-33607768D01*
X141795867Y-33527999D01*
X141780000Y-33448230D01*
X141780000Y-33448226D01*
X141733003Y-33211954D01*
X141553977Y-32944023D01*
X141486345Y-32898833D01*
X141091168Y-32503656D01*
X141045977Y-32436023D01*
X140778046Y-32256997D01*
X140541774Y-32210000D01*
X140541773Y-32210000D01*
X140462000Y-32194132D01*
X140382227Y-32210000D01*
X140090059Y-32210000D01*
X139906586Y-31935414D01*
X139615436Y-31740873D01*
X139272001Y-31672560D01*
X138621999Y-31672560D01*
X138278564Y-31740873D01*
X137987414Y-31935414D01*
X137922000Y-32033313D01*
X137856586Y-31935414D01*
X137565436Y-31740873D01*
X137222001Y-31672560D01*
X136571999Y-31672560D01*
X136228564Y-31740873D01*
X135937414Y-31935414D01*
X135841088Y-32079575D01*
X133819961Y-30058449D01*
X133915000Y-29829004D01*
X133915000Y-29098996D01*
X133635638Y-28424556D01*
X133312116Y-28101034D01*
X133413431Y-28143000D01*
X134302569Y-28143000D01*
X135124026Y-27802741D01*
X135752741Y-27174026D01*
X135797074Y-27066996D01*
X137413000Y-27066996D01*
X137413000Y-27797004D01*
X137692362Y-28471444D01*
X138208556Y-28987638D01*
X138882996Y-29267000D01*
X139613004Y-29267000D01*
X140287444Y-28987638D01*
X140803638Y-28471444D01*
X140913000Y-28207421D01*
X140913000Y-28758310D01*
X141009673Y-28991699D01*
X141188302Y-29170327D01*
X141421691Y-29267000D01*
X142462250Y-29267000D01*
X142621000Y-29108250D01*
X142621000Y-27559000D01*
X142875000Y-27559000D01*
X142875000Y-29108250D01*
X143033750Y-29267000D01*
X144074309Y-29267000D01*
X144307698Y-29170327D01*
X144486327Y-28991699D01*
X144583000Y-28758310D01*
X144583000Y-27717750D01*
X144424250Y-27559000D01*
X142875000Y-27559000D01*
X142621000Y-27559000D01*
X142601000Y-27559000D01*
X142601000Y-27305000D01*
X142621000Y-27305000D01*
X142621000Y-25755750D01*
X142875000Y-25755750D01*
X142875000Y-27305000D01*
X144424250Y-27305000D01*
X144583000Y-27146250D01*
X144583000Y-26105690D01*
X144486327Y-25872301D01*
X144307698Y-25693673D01*
X144074309Y-25597000D01*
X143033750Y-25597000D01*
X142875000Y-25755750D01*
X142621000Y-25755750D01*
X142462250Y-25597000D01*
X141421691Y-25597000D01*
X141188302Y-25693673D01*
X141009673Y-25872301D01*
X140913000Y-26105690D01*
X140913000Y-26656579D01*
X140803638Y-26392556D01*
X140287444Y-25876362D01*
X139613004Y-25597000D01*
X138882996Y-25597000D01*
X138208556Y-25876362D01*
X137692362Y-26392556D01*
X137413000Y-27066996D01*
X135797074Y-27066996D01*
X136093000Y-26352569D01*
X136093000Y-25463431D01*
X135752741Y-24641974D01*
X135124026Y-24013259D01*
X134302569Y-23673000D01*
X133413431Y-23673000D01*
X132591974Y-24013259D01*
X131963259Y-24641974D01*
X131623000Y-25463431D01*
X131623000Y-26352569D01*
X131963259Y-27174026D01*
X132418233Y-27629000D01*
X131714996Y-27629000D01*
X131485551Y-27724039D01*
X130677168Y-26915656D01*
X130631977Y-26848023D01*
X130364046Y-26668997D01*
X130127774Y-26622000D01*
X130127773Y-26622000D01*
X130048000Y-26606132D01*
X129968227Y-26622000D01*
X123777769Y-26622000D01*
X123697999Y-26606133D01*
X123618230Y-26622000D01*
X123618226Y-26622000D01*
X123381954Y-26668997D01*
X123114023Y-26848023D01*
X123068834Y-26915653D01*
X121968000Y-28016487D01*
X121968000Y-26326198D01*
X122084153Y-26278086D01*
X122544086Y-25818153D01*
X122793000Y-25217222D01*
X122793000Y-24566778D01*
X122544086Y-23965847D01*
X122148239Y-23570000D01*
X127787761Y-23570000D01*
X127391914Y-23965847D01*
X127391914Y-23965847D01*
G37*
X127391914Y-23965847D02*
X127143000Y-24566778D01*
X127143000Y-25217222D01*
X127391914Y-25818153D01*
X127851847Y-26278086D01*
X128452778Y-26527000D01*
X129103222Y-26527000D01*
X129704153Y-26278086D01*
X130164086Y-25818153D01*
X130413000Y-25217222D01*
X130413000Y-24566778D01*
X130164086Y-23965847D01*
X129768239Y-23570000D01*
X144905900Y-23570000D01*
X144867758Y-30588268D01*
X144726854Y-30799145D01*
X144638765Y-31242000D01*
X144661000Y-31353783D01*
X144661001Y-68631416D01*
X144655025Y-69731000D01*
X134223783Y-69731000D01*
X134112000Y-69708765D01*
X134000217Y-69731000D01*
X133669145Y-69796854D01*
X133399537Y-69977000D01*
X120090000Y-69977000D01*
X120090000Y-69015655D01*
X120262550Y-69188205D01*
X120925963Y-69463000D01*
X121644037Y-69463000D01*
X122307450Y-69188205D01*
X122815205Y-68680450D01*
X123090000Y-68017037D01*
X123090000Y-67298963D01*
X122815205Y-66635550D01*
X122307450Y-66127795D01*
X122248631Y-66103431D01*
X139243000Y-66103431D01*
X139243000Y-66992569D01*
X139583259Y-67814026D01*
X140211974Y-68442741D01*
X141033431Y-68783000D01*
X141922569Y-68783000D01*
X142744026Y-68442741D01*
X143372741Y-67814026D01*
X143713000Y-66992569D01*
X143713000Y-66103431D01*
X143372741Y-65281974D01*
X142744026Y-64653259D01*
X141922569Y-64313000D01*
X141033431Y-64313000D01*
X140211974Y-64653259D01*
X139583259Y-65281974D01*
X139243000Y-66103431D01*
X122248631Y-66103431D01*
X121644037Y-65853000D01*
X120925963Y-65853000D01*
X120262550Y-66127795D01*
X120090000Y-66300345D01*
X120090000Y-64015655D01*
X120262550Y-64188205D01*
X120925963Y-64463000D01*
X121644037Y-64463000D01*
X122307450Y-64188205D01*
X122815205Y-63680450D01*
X122903205Y-63468000D01*
X130556227Y-63468000D01*
X130636000Y-63483868D01*
X130715773Y-63468000D01*
X130715774Y-63468000D01*
X130952046Y-63421003D01*
X131219977Y-63241977D01*
X131265168Y-63174344D01*
X134628344Y-59811168D01*
X134695977Y-59765977D01*
X134875003Y-59498046D01*
X134922000Y-59261774D01*
X134922000Y-59261770D01*
X134937867Y-59182001D01*
X134922000Y-59102231D01*
X134922000Y-51556250D01*
X135010000Y-51468250D01*
X135010000Y-50419000D01*
X135264000Y-50419000D01*
X135264000Y-51468250D01*
X135422750Y-51627000D01*
X135838309Y-51627000D01*
X136071698Y-51530327D01*
X136250327Y-51351699D01*
X136347000Y-51118310D01*
X136347000Y-50577750D01*
X136188250Y-50419000D01*
X135264000Y-50419000D01*
X135010000Y-50419000D01*
X134990000Y-50419000D01*
X134990000Y-50165000D01*
X135010000Y-50165000D01*
X135010000Y-50145000D01*
X135264000Y-50145000D01*
X135264000Y-50165000D01*
X136188250Y-50165000D01*
X136347000Y-50006250D01*
X136347000Y-49465690D01*
X136250327Y-49232301D01*
X136071698Y-49053673D01*
X135838309Y-48957000D01*
X135598512Y-48957000D01*
X139048513Y-45507000D01*
X139143874Y-45507000D01*
X139524280Y-45349431D01*
X139815431Y-45058280D01*
X139973000Y-44677874D01*
X139973000Y-44466775D01*
X140007046Y-44460003D01*
X140274977Y-44280977D01*
X140320168Y-44213344D01*
X141486347Y-43047166D01*
X141553977Y-43001977D01*
X141733003Y-42734046D01*
X141780000Y-42497774D01*
X141795868Y-42418001D01*
X141780000Y-42338228D01*
X141780000Y-33607768D01*
X141795867Y-33527999D01*
X141780000Y-33448230D01*
X141780000Y-33448226D01*
X141733003Y-33211954D01*
X141553977Y-32944023D01*
X141486345Y-32898833D01*
X141091168Y-32503656D01*
X141045977Y-32436023D01*
X140778046Y-32256997D01*
X140541774Y-32210000D01*
X140541773Y-32210000D01*
X140462000Y-32194132D01*
X140382227Y-32210000D01*
X140090059Y-32210000D01*
X139906586Y-31935414D01*
X139615436Y-31740873D01*
X139272001Y-31672560D01*
X138621999Y-31672560D01*
X138278564Y-31740873D01*
X137987414Y-31935414D01*
X137922000Y-32033313D01*
X137856586Y-31935414D01*
X137565436Y-31740873D01*
X137222001Y-31672560D01*
X136571999Y-31672560D01*
X136228564Y-31740873D01*
X135937414Y-31935414D01*
X135841088Y-32079575D01*
X133819961Y-30058449D01*
X133915000Y-29829004D01*
X133915000Y-29098996D01*
X133635638Y-28424556D01*
X133312116Y-28101034D01*
X133413431Y-28143000D01*
X134302569Y-28143000D01*
X135124026Y-27802741D01*
X135752741Y-27174026D01*
X135797074Y-27066996D01*
X137413000Y-27066996D01*
X137413000Y-27797004D01*
X137692362Y-28471444D01*
X138208556Y-28987638D01*
X138882996Y-29267000D01*
X139613004Y-29267000D01*
X140287444Y-28987638D01*
X140803638Y-28471444D01*
X140913000Y-28207421D01*
X140913000Y-28758310D01*
X141009673Y-28991699D01*
X141188302Y-29170327D01*
X141421691Y-29267000D01*
X142462250Y-29267000D01*
X142621000Y-29108250D01*
X142621000Y-27559000D01*
X142875000Y-27559000D01*
X142875000Y-29108250D01*
X143033750Y-29267000D01*
X144074309Y-29267000D01*
X144307698Y-29170327D01*
X144486327Y-28991699D01*
X144583000Y-28758310D01*
X144583000Y-27717750D01*
X144424250Y-27559000D01*
X142875000Y-27559000D01*
X142621000Y-27559000D01*
X142601000Y-27559000D01*
X142601000Y-27305000D01*
X142621000Y-27305000D01*
X142621000Y-25755750D01*
X142875000Y-25755750D01*
X142875000Y-27305000D01*
X144424250Y-27305000D01*
X144583000Y-27146250D01*
X144583000Y-26105690D01*
X144486327Y-25872301D01*
X144307698Y-25693673D01*
X144074309Y-25597000D01*
X143033750Y-25597000D01*
X142875000Y-25755750D01*
X142621000Y-25755750D01*
X142462250Y-25597000D01*
X141421691Y-25597000D01*
X141188302Y-25693673D01*
X141009673Y-25872301D01*
X140913000Y-26105690D01*
X140913000Y-26656579D01*
X140803638Y-26392556D01*
X140287444Y-25876362D01*
X139613004Y-25597000D01*
X138882996Y-25597000D01*
X138208556Y-25876362D01*
X137692362Y-26392556D01*
X137413000Y-27066996D01*
X135797074Y-27066996D01*
X136093000Y-26352569D01*
X136093000Y-25463431D01*
X135752741Y-24641974D01*
X135124026Y-24013259D01*
X134302569Y-23673000D01*
X133413431Y-23673000D01*
X132591974Y-24013259D01*
X131963259Y-24641974D01*
X131623000Y-25463431D01*
X131623000Y-26352569D01*
X131963259Y-27174026D01*
X132418233Y-27629000D01*
X131714996Y-27629000D01*
X131485551Y-27724039D01*
X130677168Y-26915656D01*
X130631977Y-26848023D01*
X130364046Y-26668997D01*
X130127774Y-26622000D01*
X130127773Y-26622000D01*
X130048000Y-26606132D01*
X129968227Y-26622000D01*
X123777769Y-26622000D01*
X123697999Y-26606133D01*
X123618230Y-26622000D01*
X123618226Y-26622000D01*
X123381954Y-26668997D01*
X123114023Y-26848023D01*
X123068834Y-26915653D01*
X121968000Y-28016487D01*
X121968000Y-26326198D01*
X122084153Y-26278086D01*
X122544086Y-25818153D01*
X122793000Y-25217222D01*
X122793000Y-24566778D01*
X122544086Y-23965847D01*
X122148239Y-23570000D01*
X127787761Y-23570000D01*
X127391914Y-23965847D01*
G36*
X147875414Y-34612586D02*
X148166564Y-34807127D01*
X148509999Y-34875440D01*
X149036928Y-34875440D01*
X150107252Y-35945765D01*
X150038023Y-35992023D01*
X149992834Y-36059653D01*
X149343656Y-36708832D01*
X149276023Y-36754023D01*
X149096997Y-37021955D01*
X149073318Y-37141000D01*
X149034132Y-37338000D01*
X149050000Y-37417773D01*
X149050000Y-38462940D01*
X148775414Y-38646414D01*
X148580873Y-38937564D01*
X148512560Y-39280999D01*
X148512560Y-39931001D01*
X148580873Y-40274436D01*
X148775414Y-40565586D01*
X148873313Y-40631000D01*
X148775414Y-40696414D01*
X148580873Y-40987564D01*
X148512560Y-41330999D01*
X148512560Y-41981001D01*
X148580873Y-42324436D01*
X148775414Y-42615586D01*
X149050001Y-42799060D01*
X149050001Y-42870041D01*
X148990493Y-42894690D01*
X148558690Y-43326493D01*
X148325000Y-43890670D01*
X148325000Y-44501330D01*
X148558690Y-45065507D01*
X148727908Y-45234725D01*
X148712235Y-45237843D01*
X148502191Y-45378191D01*
X148361843Y-45588235D01*
X148312560Y-45836000D01*
X148312560Y-47636000D01*
X148361843Y-47883765D01*
X148502191Y-48093809D01*
X148712235Y-48234157D01*
X148960000Y-48283440D01*
X150760000Y-48283440D01*
X151007765Y-48234157D01*
X151217809Y-48093809D01*
X151358157Y-47883765D01*
X151407440Y-47636000D01*
X151407440Y-47502704D01*
X151426046Y-47499003D01*
X151693977Y-47319977D01*
X151739168Y-47252344D01*
X152408347Y-46583166D01*
X152475977Y-46537977D01*
X152655003Y-46270046D01*
X152702000Y-46033774D01*
X152717868Y-45954001D01*
X152702000Y-45874228D01*
X152702000Y-40213512D01*
X154413000Y-38502513D01*
X154413000Y-38572884D01*
X154570569Y-38953290D01*
X154607993Y-38990714D01*
X154607992Y-41988281D01*
X154540561Y-42055712D01*
X154382992Y-42436118D01*
X154382992Y-42847866D01*
X154540561Y-43228272D01*
X154661388Y-43349099D01*
X154235656Y-43774832D01*
X154168023Y-43820023D01*
X153988997Y-44087955D01*
X153951638Y-44275773D01*
X153926132Y-44404000D01*
X153942000Y-44483773D01*
X153942001Y-52178245D01*
X153894191Y-52210191D01*
X153753843Y-52420235D01*
X153733800Y-52521000D01*
X152060537Y-52521000D01*
X151960586Y-52371414D01*
X151669436Y-52176873D01*
X151326001Y-52108560D01*
X150425999Y-52108560D01*
X150082564Y-52176873D01*
X149791414Y-52371414D01*
X149596873Y-52662564D01*
X149528560Y-53005999D01*
X149528560Y-53656001D01*
X149596873Y-53999436D01*
X149791414Y-54290586D01*
X149889313Y-54356000D01*
X149791414Y-54421414D01*
X149596873Y-54712564D01*
X149528560Y-55055999D01*
X149528560Y-55706001D01*
X149596873Y-56049436D01*
X149791414Y-56340586D01*
X150082564Y-56535127D01*
X150425999Y-56603440D01*
X151109862Y-56603440D01*
X151372569Y-56866148D01*
X151522569Y-57228280D01*
X151813720Y-57519431D01*
X152194126Y-57677000D01*
X152605874Y-57677000D01*
X152986280Y-57519431D01*
X153277431Y-57228280D01*
X153435000Y-56847874D01*
X153435000Y-56436126D01*
X153277431Y-56055720D01*
X152986280Y-55764569D01*
X152624148Y-55614569D01*
X152223440Y-55213862D01*
X152223440Y-55055999D01*
X152155127Y-54712564D01*
X151960586Y-54421414D01*
X151862687Y-54356000D01*
X151960586Y-54290586D01*
X152060537Y-54141000D01*
X153704560Y-54141000D01*
X153704560Y-54568000D01*
X153753843Y-54815765D01*
X153894191Y-55025809D01*
X153942001Y-55057755D01*
X153942000Y-64769227D01*
X153926132Y-64849000D01*
X153942000Y-64928773D01*
X153988997Y-65165045D01*
X154146000Y-65400017D01*
X154146000Y-65483874D01*
X154303569Y-65864280D01*
X154594720Y-66155431D01*
X154718299Y-66206619D01*
X154400362Y-66524556D01*
X154121000Y-67198996D01*
X154121000Y-67929004D01*
X154400362Y-68603444D01*
X154916556Y-69119638D01*
X155590996Y-69399000D01*
X156321004Y-69399000D01*
X156995444Y-69119638D01*
X157511638Y-68603444D01*
X157606677Y-68374000D01*
X162478488Y-68374000D01*
X166815112Y-72710625D01*
X166767000Y-72826778D01*
X166767000Y-73477222D01*
X167015914Y-74078153D01*
X167475847Y-74538086D01*
X167592001Y-74586198D01*
X167592000Y-76797802D01*
X167475847Y-76845914D01*
X167015914Y-77305847D01*
X166767000Y-77906778D01*
X166767000Y-78359000D01*
X162417000Y-78359000D01*
X162417000Y-77906778D01*
X162168086Y-77305847D01*
X161708153Y-76845914D01*
X161107222Y-76597000D01*
X160456778Y-76597000D01*
X159855847Y-76845914D01*
X159395914Y-77305847D01*
X159147000Y-77906778D01*
X159147000Y-78359000D01*
X158954463Y-78359000D01*
X158684855Y-78178854D01*
X158353783Y-78113000D01*
X158242000Y-78090765D01*
X158130217Y-78113000D01*
X147693000Y-78113000D01*
X147693000Y-74993431D01*
X148133000Y-74993431D01*
X148133000Y-75882569D01*
X148473259Y-76704026D01*
X149101974Y-77332741D01*
X149923431Y-77673000D01*
X150812569Y-77673000D01*
X151634026Y-77332741D01*
X152262741Y-76704026D01*
X152603000Y-75882569D01*
X152603000Y-74993431D01*
X152262741Y-74171974D01*
X151634026Y-73543259D01*
X150812569Y-73203000D01*
X149923431Y-73203000D01*
X149101974Y-73543259D01*
X148473259Y-74171974D01*
X148133000Y-74993431D01*
X147693000Y-74993431D01*
X147693000Y-72826778D01*
X159147000Y-72826778D01*
X159147000Y-73477222D01*
X159395914Y-74078153D01*
X159855847Y-74538086D01*
X160456778Y-74787000D01*
X161107222Y-74787000D01*
X161708153Y-74538086D01*
X162168086Y-74078153D01*
X162417000Y-73477222D01*
X162417000Y-72826778D01*
X162168086Y-72225847D01*
X161708153Y-71765914D01*
X161107222Y-71517000D01*
X160456778Y-71517000D01*
X159855847Y-71765914D01*
X159395914Y-72225847D01*
X159147000Y-72826778D01*
X147693000Y-72826778D01*
X147693000Y-34339585D01*
X147875414Y-34612586D01*
X147875414Y-34612586D01*
G37*
X147875414Y-34612586D02*
X148166564Y-34807127D01*
X148509999Y-34875440D01*
X149036928Y-34875440D01*
X150107252Y-35945765D01*
X150038023Y-35992023D01*
X149992834Y-36059653D01*
X149343656Y-36708832D01*
X149276023Y-36754023D01*
X149096997Y-37021955D01*
X149073318Y-37141000D01*
X149034132Y-37338000D01*
X149050000Y-37417773D01*
X149050000Y-38462940D01*
X148775414Y-38646414D01*
X148580873Y-38937564D01*
X148512560Y-39280999D01*
X148512560Y-39931001D01*
X148580873Y-40274436D01*
X148775414Y-40565586D01*
X148873313Y-40631000D01*
X148775414Y-40696414D01*
X148580873Y-40987564D01*
X148512560Y-41330999D01*
X148512560Y-41981001D01*
X148580873Y-42324436D01*
X148775414Y-42615586D01*
X149050001Y-42799060D01*
X149050001Y-42870041D01*
X148990493Y-42894690D01*
X148558690Y-43326493D01*
X148325000Y-43890670D01*
X148325000Y-44501330D01*
X148558690Y-45065507D01*
X148727908Y-45234725D01*
X148712235Y-45237843D01*
X148502191Y-45378191D01*
X148361843Y-45588235D01*
X148312560Y-45836000D01*
X148312560Y-47636000D01*
X148361843Y-47883765D01*
X148502191Y-48093809D01*
X148712235Y-48234157D01*
X148960000Y-48283440D01*
X150760000Y-48283440D01*
X151007765Y-48234157D01*
X151217809Y-48093809D01*
X151358157Y-47883765D01*
X151407440Y-47636000D01*
X151407440Y-47502704D01*
X151426046Y-47499003D01*
X151693977Y-47319977D01*
X151739168Y-47252344D01*
X152408347Y-46583166D01*
X152475977Y-46537977D01*
X152655003Y-46270046D01*
X152702000Y-46033774D01*
X152717868Y-45954001D01*
X152702000Y-45874228D01*
X152702000Y-40213512D01*
X154413000Y-38502513D01*
X154413000Y-38572884D01*
X154570569Y-38953290D01*
X154607993Y-38990714D01*
X154607992Y-41988281D01*
X154540561Y-42055712D01*
X154382992Y-42436118D01*
X154382992Y-42847866D01*
X154540561Y-43228272D01*
X154661388Y-43349099D01*
X154235656Y-43774832D01*
X154168023Y-43820023D01*
X153988997Y-44087955D01*
X153951638Y-44275773D01*
X153926132Y-44404000D01*
X153942000Y-44483773D01*
X153942001Y-52178245D01*
X153894191Y-52210191D01*
X153753843Y-52420235D01*
X153733800Y-52521000D01*
X152060537Y-52521000D01*
X151960586Y-52371414D01*
X151669436Y-52176873D01*
X151326001Y-52108560D01*
X150425999Y-52108560D01*
X150082564Y-52176873D01*
X149791414Y-52371414D01*
X149596873Y-52662564D01*
X149528560Y-53005999D01*
X149528560Y-53656001D01*
X149596873Y-53999436D01*
X149791414Y-54290586D01*
X149889313Y-54356000D01*
X149791414Y-54421414D01*
X149596873Y-54712564D01*
X149528560Y-55055999D01*
X149528560Y-55706001D01*
X149596873Y-56049436D01*
X149791414Y-56340586D01*
X150082564Y-56535127D01*
X150425999Y-56603440D01*
X151109862Y-56603440D01*
X151372569Y-56866148D01*
X151522569Y-57228280D01*
X151813720Y-57519431D01*
X152194126Y-57677000D01*
X152605874Y-57677000D01*
X152986280Y-57519431D01*
X153277431Y-57228280D01*
X153435000Y-56847874D01*
X153435000Y-56436126D01*
X153277431Y-56055720D01*
X152986280Y-55764569D01*
X152624148Y-55614569D01*
X152223440Y-55213862D01*
X152223440Y-55055999D01*
X152155127Y-54712564D01*
X151960586Y-54421414D01*
X151862687Y-54356000D01*
X151960586Y-54290586D01*
X152060537Y-54141000D01*
X153704560Y-54141000D01*
X153704560Y-54568000D01*
X153753843Y-54815765D01*
X153894191Y-55025809D01*
X153942001Y-55057755D01*
X153942000Y-64769227D01*
X153926132Y-64849000D01*
X153942000Y-64928773D01*
X153988997Y-65165045D01*
X154146000Y-65400017D01*
X154146000Y-65483874D01*
X154303569Y-65864280D01*
X154594720Y-66155431D01*
X154718299Y-66206619D01*
X154400362Y-66524556D01*
X154121000Y-67198996D01*
X154121000Y-67929004D01*
X154400362Y-68603444D01*
X154916556Y-69119638D01*
X155590996Y-69399000D01*
X156321004Y-69399000D01*
X156995444Y-69119638D01*
X157511638Y-68603444D01*
X157606677Y-68374000D01*
X162478488Y-68374000D01*
X166815112Y-72710625D01*
X166767000Y-72826778D01*
X166767000Y-73477222D01*
X167015914Y-74078153D01*
X167475847Y-74538086D01*
X167592001Y-74586198D01*
X167592000Y-76797802D01*
X167475847Y-76845914D01*
X167015914Y-77305847D01*
X166767000Y-77906778D01*
X166767000Y-78359000D01*
X162417000Y-78359000D01*
X162417000Y-77906778D01*
X162168086Y-77305847D01*
X161708153Y-76845914D01*
X161107222Y-76597000D01*
X160456778Y-76597000D01*
X159855847Y-76845914D01*
X159395914Y-77305847D01*
X159147000Y-77906778D01*
X159147000Y-78359000D01*
X158954463Y-78359000D01*
X158684855Y-78178854D01*
X158353783Y-78113000D01*
X158242000Y-78090765D01*
X158130217Y-78113000D01*
X147693000Y-78113000D01*
X147693000Y-74993431D01*
X148133000Y-74993431D01*
X148133000Y-75882569D01*
X148473259Y-76704026D01*
X149101974Y-77332741D01*
X149923431Y-77673000D01*
X150812569Y-77673000D01*
X151634026Y-77332741D01*
X152262741Y-76704026D01*
X152603000Y-75882569D01*
X152603000Y-74993431D01*
X152262741Y-74171974D01*
X151634026Y-73543259D01*
X150812569Y-73203000D01*
X149923431Y-73203000D01*
X149101974Y-73543259D01*
X148473259Y-74171974D01*
X148133000Y-74993431D01*
X147693000Y-74993431D01*
X147693000Y-72826778D01*
X159147000Y-72826778D01*
X159147000Y-73477222D01*
X159395914Y-74078153D01*
X159855847Y-74538086D01*
X160456778Y-74787000D01*
X161107222Y-74787000D01*
X161708153Y-74538086D01*
X162168086Y-74078153D01*
X162417000Y-73477222D01*
X162417000Y-72826778D01*
X162168086Y-72225847D01*
X161708153Y-71765914D01*
X161107222Y-71517000D01*
X160456778Y-71517000D01*
X159855847Y-71765914D01*
X159395914Y-72225847D01*
X159147000Y-72826778D01*
X147693000Y-72826778D01*
X147693000Y-34339585D01*
X147875414Y-34612586D01*
G36*
X159718001Y-50373513D02*
X159718001Y-50663940D01*
X159443414Y-50847414D01*
X159248873Y-51138564D01*
X159180560Y-51481999D01*
X159180560Y-52132001D01*
X159248873Y-52475436D01*
X159443414Y-52766586D01*
X159444597Y-52767377D01*
X159289673Y-52922302D01*
X159193000Y-53155691D01*
X159193000Y-53571250D01*
X159351750Y-53730000D01*
X160401000Y-53730000D01*
X160401000Y-53710000D01*
X160655000Y-53710000D01*
X160655000Y-53730000D01*
X161704250Y-53730000D01*
X161863000Y-53571250D01*
X161863000Y-53155691D01*
X161766327Y-52922302D01*
X161611403Y-52767377D01*
X161612586Y-52766586D01*
X161706523Y-52626000D01*
X166529795Y-52626000D01*
X166617795Y-52838450D01*
X167125550Y-53346205D01*
X167788963Y-53621000D01*
X168507037Y-53621000D01*
X169170450Y-53346205D01*
X169470001Y-53046654D01*
X169470001Y-57222346D01*
X169297450Y-57049795D01*
X168634037Y-56775000D01*
X167915963Y-56775000D01*
X167252550Y-57049795D01*
X166744795Y-57557550D01*
X166687861Y-57695000D01*
X156724178Y-57695000D01*
X156749440Y-57568000D01*
X156749440Y-55668000D01*
X156700157Y-55420235D01*
X156563316Y-55215440D01*
X157052000Y-55215440D01*
X157299765Y-55166157D01*
X157509809Y-55025809D01*
X157650157Y-54815765D01*
X157699440Y-54568000D01*
X157699440Y-54142750D01*
X159193000Y-54142750D01*
X159193000Y-54558309D01*
X159289673Y-54791698D01*
X159468301Y-54970327D01*
X159701690Y-55067000D01*
X160242250Y-55067000D01*
X160401000Y-54908250D01*
X160401000Y-53984000D01*
X160655000Y-53984000D01*
X160655000Y-54908250D01*
X160813750Y-55067000D01*
X161354310Y-55067000D01*
X161587699Y-54970327D01*
X161766327Y-54791698D01*
X161863000Y-54558309D01*
X161863000Y-54142750D01*
X161704250Y-53984000D01*
X160655000Y-53984000D01*
X160401000Y-53984000D01*
X159351750Y-53984000D01*
X159193000Y-54142750D01*
X157699440Y-54142750D01*
X157699440Y-52668000D01*
X157650157Y-52420235D01*
X157509809Y-52210191D01*
X157448241Y-52169052D01*
X157415003Y-52001954D01*
X157235977Y-51734023D01*
X157168347Y-51688834D01*
X156337000Y-50857488D01*
X156337000Y-50162396D01*
X156667138Y-50492534D01*
X157194561Y-50711000D01*
X157765439Y-50711000D01*
X158292862Y-50492534D01*
X158696534Y-50088862D01*
X158697719Y-50086000D01*
X159430488Y-50086000D01*
X159718001Y-50373513D01*
X159718001Y-50373513D01*
G37*
X159718001Y-50373513D02*
X159718001Y-50663940D01*
X159443414Y-50847414D01*
X159248873Y-51138564D01*
X159180560Y-51481999D01*
X159180560Y-52132001D01*
X159248873Y-52475436D01*
X159443414Y-52766586D01*
X159444597Y-52767377D01*
X159289673Y-52922302D01*
X159193000Y-53155691D01*
X159193000Y-53571250D01*
X159351750Y-53730000D01*
X160401000Y-53730000D01*
X160401000Y-53710000D01*
X160655000Y-53710000D01*
X160655000Y-53730000D01*
X161704250Y-53730000D01*
X161863000Y-53571250D01*
X161863000Y-53155691D01*
X161766327Y-52922302D01*
X161611403Y-52767377D01*
X161612586Y-52766586D01*
X161706523Y-52626000D01*
X166529795Y-52626000D01*
X166617795Y-52838450D01*
X167125550Y-53346205D01*
X167788963Y-53621000D01*
X168507037Y-53621000D01*
X169170450Y-53346205D01*
X169470001Y-53046654D01*
X169470001Y-57222346D01*
X169297450Y-57049795D01*
X168634037Y-56775000D01*
X167915963Y-56775000D01*
X167252550Y-57049795D01*
X166744795Y-57557550D01*
X166687861Y-57695000D01*
X156724178Y-57695000D01*
X156749440Y-57568000D01*
X156749440Y-55668000D01*
X156700157Y-55420235D01*
X156563316Y-55215440D01*
X157052000Y-55215440D01*
X157299765Y-55166157D01*
X157509809Y-55025809D01*
X157650157Y-54815765D01*
X157699440Y-54568000D01*
X157699440Y-54142750D01*
X159193000Y-54142750D01*
X159193000Y-54558309D01*
X159289673Y-54791698D01*
X159468301Y-54970327D01*
X159701690Y-55067000D01*
X160242250Y-55067000D01*
X160401000Y-54908250D01*
X160401000Y-53984000D01*
X160655000Y-53984000D01*
X160655000Y-54908250D01*
X160813750Y-55067000D01*
X161354310Y-55067000D01*
X161587699Y-54970327D01*
X161766327Y-54791698D01*
X161863000Y-54558309D01*
X161863000Y-54142750D01*
X161704250Y-53984000D01*
X160655000Y-53984000D01*
X160401000Y-53984000D01*
X159351750Y-53984000D01*
X159193000Y-54142750D01*
X157699440Y-54142750D01*
X157699440Y-52668000D01*
X157650157Y-52420235D01*
X157509809Y-52210191D01*
X157448241Y-52169052D01*
X157415003Y-52001954D01*
X157235977Y-51734023D01*
X157168347Y-51688834D01*
X156337000Y-50857488D01*
X156337000Y-50162396D01*
X156667138Y-50492534D01*
X157194561Y-50711000D01*
X157765439Y-50711000D01*
X158292862Y-50492534D01*
X158696534Y-50088862D01*
X158697719Y-50086000D01*
X159430488Y-50086000D01*
X159718001Y-50373513D01*
G36*
X159020000Y-24058778D02*
X159020000Y-24541233D01*
X158492026Y-24013259D01*
X157670569Y-23673000D01*
X156781431Y-23673000D01*
X155959974Y-24013259D01*
X155331259Y-24641974D01*
X154991000Y-25463431D01*
X154991000Y-25708975D01*
X154975698Y-25693673D01*
X154742309Y-25597000D01*
X153701750Y-25597000D01*
X153543000Y-25755750D01*
X153543000Y-27305000D01*
X155092250Y-27305000D01*
X155251000Y-27146250D01*
X155251000Y-26980264D01*
X155331259Y-27174026D01*
X155959974Y-27802741D01*
X156781431Y-28143000D01*
X157670569Y-28143000D01*
X158492026Y-27802741D01*
X159120741Y-27174026D01*
X159461000Y-26352569D01*
X159461000Y-25502239D01*
X159728847Y-25770086D01*
X160329778Y-26019000D01*
X160980222Y-26019000D01*
X161581153Y-25770086D01*
X162041086Y-25310153D01*
X162290000Y-24709222D01*
X162290000Y-24058778D01*
X162087541Y-23570000D01*
X166842459Y-23570000D01*
X166640000Y-24058778D01*
X166640000Y-24709222D01*
X166688112Y-24825375D01*
X165888285Y-25625203D01*
X165631444Y-25368362D01*
X164957004Y-25089000D01*
X164226996Y-25089000D01*
X163552556Y-25368362D01*
X163036362Y-25884556D01*
X162941323Y-26114000D01*
X160607768Y-26114000D01*
X160527999Y-26098133D01*
X160448230Y-26114000D01*
X160448226Y-26114000D01*
X160211954Y-26160997D01*
X159944023Y-26340023D01*
X159898834Y-26407653D01*
X154432656Y-31873832D01*
X154365023Y-31919023D01*
X154185997Y-32186955D01*
X154173681Y-32248873D01*
X154157298Y-32331237D01*
X153989414Y-32443414D01*
X153924000Y-32541313D01*
X153858586Y-32443414D01*
X153567436Y-32248873D01*
X153224001Y-32180560D01*
X152573999Y-32180560D01*
X152230564Y-32248873D01*
X151939414Y-32443414D01*
X151892000Y-32514374D01*
X151844586Y-32443414D01*
X151553436Y-32248873D01*
X151210001Y-32180560D01*
X150559999Y-32180560D01*
X150216564Y-32248873D01*
X149925414Y-32443414D01*
X149860000Y-32541313D01*
X149794586Y-32443414D01*
X149503436Y-32248873D01*
X149160001Y-32180560D01*
X148509999Y-32180560D01*
X148166564Y-32248873D01*
X147875414Y-32443414D01*
X147693000Y-32716415D01*
X147693000Y-31353783D01*
X147715235Y-31242000D01*
X147627146Y-30799145D01*
X147447000Y-30529537D01*
X147447000Y-27066996D01*
X148081000Y-27066996D01*
X148081000Y-27797004D01*
X148360362Y-28471444D01*
X148876556Y-28987638D01*
X149550996Y-29267000D01*
X150281004Y-29267000D01*
X150955444Y-28987638D01*
X151471638Y-28471444D01*
X151581000Y-28207421D01*
X151581000Y-28758310D01*
X151677673Y-28991699D01*
X151856302Y-29170327D01*
X152089691Y-29267000D01*
X153130250Y-29267000D01*
X153289000Y-29108250D01*
X153289000Y-27559000D01*
X153543000Y-27559000D01*
X153543000Y-29108250D01*
X153701750Y-29267000D01*
X154742309Y-29267000D01*
X154975698Y-29170327D01*
X155154327Y-28991699D01*
X155251000Y-28758310D01*
X155251000Y-27717750D01*
X155092250Y-27559000D01*
X153543000Y-27559000D01*
X153289000Y-27559000D01*
X153269000Y-27559000D01*
X153269000Y-27305000D01*
X153289000Y-27305000D01*
X153289000Y-25755750D01*
X153130250Y-25597000D01*
X152089691Y-25597000D01*
X151856302Y-25693673D01*
X151677673Y-25872301D01*
X151581000Y-26105690D01*
X151581000Y-26656579D01*
X151471638Y-26392556D01*
X150955444Y-25876362D01*
X150281004Y-25597000D01*
X149550996Y-25597000D01*
X148876556Y-25876362D01*
X148360362Y-26392556D01*
X148081000Y-27066996D01*
X147447000Y-27066996D01*
X147447000Y-23570000D01*
X159222459Y-23570000D01*
X159020000Y-24058778D01*
X159020000Y-24058778D01*
G37*
X159020000Y-24058778D02*
X159020000Y-24541233D01*
X158492026Y-24013259D01*
X157670569Y-23673000D01*
X156781431Y-23673000D01*
X155959974Y-24013259D01*
X155331259Y-24641974D01*
X154991000Y-25463431D01*
X154991000Y-25708975D01*
X154975698Y-25693673D01*
X154742309Y-25597000D01*
X153701750Y-25597000D01*
X153543000Y-25755750D01*
X153543000Y-27305000D01*
X155092250Y-27305000D01*
X155251000Y-27146250D01*
X155251000Y-26980264D01*
X155331259Y-27174026D01*
X155959974Y-27802741D01*
X156781431Y-28143000D01*
X157670569Y-28143000D01*
X158492026Y-27802741D01*
X159120741Y-27174026D01*
X159461000Y-26352569D01*
X159461000Y-25502239D01*
X159728847Y-25770086D01*
X160329778Y-26019000D01*
X160980222Y-26019000D01*
X161581153Y-25770086D01*
X162041086Y-25310153D01*
X162290000Y-24709222D01*
X162290000Y-24058778D01*
X162087541Y-23570000D01*
X166842459Y-23570000D01*
X166640000Y-24058778D01*
X166640000Y-24709222D01*
X166688112Y-24825375D01*
X165888285Y-25625203D01*
X165631444Y-25368362D01*
X164957004Y-25089000D01*
X164226996Y-25089000D01*
X163552556Y-25368362D01*
X163036362Y-25884556D01*
X162941323Y-26114000D01*
X160607768Y-26114000D01*
X160527999Y-26098133D01*
X160448230Y-26114000D01*
X160448226Y-26114000D01*
X160211954Y-26160997D01*
X159944023Y-26340023D01*
X159898834Y-26407653D01*
X154432656Y-31873832D01*
X154365023Y-31919023D01*
X154185997Y-32186955D01*
X154173681Y-32248873D01*
X154157298Y-32331237D01*
X153989414Y-32443414D01*
X153924000Y-32541313D01*
X153858586Y-32443414D01*
X153567436Y-32248873D01*
X153224001Y-32180560D01*
X152573999Y-32180560D01*
X152230564Y-32248873D01*
X151939414Y-32443414D01*
X151892000Y-32514374D01*
X151844586Y-32443414D01*
X151553436Y-32248873D01*
X151210001Y-32180560D01*
X150559999Y-32180560D01*
X150216564Y-32248873D01*
X149925414Y-32443414D01*
X149860000Y-32541313D01*
X149794586Y-32443414D01*
X149503436Y-32248873D01*
X149160001Y-32180560D01*
X148509999Y-32180560D01*
X148166564Y-32248873D01*
X147875414Y-32443414D01*
X147693000Y-32716415D01*
X147693000Y-31353783D01*
X147715235Y-31242000D01*
X147627146Y-30799145D01*
X147447000Y-30529537D01*
X147447000Y-27066996D01*
X148081000Y-27066996D01*
X148081000Y-27797004D01*
X148360362Y-28471444D01*
X148876556Y-28987638D01*
X149550996Y-29267000D01*
X150281004Y-29267000D01*
X150955444Y-28987638D01*
X151471638Y-28471444D01*
X151581000Y-28207421D01*
X151581000Y-28758310D01*
X151677673Y-28991699D01*
X151856302Y-29170327D01*
X152089691Y-29267000D01*
X153130250Y-29267000D01*
X153289000Y-29108250D01*
X153289000Y-27559000D01*
X153543000Y-27559000D01*
X153543000Y-29108250D01*
X153701750Y-29267000D01*
X154742309Y-29267000D01*
X154975698Y-29170327D01*
X155154327Y-28991699D01*
X155251000Y-28758310D01*
X155251000Y-27717750D01*
X155092250Y-27559000D01*
X153543000Y-27559000D01*
X153289000Y-27559000D01*
X153269000Y-27559000D01*
X153269000Y-27305000D01*
X153289000Y-27305000D01*
X153289000Y-25755750D01*
X153130250Y-25597000D01*
X152089691Y-25597000D01*
X151856302Y-25693673D01*
X151677673Y-25872301D01*
X151581000Y-26105690D01*
X151581000Y-26656579D01*
X151471638Y-26392556D01*
X150955444Y-25876362D01*
X150281004Y-25597000D01*
X149550996Y-25597000D01*
X148876556Y-25876362D01*
X148360362Y-26392556D01*
X148081000Y-27066996D01*
X147447000Y-27066996D01*
X147447000Y-23570000D01*
X159222459Y-23570000D01*
X159020000Y-24058778D01*
G36*
X169470000Y-82114345D02*
X169297450Y-81941795D01*
X168634037Y-81667000D01*
X167915963Y-81667000D01*
X167252550Y-81941795D01*
X166744795Y-82449550D01*
X166656795Y-82662000D01*
X164257769Y-82662000D01*
X164177999Y-82646133D01*
X164098230Y-82662000D01*
X164098226Y-82662000D01*
X163861954Y-82708997D01*
X163594023Y-82888023D01*
X163548834Y-82955653D01*
X160241656Y-86262832D01*
X160174023Y-86308023D01*
X160095321Y-86425809D01*
X158243168Y-84573656D01*
X158197977Y-84506023D01*
X157930046Y-84326997D01*
X157911440Y-84323296D01*
X157911440Y-84290000D01*
X157862157Y-84042235D01*
X157721809Y-83832191D01*
X157511765Y-83691843D01*
X157264000Y-83642560D01*
X155664000Y-83642560D01*
X155416235Y-83691843D01*
X155206191Y-83832191D01*
X155065843Y-84042235D01*
X155045899Y-84142503D01*
X154776862Y-83873466D01*
X154249439Y-83655000D01*
X153678561Y-83655000D01*
X153151138Y-83873466D01*
X152747466Y-84277138D01*
X152529000Y-84804561D01*
X152529000Y-85375439D01*
X152747466Y-85902862D01*
X153151138Y-86306534D01*
X153678561Y-86525000D01*
X154249439Y-86525000D01*
X154776862Y-86306534D01*
X155045899Y-86037497D01*
X155065843Y-86137765D01*
X155206191Y-86347809D01*
X155416235Y-86488157D01*
X155664000Y-86537440D01*
X157264000Y-86537440D01*
X157511765Y-86488157D01*
X157721809Y-86347809D01*
X157723607Y-86345119D01*
X159805537Y-88427050D01*
X159560235Y-88475843D01*
X159350191Y-88616191D01*
X159209843Y-88826235D01*
X159160560Y-89074000D01*
X159160560Y-89562684D01*
X158955765Y-89425843D01*
X158708000Y-89376560D01*
X156808000Y-89376560D01*
X156560235Y-89425843D01*
X156350191Y-89566191D01*
X156209843Y-89776235D01*
X156160560Y-90024000D01*
X156160560Y-90824000D01*
X156209843Y-91071765D01*
X156279811Y-91176478D01*
X156094569Y-91361720D01*
X155937000Y-91742126D01*
X155937000Y-92153874D01*
X156094569Y-92534280D01*
X156385720Y-92825431D01*
X156766126Y-92983000D01*
X157177874Y-92983000D01*
X157558280Y-92825431D01*
X157849431Y-92534280D01*
X157999431Y-92172148D01*
X158322156Y-91849423D01*
X158396049Y-91800049D01*
X158591652Y-91507310D01*
X158598787Y-91471440D01*
X158708000Y-91471440D01*
X158955765Y-91422157D01*
X159160560Y-91285316D01*
X159160560Y-91774000D01*
X159209843Y-92021765D01*
X159350191Y-92231809D01*
X159560235Y-92372157D01*
X159808000Y-92421440D01*
X159981001Y-92421440D01*
X159981000Y-93303463D01*
X159831414Y-93403414D01*
X159766000Y-93501313D01*
X159700586Y-93403414D01*
X159409436Y-93208873D01*
X159066001Y-93140560D01*
X158415999Y-93140560D01*
X158072564Y-93208873D01*
X157781414Y-93403414D01*
X157734000Y-93474374D01*
X157686586Y-93403414D01*
X157395436Y-93208873D01*
X157052001Y-93140560D01*
X156401999Y-93140560D01*
X156058564Y-93208873D01*
X155767414Y-93403414D01*
X155702000Y-93501313D01*
X155636586Y-93403414D01*
X155345436Y-93208873D01*
X155002001Y-93140560D01*
X154351999Y-93140560D01*
X154008564Y-93208873D01*
X153717414Y-93403414D01*
X153539334Y-93669929D01*
X153447638Y-93448556D01*
X152931444Y-92932362D01*
X152257004Y-92653000D01*
X151526996Y-92653000D01*
X150852556Y-92932362D01*
X150336362Y-93448556D01*
X150057000Y-94122996D01*
X150057000Y-94853004D01*
X150336362Y-95527444D01*
X150852556Y-96043638D01*
X151526996Y-96323000D01*
X152257004Y-96323000D01*
X152931444Y-96043638D01*
X153447638Y-95527444D01*
X153539334Y-95306071D01*
X153717414Y-95572586D01*
X154008564Y-95767127D01*
X154351999Y-95835440D01*
X155002001Y-95835440D01*
X155345436Y-95767127D01*
X155636586Y-95572586D01*
X155702000Y-95474687D01*
X155767414Y-95572586D01*
X156058564Y-95767127D01*
X156401999Y-95835440D01*
X157052001Y-95835440D01*
X157395436Y-95767127D01*
X157686586Y-95572586D01*
X157734000Y-95501626D01*
X157781414Y-95572586D01*
X158072564Y-95767127D01*
X158415999Y-95835440D01*
X159066001Y-95835440D01*
X159409436Y-95767127D01*
X159700586Y-95572586D01*
X159766000Y-95474687D01*
X159831414Y-95572586D01*
X160122564Y-95767127D01*
X160465999Y-95835440D01*
X161116001Y-95835440D01*
X161459436Y-95767127D01*
X161750586Y-95572586D01*
X161945127Y-95281436D01*
X162013440Y-94938001D01*
X162013440Y-94037999D01*
X161945127Y-93694564D01*
X161750586Y-93403414D01*
X161601000Y-93303463D01*
X161601000Y-92421440D01*
X161708000Y-92421440D01*
X161955765Y-92372157D01*
X162165809Y-92231809D01*
X162306157Y-92021765D01*
X162355440Y-91774000D01*
X162355440Y-91666952D01*
X165438834Y-94750347D01*
X165484023Y-94817977D01*
X165502837Y-94830548D01*
X165636888Y-94964599D01*
X165412489Y-95188999D01*
X162661774Y-95188999D01*
X162582001Y-95173131D01*
X162502228Y-95188999D01*
X162502227Y-95188999D01*
X162265955Y-95235996D01*
X161998024Y-95415022D01*
X161952835Y-95482652D01*
X160992928Y-96442560D01*
X160465999Y-96442560D01*
X160122564Y-96510873D01*
X159831414Y-96705414D01*
X159830623Y-96706597D01*
X159675698Y-96551673D01*
X159442309Y-96455000D01*
X159026750Y-96455000D01*
X158868000Y-96613750D01*
X158868000Y-97663000D01*
X158888000Y-97663000D01*
X158888000Y-97917000D01*
X158868000Y-97917000D01*
X158868000Y-98966250D01*
X159026750Y-99125000D01*
X159442309Y-99125000D01*
X159675698Y-99028327D01*
X159830623Y-98873403D01*
X159831414Y-98874586D01*
X160122564Y-99069127D01*
X160465999Y-99137440D01*
X161116001Y-99137440D01*
X161459436Y-99069127D01*
X161750586Y-98874586D01*
X161945127Y-98583436D01*
X162013440Y-98240001D01*
X162013440Y-97713072D01*
X162917514Y-96808999D01*
X165335000Y-96808999D01*
X165335000Y-96979874D01*
X165492569Y-97360280D01*
X165560000Y-97427711D01*
X165560001Y-104121000D01*
X165389126Y-104121000D01*
X165008720Y-104278569D01*
X164941289Y-104346000D01*
X161934059Y-104346000D01*
X161750586Y-104071414D01*
X161459436Y-103876873D01*
X161116001Y-103808560D01*
X160465999Y-103808560D01*
X160122564Y-103876873D01*
X159831414Y-104071414D01*
X159766000Y-104169313D01*
X159700586Y-104071414D01*
X159409436Y-103876873D01*
X159066001Y-103808560D01*
X158415999Y-103808560D01*
X158072564Y-103876873D01*
X157781414Y-104071414D01*
X157597941Y-104346000D01*
X157352677Y-104346000D01*
X157257638Y-104116556D01*
X156741444Y-103600362D01*
X156067004Y-103321000D01*
X155336996Y-103321000D01*
X154662556Y-103600362D01*
X154146362Y-104116556D01*
X153867000Y-104790996D01*
X153867000Y-105521004D01*
X154146362Y-106195444D01*
X154662556Y-106711638D01*
X155336996Y-106991000D01*
X156067004Y-106991000D01*
X156741444Y-106711638D01*
X157257638Y-106195444D01*
X157352677Y-105966000D01*
X157597941Y-105966000D01*
X157781414Y-106240586D01*
X158072564Y-106435127D01*
X158415999Y-106503440D01*
X158443928Y-106503440D01*
X166815112Y-114874625D01*
X166767000Y-114990778D01*
X166767000Y-115641222D01*
X167015914Y-116242153D01*
X167475847Y-116702086D01*
X167592001Y-116750198D01*
X167592000Y-118961802D01*
X167475847Y-119009914D01*
X167015914Y-119469847D01*
X166767000Y-120070778D01*
X166767000Y-120721222D01*
X167015914Y-121322153D01*
X167475847Y-121782086D01*
X168076778Y-122031000D01*
X168727222Y-122031000D01*
X169328153Y-121782086D01*
X169470000Y-121640239D01*
X169470000Y-122226000D01*
X147699778Y-122226000D01*
X147686265Y-119996291D01*
X147792302Y-120102327D01*
X148025691Y-120199000D01*
X149066250Y-120199000D01*
X149225000Y-120040250D01*
X149225000Y-118491000D01*
X149205000Y-118491000D01*
X149205000Y-118237000D01*
X149225000Y-118237000D01*
X149225000Y-116687750D01*
X149479000Y-116687750D01*
X149479000Y-118237000D01*
X149499000Y-118237000D01*
X149499000Y-118491000D01*
X149479000Y-118491000D01*
X149479000Y-120040250D01*
X149637750Y-120199000D01*
X150678309Y-120199000D01*
X150911698Y-120102327D01*
X151090327Y-119923699D01*
X151187000Y-119690310D01*
X151187000Y-119139421D01*
X151296362Y-119403444D01*
X151812556Y-119919638D01*
X152486996Y-120199000D01*
X153217004Y-120199000D01*
X153526559Y-120070778D01*
X159147000Y-120070778D01*
X159147000Y-120721222D01*
X159395914Y-121322153D01*
X159855847Y-121782086D01*
X160456778Y-122031000D01*
X161107222Y-122031000D01*
X161708153Y-121782086D01*
X162168086Y-121322153D01*
X162417000Y-120721222D01*
X162417000Y-120070778D01*
X162168086Y-119469847D01*
X161708153Y-119009914D01*
X161107222Y-118761000D01*
X160456778Y-118761000D01*
X159855847Y-119009914D01*
X159395914Y-119469847D01*
X159147000Y-120070778D01*
X153526559Y-120070778D01*
X153891444Y-119919638D01*
X154407638Y-119403444D01*
X154687000Y-118729004D01*
X154687000Y-117998996D01*
X154407638Y-117324556D01*
X153891444Y-116808362D01*
X153217004Y-116529000D01*
X152486996Y-116529000D01*
X151812556Y-116808362D01*
X151296362Y-117324556D01*
X151187000Y-117588579D01*
X151187000Y-117037690D01*
X151090327Y-116804301D01*
X150911698Y-116625673D01*
X150678309Y-116529000D01*
X149637750Y-116529000D01*
X149479000Y-116687750D01*
X149225000Y-116687750D01*
X149066250Y-116529000D01*
X148025691Y-116529000D01*
X147792302Y-116625673D01*
X147666599Y-116751375D01*
X147655929Y-114990778D01*
X159147000Y-114990778D01*
X159147000Y-115641222D01*
X159395914Y-116242153D01*
X159855847Y-116702086D01*
X160456778Y-116951000D01*
X161107222Y-116951000D01*
X161708153Y-116702086D01*
X162168086Y-116242153D01*
X162417000Y-115641222D01*
X162417000Y-114990778D01*
X162168086Y-114389847D01*
X161708153Y-113929914D01*
X161107222Y-113681000D01*
X160456778Y-113681000D01*
X159855847Y-113929914D01*
X159395914Y-114389847D01*
X159147000Y-114990778D01*
X147655929Y-114990778D01*
X147593630Y-104711431D01*
X148641000Y-104711431D01*
X148641000Y-105600569D01*
X148981259Y-106422026D01*
X149609974Y-107050741D01*
X150431431Y-107391000D01*
X151320569Y-107391000D01*
X152142026Y-107050741D01*
X152770741Y-106422026D01*
X153111000Y-105600569D01*
X153111000Y-104711431D01*
X152770741Y-103889974D01*
X152142026Y-103261259D01*
X151320569Y-102921000D01*
X150431431Y-102921000D01*
X149609974Y-103261259D01*
X148981259Y-103889974D01*
X148641000Y-104711431D01*
X147593630Y-104711431D01*
X147553414Y-98075750D01*
X157531000Y-98075750D01*
X157531000Y-98616310D01*
X157627673Y-98849699D01*
X157806302Y-99028327D01*
X158039691Y-99125000D01*
X158455250Y-99125000D01*
X158614000Y-98966250D01*
X158614000Y-97917000D01*
X157689750Y-97917000D01*
X157531000Y-98075750D01*
X147553414Y-98075750D01*
X147546675Y-96963690D01*
X157531000Y-96963690D01*
X157531000Y-97504250D01*
X157689750Y-97663000D01*
X158614000Y-97663000D01*
X158614000Y-96613750D01*
X158455250Y-96455000D01*
X158039691Y-96455000D01*
X157806302Y-96551673D01*
X157627673Y-96730301D01*
X157531000Y-96963690D01*
X147546675Y-96963690D01*
X147449263Y-80891000D01*
X158130217Y-80891000D01*
X158242000Y-80913235D01*
X158353783Y-80891000D01*
X158684855Y-80825146D01*
X158954463Y-80645000D01*
X169470000Y-80645000D01*
X169470000Y-82114345D01*
X169470000Y-82114345D01*
G37*
X169470000Y-82114345D02*
X169297450Y-81941795D01*
X168634037Y-81667000D01*
X167915963Y-81667000D01*
X167252550Y-81941795D01*
X166744795Y-82449550D01*
X166656795Y-82662000D01*
X164257769Y-82662000D01*
X164177999Y-82646133D01*
X164098230Y-82662000D01*
X164098226Y-82662000D01*
X163861954Y-82708997D01*
X163594023Y-82888023D01*
X163548834Y-82955653D01*
X160241656Y-86262832D01*
X160174023Y-86308023D01*
X160095321Y-86425809D01*
X158243168Y-84573656D01*
X158197977Y-84506023D01*
X157930046Y-84326997D01*
X157911440Y-84323296D01*
X157911440Y-84290000D01*
X157862157Y-84042235D01*
X157721809Y-83832191D01*
X157511765Y-83691843D01*
X157264000Y-83642560D01*
X155664000Y-83642560D01*
X155416235Y-83691843D01*
X155206191Y-83832191D01*
X155065843Y-84042235D01*
X155045899Y-84142503D01*
X154776862Y-83873466D01*
X154249439Y-83655000D01*
X153678561Y-83655000D01*
X153151138Y-83873466D01*
X152747466Y-84277138D01*
X152529000Y-84804561D01*
X152529000Y-85375439D01*
X152747466Y-85902862D01*
X153151138Y-86306534D01*
X153678561Y-86525000D01*
X154249439Y-86525000D01*
X154776862Y-86306534D01*
X155045899Y-86037497D01*
X155065843Y-86137765D01*
X155206191Y-86347809D01*
X155416235Y-86488157D01*
X155664000Y-86537440D01*
X157264000Y-86537440D01*
X157511765Y-86488157D01*
X157721809Y-86347809D01*
X157723607Y-86345119D01*
X159805537Y-88427050D01*
X159560235Y-88475843D01*
X159350191Y-88616191D01*
X159209843Y-88826235D01*
X159160560Y-89074000D01*
X159160560Y-89562684D01*
X158955765Y-89425843D01*
X158708000Y-89376560D01*
X156808000Y-89376560D01*
X156560235Y-89425843D01*
X156350191Y-89566191D01*
X156209843Y-89776235D01*
X156160560Y-90024000D01*
X156160560Y-90824000D01*
X156209843Y-91071765D01*
X156279811Y-91176478D01*
X156094569Y-91361720D01*
X155937000Y-91742126D01*
X155937000Y-92153874D01*
X156094569Y-92534280D01*
X156385720Y-92825431D01*
X156766126Y-92983000D01*
X157177874Y-92983000D01*
X157558280Y-92825431D01*
X157849431Y-92534280D01*
X157999431Y-92172148D01*
X158322156Y-91849423D01*
X158396049Y-91800049D01*
X158591652Y-91507310D01*
X158598787Y-91471440D01*
X158708000Y-91471440D01*
X158955765Y-91422157D01*
X159160560Y-91285316D01*
X159160560Y-91774000D01*
X159209843Y-92021765D01*
X159350191Y-92231809D01*
X159560235Y-92372157D01*
X159808000Y-92421440D01*
X159981001Y-92421440D01*
X159981000Y-93303463D01*
X159831414Y-93403414D01*
X159766000Y-93501313D01*
X159700586Y-93403414D01*
X159409436Y-93208873D01*
X159066001Y-93140560D01*
X158415999Y-93140560D01*
X158072564Y-93208873D01*
X157781414Y-93403414D01*
X157734000Y-93474374D01*
X157686586Y-93403414D01*
X157395436Y-93208873D01*
X157052001Y-93140560D01*
X156401999Y-93140560D01*
X156058564Y-93208873D01*
X155767414Y-93403414D01*
X155702000Y-93501313D01*
X155636586Y-93403414D01*
X155345436Y-93208873D01*
X155002001Y-93140560D01*
X154351999Y-93140560D01*
X154008564Y-93208873D01*
X153717414Y-93403414D01*
X153539334Y-93669929D01*
X153447638Y-93448556D01*
X152931444Y-92932362D01*
X152257004Y-92653000D01*
X151526996Y-92653000D01*
X150852556Y-92932362D01*
X150336362Y-93448556D01*
X150057000Y-94122996D01*
X150057000Y-94853004D01*
X150336362Y-95527444D01*
X150852556Y-96043638D01*
X151526996Y-96323000D01*
X152257004Y-96323000D01*
X152931444Y-96043638D01*
X153447638Y-95527444D01*
X153539334Y-95306071D01*
X153717414Y-95572586D01*
X154008564Y-95767127D01*
X154351999Y-95835440D01*
X155002001Y-95835440D01*
X155345436Y-95767127D01*
X155636586Y-95572586D01*
X155702000Y-95474687D01*
X155767414Y-95572586D01*
X156058564Y-95767127D01*
X156401999Y-95835440D01*
X157052001Y-95835440D01*
X157395436Y-95767127D01*
X157686586Y-95572586D01*
X157734000Y-95501626D01*
X157781414Y-95572586D01*
X158072564Y-95767127D01*
X158415999Y-95835440D01*
X159066001Y-95835440D01*
X159409436Y-95767127D01*
X159700586Y-95572586D01*
X159766000Y-95474687D01*
X159831414Y-95572586D01*
X160122564Y-95767127D01*
X160465999Y-95835440D01*
X161116001Y-95835440D01*
X161459436Y-95767127D01*
X161750586Y-95572586D01*
X161945127Y-95281436D01*
X162013440Y-94938001D01*
X162013440Y-94037999D01*
X161945127Y-93694564D01*
X161750586Y-93403414D01*
X161601000Y-93303463D01*
X161601000Y-92421440D01*
X161708000Y-92421440D01*
X161955765Y-92372157D01*
X162165809Y-92231809D01*
X162306157Y-92021765D01*
X162355440Y-91774000D01*
X162355440Y-91666952D01*
X165438834Y-94750347D01*
X165484023Y-94817977D01*
X165502837Y-94830548D01*
X165636888Y-94964599D01*
X165412489Y-95188999D01*
X162661774Y-95188999D01*
X162582001Y-95173131D01*
X162502228Y-95188999D01*
X162502227Y-95188999D01*
X162265955Y-95235996D01*
X161998024Y-95415022D01*
X161952835Y-95482652D01*
X160992928Y-96442560D01*
X160465999Y-96442560D01*
X160122564Y-96510873D01*
X159831414Y-96705414D01*
X159830623Y-96706597D01*
X159675698Y-96551673D01*
X159442309Y-96455000D01*
X159026750Y-96455000D01*
X158868000Y-96613750D01*
X158868000Y-97663000D01*
X158888000Y-97663000D01*
X158888000Y-97917000D01*
X158868000Y-97917000D01*
X158868000Y-98966250D01*
X159026750Y-99125000D01*
X159442309Y-99125000D01*
X159675698Y-99028327D01*
X159830623Y-98873403D01*
X159831414Y-98874586D01*
X160122564Y-99069127D01*
X160465999Y-99137440D01*
X161116001Y-99137440D01*
X161459436Y-99069127D01*
X161750586Y-98874586D01*
X161945127Y-98583436D01*
X162013440Y-98240001D01*
X162013440Y-97713072D01*
X162917514Y-96808999D01*
X165335000Y-96808999D01*
X165335000Y-96979874D01*
X165492569Y-97360280D01*
X165560000Y-97427711D01*
X165560001Y-104121000D01*
X165389126Y-104121000D01*
X165008720Y-104278569D01*
X164941289Y-104346000D01*
X161934059Y-104346000D01*
X161750586Y-104071414D01*
X161459436Y-103876873D01*
X161116001Y-103808560D01*
X160465999Y-103808560D01*
X160122564Y-103876873D01*
X159831414Y-104071414D01*
X159766000Y-104169313D01*
X159700586Y-104071414D01*
X159409436Y-103876873D01*
X159066001Y-103808560D01*
X158415999Y-103808560D01*
X158072564Y-103876873D01*
X157781414Y-104071414D01*
X157597941Y-104346000D01*
X157352677Y-104346000D01*
X157257638Y-104116556D01*
X156741444Y-103600362D01*
X156067004Y-103321000D01*
X155336996Y-103321000D01*
X154662556Y-103600362D01*
X154146362Y-104116556D01*
X153867000Y-104790996D01*
X153867000Y-105521004D01*
X154146362Y-106195444D01*
X154662556Y-106711638D01*
X155336996Y-106991000D01*
X156067004Y-106991000D01*
X156741444Y-106711638D01*
X157257638Y-106195444D01*
X157352677Y-105966000D01*
X157597941Y-105966000D01*
X157781414Y-106240586D01*
X158072564Y-106435127D01*
X158415999Y-106503440D01*
X158443928Y-106503440D01*
X166815112Y-114874625D01*
X166767000Y-114990778D01*
X166767000Y-115641222D01*
X167015914Y-116242153D01*
X167475847Y-116702086D01*
X167592001Y-116750198D01*
X167592000Y-118961802D01*
X167475847Y-119009914D01*
X167015914Y-119469847D01*
X166767000Y-120070778D01*
X166767000Y-120721222D01*
X167015914Y-121322153D01*
X167475847Y-121782086D01*
X168076778Y-122031000D01*
X168727222Y-122031000D01*
X169328153Y-121782086D01*
X169470000Y-121640239D01*
X169470000Y-122226000D01*
X147699778Y-122226000D01*
X147686265Y-119996291D01*
X147792302Y-120102327D01*
X148025691Y-120199000D01*
X149066250Y-120199000D01*
X149225000Y-120040250D01*
X149225000Y-118491000D01*
X149205000Y-118491000D01*
X149205000Y-118237000D01*
X149225000Y-118237000D01*
X149225000Y-116687750D01*
X149479000Y-116687750D01*
X149479000Y-118237000D01*
X149499000Y-118237000D01*
X149499000Y-118491000D01*
X149479000Y-118491000D01*
X149479000Y-120040250D01*
X149637750Y-120199000D01*
X150678309Y-120199000D01*
X150911698Y-120102327D01*
X151090327Y-119923699D01*
X151187000Y-119690310D01*
X151187000Y-119139421D01*
X151296362Y-119403444D01*
X151812556Y-119919638D01*
X152486996Y-120199000D01*
X153217004Y-120199000D01*
X153526559Y-120070778D01*
X159147000Y-120070778D01*
X159147000Y-120721222D01*
X159395914Y-121322153D01*
X159855847Y-121782086D01*
X160456778Y-122031000D01*
X161107222Y-122031000D01*
X161708153Y-121782086D01*
X162168086Y-121322153D01*
X162417000Y-120721222D01*
X162417000Y-120070778D01*
X162168086Y-119469847D01*
X161708153Y-119009914D01*
X161107222Y-118761000D01*
X160456778Y-118761000D01*
X159855847Y-119009914D01*
X159395914Y-119469847D01*
X159147000Y-120070778D01*
X153526559Y-120070778D01*
X153891444Y-119919638D01*
X154407638Y-119403444D01*
X154687000Y-118729004D01*
X154687000Y-117998996D01*
X154407638Y-117324556D01*
X153891444Y-116808362D01*
X153217004Y-116529000D01*
X152486996Y-116529000D01*
X151812556Y-116808362D01*
X151296362Y-117324556D01*
X151187000Y-117588579D01*
X151187000Y-117037690D01*
X151090327Y-116804301D01*
X150911698Y-116625673D01*
X150678309Y-116529000D01*
X149637750Y-116529000D01*
X149479000Y-116687750D01*
X149225000Y-116687750D01*
X149066250Y-116529000D01*
X148025691Y-116529000D01*
X147792302Y-116625673D01*
X147666599Y-116751375D01*
X147655929Y-114990778D01*
X159147000Y-114990778D01*
X159147000Y-115641222D01*
X159395914Y-116242153D01*
X159855847Y-116702086D01*
X160456778Y-116951000D01*
X161107222Y-116951000D01*
X161708153Y-116702086D01*
X162168086Y-116242153D01*
X162417000Y-115641222D01*
X162417000Y-114990778D01*
X162168086Y-114389847D01*
X161708153Y-113929914D01*
X161107222Y-113681000D01*
X160456778Y-113681000D01*
X159855847Y-113929914D01*
X159395914Y-114389847D01*
X159147000Y-114990778D01*
X147655929Y-114990778D01*
X147593630Y-104711431D01*
X148641000Y-104711431D01*
X148641000Y-105600569D01*
X148981259Y-106422026D01*
X149609974Y-107050741D01*
X150431431Y-107391000D01*
X151320569Y-107391000D01*
X152142026Y-107050741D01*
X152770741Y-106422026D01*
X153111000Y-105600569D01*
X153111000Y-104711431D01*
X152770741Y-103889974D01*
X152142026Y-103261259D01*
X151320569Y-102921000D01*
X150431431Y-102921000D01*
X149609974Y-103261259D01*
X148981259Y-103889974D01*
X148641000Y-104711431D01*
X147593630Y-104711431D01*
X147553414Y-98075750D01*
X157531000Y-98075750D01*
X157531000Y-98616310D01*
X157627673Y-98849699D01*
X157806302Y-99028327D01*
X158039691Y-99125000D01*
X158455250Y-99125000D01*
X158614000Y-98966250D01*
X158614000Y-97917000D01*
X157689750Y-97917000D01*
X157531000Y-98075750D01*
X147553414Y-98075750D01*
X147546675Y-96963690D01*
X157531000Y-96963690D01*
X157531000Y-97504250D01*
X157689750Y-97663000D01*
X158614000Y-97663000D01*
X158614000Y-96613750D01*
X158455250Y-96455000D01*
X158039691Y-96455000D01*
X157806302Y-96551673D01*
X157627673Y-96730301D01*
X157531000Y-96963690D01*
X147546675Y-96963690D01*
X147449263Y-80891000D01*
X158130217Y-80891000D01*
X158242000Y-80913235D01*
X158353783Y-80891000D01*
X158684855Y-80825146D01*
X158954463Y-80645000D01*
X169470000Y-80645000D01*
X169470000Y-82114345D01*
G36*
X147675748Y-118236998D02*
X147675603Y-118236998D01*
X147675602Y-118236852D01*
X147675748Y-118236998D01*
X147675748Y-118236998D01*
G37*
X147675748Y-118236998D02*
X147675603Y-118236998D01*
X147675602Y-118236852D01*
X147675748Y-118236998D01*
M02*
